<svg width="383" height="145" viewBox="0 0 383 145" fill="none" xmlns="http://www.w3.org/2000/svg">
<mask id="mask0" mask-type="alpha" maskUnits="userSpaceOnUse" x="0" y="0" width="383" height="145">
<rect width="383" height="145" fill="#C4C4C4"/>
</mask>
<g mask="url(#mask0)">
<g style="mix-blend-mode:overlay">
<g style="mix-blend-mode:overlay">
<path style="opacity: 0.5" d="M422.163 110.054C409.676 113.848 397.095 115.37 384.852 111.983C362.688 105.798 348.685 85.8157 335.059 66.4918C333.758 64.6506 332.469 62.816 331.176 61.0035C311.33 33.1391 290.998 20.3259 270.749 22.9239C253.49 25.1466 238.442 38.3298 224.753 63.2446C223.243 65.9815 221.741 68.8105 220.294 71.5491C211.72 87.7404 202.836 104.423 187.544 114.326C175.005 122.451 159.478 124.942 145.779 127.118L98.9307 134.598C79.9895 137.614 56.3365 141.393 36.0963 133.045C27.9363 129.682 18.1325 120.735 21.924 111.473C25.2954 103.133 36.3096 102.338 45.1442 101.66L45.6134 101.622C58.1168 100.564 70.2767 96.9858 81.3609 91.104C92.4451 85.2222 102.224 77.1581 110.11 67.3973C121.087 53.6114 125.611 38.3681 122.487 25.5736C121.397 21.4615 119.444 17.6283 116.759 14.3286C114.073 11.0289 110.717 8.33804 106.912 6.43469C100.681 3.33187 94.1607 2.99245 88.5217 5.41618C79.0622 9.57536 74.7431 19.1648 70.1263 29.3569C66.0305 38.4082 61.7968 47.7628 53.5568 52.8056C41.7307 60.0457 26.5907 55.2076 17.5053 47.6627C7.95011 39.7066 2.13093 28.5671 -3.96657 15.8922L-4.17016 15.4628C-9.65022 4.06355 -15.3098 -7.72017 -24.68 -16.2028C-39.9231 -30.0499 -64.6806 -32.3844 -82.2503 -21.6541C-99.8199 -10.9238 -109.047 12.1651 -103.716 32.0542L-104.209 32.1517C-109.583 12.0875 -100.258 -11.2298 -82.5046 -22.0785C-64.7515 -32.9272 -39.7448 -30.5639 -24.3308 -16.6015C-14.8866 -8.04731 -9.20293 3.78135 -3.71415 15.2093L-3.50099 15.6358C2.55993 28.2591 8.35502 39.3537 17.8391 47.2478C26.766 54.684 41.6673 59.4588 53.2813 52.3459C61.3893 47.3849 65.6072 38.1501 69.6581 29.1229C74.1 19.3184 78.6806 9.17918 88.3976 4.97314C94.1589 2.47043 100.846 2.84281 107.202 6.01224C111.07 7.94947 114.483 10.6867 117.215 14.0425C119.946 17.3983 121.933 21.2962 123.044 25.4779C126.185 38.4341 121.625 53.8346 110.547 67.7348C102.613 77.5295 92.7813 85.6192 81.6419 91.5177C70.5024 97.4162 58.2854 101.002 45.7251 102.059L45.2655 102.094C36.561 102.752 25.7356 103.585 22.4647 111.602C18.8044 120.573 28.385 129.232 36.3665 132.524C56.4724 140.808 80.0018 137.036 98.9268 134.035L145.673 126.596C159.328 124.413 174.803 121.927 187.252 113.881C202.429 104.045 211.28 87.3932 219.83 71.2931C221.286 68.5515 222.788 65.7226 224.295 62.976C238.058 37.8925 253.231 24.6399 270.662 22.3965C291.111 19.769 311.6 32.6497 331.558 60.6784C332.851 62.491 334.14 64.3255 335.441 66.1667C348.968 85.4057 363.002 105.285 384.959 111.438C406.298 117.382 428.713 108.19 449.839 98.2602L450.049 98.7087C440.933 103.035 431.568 107.197 422.163 110.054Z" fill="#E3E2E5"/>
</g>
</g>
<g style="mix-blend-mode:overlay">
<g style="mix-blend-mode:overlay">
<path style="opacity: 0.5" d="M-47.3693 68.7485L-47.723 68.3929C-25.3431 46.4383 3.85996 32.7798 35.0567 29.6761C66.2534 26.5724 97.575 34.2095 123.842 51.3243C128.12 54.0987 132.483 57.2832 136.68 60.3159C151.199 70.8464 166.215 81.7247 183.829 81.6383C195.359 81.5676 206.316 76.6537 216.921 71.891C228.384 66.7585 240.242 61.4169 252.792 62.3C262.802 63.0466 272.016 67.6188 280.913 72.0655C285.453 74.3416 290.135 76.6952 294.901 78.512C319.301 87.8118 349.135 82.8286 369.138 66.0234C389.14 49.2183 399.284 20.6877 394.36 -4.959L394.849 -5.05498C397.277 8.02703 396.173 21.5198 391.651 34.033C387.26 46.5916 379.602 57.753 369.464 66.368C359.218 74.8508 346.897 80.4507 333.768 82.5916C320.667 84.8642 307.196 83.6016 294.744 78.934C289.96 77.1098 285.259 74.7487 280.709 72.469C271.85 68.0371 262.698 63.4462 252.772 62.755C240.349 61.879 228.55 67.1796 217.153 72.2841C206.508 77.0636 195.507 81.9814 183.862 82.0709C166.069 82.1726 150.99 71.2369 136.414 60.662C132.239 57.6274 127.893 54.4818 123.594 51.6777C97.4147 34.6242 66.1973 27.0204 35.108 30.1247C4.01871 33.2289 -25.0788 46.8552 -47.3693 68.7485Z" fill="#E3E2E5"/>
</g>
</g>
</g>
</svg>
