<svg xmlns="http://www.w3.org/2000/svg" viewBox="0 0 37.69 42.24"><path d="M.45,25.65a14.88,14.88,0,0,0,12.72,3.09A14.87,14.87,0,0,0,17.88,26a3.43,3.43,0,0,0,1,.53l6.64,2.33a8.31,8.31,0,0,0-.38,3.73c.5,3.68,3.58,6.88,9.16,9.51a1.34,1.34,0,0,0,1.13-2.42c-4.69-2.21-7.27-4.71-7.64-7.43a5.78,5.78,0,0,1,.44-3,3.19,3.19,0,0,0,1-.41l.2.31a4.58,4.58,0,1,0,3.27-7.23c1.85-3.11,4.26-10-3.51-18.17a1.35,1.35,0,0,0-1.75-.17l-.14.12a1.32,1.32,0,0,0-.05,1.88C33.43,12.11,32.1,17.4,30.71,20a3.23,3.23,0,0,0-1-.59l-7.4-2.6a3.37,3.37,0,0,0-2.63.15c-3.16-1.3-7.49-3.4-8.59-4.82a12.35,12.35,0,0,1-2-10.43A1.34,1.34,0,0,0,7,.25a1.41,1.41,0,0,0-.49.68A14.91,14.91,0,0,0,8.94,13.81c1.53,2,6.13,4.14,8.89,5.31l-1.07,3.06a3.26,3.26,0,0,0-.18,1.47,13.87,13.87,0,0,1-4,2.5A12.41,12.41,0,0,1,2.22,23.66a1.35,1.35,0,0,0-1.67-.09,1.94,1.94,0,0,0-.21.2A1.33,1.33,0,0,0,.45,25.65Z" fill="#fff" opacity="0.49"/></svg>