<svg xmlns="http://www.w3.org/2000/svg" viewBox="0 0 59.48 82.69"><path d="M59.43,55.33c-.11-.47-2.7-11.71-13.92-16.27-2-.83-5.42-1-8.85-.9a5.61,5.61,0,0,0-.78-1.64l-6.57-9.45a13.39,13.39,0,0,0,4.07-4.58c2.86-5.36,1.83-12.54-3-21.36a2.18,2.18,0,1,0-3.82,2.11c4.11,7.43,5.12,13.21,3,17.18A9.46,9.46,0,0,1,26.05,24a5.55,5.55,0,0,0-1.7-.4c0-.2,0-.4,0-.6a7.48,7.48,0,1,0-11.25,6.46C7.7,31.8-2.08,38.63.39,56.91A2.18,2.18,0,0,0,2.55,58.8l.3,0a2.18,2.18,0,0,0,1.87-2.45c-2-14.61,4.84-20.35,9.2-22.5a5.58,5.58,0,0,0,.82,1.77l7.33,10.53a5.53,5.53,0,0,0,3.62,2.32c2.94,4.74,6.68,11.68,6.78,14.61.34,9.76-7.33,15.64-7.4,15.7a2.18,2.18,0,0,0,2.6,3.5c.39-.29,9.59-7.25,9.17-19.35-.15-4.08-4.17-11.36-6.7-15.56l4.34-3a5.55,5.55,0,0,0,1.64-1.78c3.3-.15,6.28,0,7.75.55,9.05,3.68,11.28,13.09,11.3,13.17A2.19,2.19,0,0,0,57.3,58a2,2,0,0,0,.47-.06A2.18,2.18,0,0,0,59.43,55.33Z" fill="#fff"/></svg>