<svg xmlns="http://www.w3.org/2000/svg" xmlns:xlink="http://www.w3.org/1999/xlink" viewBox="0 0 218.49 349.67"><defs><linearGradient id="a" x1="96.67" y1="76.17" x2="96.67" y2="337.7" gradientTransform="matrix(0.98, 0.17, -0.17, 0.98, 34.35, -22.48)" gradientUnits="userSpaceOnUse"><stop offset="0.04" stop-color="#adff40"/><stop offset="1" stop-color="#36d692" stop-opacity="0"/></linearGradient><linearGradient id="b" x1="96.67" y1="19.25" x2="96.67" y2="76.59" gradientTransform="translate(166.2 -58.68) rotate(90)" gradientUnits="userSpaceOnUse"><stop offset="0.1" stop-color="#2eb57b"/><stop offset="0.27" stop-color="#2aad7a"/><stop offset="0.53" stop-color="#1e9978"/><stop offset="0.84" stop-color="#0a7776"/><stop offset="0.89" stop-color="#077175"/></linearGradient><linearGradient id="c" x1="96.67" y1="6.9" x2="96.67" y2="66.03" gradientTransform="matrix(0.98, 0.17, -0.17, 0.98, 34.35, -22.48)" gradientUnits="userSpaceOnUse"><stop offset="0.34" stop-color="#edae00"/><stop offset="0.81" stop-color="#b96e00"/></linearGradient></defs><polygon points="138.03 349.68 0 325.32 104.59 66.03 128.48 70.24 138.03 349.68" opacity="0.59" fill="url(#a)"/><path d="M73.74,41.55c-2,15.3,15.36,35.9,40.37,40.31s48.37-9,51.73-24.07Z" fill="#2fba7f"/><path d="M73.74,41.55c-1.8,14.21,15.77,33.6,40.78,38s48.15-7.8,51.32-21.77Z" fill="#0e7d76"/><path d="M211.28,45.37l-176-31c-6.5,2.54-10.5,6-11.24,10.17-2.71,15.34,38.31,37.1,92,46.57s99.64,3.05,102.35-12.29C219.11,54.56,216.52,50,211.28,45.37Z" fill="#026b61"/><path d="M211.28,45.37l-176-31c-6.5,2.54-10.5,6-11.24,10.17a8.87,8.87,0,0,0,0,2.91c6.32,13,44.89,28.79,93.11,37.3S207,71.56,217.39,61.52a9.3,9.3,0,0,0,1-2.74C219.11,54.56,216.52,50,211.28,45.37Z" fill="#36d692"/><ellipse cx="121.85" cy="37.99" rx="23.04" ry="96.1" transform="translate(63.27 151.39) rotate(-80)" fill="url(#b)"/><path d="M143.58,44.46l-.62.66L164.91,66l1.36.05Z" fill="#36d692"/><path d="M119.12,60.9l3.12-17.69-.89-.16-3.12,17.7Z" fill="#36d692"/><path d="M216,56.16,154.44,39.63l-.24.87L215.55,57A5.43,5.43,0,0,0,216,56.16Z" fill="#36d692"/><path d="M182.22,30c-.6-.23-1.2-.45-1.81-.66l-30.08,4.15.13.89Z" fill="#36d692"/><path d="M27.29,23.69l63.76,5.56.07-.9-64-5.57A7.15,7.15,0,0,0,27.29,23.69Z" fill="#36d692"/><path d="M70.3,49.05l1.29.42L99.7,37.24l-.36-.83Z" fill="#36d692"/><path d="M97.85,23.92l.42-.8L73.18,9.86l-2,0Z" fill="#36d692"/><path d="M70.5,49.11,99.08,36.68l-.36-.83L69.22,48.69Z" fill="#026b61"/><path d="M27.17,23l63.77,5.55.08-.89L27.13,22.05A5.59,5.59,0,0,0,27.17,23Z" fill="#026b61"/><path d="M97.25,24.47l.42-.79L71.49,9.83H69.54Z" fill="#026b61"/><path d="M180.51,29.37l-1.84-.65-29.41,4.06.12.89Z" fill="#026b61"/><path d="M118.4,60.77l3.12-17.69-.89-.16-3.12,17.7.34.06Z" fill="#026b61"/><path d="M216.3,55.44,154.16,38.76l-.24.86,62,16.66A7.39,7.39,0,0,0,216.3,55.44Z" fill="#026b61"/><path d="M144.1,43.86l-.62.65L166.11,66l1.36,0Z" fill="#026b61"/><path d="M124.77,21.42c-17.32-3.06-32.26-.83-34.09,4.95-.06.29-.13.58-.19.88l-.12.89c-.26,6,13,13.26,30.34,16.31s32.27.83,34.09-5c.07-.29.13-.58.19-.87s.09-.6.13-.89C155.38,31.68,142.1,24.48,124.77,21.42Z" fill="#026b61"/><path d="M124.76,21.48c-16.71-2.94-31-1.55-32.6,3.08l-.15.7c0,.24-.07.48-.1.72-.08,4.89,12.87,11.09,29.58,14s31,1.55,32.6-3.07c0-.24.11-.47.15-.71s.07-.48.1-.72C154.43,30.63,141.48,24.43,124.76,21.48Z" fill="#36d692"/><path d="M152.65,34.5v0h0A29.73,29.73,0,0,0,94.11,24.15h0v0a.64.64,0,0,0,0,.07h0c-.46,4.63,11.85,10.59,27.81,13.41s29.57,1.42,30.72-3.09h0A.13.13,0,0,1,152.65,34.5Z" fill="url(#c)"/><ellipse cx="126.01" cy="14" rx="13.35" ry="19.91" transform="translate(90.33 135.66) rotate(-80)" fill="#edae00"/><path d="M125.81,5.92c.12,2.79-3.13,5.19-7.28,5.38s-7.61-1.91-7.74-4.69,3.13-5.19,7.28-5.38S125.68,3.14,125.81,5.92Z" fill="#fb0"/><path d="M133.36,11.11c0,1.09-1.22,2-2.84,2.1s-3-.74-3-1.83,1.23-2,2.84-2.1S133.31,10,133.36,11.11Z" fill="#fb0"/><path d="M151.09,33.3h0a27.52,27.52,0,0,0-16-29.54,27.51,27.51,0,0,1,11,27.45h0v0a.13.13,0,0,1,0,.06h0c-1.17,4.14-13.8,5.11-28.49,2.12A71.62,71.62,0,0,1,98.42,27c3.55,3.55,12.88,7.27,24.22,9.27,14.77,2.6,27.37,1.31,28.43-2.86h0a.13.13,0,0,1,0-.06Z" fill="#c25400" opacity="0.42"/></svg>