<svg width="60" height="60" viewBox="0 0 60 60" fill="none" xmlns="http://www.w3.org/2000/svg">
<path d="M55.5077 45.296C56.768 43.2699 57.7755 41.097 58.5077 38.826L54.2977 35.536C54.4823 34.7709 54.6258 33.9964 54.7277 33.216C54.7277 32.946 54.7977 32.686 54.8277 32.416L59.8277 30.636C59.8976 28.2579 59.6759 25.8802 59.1677 23.556L53.8777 22.746C53.5797 21.7221 53.2122 20.7198 52.7777 19.746L56.2477 15.686C55.1124 13.5966 53.7327 11.6496 52.1377 9.88599L47.1377 11.886C46.3707 11.1687 45.5591 10.5007 44.7077 9.88599L45.7077 4.63599C43.6816 3.37565 41.5088 2.36816 39.2377 1.63599L35.8977 5.80599C35.1362 5.6205 34.365 5.47695 33.5877 5.37599L32.7777 5.27599L31.0077 0.275988C28.6296 0.206142 26.2519 0.427795 23.9277 0.935992L23.1177 6.21599C22.0952 6.52193 21.0931 6.89268 20.1177 7.32599L16.0577 3.84599C13.9674 4.98368 12.0202 6.3668 10.2577 7.96599L12.2077 12.966C11.49 13.7326 10.8219 14.5442 10.2077 15.396L4.95772 14.396C3.69739 16.4221 2.68989 18.595 1.95772 20.866L6.1277 24.206C5.9477 24.956 5.7977 25.726 5.6877 26.516C5.6877 26.786 5.62771 27.046 5.59771 27.326L0.597705 29.096C0.532798 31.4739 0.754396 33.851 1.25771 36.176L6.53771 36.986C6.84483 38.0068 7.21214 39.0086 7.63771 39.986L4.16771 43.986C5.30285 46.081 6.68613 48.0317 8.28771 49.796L13.2877 47.846C14.0501 48.5685 14.8621 49.2368 15.7177 49.846L14.7177 55.096C16.7403 56.3563 18.9099 57.3638 21.1777 58.096L24.5277 53.926C25.2777 54.106 26.0477 54.256 26.8377 54.366L27.6377 54.456L29.4177 59.456C31.7952 59.5237 34.1723 59.3055 36.4977 58.806L37.3077 53.516C38.328 53.2072 39.3297 52.8399 40.3077 52.416L44.3677 55.886C46.4534 54.7457 48.3969 53.3628 50.1577 51.766L48.2177 46.766C48.9327 45.9935 49.6006 45.1787 50.2177 44.326L55.5077 45.296ZM26.7177 45.296C23.6481 44.597 20.8547 43.0037 18.6905 40.7173C16.5264 38.431 15.0887 35.5544 14.5592 32.4511C14.0296 29.3478 14.4321 26.1571 15.7157 23.2825C16.9992 20.4079 19.1062 17.9784 21.7703 16.3011C24.4344 14.6238 27.5361 13.774 30.6831 13.8592C33.8301 13.9443 36.8812 14.9606 39.4507 16.7796C42.0202 18.5985 43.9927 21.1385 45.1189 24.0783C46.245 27.0181 46.4743 30.2259 45.7777 33.296C44.8449 37.4184 42.3129 41.0016 38.7386 43.2575C35.1644 45.5135 30.8404 46.2575 26.7177 45.326V45.296Z" fill="#BACEE2"/>
</svg>
