<svg width="51" height="42" viewBox="0 0 51 42" fill="none" xmlns="http://www.w3.org/2000/svg">
<path d="M13.4501 7.55607C16.0826 4.3945 19.5936 2.08462 23.539 0.918585C27.4844 -0.247451 31.687 -0.21728 35.6153 1.00529C39.5435 2.22785 43.021 4.58789 45.6079 7.78693C48.1948 10.986 49.7749 14.8803 50.1483 18.9774C50.5218 23.0745 49.6719 27.1904 47.7061 30.8044C45.7403 34.4185 42.7468 37.3684 39.1044 39.2811C35.4619 41.1938 31.3341 41.9834 27.2429 41.5499C23.1516 41.1165 19.2809 39.4795 16.1201 36.8461C11.8872 33.3126 9.22891 28.2443 8.72836 22.7532C8.22781 17.2621 9.92589 11.7967 13.4501 7.55607V7.55607ZM42.5601 31.8061C44.7237 29.2092 46.0686 26.0291 46.4249 22.6679C46.7812 19.3067 46.1327 15.9153 44.5616 12.9226C42.9904 9.92992 40.5671 7.47033 37.5981 5.85486C34.6291 4.2394 31.2477 3.5406 27.8816 3.84687C24.5154 4.15314 21.3157 5.45071 18.687 7.57548C16.0583 9.70025 14.1186 12.5568 13.1134 15.7839C12.1082 19.011 12.0824 22.4637 13.0395 25.7055C13.9965 28.9472 15.8933 31.8324 18.49 33.9961C21.9744 36.8925 26.4655 38.2886 30.9779 37.878C35.4903 37.4675 39.6556 35.2838 42.5601 31.8061V31.8061Z" fill="#D0E0F4"/>
<path d="M10.7201 36.0859C16.4693 36.0859 21.1301 31.4252 21.1301 25.6759C21.1301 19.9266 16.4693 15.2659 10.7201 15.2659C4.97078 15.2659 0.310059 19.9266 0.310059 25.6759C0.310059 31.4252 4.97078 36.0859 10.7201 36.0859Z" fill="#0BC3E4"/>
</svg>
