<svg width="41" height="42" viewBox="0 0 41 42" fill="none" xmlns="http://www.w3.org/2000/svg">
<path d="M31.2855 37.4146C28.3167 39.7507 24.7219 41.1539 20.9555 41.4469C17.1892 41.7399 13.4207 40.9094 10.1263 39.0605C6.832 37.2116 4.15988 34.4274 2.44798 31.0598C0.736075 27.6923 0.061243 23.8927 0.508801 20.1416C0.956358 16.3905 2.50622 12.8564 4.96238 9.98613C7.41854 7.11589 10.6707 5.03846 14.3075 4.01655C17.9444 2.99464 21.8026 3.07416 25.3943 4.24504C28.9859 5.41593 32.1497 7.62559 34.4855 10.5946C37.6098 14.5786 39.0273 19.6386 38.4275 24.6658C37.8277 29.6931 35.2594 34.2775 31.2855 37.4146V37.4146ZM11.4355 12.1946C9.41467 13.7848 7.91082 15.9387 7.11424 18.3837C6.31765 20.8288 6.2641 23.4552 6.96037 25.9306C7.65663 28.4061 9.07143 30.6195 11.0258 32.2908C12.9802 33.9621 15.3863 35.0162 17.9399 35.3198C20.4934 35.6235 23.0797 35.1629 25.3714 33.9965C27.6632 32.8301 29.5576 31.0102 30.8149 28.767C32.0723 26.5238 32.6361 23.9582 32.435 21.3945C32.234 18.8308 31.2771 16.3844 29.6855 14.3646C27.5525 11.6577 24.4319 9.90861 21.0097 9.5017C17.5876 9.09479 14.1438 10.0634 11.4355 12.1946V12.1946Z" fill="#D0E0F4"/>
<path d="M40.3553 14.9746L28.8553 19.0446C28.492 18.021 27.9614 17.0647 27.2853 16.2146C25.6455 14.1435 23.2528 12.8054 20.6298 12.4925C18.0067 12.1796 15.3663 12.9173 13.2853 14.5446L5.77539 4.97458C8.5395 2.79797 11.7823 1.3111 15.2354 0.637084C18.6884 -0.0369321 22.2524 0.121295 25.6321 1.09867C29.0119 2.07604 32.1102 3.84443 34.6705 6.25743C37.2309 8.67044 39.1796 11.6586 40.3553 14.9746V14.9746Z" fill="#53CEB3"/>
</svg>
