<svg width="54" height="72" viewBox="0 0 54 72" fill="none" xmlns="http://www.w3.org/2000/svg">
<path d="M39.7637 54.4366L15.7637 62.8567L9.34369 38.9066L7.84369 33.2467L6.3237 27.5867L3.24371 16.0867L0.553711 6.02667C5.22517 3.08911 10.4931 1.23064 15.9737 0.58667L20.1837 10.1167L24.9937 21.0067L27.3637 26.3766L29.7337 31.7166L39.7637 54.4366Z" fill="url(#paint0_linear)"/>
<path d="M8.46443 63.4033L45.7289 50.2731C47.1497 49.7725 48.7112 49.8568 50.0698 50.5075C51.4285 51.1581 52.473 52.3219 52.9736 53.7427L53.1498 54.2426L5.18044 71.1446L5.00763 70.6542C4.50701 69.2334 4.5913 67.6719 5.24197 66.3132C5.89264 64.9546 7.05637 63.91 8.47718 63.4094L8.46443 63.4033Z" fill="url(#paint1_linear)"/>
<g style="mix-blend-mode:screen" opacity="0.47">
<path d="M24.9937 21.0367L6.32364 27.6167L3.24365 16.1167L20.1837 10.1467L24.9937 21.0367Z" fill="#FF78B9"/>
</g>
<g style="mix-blend-mode:screen" opacity="0.47">
<path d="M29.7335 31.7468L9.34351 38.9367L7.84351 33.2867L27.3635 26.4067L29.7335 31.7468Z" fill="#FF78B9"/>
</g>
<defs>
<linearGradient id="paint0_linear" x1="12845" y1="-21392.6" x2="11631.7" y2="-24836" gradientUnits="userSpaceOnUse">
<stop stop-color="#F7B345"/>
<stop offset="1" stop-color="#FEDB58"/>
</linearGradient>
<linearGradient id="paint1_linear" x1="23264.5" y1="-9136.21" x2="23251.2" y2="-9173.93" gradientUnits="userSpaceOnUse">
<stop stop-color="#F7B345"/>
<stop offset="1" stop-color="#FEDB58"/>
</linearGradient>
</defs>
</svg>
