<svg width="22" height="28" viewBox="0 0 22 28" fill="none" xmlns="http://www.w3.org/2000/svg">
<path d="M3.06822 4.46099C3.69346 3.31846 4.62505 2.37302 5.75823 1.73099C7.1035 0.94437 8.62997 0.520537 10.1882 0.500985C12.0009 0.464229 13.7934 0.887402 15.3982 1.73099C16.9206 2.45766 18.2576 3.52117 19.3082 4.84099C20.2296 5.99301 20.8144 7.37734 20.9982 8.84099C21.1696 10.1927 20.9328 11.5649 20.3182 12.781C19.8929 13.6756 19.25 14.4493 18.4482 15.031C17.7357 15.5103 16.9576 15.8841 16.1382 16.141C15.3282 16.391 13.9082 16.801 11.8782 17.351C11.404 17.4804 10.9368 17.6339 10.4783 17.811C10.1637 17.9353 9.86495 18.0965 9.58824 18.291C9.37349 18.4464 9.1757 18.6241 8.99822 18.821C8.81822 19.011 8.52822 19.351 8.12822 19.821C7.98673 20.0643 7.7984 20.2772 7.57414 20.4473C7.34989 20.6174 7.09415 20.7413 6.8217 20.812C6.54925 20.8827 6.26552 20.8986 5.98686 20.859C5.7082 20.8193 5.44015 20.7249 5.19823 20.581C4.92035 20.4494 4.67127 20.2642 4.46532 20.0359C4.25936 19.8077 4.1006 19.5409 3.99822 19.251C3.90387 18.9174 3.87827 18.5681 3.92296 18.2243C3.96765 17.8805 4.08172 17.5494 4.25823 17.251C4.66492 16.3894 5.23948 15.6177 5.94823 14.981C6.57048 14.4457 7.28104 14.0228 8.0482 13.731C8.8082 13.451 9.77826 13.151 10.9783 12.841C12.1783 12.531 12.7982 12.351 13.2782 12.181C13.7649 12.0251 14.2264 11.7994 14.6482 11.511C15.0754 11.2292 15.4205 10.8393 15.6482 10.381C15.8754 9.94946 16.0057 9.47354 16.0298 8.98646C16.054 8.49938 15.9716 8.0129 15.7883 7.56099C15.3924 6.55934 14.6209 5.75195 13.6382 5.31099C13.1596 5.01358 12.6236 4.82064 12.0652 4.74481C11.5069 4.66899 10.9388 4.71198 10.3982 4.87099C9.29676 5.32259 8.30455 6.0045 7.48821 6.87099C6.48821 7.96099 5.39822 8.24099 4.31822 7.69099C4.01439 7.54744 3.74421 7.34144 3.52538 7.08642C3.30654 6.8314 3.14395 6.5331 3.0482 6.21099C2.82291 5.64802 2.83012 5.01867 3.06822 4.46099V4.46099ZM2.21825 26.951C1.6538 26.6774 1.21166 26.2032 0.978258 25.621C0.865041 25.3134 0.820668 24.9848 0.848314 24.6582C0.875959 24.3317 0.974923 24.0151 1.13823 23.731C1.27458 23.4459 1.46847 23.1921 1.70769 22.9856C1.94691 22.779 2.22629 22.6243 2.52825 22.531C2.83296 22.4303 3.15493 22.3926 3.47466 22.4201C3.79438 22.4476 4.10518 22.5398 4.38823 22.691C4.67196 22.8271 4.92548 23.0188 5.13371 23.2548C5.34195 23.4907 5.50066 23.7661 5.60045 24.0645C5.70024 24.363 5.73908 24.6785 5.71465 24.9922C5.69022 25.3059 5.60303 25.6116 5.45824 25.891C5.32556 26.1928 5.12759 26.4615 4.87859 26.6777C4.62959 26.8938 4.33574 27.0521 4.01824 27.141C3.41607 27.3108 2.7717 27.2428 2.21825 26.951V26.951Z" fill="url(#paint0_linear)"/>
<defs>
<linearGradient id="paint0_linear" x1="12534.8" y1="2611.32" x2="13068.8" y2="2076.7" gradientUnits="userSpaceOnUse">
<stop offset="0.02" stop-color="#6B7CF7"/>
<stop offset="0.54" stop-color="#8F85F5"/>
<stop offset="1" stop-color="#B18DF3"/>
</linearGradient>
</defs>
</svg>
