<svg width="2342" height="986" viewBox="0 0 2342 986" fill="none" xmlns="http://www.w3.org/2000/svg">
<path d="M140.5 0C122.7 37.8 115.5 69.9 134.2 129.1C152.9 188.3 217.8 287.1 217.8 394.5C217.8 551.5 5.20001 734.1 0.200011 855.2C-5.59999 992.7 116.3 993.4 163.4 972C215.9 948.1 461.5 785.9 1017.7 911.9C1532.8 1028.6 1814.8 991.1 1945.5 905.2C2076.3 819.3 2084.1 757.9 2152.6 715.2C2194.4 689.2 2238.2 704.2 2279 672.1C2322.9 637.6 2344.5 588.6 2341.7 511.6C2339 437.4 2299.8 371.2 2269 321C2228 254.2 2110.2 141.2 2192.6 0C1927.4 0 140.5 0 140.5 0Z" fill="white"/>
</svg>
