<svg width="156" height="246" viewBox="0 0 156 246" fill="none" xmlns="http://www.w3.org/2000/svg">
<path d="M112.7 222.156C112.7 222.156 107.8 234.156 110.7 236.356C113.6 238.556 115.7 237.806 123.48 242.036C131.26 246.266 141.07 246.466 141.79 242.766C142.18 240.766 126.95 232.706 126.18 222.886L112.7 222.156Z" fill="url(#paint0_linear)"/>
<path d="M127.95 222.836C125.242 224.09 122.284 224.713 119.3 224.656C116.161 224.606 113.12 223.555 110.62 221.656C110.62 221.656 104.62 185.656 108.33 162.316L79.6602 117.576L86.5202 103.066L100.4 97.7162L101.4 97.3562C101.4 97.3562 126.45 134.416 129.66 145.876C132.87 157.336 127.95 222.836 127.95 222.836Z" fill="url(#paint1_linear)"/>
<g style="mix-blend-mode:multiply" opacity="0.35">
<path d="M119.3 224.656C116.161 224.606 113.12 223.555 110.62 221.656C110.62 221.656 104.62 185.656 108.33 162.316L79.6602 117.576L86.5202 103.066L100.4 97.7163C99.8402 100.986 96.1502 125.286 107.94 139.206C120.6 154.136 119.36 158.296 116.66 181.526C114.24 202.386 120.85 217.066 119.3 224.656Z" fill="#D53468"/>
</g>
<path d="M59.4401 183.906C59.4401 183.906 52.0901 186.196 49.2801 189.206C46.4701 192.216 47.7701 192.876 48.8401 197.526C49.9101 202.176 51.4101 211.906 58.3201 216.276C65.2301 220.646 63.8501 212.766 63.8101 204.036C63.7701 195.306 67.2601 192.106 67.2601 192.106L59.4401 183.906Z" fill="url(#paint2_linear)"/>
<path d="M119 159.556C113.72 163.806 67.9001 194.786 67.9001 194.786C67.9001 194.786 60.0701 193.496 58.9001 183.276C58.9001 183.276 68.2401 171.746 79.4501 158.276C90.6601 144.806 99.2601 140.596 99.2601 140.596C99.2601 140.596 71.9101 133.906 63.7501 124.296C56.0101 115.156 61.6301 101.036 62.2301 99.6064C62.2507 99.5681 62.2674 99.5279 62.2801 99.4863L88.3601 103.426C88.3601 103.426 123.08 126.906 126.61 136.906C130.14 146.906 124.27 155.306 119 159.556Z" fill="url(#paint3_linear)"/>
<path d="M39.25 66.4663L35.15 70.8163L19.26 52.0063C19.26 52.0063 19.68 39.8463 17.88 38.8063C16.08 37.7663 15.02 44.7463 15.02 44.7463C15.02 44.7463 10.02 42.9663 7.72005 39.1363C5.42005 35.3063 2.81004 32.3663 0.620041 38.9663C-1.56996 45.5663 2.62004 54.2063 12.46 56.1963C12.46 56.1963 20.02 77.1963 24.88 82.7563C29.74 88.3163 34.49 89.1663 39.22 88.9063C43.95 88.6463 53.29 76.9963 53.29 76.9963L39.25 66.4663Z" fill="url(#paint4_linear)"/>
<path d="M116.04 67.5564L120.04 71.9564L136.2 53.3664C136.2 53.3664 135.95 41.2064 137.77 40.1964C139.59 39.1864 140.54 46.1964 140.54 46.1964C140.54 46.1964 145.61 44.4864 147.92 40.6964C150.23 36.9064 152.92 33.9864 155.03 40.6164C157.14 47.2464 152.83 55.8264 142.94 57.6764C142.94 57.6764 134.55 78.3464 129.62 83.8264C124.69 89.3064 122.41 90.3664 116.21 89.1264C111.56 88.1964 100.97 75.8264 100.97 75.8264L116.04 67.5564Z" fill="url(#paint5_linear)"/>
<path d="M83.3401 8.27635C83.3401 8.27635 73.5501 -2.05365 64.1701 9.35635C54.7901 20.7664 61.6401 28.7564 56.6401 35.6264C51.6401 42.4964 57.8501 48.3964 57.8501 48.3964L78.6501 43.9064L89.4201 43.1664L95.3101 43.0564C95.3101 43.0564 97.2101 37.0064 94.0901 34.3264C90.9701 31.6464 90.9501 26.1764 90.3901 16.3964C89.8301 6.61636 83.3401 8.27635 83.3401 8.27635Z" fill="url(#paint6_linear)"/>
<path d="M92.6801 41.5063C92.6801 41.5063 100.88 41.7163 107.02 50.3163C110.94 55.8863 114.495 61.7052 117.66 67.7363C117.66 67.7363 111.57 78.3263 101.54 77.1763C91.5101 76.0263 92.6801 41.5063 92.6801 41.5063Z" fill="url(#paint7_linear)"/>
<path d="M102.53 96.9062C102.53 96.9062 101.7 103.306 89.7301 106.656C77.7601 110.006 62.28 99.4862 62.28 99.4862C62.28 99.4862 65.41 91.6663 65.28 85.5463C65.277 84.6855 65.1831 83.8273 65 82.9862C64.66 81.5462 64.3001 79.9863 63.9301 78.5663C63.1901 75.5663 62.4401 72.7062 61.9801 70.9962L61.55 69.4163V69.3662L60.86 70.1162L52.6501 79.1862C39.2301 76.3962 37.8 66.3563 37.8 66.3563C37.8 66.3563 51.9001 48.1263 58.1501 44.9062C62.1376 42.9784 66.3807 41.6314 70.75 40.9062L84.0401 41.2762C84.0401 41.2762 90.7701 41.0062 92.6801 41.4962C94.3501 41.9462 101.56 52.7763 105.12 60.1663C105.64 61.2263 106.07 62.2163 106.41 63.0963C109.07 70.0963 103.22 72.9363 101.9 79.0963C101.72 79.9634 101.603 80.8423 101.55 81.7263C101.05 88.0863 102.53 96.9062 102.53 96.9062Z" fill="url(#paint8_linear)"/>
<path d="M85.3801 52.4563C77.7601 53.7563 70.5301 45.2263 70.5301 45.2263C70.6299 41.8479 70.2049 38.4744 69.2701 35.2263C68.8297 33.6193 68.2852 32.0427 67.6401 30.5063V30.5063L82.6401 37.3663C83.0501 41.9063 84.8501 41.9063 85.3901 41.9063H85.5301C85.5301 41.9063 90.3901 51.6163 85.3801 52.4563Z" fill="url(#paint9_linear)"/>
<g style="mix-blend-mode:multiply" opacity="0.45">
<path d="M85.3901 41.9063C75.8901 44.1763 71.3901 39.3063 69.2701 35.2263C68.8297 33.6193 68.2852 32.0427 67.6401 30.5063L82.6401 37.3663C83.0501 41.9063 84.8501 41.9063 85.3901 41.9063Z" fill="#F2787A"/>
</g>
<path d="M85.4701 14.5964C85.8201 14.7864 86.7301 23.1064 86.0801 30.0364C85.4301 36.9664 84.2101 38.4764 80.7901 38.5664C78.051 38.607 75.3572 37.8644 73.0258 36.4258C70.6944 34.9873 68.8224 32.9128 67.6301 30.4463C67.6301 30.4463 73.2901 28.9564 75.7801 21.8164C78.2701 14.6764 82.2001 12.7064 85.4701 14.5964Z" fill="url(#paint10_linear)"/>
<g style="mix-blend-mode:multiply" opacity="0.35">
<path d="M99.26 140.566C99.26 140.566 71.91 133.906 63.75 124.296C56.01 115.156 61.63 101.036 62.23 99.6062C62.5274 99.719 62.8179 99.8492 63.1 99.9962C63.1 99.9962 55.3 116.796 75.29 122.406C95.28 128.016 103.85 135.076 99.26 140.566Z" fill="#D53468"/>
</g>
<path d="M57.29 7.73619L55.81 0.346191L52.77 1.66618L57.29 7.73619Z" fill="url(#paint11_linear)"/>
<path d="M54.7001 9.21637L46.7001 4.03638L44.8401 8.90637L54.7001 9.21637Z" fill="url(#paint12_linear)"/>
<path d="M54.7 11.7864L48.49 12.7964L50.13 16.1364L54.7 11.7864Z" fill="url(#paint13_linear)"/>
<g style="mix-blend-mode:screen" opacity="0.38">
<path d="M101.9 79.0963C101.72 79.9634 101.603 80.8423 101.55 81.7263C96.3 84.5163 84.99 88.3663 65.27 85.5463C65.2669 84.6855 65.1731 83.8274 64.99 82.9863C64.65 81.5463 64.29 79.9863 63.92 78.5663C63.18 75.5663 62.43 72.7063 61.97 70.9963C62.88 70.9963 97.97 71.8463 105.12 60.1863C105.64 61.2463 106.07 62.2363 106.41 63.1163C109.07 70.0663 103.22 72.9063 101.9 79.0963Z" fill="#5BD8E8"/>
</g>
<g style="mix-blend-mode:multiply" opacity="0.51">
<path d="M69.85 61.1162C69.85 61.1162 69.91 72.1162 63.85 78.5662C62.74 74.0562 61.62 69.9462 61.47 69.4062L69.85 61.1162Z" fill="#6A6FF6"/>
</g>
<defs>
<linearGradient id="paint0_linear" x1="109.78" y1="233.766" x2="141.81" y2="233.766" gradientUnits="userSpaceOnUse">
<stop stop-color="#F7B345"/>
<stop offset="1" stop-color="#FEDB58"/>
</linearGradient>
<linearGradient id="paint1_linear" x1="10236.3" y1="46577.1" x2="12843.8" y2="46577.1" gradientUnits="userSpaceOnUse">
<stop stop-color="#EB5896"/>
<stop offset="1" stop-color="#F988B7"/>
</linearGradient>
<linearGradient id="paint2_linear" x1="3327.53" y1="13790.7" x2="3714.68" y2="13790.7" gradientUnits="userSpaceOnUse">
<stop stop-color="#F7B345"/>
<stop offset="1" stop-color="#FEDB58"/>
</linearGradient>
<linearGradient id="paint3_linear" x1="12305.7" y1="33571.7" x2="17037.3" y2="33571.7" gradientUnits="userSpaceOnUse">
<stop stop-color="#EB5896"/>
<stop offset="1" stop-color="#F988B7"/>
</linearGradient>
<linearGradient id="paint4_linear" x1="11.19" y1="80.2563" x2="27.37" y2="56.9063" gradientUnits="userSpaceOnUse">
<stop stop-color="#FFA290"/>
<stop offset="1" stop-color="#FECBA6"/>
</linearGradient>
<linearGradient id="paint5_linear" x1="14121.9" y1="15625.8" x2="13496.5" y2="13473.9" gradientUnits="userSpaceOnUse">
<stop stop-color="#FFA290"/>
<stop offset="1" stop-color="#FECBA6"/>
</linearGradient>
<linearGradient id="paint6_linear" x1="54.7001" y1="26.1964" x2="95.8801" y2="26.1964" gradientUnits="userSpaceOnUse">
<stop stop-color="#74335E"/>
<stop offset="1" stop-color="#A63663"/>
</linearGradient>
<linearGradient id="paint7_linear" x1="5392.02" y1="9462.84" x2="6018.07" y2="9462.84" gradientUnits="userSpaceOnUse">
<stop stop-color="#1C9AF1"/>
<stop offset="1" stop-color="#5ED1EB"/>
</linearGradient>
<linearGradient id="paint8_linear" x1="10912.3" y1="18516.4" x2="15715.9" y2="18516.4" gradientUnits="userSpaceOnUse">
<stop stop-color="#1C9AF1"/>
<stop offset="1" stop-color="#5ED1EB"/>
</linearGradient>
<linearGradient id="paint9_linear" x1="4008.47" y1="5329.75" x2="3988.24" y2="5712.29" gradientUnits="userSpaceOnUse">
<stop stop-color="#FFA290"/>
<stop offset="1" stop-color="#FECBA6"/>
</linearGradient>
<linearGradient id="paint10_linear" x1="3562.49" y1="5903.45" x2="3921.64" y2="5737.53" gradientUnits="userSpaceOnUse">
<stop stop-color="#FFA290"/>
<stop offset="1" stop-color="#FECBA6"/>
</linearGradient>
<linearGradient id="paint11_linear" x1="59.24" y1="5.36619" x2="50.69" y2="1.16618" gradientUnits="userSpaceOnUse">
<stop stop-color="#E13981"/>
<stop offset="1" stop-color="#F988B7"/>
</linearGradient>
<linearGradient id="paint12_linear" x1="1773.69" y1="1121.26" x2="1717.76" y2="1069.02" gradientUnits="userSpaceOnUse">
<stop stop-color="#E13981"/>
<stop offset="1" stop-color="#F988B7"/>
</linearGradient>
<linearGradient id="paint13_linear" x1="1126.98" y1="964.826" x2="1082.74" y2="933.834" gradientUnits="userSpaceOnUse">
<stop stop-color="#E13981"/>
<stop offset="1" stop-color="#F988B7"/>
</linearGradient>
</defs>
</svg>
