<?xml version="1.0" encoding="UTF-8"?>
<svg id="Layer_1" xmlns="http://www.w3.org/2000/svg" version="1.1" xmlns:xlink="http://www.w3.org/1999/xlink" viewBox="0 0 38.44 42.73">
  <!-- Generator: Adobe Illustrator 30.0.0, SVG Export Plug-In . SVG Version: 2.1.1 Build 123)  -->
  <defs>
    <style>
      .st0 {
        fill: url(#linear-gradient2);
      }

      .st1 {
        fill: url(#linear-gradient1);
      }

      .st2 {
        fill: url(#linear-gradient8);
      }

      .st3 {
        fill: #231f20;
      }

      .st4 {
        fill: url(#linear-gradient7);
      }

      .st5 {
        fill: url(#linear-gradient4);
      }

      .st6 {
        fill: url(#linear-gradient5);
      }

      .st7 {
        fill: url(#linear-gradient3);
      }

      .st8 {
        fill: #ffd43a;
      }

      .st9 {
        fill: url(#linear-gradient6);
      }

      .st10 {
        fill: url(#linear-gradient);
      }
    </style>
    <linearGradient id="linear-gradient" x1="19.74" y1="15.07" x2="27.18" y2="15.07" gradientUnits="userSpaceOnUse">
      <stop offset="0" stop-color="#1e4595"/>
      <stop offset=".82" stop-color="#1e77b9"/>
    </linearGradient>
    <linearGradient id="linear-gradient1" x1="22.65" y1="14.58" x2="25.71" y2="24.6" gradientUnits="userSpaceOnUse">
      <stop offset=".25" stop-color="#026c66"/>
      <stop offset=".78" stop-color="#27b373"/>
    </linearGradient>
    <linearGradient id="linear-gradient2" x1="14.24" y1="18.17" x2="21.14" y2="14.18" gradientUnits="userSpaceOnUse">
      <stop offset="0" stop-color="#26265e"/>
      <stop offset=".65" stop-color="#8b2987"/>
    </linearGradient>
    <linearGradient id="linear-gradient3" x1="18.3" y1="28.78" x2="24.14" y2="24.18" gradientUnits="userSpaceOnUse">
      <stop offset=".16" stop-color="#f4b71c"/>
      <stop offset=".86" stop-color="#ef5325"/>
    </linearGradient>
    <linearGradient id="linear-gradient4" x1="14.33" y1="14.25" x2="12.51" y2="21.99" gradientUnits="userSpaceOnUse">
      <stop offset=".34" stop-color="#ed307c"/>
      <stop offset=".72" stop-color="#bb202e"/>
    </linearGradient>
    <linearGradient id="linear-gradient5" x1="26.24" y1="19.42" x2="23.73" y2="30.11" gradientUnits="userSpaceOnUse">
      <stop offset=".16" stop-color="#f9da08"/>
      <stop offset=".86" stop-color="#f79421"/>
    </linearGradient>
    <linearGradient id="linear-gradient6" x1="13.28" y1="25.64" x2="19.98" y2="28.86" gradientUnits="userSpaceOnUse">
      <stop offset=".34" stop-color="#f0592a"/>
      <stop offset=".72" stop-color="#bb2031"/>
    </linearGradient>
    <linearGradient id="linear-gradient7" x1="12.65" y1="18.31" x2="15.99" y2="28.28" gradientUnits="userSpaceOnUse">
      <stop offset=".34" stop-color="#a52172"/>
      <stop offset=".72" stop-color="#8a1a50"/>
    </linearGradient>
    <linearGradient id="linear-gradient8" x1="4.04" y1="10.74" x2="34.4" y2="31.99" gradientUnits="userSpaceOnUse">
      <stop offset=".04" stop-color="#ed307c"/>
      <stop offset=".15" stop-color="#6c2979"/>
      <stop offset=".27" stop-color="#195ca6"/>
      <stop offset=".42" stop-color="#0f816d"/>
      <stop offset=".57" stop-color="#f9c118"/>
      <stop offset=".69" stop-color="#f39222"/>
      <stop offset=".82" stop-color="#df472f"/>
      <stop offset=".98" stop-color="#9c2065"/>
    </linearGradient>
  </defs>
  <g>
    <path class="st10" d="M19.74,20.32l7.44-7.44c-1.9-1.9-4.53-3.08-7.44-3.08v10.52h0Z"/>
    <path class="st1" d="M19.22,21.37h10.52c0-2.9-1.18-5.53-3.08-7.44l-7.44,7.44h0Z"/>
    <polygon class="st8" points="19.22 21.36 19.22 21.37 19.22 21.36 19.22 21.36"/>
    <polygon class="st8" points="19.22 21.37 19.22 21.37 19.22 21.36 19.22 21.37"/>
    <path class="st0" d="M19.22,10.85c-2.9,0-5.53,1.18-7.44,3.08l7.44,7.44v-10.52Z"/>
    <path class="st7" d="M19.22,21.37v10.52c2.9,0,5.53-1.18,7.44-3.08l-7.44-7.44h0Z"/>
    <path class="st5" d="M18.18,20.84l-7.44-7.44c-1.9,1.9-3.08,4.53-3.08,7.44h10.52Z"/>
    <path class="st6" d="M20.26,21.89l7.44,7.44c1.9-1.9,3.08-4.53,3.08-7.44h-10.52Z"/>
    <path class="st9" d="M11.26,29.84c1.9,1.9,4.53,3.08,7.44,3.08v-10.52l-7.44,7.44Z"/>
    <path class="st4" d="M8.7,21.37c0,2.9,1.18,5.53,3.08,7.44l7.44-7.44h-10.52Z"/>
    <circle class="st3" cx="19.22" cy="21.36" r=".38"/>
  </g>
  <path class="st2" d="M19.22,2.84C8.99,2.84.69,11.13.69,21.36s8.29,18.53,18.53,18.53,18.53-8.29,18.53-18.53S29.45,2.84,19.22,2.84ZM19.22,35.23c-7.66,0-13.86-6.21-13.86-13.86s6.21-13.86,13.86-13.86,13.86,6.21,13.86,13.86-6.21,13.86-13.86,13.86Z"/>
</svg>