<?xml version="1.0" encoding="UTF-8"?>
<svg id="Layer_1" data-name="Layer 1" xmlns="http://www.w3.org/2000/svg" xmlns:xlink="http://www.w3.org/1999/xlink" viewBox="0 0 929.55 962.65">
  <defs>
    <style>
      .cls-1 {
        fill: url(#linear-gradient-61);
      }

      .cls-2 {
        fill: url(#linear-gradient-15);
      }

      .cls-3 {
        fill: url(#linear-gradient-13);
      }

      .cls-4 {
        fill: url(#linear-gradient-28);
      }

      .cls-5 {
        fill: url(#linear-gradient-65);
      }

      .cls-6 {
        fill: url(#linear-gradient-69);
      }

      .cls-7 {
        fill: url(#linear-gradient-53);
      }

      .cls-8 {
        fill: url(#linear-gradient-42);
      }

      .cls-9 {
        fill: url(#linear-gradient-46);
      }

      .cls-10 {
        fill: url(#linear-gradient-70);
      }

      .cls-11 {
        fill: url(#linear-gradient-60);
      }

      .cls-12 {
        fill: url(#linear-gradient-2);
      }

      .cls-13 {
        fill: url(#linear-gradient-64);
      }

      .cls-14 {
        fill: url(#linear-gradient-56);
      }

      .cls-15 {
        fill: url(#linear-gradient-43);
      }

      .cls-16 {
        fill: url(#linear-gradient-25);
      }

      .cls-17 {
        fill: url(#linear-gradient-10);
      }

      .cls-18 {
        fill: url(#linear-gradient-12);
      }

      .cls-19 {
        fill: url(#linear-gradient-40);
      }

      .cls-20 {
        fill: url(#linear-gradient-27);
      }

      .cls-21 {
        fill: url(#linear-gradient-68);
      }

      .cls-22 {
        fill: url(#linear-gradient-5);
        filter: url(#drop-shadow-2);
      }

      .cls-23 {
        fill: url(#linear-gradient-37);
      }

      .cls-24 {
        fill: url(#linear-gradient-75);
      }

      .cls-25 {
        fill: url(#linear-gradient-55);
      }

      .cls-26 {
        fill: url(#linear-gradient-39);
      }

      .cls-27 {
        fill: url(#linear-gradient-52);
      }

      .cls-28 {
        fill: url(#linear-gradient-58);
      }

      .cls-29 {
        fill: url(#linear-gradient-47);
      }

      .cls-30 {
        fill: url(#linear-gradient-26);
      }

      .cls-31 {
        fill: url(#linear-gradient-74);
      }

      .cls-32 {
        fill: url(#linear-gradient-72);
      }

      .cls-33 {
        fill: url(#linear-gradient-4);
      }

      .cls-34 {
        fill: url(#linear-gradient-35);
      }

      .cls-35 {
        fill: url(#linear-gradient-30);
      }

      .cls-36 {
        fill: url(#linear-gradient-76);
      }

      .cls-37 {
        fill: url(#linear-gradient-7);
        filter: url(#drop-shadow-3);
      }

      .cls-38 {
        fill: url(#linear-gradient-73);
      }

      .cls-39 {
        fill: url(#linear-gradient-71);
      }

      .cls-40 {
        fill: url(#linear-gradient-44);
      }

      .cls-41 {
        fill: url(#linear-gradient-49);
      }

      .cls-42 {
        fill: url(#linear-gradient-34);
      }

      .cls-43 {
        fill: url(#linear-gradient-38);
      }

      .cls-44 {
        fill: url(#linear-gradient-22);
      }

      .cls-45 {
        fill: url(#linear-gradient-24);
      }

      .cls-46 {
        fill: url(#linear-gradient-54);
      }

      .cls-47 {
        fill: url(#linear-gradient-33);
      }

      .cls-48 {
        fill: url(#linear-gradient-51);
      }

      .cls-49 {
        fill: url(#linear-gradient-66);
      }

      .cls-50 {
        fill: url(#linear-gradient-57);
      }

      .cls-51 {
        fill: url(#linear-gradient-14);
      }

      .cls-52 {
        fill: url(#linear-gradient-62);
      }

      .cls-53 {
        fill: url(#linear-gradient-29);
      }

      .cls-54 {
        fill: url(#linear-gradient-20);
      }

      .cls-55 {
        fill: url(#linear-gradient-67);
      }

      .cls-56 {
        fill: url(#linear-gradient-17);
      }

      .cls-57 {
        fill: url(#linear-gradient-50);
      }

      .cls-58 {
        fill: url(#linear-gradient-9);
      }

      .cls-59 {
        fill: url(#linear-gradient-59);
      }

      .cls-60 {
        fill: url(#linear-gradient-11);
      }

      .cls-61 {
        fill: url(#linear-gradient-19);
      }

      .cls-62 {
        fill: url(#linear-gradient-6);
      }

      .cls-63 {
        fill: url(#linear-gradient-8);
        filter: url(#drop-shadow-4);
      }

      .cls-64 {
        fill: url(#linear-gradient-36);
      }

      .cls-65 {
        fill: url(#linear-gradient-21);
      }

      .cls-66 {
        fill: #ee4036;
      }

      .cls-67 {
        fill: url(#linear-gradient-45);
      }

      .cls-68 {
        fill: url(#linear-gradient-48);
      }

      .cls-69 {
        fill: url(#linear-gradient-32);
      }

      .cls-70 {
        fill: url(#linear-gradient-41);
      }

      .cls-71 {
        fill: url(#linear-gradient-16);
      }

      .cls-72 {
        fill: url(#linear-gradient);
      }

      .cls-73 {
        fill: url(#linear-gradient-23);
      }

      .cls-74 {
        fill: url(#linear-gradient-31);
      }

      .cls-75 {
        fill: url(#linear-gradient-3);
        filter: url(#drop-shadow-1);
      }

      .cls-76 {
        fill: url(#linear-gradient-63);
      }

      .cls-77 {
        fill: url(#linear-gradient-18);
      }
    </style>
    <linearGradient id="linear-gradient" x1="445.69" y1="359.04" x2="596.3" y2="446" gradientUnits="userSpaceOnUse">
      <stop offset="0" stop-color="#26265e"/>
      <stop offset=".65" stop-color="#8b2987"/>
    </linearGradient>
    <linearGradient id="linear-gradient-2" x1="482.07" y1="316.7" x2="334.06" y2="382.71" gradientUnits="userSpaceOnUse">
      <stop offset=".34" stop-color="#ed307c"/>
      <stop offset=".72" stop-color="#bb202e"/>
    </linearGradient>
    <linearGradient id="linear-gradient-3" x1="478" y1="451.1" x2="487.03" y2="484.99" gradientUnits="userSpaceOnUse">
      <stop offset="0" stop-color="#1e4595"/>
      <stop offset=".82" stop-color="#1e77b9"/>
    </linearGradient>
    <filter id="drop-shadow-1" x="444" y="332.14" width="249.97" height="180" filterUnits="userSpaceOnUse">
      <feOffset dx="-11.34" dy="5.67"/>
      <feGaussianBlur result="blur" stdDeviation="2.83"/>
      <feFlood flood-color="#231f20" flood-opacity=".46"/>
      <feComposite in2="blur" operator="in"/>
      <feComposite in="SourceGraphic"/>
    </filter>
    <linearGradient id="linear-gradient-4" x1="535.44" y1="586.67" x2="435.79" y2="623.05" gradientUnits="userSpaceOnUse">
      <stop offset="0" stop-color="#006836"/>
      <stop offset=".27" stop-color="#117c3b"/>
      <stop offset="1" stop-color="#3eb14a"/>
    </linearGradient>
    <linearGradient id="linear-gradient-5" x1="489.48" y1="472.42" x2="471.92" y2="510.46" gradientUnits="userSpaceOnUse">
      <stop offset=".14" stop-color="#026c66"/>
      <stop offset=".78" stop-color="#27b373"/>
    </linearGradient>
    <filter id="drop-shadow-2" x="450" y="486.14" width="247" height="180" filterUnits="userSpaceOnUse">
      <feOffset dx="-5.67" dy="-2.83"/>
      <feGaussianBlur result="blur-2" stdDeviation="2.83"/>
      <feFlood flood-color="#231f20" flood-opacity=".46"/>
      <feComposite in2="blur-2" operator="in"/>
      <feComposite in="SourceGraphic"/>
    </filter>
    <linearGradient id="linear-gradient-6" x1="321.31" y1="443.16" x2="417.53" y2="652.37" gradientUnits="userSpaceOnUse">
      <stop offset=".33" stop-color="#f9ac41"/>
      <stop offset=".7" stop-color="#f05a2c"/>
    </linearGradient>
    <linearGradient id="linear-gradient-7" x1="420.14" y1="496.53" x2="457.32" y2="510.92" gradientUnits="userSpaceOnUse">
      <stop offset=".16" stop-color="#f9da08"/>
      <stop offset=".86" stop-color="#f79421"/>
    </linearGradient>
    <filter id="drop-shadow-3" x="297" y="483.14" width="180" height="247" filterUnits="userSpaceOnUse">
      <feOffset dx="2.83" dy="-5.67"/>
      <feGaussianBlur result="blur-3" stdDeviation="2.83"/>
      <feFlood flood-color="#231f20" flood-opacity=".46"/>
      <feComposite in2="blur-3" operator="in"/>
      <feComposite in="SourceGraphic"/>
    </filter>
    <linearGradient id="linear-gradient-8" x1="436.75" y1="437.26" x2="418.25" y2="496.2" gradientUnits="userSpaceOnUse">
      <stop offset=".34" stop-color="#f0592a"/>
      <stop offset=".72" stop-color="#bb2031"/>
    </linearGradient>
    <filter id="drop-shadow-4" x="229" y="330.14" width="248" height="180" filterUnits="userSpaceOnUse">
      <feOffset dx="2.83" dy="2.83"/>
      <feGaussianBlur result="blur-4" stdDeviation="2.83"/>
      <feFlood flood-color="#231f20" flood-opacity=".46"/>
      <feComposite in2="blur-4" operator="in"/>
      <feComposite in="SourceGraphic"/>
    </filter>
    <linearGradient id="linear-gradient-9" x1="54.82" y1="293.72" x2="82.4" y2="293.72" xlink:href="#linear-gradient-8"/>
    <linearGradient id="linear-gradient-10" x1="0" y1="386.48" x2="43.55" y2="386.48" xlink:href="#linear-gradient-8"/>
    <linearGradient id="linear-gradient-11" x1="164.64" y1="318.4" x2="208.19" y2="318.4" xlink:href="#linear-gradient-8"/>
    <linearGradient id="linear-gradient-12" x1="181.03" y1="447.41" x2="224.58" y2="447.41" xlink:href="#linear-gradient-8"/>
    <linearGradient id="linear-gradient-13" x1="271.89" y1="408.25" x2="315.44" y2="408.25" xlink:href="#linear-gradient-8"/>
    <linearGradient id="linear-gradient-14" x1="252.7" y1="603.65" x2="276.6" y2="603.65" gradientTransform="translate(746.03 153.42) rotate(70.59)" xlink:href="#linear-gradient-6"/>
    <linearGradient id="linear-gradient-15" x1="151.33" y1="610.67" x2="229.08" y2="610.67" gradientTransform="translate(560.64 89.26) rotate(52.69)" xlink:href="#linear-gradient-6"/>
    <linearGradient id="linear-gradient-16" x1="80.46" y1="650.6" x2="132.61" y2="650.6" gradientTransform="translate(680.83 326.85) rotate(69.89)" xlink:href="#linear-gradient-6"/>
    <linearGradient id="linear-gradient-17" x1="47.06" y1="645.11" x2="105.38" y2="645.11" gradientTransform="translate(671.23 384.45) rotate(73.08)" xlink:href="#linear-gradient-6"/>
    <linearGradient id="linear-gradient-18" x1="41.63" y1="285.39" x2="69.21" y2="285.39" gradientTransform="translate(-200.71 471.04) rotate(-45)" xlink:href="#linear-gradient-6"/>
    <linearGradient id="linear-gradient-19" x1="-13.18" y1="378.14" x2="30.37" y2="378.14" gradientTransform="translate(-200.71 471.04) rotate(-45)" xlink:href="#linear-gradient-6"/>
    <linearGradient id="linear-gradient-20" x1="151.45" y1="310.07" x2="195.01" y2="310.07" gradientTransform="translate(-200.71 471.04) rotate(-45)" xlink:href="#linear-gradient-6"/>
    <linearGradient id="linear-gradient-21" x1="167.85" y1="439.07" x2="211.4" y2="439.07" gradientTransform="translate(-200.71 471.04) rotate(-45)" xlink:href="#linear-gradient-6"/>
    <linearGradient id="linear-gradient-22" x1="258.71" y1="399.92" x2="302.26" y2="399.92" gradientTransform="translate(-200.71 471.04) rotate(-45)" xlink:href="#linear-gradient-6"/>
    <linearGradient id="linear-gradient-23" x1="382.84" y1="714.18" x2="413.29" y2="714.18" gradientTransform="translate(347.5 -101.88) rotate(25.59)" xlink:href="#linear-gradient-7"/>
    <linearGradient id="linear-gradient-24" x1="302.58" y1="771.78" x2="398.2" y2="771.78" gradientTransform="translate(106.45 -39.95) rotate(7.69)" xlink:href="#linear-gradient-7"/>
    <linearGradient id="linear-gradient-25" x1="287.82" y1="859.18" x2="351.09" y2="859.18" gradientTransform="translate(391.25 -54.65) rotate(24.89)" xlink:href="#linear-gradient-7"/>
    <linearGradient id="linear-gradient-26" x1="267.04" y1="876.74" x2="321.24" y2="876.74" gradientTransform="translate(447.32 -35.25) rotate(28.08)" xlink:href="#linear-gradient-7"/>
    <linearGradient id="linear-gradient-27" x1="38.2" y1="270.18" x2="65.78" y2="270.18" gradientTransform="translate(-9.55 946.03) rotate(-90)" xlink:href="#linear-gradient-7"/>
    <linearGradient id="linear-gradient-28" x1="-16.61" y1="362.93" x2="26.94" y2="362.93" gradientTransform="translate(-9.55 946.03) rotate(-90)" xlink:href="#linear-gradient-7"/>
    <linearGradient id="linear-gradient-29" x1="148.02" y1="294.85" x2="191.57" y2="294.85" gradientTransform="translate(-9.55 946.03) rotate(-90)" xlink:href="#linear-gradient-7"/>
    <linearGradient id="linear-gradient-30" x1="164.42" y1="423.86" x2="207.97" y2="423.86" gradientTransform="translate(-9.55 946.03) rotate(-90)" xlink:href="#linear-gradient-7"/>
    <linearGradient id="linear-gradient-31" x1="255.28" y1="384.71" x2="298.83" y2="384.71" gradientTransform="translate(-9.55 946.03) rotate(-90)" xlink:href="#linear-gradient-7"/>
    <linearGradient id="linear-gradient-32" x1="538.96" y1="698" x2="602.14" y2="698" gradientTransform="translate(1039.25 -72.1) rotate(70.59)" xlink:href="#linear-gradient-4"/>
    <linearGradient id="linear-gradient-33" x1="547.62" y1="772.44" x2="607.53" y2="772.44" gradientTransform="translate(841.9 -155.13) rotate(52.69)" xlink:href="#linear-gradient-4"/>
    <linearGradient id="linear-gradient-34" x1="548.57" y1="856.11" x2="686.42" y2="856.11" gradientTransform="translate(1209.08 -18.11) rotate(69.89)" xlink:href="#linear-gradient-4"/>
    <linearGradient id="linear-gradient-35" x1="602.27" y1="886.42" x2="621.76" y2="886.42" gradientTransform="translate(1281.96 42.93) rotate(73.08)" xlink:href="#linear-gradient-4"/>
    <linearGradient id="linear-gradient-36" x1="46.53" y1="256.99" x2="74.11" y2="256.99" gradientTransform="translate(461.48 1146.74) rotate(-135)" xlink:href="#linear-gradient-4"/>
    <linearGradient id="linear-gradient-37" x1="-8.28" y1="349.75" x2="35.27" y2="349.75" gradientTransform="translate(461.48 1146.74) rotate(-135)" xlink:href="#linear-gradient-4"/>
    <linearGradient id="linear-gradient-38" x1="156.36" y1="281.67" x2="199.91" y2="281.67" gradientTransform="translate(461.48 1146.74) rotate(-135)" xlink:href="#linear-gradient-4"/>
    <linearGradient id="linear-gradient-39" x1="172.75" y1="410.68" x2="216.3" y2="410.68" gradientTransform="translate(461.48 1146.74) rotate(-135)" xlink:href="#linear-gradient-4"/>
    <linearGradient id="linear-gradient-40" x1="263.61" y1="371.52" x2="307.16" y2="371.52" gradientTransform="translate(461.48 1146.74) rotate(-135)" xlink:href="#linear-gradient-4"/>
    <linearGradient id="linear-gradient-41" x1="650.76" y1="564.58" x2="711.4" y2="564.58" gradientTransform="translate(310.65 -238.79) rotate(25.59)" xlink:href="#linear-gradient-5"/>
    <linearGradient id="linear-gradient-42" x1="731.25" y1="612.26" x2="746.12" y2="612.26" gradientTransform="translate(88.6 -93.36) rotate(7.69)" xlink:href="#linear-gradient-5"/>
    <linearGradient id="linear-gradient-43" x1="759.39" y1="643.19" x2="892.76" y2="643.19" gradientTransform="translate(347.41 -287.92) rotate(24.89)" xlink:href="#linear-gradient-5"/>
    <linearGradient id="linear-gradient-44" x1="828.55" y1="668.5" x2="858.73" y2="668.5" gradientTransform="translate(413.98 -318.42) rotate(28.08)" xlink:href="#linear-gradient-5"/>
    <linearGradient id="linear-gradient-45" x1="61.75" y1="253.56" x2="89.33" y2="253.56" gradientTransform="translate(936.48 955.59) rotate(-180)" xlink:href="#linear-gradient-5"/>
    <linearGradient id="linear-gradient-46" x1="6.93" y1="346.32" x2="50.48" y2="346.32" gradientTransform="translate(936.48 955.59) rotate(-180)" xlink:href="#linear-gradient-5"/>
    <linearGradient id="linear-gradient-47" x1="171.57" y1="278.24" x2="215.12" y2="278.24" gradientTransform="translate(936.48 955.59) rotate(-180)" xlink:href="#linear-gradient-5"/>
    <linearGradient id="linear-gradient-48" x1="187.97" y1="407.24" x2="231.52" y2="407.24" gradientTransform="translate(936.48 955.59) rotate(-180)" xlink:href="#linear-gradient-5"/>
    <linearGradient id="linear-gradient-49" x1="278.82" y1="368.09" x2="322.37" y2="368.09" gradientTransform="translate(936.48 955.59) rotate(-180)" xlink:href="#linear-gradient-5"/>
    <linearGradient id="linear-gradient-50" x1="652.94" y1="392.09" x2="676.85" y2="392.09" gradientTransform="translate(813.72 -365.32) rotate(70.59)" xlink:href="#linear-gradient-3"/>
    <linearGradient id="linear-gradient-51" x1="700.47" y1="385.07" x2="778.21" y2="385.07" gradientTransform="translate(597.51 -436.38) rotate(52.69)" xlink:href="#linear-gradient-3"/>
    <linearGradient id="linear-gradient-52" x1="796.93" y1="345.15" x2="849.08" y2="345.15" gradientTransform="translate(864.12 -546.35) rotate(69.89)" xlink:href="#linear-gradient-3"/>
    <linearGradient id="linear-gradient-53" x1="824.16" y1="350.63" x2="882.49" y2="350.63" gradientTransform="translate(940.44 -567.8) rotate(73.08)" xlink:href="#linear-gradient-3"/>
    <linearGradient id="linear-gradient-54" x1="74.93" y1="261.89" x2="102.51" y2="261.89" gradientTransform="translate(1137.18 484.55) rotate(135)" xlink:href="#linear-gradient-3"/>
    <linearGradient id="linear-gradient-55" x1="20.12" y1="354.65" x2="63.67" y2="354.65" gradientTransform="translate(1137.18 484.55) rotate(135)" xlink:href="#linear-gradient-3"/>
    <linearGradient id="linear-gradient-56" x1="184.75" y1="286.57" x2="228.3" y2="286.57" gradientTransform="translate(1137.18 484.55) rotate(135)" xlink:href="#linear-gradient-3"/>
    <linearGradient id="linear-gradient-57" x1="201.15" y1="415.58" x2="244.7" y2="415.58" gradientTransform="translate(1137.18 484.55) rotate(135)" xlink:href="#linear-gradient-3"/>
    <linearGradient id="linear-gradient-58" x1="292.01" y1="376.42" x2="335.56" y2="376.42" gradientTransform="translate(1137.18 484.55) rotate(135)" xlink:href="#linear-gradient-3"/>
    <linearGradient id="linear-gradient-59" x1="516.26" y1="281.57" x2="546.71" y2="281.57" gradientTransform="translate(173.74 -201.93) rotate(25.59)" xlink:href="#linear-gradient"/>
    <linearGradient id="linear-gradient-60" x1="531.35" y1="223.96" x2="626.97" y2="223.96" gradientTransform="translate(35.19 -75.5) rotate(7.69)" xlink:href="#linear-gradient"/>
    <linearGradient id="linear-gradient-61" x1="578.46" y1="136.57" x2="641.73" y2="136.57" gradientTransform="translate(114.14 -244.08) rotate(24.89)" xlink:href="#linear-gradient"/>
    <linearGradient id="linear-gradient-62" x1="608.31" y1="119.01" x2="662.5" y2="119.01" gradientTransform="translate(130.82 -285.09) rotate(28.08)" xlink:href="#linear-gradient"/>
    <linearGradient id="linear-gradient-63" x1="78.36" y1="277.11" x2="105.94" y2="277.11" gradientTransform="translate(946.03 9.55) rotate(90)" xlink:href="#linear-gradient"/>
    <linearGradient id="linear-gradient-64" x1="23.55" y1="369.86" x2="67.1" y2="369.86" gradientTransform="translate(946.03 9.55) rotate(90)" xlink:href="#linear-gradient"/>
    <linearGradient id="linear-gradient-65" x1="188.18" y1="301.78" x2="231.74" y2="301.78" gradientTransform="translate(946.03 9.55) rotate(90)" xlink:href="#linear-gradient"/>
    <linearGradient id="linear-gradient-66" x1="204.58" y1="430.79" x2="248.13" y2="430.79" gradientTransform="translate(946.03 9.55) rotate(90)" xlink:href="#linear-gradient"/>
    <linearGradient id="linear-gradient-67" x1="295.44" y1="391.64" x2="338.99" y2="391.64" gradientTransform="translate(946.03 9.55) rotate(90)" xlink:href="#linear-gradient"/>
    <linearGradient id="linear-gradient-68" x1="305.93" y1="238.16" x2="369.11" y2="238.16" gradientTransform="translate(449.96 -159.33) rotate(70.59)" xlink:href="#linear-gradient-2"/>
    <linearGradient id="linear-gradient-69" x1="300.54" y1="163.71" x2="360.45" y2="163.71" gradientTransform="translate(260.4 -198.39) rotate(52.69)" xlink:href="#linear-gradient-2"/>
    <linearGradient id="linear-gradient-70" x1="221.65" y1="80.04" x2="359.5" y2="80.04" gradientTransform="translate(265.82 -220.33) rotate(69.89)" xlink:href="#linear-gradient-2"/>
    <linearGradient id="linear-gradient-71" x1="286.31" y1="49.73" x2="305.8" y2="49.73" gradientTransform="translate(257.47 -247.98) rotate(73.08)" xlink:href="#linear-gradient-2"/>
    <linearGradient id="linear-gradient-72" x1="12.7" y1="263.34" x2="40.29" y2="263.34" gradientTransform="translate(474.99 -191.15) rotate(45)" xlink:href="#linear-gradient-2"/>
    <linearGradient id="linear-gradient-73" x1="-42.11" y1="356.09" x2="1.44" y2="356.09" gradientTransform="translate(474.99 -191.15) rotate(45)" xlink:href="#linear-gradient-2"/>
    <linearGradient id="linear-gradient-74" x1="122.53" y1="288.02" x2="166.08" y2="288.02" gradientTransform="translate(474.99 -191.15) rotate(45)" xlink:href="#linear-gradient-2"/>
    <linearGradient id="linear-gradient-75" x1="138.92" y1="417.02" x2="182.47" y2="417.02" gradientTransform="translate(474.99 -191.15) rotate(45)" xlink:href="#linear-gradient-2"/>
    <linearGradient id="linear-gradient-76" x1="229.78" y1="377.87" x2="273.33" y2="377.87" gradientTransform="translate(474.99 -191.15) rotate(45)" xlink:href="#linear-gradient-2"/>
  </defs>
  <polygon class="cls-72" points="626.83 335.81 508.63 392 464.77 268.68 464.77 497.87 626.83 335.81"/>
  <polygon class="cls-12" points="445.29 221.08 401.44 344.4 283.23 288.21 445.29 450.27 445.29 221.08"/>
  <polygon class="cls-75" points="464.77 497.87 693.96 497.87 570.64 454.02 626.83 335.81 464.77 497.87 464.77 497.87"/>
  <polygon class="cls-33" points="464.77 497.87 464.77 727.06 508.63 603.74 626.83 659.93 464.77 497.87 464.77 497.87"/>
  <polygon class="cls-22" points="693.96 497.87 464.77 497.87 626.83 659.93 570.64 541.73 693.96 497.87"/>
  <polygon class="cls-62" points="235.58 497.87 358.9 541.73 302.71 659.93 464.77 497.87 235.58 497.87"/>
  <polygon class="cls-37" points="464.77 497.87 302.71 659.93 420.92 603.74 464.77 727.06 464.77 497.87 464.77 497.87"/>
  <polygon class="cls-63" points="464.77 497.87 302.71 335.81 358.9 454.02 235.58 497.87 464.77 497.87 464.77 497.87"/>
  <g>
    <rect class="cls-66" x="215.33" y="430.16" width="66.28" height="2.01" transform="translate(-161.85 149.6) rotate(-25.59)"/>
    <rect class="cls-66" x="189.86" y="335.38" width="2.01" height="96.22" transform="translate(-49.61 29) rotate(-7.69)"/>
    <rect class="cls-66" x="30.43" y="351.55" width="146.08" height="2.01" transform="translate(-138.76 76.29) rotate(-24.89)"/>
    <rect class="cls-66" x="84.91" y="297.06" width="2.01" height="60.35" transform="translate(-143.92 78.96) rotate(-28.08)"/>
    <path class="cls-58" d="M68.61,279.93c-7.62,0-13.79,6.17-13.79,13.79s6.17,13.79,13.79,13.79,13.79-6.17,13.79-13.79-6.17-13.79-13.79-13.79ZM68.61,300.62c-3.81,0-6.9-3.09-6.9-6.9s3.09-6.9,6.9-6.9,6.9,3.09,6.9,6.9-3.09,6.9-6.9,6.9Z"/>
    <path class="cls-17" d="M21.78,364.7c-12.03,0-21.78,9.75-21.78,21.78s9.75,21.78,21.78,21.78,21.78-9.75,21.78-21.78-9.75-21.78-21.78-21.78ZM21.78,397.36c-6.01,0-10.89-4.87-10.89-10.89s4.87-10.89,10.89-10.89,10.89,4.87,10.89,10.89-4.87,10.89-10.89,10.89Z"/>
    <path class="cls-60" d="M186.41,296.62c-12.03,0-21.78,9.75-21.78,21.78s9.75,21.78,21.78,21.78,21.78-9.75,21.78-21.78-9.75-21.78-21.78-21.78ZM186.41,329.29c-6.01,0-10.89-4.87-10.89-10.89s4.87-10.89,10.89-10.89,10.89,4.87,10.89,10.89-4.87,10.89-10.89,10.89Z"/>
    <path class="cls-18" d="M202.81,425.63c-12.03,0-21.78,9.75-21.78,21.78s9.75,21.78,21.78,21.78,21.78-9.75,21.78-21.78-9.75-21.78-21.78-21.78ZM202.81,458.29c-6.01,0-10.89-4.87-10.89-10.89s4.87-10.89,10.89-10.89,10.89,4.87,10.89,10.89-4.87,10.89-10.89,10.89Z"/>
    <path class="cls-3" d="M293.67,386.48c-12.03,0-21.78,9.75-21.78,21.78s9.75,21.78,21.78,21.78,21.78-9.75,21.78-21.78-9.75-21.78-21.78-21.78ZM293.67,419.14c-6.01,0-10.89-4.87-10.89-10.89s4.87-10.89,10.89-10.89,10.89,4.87,10.89,10.89-4.87,10.89-10.89,10.89Z"/>
  </g>
  <g>
    <rect class="cls-51" x="231.51" y="602.65" width="66.28" height="2.01" transform="translate(-392.64 652.63) rotate(-70.59)"/>
    <rect class="cls-2" x="189.2" y="562.57" width="2.01" height="96.22" transform="translate(-410.8 391.83) rotate(-52.69)"/>
    <rect class="cls-71" x="33.5" y="649.59" width="146.08" height="2.01" transform="translate(-541.02 526.93) rotate(-69.89)"/>
    <rect class="cls-56" x="75.22" y="614.94" width="2.01" height="60.35" transform="translate(-563.15 530.29) rotate(-73.08)"/>
    <path class="cls-77" d="M30.53,623.9c-5.39,5.39-5.39,14.12,0,19.5,5.39,5.39,14.12,5.39,19.5,0s5.39-14.12,0-19.5c-5.39-5.39-14.12-5.39-19.5,0ZM45.16,638.52c-2.69,2.69-7.06,2.69-9.75,0-2.69-2.69-2.69-7.06,0-9.75,2.69-2.69,7.06-2.69,9.75,0,2.69,2.69,2.69,7.06,0,9.75Z"/>
    <path class="cls-61" d="M57.36,716.95c-8.5,8.5-8.5,22.29,0,30.79,8.5,8.5,22.29,8.5,30.79,0,8.5-8.5,8.5-22.29,0-30.79-8.5-8.5-22.29-8.5-30.79,0ZM80.46,740.05c-4.25,4.25-11.15,4.25-15.4,0-4.25-4.25-4.25-11.15,0-15.4,4.25-4.25,11.15-4.25,15.4,0,4.25,4.25,4.25,11.15,0,15.4Z"/>
    <path class="cls-54" d="M125.64,552.4c-8.5,8.5-8.5,22.29,0,30.79,8.5,8.5,22.29,8.5,30.79,0,8.5-8.5,8.5-22.29,0-30.79-8.5-8.5-22.29-8.5-30.79,0ZM148.73,575.49c-4.25,4.25-11.15,4.25-15.4,0-4.25-4.25-4.25-11.15,0-15.4,4.25-4.25,11.15-4.25,15.4,0,4.25,4.25,4.25,11.15,0,15.4Z"/>
    <path class="cls-65" d="M228.45,632.03c-8.5,8.5-8.5,22.29,0,30.79,8.5,8.5,22.29,8.5,30.79,0,8.5-8.5,8.5-22.29,0-30.79-8.5-8.5-22.29-8.5-30.79,0ZM251.55,655.12c-4.25,4.25-11.15,4.25-15.4,0-4.25-4.25-4.25-11.15,0-15.4,4.25-4.25,11.15-4.25,15.4,0,4.25,4.25,4.25,11.15,0,15.4Z"/>
    <path class="cls-44" d="M265.01,540.09c-8.5,8.5-8.5,22.29,0,30.79,8.5,8.5,22.29,8.5,30.79,0,8.5-8.5,8.5-22.29,0-30.79-8.5-8.5-22.29-8.5-30.79,0ZM288.11,563.19c-4.25,4.25-11.15,4.25-15.4,0-4.25-4.25-4.25-11.15,0-15.4,4.25-4.25,11.15-4.25,15.4,0,4.25,4.25,4.25,11.15,0,15.4Z"/>
  </g>
  <g>
    <rect class="cls-73" x="397.06" y="681.04" width="2.01" height="66.28" transform="translate(-269.41 241.97) rotate(-25.59)"/>
    <rect class="cls-45" x="302.28" y="770.78" width="96.22" height="2.01" transform="translate(-100.15 53.84) rotate(-7.69)"/>
    <rect class="cls-16" x="318.45" y="786.13" width="2.01" height="146.08" transform="translate(-331.92 214.24) rotate(-24.89)"/>
    <rect class="cls-30" x="263.96" y="875.73" width="60.35" height="2.01" transform="translate(-378.07 241.66) rotate(-28.08)"/>
    <path class="cls-20" d="M246.83,894.04c0,7.62,6.17,13.79,13.79,13.79s13.79-6.17,13.79-13.79c0-7.62-6.17-13.79-13.79-13.79-7.62,0-13.79,6.17-13.79,13.79ZM267.52,894.04c0,3.81-3.09,6.9-6.9,6.9-3.81,0-6.9-3.09-6.9-6.9,0-3.81,3.09-6.9,6.9-6.9,3.81,0,6.9,3.09,6.9,6.9Z"/>
    <path class="cls-4" d="M331.6,940.87c0,12.03,9.75,21.78,21.78,21.78,12.03,0,21.78-9.75,21.78-21.78,0-12.03-9.75-21.78-21.78-21.78-12.03,0-21.78,9.75-21.78,21.78ZM364.26,940.87c0,6.01-4.87,10.89-10.89,10.89-6.01,0-10.89-4.87-10.89-10.89,0-6.01,4.87-10.89,10.89-10.89,6.01,0,10.89,4.87,10.89,10.89Z"/>
    <path class="cls-53" d="M263.52,776.23c0,12.03,9.75,21.78,21.78,21.78,12.03,0,21.78-9.75,21.78-21.78,0-12.03-9.75-21.78-21.78-21.78-12.03,0-21.78,9.75-21.78,21.78ZM296.19,776.23c0,6.01-4.87,10.89-10.89,10.89-6.01,0-10.89-4.87-10.89-10.89s4.87-10.89,10.89-10.89c6.01,0,10.89,4.87,10.89,10.89Z"/>
    <path class="cls-35" d="M392.53,759.84c0,12.03,9.75,21.78,21.78,21.78,12.03,0,21.78-9.75,21.78-21.78,0-12.03-9.75-21.78-21.78-21.78-12.03,0-21.78,9.75-21.78,21.78ZM425.19,759.84c0,6.01-4.87,10.89-10.89,10.89-6.01,0-10.89-4.87-10.89-10.89,0-6.01,4.87-10.89,10.89-10.89,6.01,0,10.89,4.87,10.89,10.89Z"/>
    <path class="cls-74" d="M353.38,668.98c0,12.03,9.75,21.78,21.78,21.78,12.03,0,21.78-9.75,21.78-21.78,0-12.03-9.75-21.78-21.78-21.78s-21.78,9.75-21.78,21.78ZM386.04,668.98c0,6.01-4.87,10.89-10.89,10.89-6.01,0-10.89-4.87-10.89-10.89,0-6.01,4.87-10.89,10.89-10.89,6.01,0,10.89,4.87,10.89,10.89Z"/>
  </g>
  <g>
    <rect class="cls-69" x="569.55" y="664.85" width="2.01" height="66.28" transform="translate(-277.39 1004.13) rotate(-70.59)"/>
    <rect class="cls-47" x="529.47" y="771.44" width="96.22" height="2.01" transform="translate(-386.88 763.66) rotate(-52.69)"/>
    <rect class="cls-42" x="616.49" y="783.07" width="2.01" height="146.08" transform="translate(-398.74 1141.58) rotate(-69.89)"/>
    <rect class="cls-34" x="581.84" y="885.42" width="60.35" height="2.01" transform="translate(-414.15 1213.98) rotate(-73.08)"/>
    <path class="cls-64" d="M590.8,932.11c5.39,5.39,14.12,5.39,19.5,0,5.39-5.39,5.39-14.12,0-19.5-5.39-5.39-14.12-5.39-19.5,0-5.39,5.39-5.39,14.12,0,19.5ZM605.42,917.49c2.69,2.69,2.69,7.06,0,9.75-2.69,2.69-7.06,2.69-9.75,0-2.69-2.69-2.69-7.06,0-9.75,2.69-2.69,7.06-2.69,9.75,0Z"/>
    <path class="cls-23" d="M683.85,905.29c8.5,8.5,22.29,8.5,30.79,0,8.5-8.5,8.5-22.29,0-30.79-8.5-8.5-22.29-8.5-30.79,0-8.5,8.5-8.5,22.29,0,30.79ZM706.95,882.19c4.25,4.25,4.25,11.15,0,15.4-4.25,4.25-11.15,4.25-15.4,0-4.25-4.25-4.25-11.15,0-15.4,4.25-4.25,11.15-4.25,15.4,0Z"/>
    <path class="cls-43" d="M519.3,837.01c8.5,8.5,22.29,8.5,30.79,0,8.5-8.5,8.5-22.29,0-30.79-8.5-8.5-22.29-8.5-30.79,0-8.5,8.5-8.5,22.29,0,30.79ZM542.39,813.91c4.25,4.25,4.25,11.15,0,15.4-4.25,4.25-11.15,4.25-15.4,0-4.25-4.25-4.25-11.15,0-15.4,4.25-4.25,11.15-4.25,15.4,0Z"/>
    <path class="cls-26" d="M598.93,734.19c8.5,8.5,22.29,8.5,30.79,0,8.5-8.5,8.5-22.29,0-30.79-8.5-8.5-22.29-8.5-30.79,0-8.5,8.5-8.5,22.29,0,30.79ZM622.02,711.1c4.25,4.25,4.25,11.15,0,15.4-4.25,4.25-11.15,4.25-15.4,0-4.25-4.25-4.25-11.15,0-15.4,4.25-4.25,11.15-4.25,15.4,0Z"/>
    <path class="cls-19" d="M506.99,697.63c8.5,8.5,22.29,8.5,30.79,0,8.5-8.5,8.5-22.29,0-30.79-8.5-8.5-22.29-8.5-30.79,0-8.5,8.5-8.5,22.29,0,30.79ZM530.09,674.54c4.25,4.25,4.25,11.15,0,15.4-4.25,4.25-11.15,4.25-15.4,0-4.25-4.25-4.25-11.15,0-15.4,4.25-4.25,11.15-4.25,15.4,0Z"/>
  </g>
  <g>
    <rect class="cls-70" x="647.94" y="563.58" width="66.28" height="2.01" transform="translate(-177.05 349.54) rotate(-25.59)"/>
    <rect class="cls-8" x="737.68" y="564.15" width="2.01" height="96.22" transform="translate(-75.3 104.38) rotate(-7.69)"/>
    <rect class="cls-15" x="753.03" y="642.19" width="146.08" height="2.01" transform="translate(-193.97 407.39) rotate(-24.89)"/>
    <rect class="cls-40" x="842.63" y="638.33" width="2.01" height="60.35" transform="translate(-215.37 475.8) rotate(-28.08)"/>
    <path class="cls-67" d="M860.94,715.81c7.62,0,13.79-6.17,13.79-13.79,0-7.62-6.17-13.79-13.79-13.79-7.62,0-13.79,6.17-13.79,13.79,0,7.62,6.17,13.79,13.79,13.79ZM860.94,695.13c3.81,0,6.9,3.09,6.9,6.9,0,3.81-3.09,6.9-6.9,6.9-3.81,0-6.9-3.09-6.9-6.9,0-3.81,3.09-6.9,6.9-6.9Z"/>
    <path class="cls-9" d="M907.77,631.05c12.03,0,21.78-9.75,21.78-21.78,0-12.03-9.75-21.78-21.78-21.78-12.03,0-21.78,9.75-21.78,21.78,0,12.03,9.75,21.78,21.78,21.78ZM907.77,598.38c6.01,0,10.89,4.87,10.89,10.89,0,6.01-4.87,10.89-10.89,10.89s-10.89-4.87-10.89-10.89c0-6.01,4.87-10.89,10.89-10.89Z"/>
    <path class="cls-29" d="M743.13,699.12c12.03,0,21.78-9.75,21.78-21.78s-9.75-21.78-21.78-21.78c-12.03,0-21.78,9.75-21.78,21.78,0,12.03,9.75,21.78,21.78,21.78ZM743.13,666.46c6.01,0,10.89,4.87,10.89,10.89,0,6.01-4.87,10.89-10.89,10.89-6.01,0-10.89-4.87-10.89-10.89,0-6.01,4.87-10.89,10.89-10.89Z"/>
    <path class="cls-68" d="M726.74,570.12c12.03,0,21.78-9.75,21.78-21.78,0-12.03-9.75-21.78-21.78-21.78s-21.78,9.75-21.78,21.78,9.75,21.78,21.78,21.78ZM726.74,537.45c6.01,0,10.89,4.87,10.89,10.89,0,6.01-4.87,10.89-10.89,10.89-6.01,0-10.89-4.87-10.89-10.89,0-6.01,4.87-10.89,10.89-10.89Z"/>
    <path class="cls-41" d="M635.88,609.27c12.03,0,21.78-9.75,21.78-21.78,0-12.03-9.75-21.78-21.78-21.78-12.03,0-21.78,9.75-21.78,21.78,0,12.03,9.75,21.78,21.78,21.78ZM635.88,576.61c6.01,0,10.89,4.87,10.89,10.89,0,6.01-4.87,10.89-10.89,10.89-6.01,0-10.89-4.87-10.89-10.89,0-6.01,4.87-10.89,10.89-10.89Z"/>
  </g>
  <g>
    <rect class="cls-57" x="631.75" y="391.09" width="66.28" height="2.01" transform="translate(74.11 888.88) rotate(-70.59)"/>
    <rect class="cls-48" x="738.34" y="336.96" width="2.01" height="96.22" transform="translate(-15.06 739.74) rotate(-52.69)"/>
    <rect class="cls-27" x="749.97" y="344.15" width="146.08" height="2.01" transform="translate(215.91 999.29) rotate(-69.89)"/>
    <rect class="cls-7" x="852.32" y="320.45" width="2.01" height="60.35" transform="translate(269.53 1064.98) rotate(-73.08)"/>
    <path class="cls-46" d="M899.01,371.85c5.39-5.39,5.39-14.12,0-19.5-5.39-5.39-14.12-5.39-19.5,0-5.39,5.39-5.39,14.12,0,19.5,5.39,5.39,14.12,5.39,19.5,0ZM884.39,357.22c2.69-2.69,7.06-2.69,9.75,0,2.69,2.69,2.69,7.06,0,9.75-2.69,2.69-7.06,2.69-9.75,0-2.69-2.69-2.69-7.06,0-9.75Z"/>
    <path class="cls-25" d="M872.19,278.79c8.5-8.5,8.5-22.29,0-30.79-8.5-8.5-22.29-8.5-30.79,0-8.5,8.5-8.5,22.29,0,30.79,8.5,8.5,22.29,8.5,30.79,0ZM849.09,255.7c4.25-4.25,11.15-4.25,15.4,0,4.25,4.25,4.25,11.15,0,15.4-4.25,4.25-11.15,4.25-15.4,0-4.25-4.25-4.25-11.15,0-15.4Z"/>
    <path class="cls-14" d="M803.91,443.35c8.5-8.5,8.5-22.29,0-30.79-8.5-8.5-22.29-8.5-30.79,0-8.5,8.5-8.5,22.29,0,30.79,8.5,8.5,22.29,8.5,30.79,0ZM780.81,420.25c4.25-4.25,11.15-4.25,15.4,0,4.25,4.25,4.25,11.15,0,15.4s-11.15,4.25-15.4,0c-4.25-4.25-4.25-11.15,0-15.4Z"/>
    <path class="cls-50" d="M701.09,363.72c8.5-8.5,8.5-22.29,0-30.79-8.5-8.5-22.29-8.5-30.79,0-8.5,8.5-8.5,22.29,0,30.79,8.5,8.5,22.29,8.5,30.79,0ZM678,340.62c4.25-4.25,11.15-4.25,15.4,0s4.25,11.15,0,15.4c-4.25,4.25-11.15,4.25-15.4,0-4.25-4.25-4.25-11.15,0-15.4Z"/>
    <path class="cls-28" d="M664.53,455.65c8.5-8.5,8.5-22.29,0-30.79-8.5-8.5-22.29-8.5-30.79,0-8.5,8.5-8.5,22.29,0,30.79,8.5,8.5,22.29,8.5,30.79,0ZM641.44,432.56c4.25-4.25,11.15-4.25,15.4,0,4.25,4.25,4.25,11.15,0,15.4-4.25,4.25-11.15,4.25-15.4,0-4.25-4.25-4.25-11.15,0-15.4Z"/>
  </g>
  <g>
    <rect class="cls-59" x="530.48" y="248.43" width="2.01" height="66.28" transform="translate(-69.48 257.17) rotate(-25.59)"/>
    <rect class="cls-11" x="531.05" y="222.96" width="96.22" height="2.01" transform="translate(-24.77 79.53) rotate(-7.69)"/>
    <rect class="cls-1" x="609.09" y="63.53" width="2.01" height="146.08" transform="translate(-.82 269.44) rotate(-24.89)"/>
    <rect class="cls-52" x="605.23" y="118.01" width="60.35" height="2.01" transform="translate(18.78 313.1) rotate(-28.08)"/>
    <path class="cls-76" d="M682.71,101.71c0-7.62-6.17-13.79-13.79-13.79-7.62,0-13.79,6.17-13.79,13.79,0,7.62,6.17,13.79,13.79,13.79,7.62,0,13.79-6.17,13.79-13.79ZM662.03,101.71c0-3.81,3.09-6.9,6.9-6.9,3.81,0,6.9,3.09,6.9,6.9,0,3.81-3.09,6.9-6.9,6.9-3.81,0-6.9-3.09-6.9-6.9Z"/>
    <path class="cls-13" d="M597.94,54.88c0-12.03-9.75-21.78-21.78-21.78-12.03,0-21.78,9.75-21.78,21.78,0,12.03,9.75,21.78,21.78,21.78,12.03,0,21.78-9.75,21.78-21.78ZM565.28,54.88c0-6.01,4.87-10.89,10.89-10.89,6.01,0,10.89,4.87,10.89,10.89,0,6.01-4.87,10.89-10.89,10.89-6.01,0-10.89-4.87-10.89-10.89Z"/>
    <path class="cls-5" d="M666.02,219.51c0-12.03-9.75-21.78-21.78-21.78-12.03,0-21.78,9.75-21.78,21.78,0,12.03,9.75,21.78,21.78,21.78,12.03,0,21.78-9.75,21.78-21.78ZM633.36,219.51c0-6.01,4.87-10.89,10.89-10.89,6.01,0,10.89,4.87,10.89,10.89,0,6.01-4.87,10.89-10.89,10.89s-10.89-4.87-10.89-10.89Z"/>
    <path class="cls-49" d="M537.02,235.91c0-12.03-9.75-21.78-21.78-21.78-12.03,0-21.78,9.75-21.78,21.78,0,12.03,9.75,21.78,21.78,21.78,12.03,0,21.78-9.75,21.78-21.78ZM504.35,235.91c0-6.01,4.87-10.89,10.89-10.89s10.89,4.87,10.89,10.89c0,6.01-4.87,10.89-10.89,10.89-6.01,0-10.89-4.87-10.89-10.89Z"/>
    <path class="cls-55" d="M576.17,326.77c0-12.03-9.75-21.78-21.78-21.78-12.03,0-21.78,9.75-21.78,21.78,0,12.03,9.75,21.78,21.78,21.78,12.03,0,21.78-9.75,21.78-21.78ZM543.51,326.77c0-6.01,4.87-10.89,10.89-10.89,6.01,0,10.89,4.87,10.89,10.89,0,6.01-4.87,10.89-10.89,10.89-6.01,0-10.89-4.87-10.89-10.89Z"/>
  </g>
  <g>
    <rect class="cls-21" x="336.52" y="205.02" width="2.01" height="66.28" transform="translate(.72 477.34) rotate(-70.59)"/>
    <rect class="cls-6" x="282.39" y="162.71" width="96.22" height="2.01" transform="translate(-.03 327.36) rotate(-52.69)"/>
    <rect class="cls-10" x="289.57" y="7" width="2.01" height="146.08" transform="translate(115.5 325.38) rotate(-69.89)"/>
    <rect class="cls-39" x="265.88" y="48.72" width="60.35" height="2.01" transform="translate(162.32 318.5) rotate(-73.08)"/>
    <path class="cls-32" d="M317.27,4.04c-5.39-5.39-14.12-5.39-19.5,0-5.39,5.39-5.39,14.12,0,19.5,5.39,5.39,14.12,5.39,19.5,0s5.39-14.12,0-19.5ZM302.65,18.67c-2.69-2.69-2.69-7.06,0-9.75,2.69-2.69,7.06-2.69,9.75,0,2.69,2.69,2.69,7.06,0,9.75-2.69,2.69-7.06,2.69-9.75,0Z"/>
    <path class="cls-38" d="M224.22,30.87c-8.5-8.5-22.29-8.5-30.79,0-8.5,8.5-8.5,22.29,0,30.79,8.5,8.5,22.29,8.5,30.79,0,8.5-8.5,8.5-22.29,0-30.79ZM201.12,53.96c-4.25-4.25-4.25-11.15,0-15.4,4.25-4.25,11.15-4.25,15.4,0,4.25,4.25,4.25,11.15,0,15.4s-11.15,4.25-15.4,0Z"/>
    <path class="cls-31" d="M388.77,99.15c-8.5-8.5-22.29-8.5-30.79,0-8.5,8.5-8.5,22.29,0,30.79,8.5,8.5,22.29,8.5,30.79,0,8.5-8.5,8.5-22.29,0-30.79ZM365.68,122.24c-4.25-4.25-4.25-11.15,0-15.4,4.25-4.25,11.15-4.25,15.4,0,4.25,4.25,4.25,11.15,0,15.4-4.25,4.25-11.15,4.25-15.4,0Z"/>
    <path class="cls-24" d="M309.14,201.96c-8.5-8.5-22.29-8.5-30.79,0-8.5,8.5-8.5,22.29,0,30.79,8.5,8.5,22.29,8.5,30.79,0,8.5-8.5,8.5-22.29,0-30.79ZM286.05,225.06c-4.25-4.25-4.25-11.15,0-15.4,4.25-4.25,11.15-4.25,15.4,0,4.25,4.25,4.25,11.15,0,15.4-4.25,4.25-11.15,4.25-15.4,0Z"/>
    <path class="cls-36" d="M401.08,238.52c-8.5-8.5-22.29-8.5-30.79,0-8.5,8.5-8.5,22.29,0,30.79,8.5,8.5,22.29,8.5,30.79,0,8.5-8.5,8.5-22.29,0-30.79ZM377.98,261.62c-4.25-4.25-4.25-11.15,0-15.4,4.25-4.25,11.15-4.25,15.4,0,4.25,4.25,4.25,11.15,0,15.4-4.25,4.25-11.15,4.25-15.4,0Z"/>
  </g>
</svg>