<svg xmlns="http://www.w3.org/2000/svg" xmlns:xlink="http://www.w3.org/1999/xlink" viewBox="0 0 1141.04 1045.86"><defs><linearGradient id="a" x1="610.53" y1="985.23" x2="610.53" gradientUnits="userSpaceOnUse"><stop offset="0" stop-color="#510e96"/><stop offset="1" stop-color="#750ec6"/></linearGradient><linearGradient id="b" x1="416.73" y1="856.89" x2="416.73" y2="212.71" gradientTransform="translate(241.16 -61.13)" gradientUnits="userSpaceOnUse"><stop offset="0" stop-color="#260b62"/><stop offset="1" stop-color="#531499"/></linearGradient><linearGradient id="c" x1="290.77" y1="1031.99" x2="357.76" y2="965" gradientTransform="matrix(1, 0, 0, 1, 0, 0)" xlink:href="#b"/><linearGradient id="d" x1="712.2" y1="120.95" x2="745.69" y2="87.46" gradientUnits="userSpaceOnUse"><stop offset="0" stop-color="#531499"/><stop offset="1" stop-color="#260b62"/></linearGradient><linearGradient id="e" x1="506.32" y1="791.02" x2="506.32" y2="222.62" xlink:href="#d"/><linearGradient id="f" x1="132.13" y1="298.41" x2="274.23" y2="298.41" gradientUnits="userSpaceOnUse"><stop offset="0" stop-color="#940e8c"/><stop offset="1" stop-color="#fa6ff5"/></linearGradient></defs><g opacity="0.75"><path d="M848.06,242.67A283.49,283.49,0,0,1,920.35,269c47.33,24.81,82,60.49,103.16,106.07,17.09,36.89,25.43,80.44,24.77,129.43-1.07,79.22-25.55,150-33,169.77a10.17,10.17,0,0,0-.4,1.17h0c-40,105.12-98,178.57-172.43,218.32C774.29,930.11,692.72,938.29,600,918.08,483.5,892.69,350.74,822.18,216,714.16c-83.16-66.69-148.78-151-184.79-237.32-16.95-40.65-26.7-79.9-29-116.65-2.28-37,3.15-69.6,16.16-96.85C52.81,191.35,135.74,165.65,252,191c11.85,2.58,24.19,5.73,36.68,9.35,24.85,7.21,49.71,13.53,73.89,18.8C497,248.46,595,242.84,681.43,237.89c61.48-3.53,114.57-6.57,166.63,4.78Zm.38-1.76c-123.91-27-253.19,27.12-485.52-23.52-23.52-5.12-48.05-11.31-73.77-18.77q-19-5.52-36.79-9.38C-88.06,115-67.58,489,214.92,715.56c128.38,103,261.94,177.52,384.66,204.27,177.84,38.76,333-22.82,416.93-243.75-.3-.19,120.92-295.32-95.33-408.66a286.4,286.4,0,0,0-72.74-26.51Z" fill="#fa6ff5"/></g><path d="M1096.17,313.51C1010,187,859.13,166.76,767.71,179.91s-192.8,7.13-271-95.14S277.48-27.1,200.15,55.25C116.52,144.33,2.69,360.77,154.53,612.46,251.27,772.83,399.08,878,527.31,932.7s235.28,74.92,299.15,20.37,26.7-116.83,13.63-144.79S807,697.81,953.73,668.28C1128.53,633.1,1192.52,455,1096.17,313.51Z" opacity="0.75" fill="url(#a)"/><path d="M922.65,271.72c-116.92-86.14-254.82-118.22-363.79-120s-192.56,14.8-223,72.12,14.67,90.89,32.3,107,56.23,69-41.67,132.55c-116.59,75.65-111.13,221,0,293.77,99.35,65.1,214.75,35.83,277.25,0s137.82-60.9,224.36-10.75,191.67,16.16,223.79-64.85C1086.61,593.93,1106.16,406.91,922.65,271.72Z" opacity="0.75" fill="url(#b)"/><circle cx="324.26" cy="998.49" r="47.37" opacity="0.75" fill="url(#c)"/><circle cx="728.95" cy="104.21" r="23.68" opacity="0.75" fill="url(#d)"/><path d="M772.9,230.88c-134.36-38.64-219.74,71.89-479.33,53.47-298-21.16-225.92,281,28.48,413.31C595.69,840,864.67,845.07,909.51,531.6,909.26,531.51,951.41,282.21,772.9,230.88Z" opacity="0.75" fill="url(#e)"/><circle cx="203.18" cy="298.41" r="71.05" opacity="0.5" fill="url(#f)"/></svg>