<svg width="154" height="66" viewBox="0 0 154 66" fill="none" xmlns="http://www.w3.org/2000/svg">
<path d="M35.4795 0.0900879H39.7795C42.7795 0.0900879 44.8595 1.84009 44.8595 4.64009C44.8595 7.44009 42.7895 9.18009 39.7795 9.18009H35.4795V0.0900879ZM39.6795 7.09009C40.3425 7.09009 40.9784 6.8267 41.4472 6.35786C41.9161 5.88902 42.1795 5.25313 42.1795 4.59009C42.1795 3.92705 41.9161 3.29117 41.4472 2.82233C40.9784 2.35349 40.3425 2.09009 39.6795 2.09009H38.0495V7.09009H39.6795Z" fill="#F1426A"/>
<path d="M54.1701 7.20009V9.20009H46.8701V0.0900879H54.0001V2.09009H49.4101V3.62009H53.4101V5.54009H49.4101V7.20009H54.1701Z" fill="#F1426A"/>
<path d="M62.3502 7.42009H58.5002L57.7902 9.18009H55.1602L59.1602 0.0900879H61.6902L65.6902 9.18009H63.0102L62.3502 7.42009ZM61.5901 5.52009L60.4202 2.61009L59.2502 5.52009H61.5901Z" fill="#F1426A"/>
<path d="M67.1201 0.0900879H71.4201C74.4201 0.0900879 76.5001 1.84009 76.5001 4.64009C76.5001 7.44009 74.4401 9.18009 71.4201 9.18009H67.1201V0.0900879ZM71.3201 7.09009C71.9832 7.09009 72.619 6.8267 73.0879 6.35786C73.5567 5.88902 73.8201 5.25313 73.8201 4.59009C73.8201 3.92705 73.5567 3.29117 73.0879 2.82233C72.619 2.35349 71.9832 2.09009 71.3201 2.09009H69.6901V7.09009H71.3201Z" fill="#F1426A"/>
<path d="M78.5098 0.0900879H81.0797V7.09009H85.4198V9.09009H78.5098V0.0900879Z" fill="#F1426A"/>
<path d="M87.0898 0.0900879H89.6599V9.18009H87.0898V0.0900879Z" fill="#F1426A"/>
<path d="M100.8 0.0900879V9.18009H98.6801L94.6801 4.34009V9.18009H92.1602V0.0900879H94.2802L98.2802 4.94009V0.0900879H100.8Z" fill="#F1426A"/>
<path d="M110.57 7.20009V9.20009H103.27V0.0900879H110.4V2.09009H105.82V3.62009H109.82V5.54009H105.82V7.20009H110.57Z" fill="#F1426A"/>
</svg>
