<svg width="659" height="270" viewBox="0 0 659 270" fill="none" xmlns="http://www.w3.org/2000/svg">
<path d="M79.2295 217.49C67.8317 217.511 56.9067 222.048 48.8473 230.108C40.7878 238.167 36.2506 249.092 36.2295 260.49C36.2295 261.8 36.2895 263.1 36.4095 264.38H47.4395C47.2783 263.09 47.1982 261.79 47.1995 260.49C47.1995 256.284 48.0278 252.12 49.6372 248.235C51.2467 244.349 53.6056 240.819 56.5794 237.845C59.5532 234.871 63.0836 232.512 66.9691 230.903C70.8545 229.293 75.0189 228.465 79.2245 228.465C83.4301 228.465 87.5945 229.293 91.4799 230.903C95.3654 232.512 98.8958 234.871 101.87 237.845C104.843 240.819 107.202 244.349 108.812 248.235C110.421 252.12 111.249 256.284 111.249 260.49C111.251 261.79 111.171 263.09 111.009 264.38H122.069C122.189 263.1 122.249 261.8 122.249 260.49C122.228 249.089 117.688 238.161 109.625 230.101C101.561 222.041 90.6308 217.506 79.2295 217.49V217.49Z" fill="#D0E0F4"/>
<path d="M72.3999 248.82C72.3999 248.82 72.3398 250.6 70.4998 255.77C68.6598 260.94 69.1998 263.41 69.1998 263.41H89.1998C89.5564 260.826 89.3309 258.195 88.5398 255.71C87.871 253.451 87.3565 251.149 86.9998 248.82C86.9998 248.82 79.0599 245.5 72.3999 248.82Z" fill="url(#paint0_linear)"/>
<path d="M72.3994 241.52V248.82C74.6428 250.006 77.1419 250.625 79.6794 250.625C82.2169 250.625 84.716 250.006 86.9594 248.82L87.6694 241.52H72.3994Z" fill="url(#paint1_linear)"/>
<path d="M117.67 241.28L118.15 249.77C118.15 249.77 126.46 253.34 133 247.69V239.26L117.67 241.28Z" fill="url(#paint2_linear)"/>
<path d="M135 244C132.188 244.771 129.295 245.21 126.38 245.31C122.726 245.502 119.063 245.378 115.43 244.94C115.43 244.94 112.37 208.52 114.87 177.52L98.9001 134L98.1201 131.89L102.22 100.53L129.85 109.67C129.85 109.67 139.65 167 140.18 176.67C140.71 186.34 135 244 135 244Z" fill="url(#paint3_linear)"/>
<g style="mix-blend-mode:multiply" opacity="0.35">
<path d="M126.389 245.32C122.736 245.512 119.072 245.388 115.439 244.95C115.439 244.95 112.379 208.53 114.879 177.53L98.8994 134L106.739 129.29C106.739 129.29 105.309 143.65 116.239 153.64C127.169 163.63 127.639 168.84 123.239 188.33C119.139 206.57 117.629 230.62 126.389 245.32Z" fill="#E58C33"/>
</g>
<path d="M113.629 111.24C113.629 111.24 111.129 124.43 105.549 130.84L90.6794 244.66C86.3 246.054 81.6737 246.497 77.1094 245.96C74.7419 245.737 72.3992 245.302 70.1094 244.66L72.2694 117.54L86.6394 105.27L86.7494 105.18L113.629 111.24Z" fill="url(#paint4_linear)"/>
<g style="mix-blend-mode:multiply" opacity="0.35">
<path d="M78.9394 170.29C82.9394 195.24 82.7094 212.17 78.9394 224.7C76.7694 231.93 76.7394 240.23 77.1094 245.96C74.7419 245.737 72.3992 245.302 70.1094 244.66L72.2694 117.54L86.6394 105.27L91.8594 113.97C91.8594 113.97 72.4494 130.21 78.9394 170.29Z" fill="#E58C33"/>
</g>
<path d="M96.19 111.39C96.19 111.39 104.19 115.67 118.41 110.56L115 46.2801L108.23 42.3601L90.75 46.5201L96.19 111.39Z" fill="url(#paint5_linear)"/>
<path d="M125.21 37.5499L122.68 32.1499C120.34 30.3102 118.438 27.974 117.11 25.3099C117.11 25.3099 109.98 24.1599 109.18 23.3099C107.64 21.6899 110.53 19.8999 112.68 19.2099C114.774 18.4489 117.045 18.3236 119.21 18.8499C121.111 19.376 122.97 20.0446 124.77 20.8499C125.97 21.5199 129.31 26.3499 130.03 27.6399L135.03 33.3699L125.21 37.5499Z" fill="url(#paint6_linear)"/>
<path d="M93.27 34.6C93.27 34.6 86.45 27.48 86.27 18.92C86.09 10.36 89.79 10.23 89.79 10.23C89.79 10.23 89.79 5.05998 96.07 4.61998C102.35 4.17998 105.25 0.0699874 109.93 1.13999C114.61 2.20999 117.77 6.35998 115.5 11.79C115.5 11.79 120.26 15.4 113.05 23.38C105.84 31.36 93.27 34.6 93.27 34.6Z" fill="url(#paint7_linear)"/>
<path d="M110.4 43.8099L106.74 50.2899C104.503 49.6192 102.37 48.6434 100.4 47.3899C97.4347 45.7707 94.7059 43.7518 92.29 41.3899C93.0643 37.9555 93.4169 34.4396 93.34 30.9199V30.7799C93.3943 29.8928 93.2509 29.0047 92.92 28.1799C92.92 28.1799 111 26.9999 110.06 33.8299C109 41.9999 110.4 43.8099 110.4 43.8099Z" fill="url(#paint8_linear)"/>
<path d="M113.51 15.3601C114.161 19.3336 114.161 23.3866 113.51 27.3601C112.44 34.1301 111.76 37.3601 107.61 38.4801C104.49 39.2901 97.99 35.3901 96.33 33.8401C94.7015 32.2795 93.5206 30.3114 92.91 28.1401C91.9938 27.8675 91.1976 27.2913 90.6524 26.5062C90.1072 25.7211 89.8454 24.7738 89.91 23.8201C90.22 20.4801 93.52 20.3501 94.14 25.8201C94.14 25.8201 98.14 25.3801 97.14 18.6901C97.14 18.6901 101.68 20.6901 104.85 17.4901C108.02 14.2901 111.79 14.0001 113.51 15.3601Z" fill="url(#paint9_linear)"/>
<path d="M106.739 50.4999L104.409 45.7399C104.409 45.7399 95.5895 42.8599 92.9095 37.9099C91.6881 39.2043 90.9105 40.854 90.6895 42.6199C92.4002 47.3334 95.9048 51.1796 100.439 53.3199C100.715 51.5769 101.542 49.9681 102.799 48.7299C104.072 49.4075 105.388 49.9988 106.739 50.4999V50.4999Z" fill="url(#paint10_linear)"/>
<path d="M106.64 50.4799C107.622 48.8994 108.132 47.0708 108.11 45.21C108.11 45.21 110.51 43.4 109.64 39.21C111.256 40.3468 112.418 42.0188 112.92 43.9299C113.99 47.3799 112.56 51.7599 112.56 51.7599C112.56 51.7599 111.31 49.07 109.65 48.13L106.64 50.4799Z" fill="url(#paint11_linear)"/>
<path d="M98.4797 118.81C97.3197 120.6 87.7897 123.81 70.2297 120.15C70.2297 120.15 75.8497 89.9399 75.8497 87.7099C75.7843 86.7041 75.6641 85.7026 75.4897 84.7099C74.6997 79.5599 72.8897 70.1099 72.8197 69.7099L72.5897 69.8499L71.2697 70.6099C68.3597 72.2699 61.9497 75.76 57.1297 77.2C54.4597 78 45.5097 77.5899 44.1797 73.4899L76.7397 42.2699C76.7397 42.2699 87.0697 41.3499 91.9297 39.1799C91.9297 39.1799 98.0297 57.8599 99.7297 72.2999C101.43 86.7399 99.6397 117 98.4797 118.81Z" fill="url(#paint12_linear)"/>
<g style="mix-blend-mode:multiply" opacity="0.32">
<path d="M88.2293 60.8899C88.2293 60.8899 83.6093 75.4099 75.4893 84.6899C74.6993 79.5399 72.8893 70.0899 72.8193 69.6899L88.2293 60.8899Z" fill="#5E3FD1"/>
</g>
<path d="M78.2099 38.6601L83.4699 33.7101C84.3452 33.5925 85.1693 33.2295 85.8471 32.6633C86.5248 32.097 87.0285 31.3505 87.2999 30.5101C87.9802 28.7304 88.5611 26.9143 89.0399 25.0701C89.0399 25.0701 95.8499 22.3101 96.6599 20.7501C96.9661 19.9978 97.0134 19.1651 96.7944 18.383C96.5753 17.6009 96.1023 16.9138 95.4499 16.4301C93.9679 15.729 92.3078 15.4954 90.6899 15.7601C89.2999 16.0301 83.0699 17.4501 82.1799 18.5201C81.2899 19.5901 76.7799 27.0301 76.7799 27.0301L71.8799 31.1701L78.2099 38.6601Z" fill="url(#paint13_linear)"/>
<path d="M81.0602 39.18C81.0602 39.18 79.7202 41.27 77.6302 44.42C71.9602 52.95 60.7702 69.21 55.6302 72.65C48.5702 77.35 43.7802 75.32 42.0802 69.7C40.3802 64.08 43.3902 55.6501 54.2002 45.0201C59.5802 39.7301 63.9502 35.6301 66.9502 32.8801C69.9502 30.1301 71.4902 28.8 71.4902 28.8C71.4902 28.8 74.8202 30.63 81.0602 39.18Z" fill="url(#paint14_linear)"/>
<g style="mix-blend-mode:screen" opacity="0.47">
<path d="M81.0594 39.1801C81.0594 39.1801 79.7194 41.2701 77.6294 44.4201C74.1094 38.4901 66.9395 32.8901 66.9395 32.8901C69.8595 30.2201 71.4795 28.8101 71.4795 28.8101C71.4795 28.8101 74.8194 30.6301 81.0594 39.1801Z" fill="#5D83E4"/>
</g>
<path d="M142.62 79.7799C141.07 79.9699 139.06 79.2399 137.01 78.1299C133.42 76.0262 130.068 73.5419 127.01 70.7199C127.01 71.0199 127.01 71.3199 127.01 71.6099V71.8499C127.41 102.12 134.69 117.92 134.69 117.92C129.79 120.24 116.6 120.6 115.08 117.92C113.56 115.24 113.84 92.7899 113.92 69.1799C114 45.5699 109.74 39.4299 109.74 39.4299C113.25 40.9599 120.61 41.8999 125.06 43.3399L123.19 36.6099C129.34 31.0499 137.45 31.8699 137.45 31.8699C137.45 31.8699 151.23 64.6599 151.71 68.9399C152.19 73.2199 147.85 79.1599 142.62 79.7799Z" fill="url(#paint15_linear)"/>
<path d="M146.79 78.1199C143.7 79.8099 137.03 81.8899 133.35 71.1999C130.72 63.5499 126.68 49.1199 124.59 41.5399C123.77 38.5399 123.25 36.6099 123.25 36.6099C129.07 30.1899 137.51 31.8699 137.51 31.8699C137.51 31.8699 138.35 33.7299 139.63 36.6099C143.49 45.3299 151.33 63.4099 151.8 67.5099C152.43 72.9999 149.87 76.4299 146.79 78.1199Z" fill="url(#paint16_linear)"/>
<g style="mix-blend-mode:multiply" opacity="0.32">
<path d="M127.05 70.7201C127.05 71.0201 127.05 71.3201 127.05 71.6101L126.54 55.6101C126.54 55.6101 130.29 72.8601 137 78.1601C133.426 76.044 130.09 73.5496 127.05 70.7201V70.7201Z" fill="#5E3FD1"/>
</g>
<g style="mix-blend-mode:screen" opacity="0.47">
<path d="M139.63 36.6099C129.03 36.3699 124.63 41.5399 124.63 41.5399C123.81 38.5399 123.29 36.6099 123.29 36.6099C129.11 30.1899 137.55 31.8699 137.55 31.8699C137.55 31.8699 138.35 33.7299 139.63 36.6099Z" fill="#5D83E4"/>
</g>
<g style="mix-blend-mode:multiply" opacity="0.7">
<path d="M110.399 110.07C110.308 110.068 110.221 110.034 110.153 109.974C110.085 109.913 110.041 109.83 110.029 109.74C110.029 109.69 109.319 104.22 108.369 80.5099C107.419 56.7999 106.369 50.4099 106.369 50.3499C106.355 50.252 106.379 50.1522 106.437 50.0719C106.495 49.9916 106.582 49.9371 106.679 49.9199C106.728 49.9113 106.778 49.9126 106.826 49.9237C106.874 49.9347 106.92 49.9553 106.96 49.9842C107 50.0131 107.034 50.0497 107.059 50.0919C107.085 50.1341 107.102 50.181 107.109 50.2299C107.109 50.2899 108.109 56.7699 109.109 80.4899C110.109 104.21 110.759 109.59 110.759 109.64C110.774 109.739 110.748 109.84 110.688 109.921C110.628 110.001 110.539 110.055 110.439 110.07H110.399Z" fill="#BFD9FE"/>
</g>
<path d="M118.15 249.77C117.22 254.203 116.957 258.75 117.37 263.26H131.16L132.46 261.26C132.46 261.26 138.76 264.11 148.46 263.26C158.16 262.41 156.6 259.52 156.19 258.33C155.78 257.14 152.68 258.74 144.54 255C136.4 251.26 135.99 247.46 134.92 246.8C133.85 246.14 133.02 247.69 133.02 247.69C130.913 249.252 128.448 250.261 125.85 250.624C123.252 250.988 120.605 250.694 118.15 249.77V249.77Z" fill="url(#paint17_linear)"/>
<g style="mix-blend-mode:screen" opacity="0.47">
<path d="M69.2002 263.41C69.2002 263.41 73.6502 256.72 81.0202 256.25C86.9502 255.87 89.1602 263.41 89.1602 263.41H69.2002Z" fill="#5D83E4"/>
</g>
<path d="M655.06 263.41H3.74953C2.10372 263.41 0.769531 264.744 0.769531 266.39V266.4C0.769531 268.046 2.10372 269.38 3.74953 269.38H655.06C656.705 269.38 658.039 268.046 658.039 266.4V266.39C658.039 264.744 656.705 263.41 655.06 263.41Z" fill="#D0E0F4"/>
<path d="M474.72 259.52H451.43L453.18 236.88L453.6 231.54L454.01 226.19L454.85 215.32L455.59 205.81C460.528 204.696 465.652 204.696 470.59 205.81L471.33 215.32L472.17 226.19L472.58 231.54L473 236.88L474.72 259.52Z" fill="url(#paint18_linear)"/>
<path d="M445.459 257.73H480.679C482.186 257.73 483.63 258.328 484.696 259.394C485.761 260.459 486.359 261.904 486.359 263.41V263.41H439.779C439.779 261.904 440.378 260.459 441.443 259.394C442.508 258.328 443.953 257.73 445.459 257.73V257.73Z" fill="url(#paint19_linear)"/>
<g style="mix-blend-mode:screen" opacity="0.47">
<path d="M472.13 226.19H454L454.85 215.32H471.29L472.13 226.19Z" fill="#FF78B9"/>
</g>
<g style="mix-blend-mode:screen" opacity="0.47">
<path d="M472.97 236.88H453.18L453.6 231.54H472.54L472.97 236.88Z" fill="#FF78B9"/>
</g>
<path d="M527.47 259.52H504.18L505.93 236.88L506.35 231.54L506.76 226.19L507.6 215.32L508.34 205.81C513.278 204.696 518.402 204.696 523.34 205.81L524.08 215.32L524.92 226.19L525.33 231.54L525.75 236.88L527.47 259.52Z" fill="url(#paint20_linear)"/>
<path d="M498.209 257.73H533.429C534.936 257.73 536.38 258.328 537.446 259.394C538.511 260.459 539.109 261.904 539.109 263.41V263.41H492.529C492.529 261.904 493.128 260.459 494.193 259.394C495.258 258.328 496.703 257.73 498.209 257.73V257.73Z" fill="url(#paint21_linear)"/>
<g style="mix-blend-mode:screen" opacity="0.47">
<path d="M524.89 226.19H506.76L507.6 215.32H524.05L524.89 226.19Z" fill="#FF78B9"/>
</g>
<g style="mix-blend-mode:screen" opacity="0.47">
<path d="M525.72 236.88H505.93L506.35 231.54H525.3L525.72 236.88Z" fill="#FF78B9"/>
</g>
<defs>
<linearGradient id="paint0_linear" x1="69.1198" y1="255.38" x2="89.3198" y2="255.38" gradientUnits="userSpaceOnUse">
<stop stop-color="#4063D7"/>
<stop offset="1" stop-color="#3D92F5"/>
</linearGradient>
<linearGradient id="paint1_linear" x1="73.1294" y1="246.08" x2="86.1994" y2="246.08" gradientUnits="userSpaceOnUse">
<stop stop-color="#FFA290"/>
<stop offset="1" stop-color="#FECBA6"/>
</linearGradient>
<linearGradient id="paint2_linear" x1="2667.2" y1="5198.6" x2="2879.73" y2="5181.86" gradientUnits="userSpaceOnUse">
<stop stop-color="#FFA290"/>
<stop offset="1" stop-color="#FECBA6"/>
</linearGradient>
<linearGradient id="paint3_linear" x1="110.27" y1="173.34" x2="142.35" y2="170.26" gradientUnits="userSpaceOnUse">
<stop stop-color="#F29638"/>
<stop offset="1" stop-color="#FEDB58"/>
</linearGradient>
<linearGradient id="paint4_linear" x1="5211.56" y1="50394.7" x2="7104.25" y2="50394.7" gradientUnits="userSpaceOnUse">
<stop stop-color="#F29638"/>
<stop offset="1" stop-color="#FEDB58"/>
</linearGradient>
<linearGradient id="paint5_linear" x1="105.03" y1="45.4401" x2="103.61" y2="144.88" gradientUnits="userSpaceOnUse">
<stop stop-color="#BBD6FE"/>
<stop offset="1" stop-color="#FEFEFE"/>
</linearGradient>
<linearGradient id="paint6_linear" x1="4504.2" y1="4058.16" x2="4594.68" y2="3882.61" gradientUnits="userSpaceOnUse">
<stop stop-color="#FFA290"/>
<stop offset="1" stop-color="#FECBA6"/>
</linearGradient>
<linearGradient id="paint7_linear" x1="86.22" y1="17.78" x2="117" y2="17.78" gradientUnits="userSpaceOnUse">
<stop stop-color="#EB5896"/>
<stop offset="1" stop-color="#F988B7"/>
</linearGradient>
<linearGradient id="paint8_linear" x1="2795.03" y1="4894.78" x2="2768.77" y2="5017.66" gradientUnits="userSpaceOnUse">
<stop stop-color="#FFA290"/>
<stop offset="1" stop-color="#FECBA6"/>
</linearGradient>
<linearGradient id="paint9_linear" x1="3577.87" y1="5096.64" x2="3946.66" y2="4954.51" gradientUnits="userSpaceOnUse">
<stop stop-color="#FFA290"/>
<stop offset="1" stop-color="#FECBA6"/>
</linearGradient>
<linearGradient id="paint10_linear" x1="99.1495" y1="53.5999" x2="98.2595" y2="39.2599" gradientUnits="userSpaceOnUse">
<stop stop-color="#EBEEFC"/>
<stop offset="1" stop-color="white"/>
</linearGradient>
<linearGradient id="paint11_linear" x1="1163.39" y1="2974.78" x2="1142.37" y2="2796.58" gradientUnits="userSpaceOnUse">
<stop stop-color="#EBEEFC"/>
<stop offset="1" stop-color="white"/>
</linearGradient>
<linearGradient id="paint12_linear" x1="67.7697" y1="124.88" x2="88.6197" y2="-38.1901" gradientUnits="userSpaceOnUse">
<stop offset="0.01" stop-color="#5265F7"/>
<stop offset="0.41" stop-color="#7674F5"/>
<stop offset="1" stop-color="#B18DF3"/>
</linearGradient>
<linearGradient id="paint13_linear" x1="3498.24" y1="4850.38" x2="3338.5" y2="4705.86" gradientUnits="userSpaceOnUse">
<stop stop-color="#FFA290"/>
<stop offset="1" stop-color="#FECBA6"/>
</linearGradient>
<linearGradient id="paint14_linear" x1="4247.73" y1="14319.6" x2="4422.88" y2="10189.5" gradientUnits="userSpaceOnUse">
<stop offset="0.01" stop-color="#5265F7"/>
<stop offset="0.41" stop-color="#7674F5"/>
<stop offset="1" stop-color="#B18DF3"/>
</linearGradient>
<linearGradient id="paint15_linear" x1="7207.13" y1="27539.2" x2="10849.9" y2="13934.8" gradientUnits="userSpaceOnUse">
<stop offset="0.01" stop-color="#5265F7"/>
<stop offset="0.41" stop-color="#7674F5"/>
<stop offset="1" stop-color="#B18DF3"/>
</linearGradient>
<linearGradient id="paint16_linear" x1="5360.32" y1="14871.1" x2="5616.01" y2="10628.1" gradientUnits="userSpaceOnUse">
<stop offset="0.01" stop-color="#5265F7"/>
<stop offset="0.41" stop-color="#7674F5"/>
<stop offset="1" stop-color="#B18DF3"/>
</linearGradient>
<linearGradient id="paint17_linear" x1="6616.9" y1="7564.06" x2="8165.48" y2="7564.06" gradientUnits="userSpaceOnUse">
<stop stop-color="#4063D7"/>
<stop offset="1" stop-color="#3D92F5"/>
</linearGradient>
<linearGradient id="paint18_linear" x1="12354.2" y1="24310.9" x2="12354.2" y2="21382.9" gradientUnits="userSpaceOnUse">
<stop stop-color="#EB5896"/>
<stop offset="1" stop-color="#F988B7"/>
</linearGradient>
<linearGradient id="paint19_linear" x1="24245.4" y1="2782.15" x2="24245.4" y2="2748.63" gradientUnits="userSpaceOnUse">
<stop stop-color="#EB5896"/>
<stop offset="1" stop-color="#F988B7"/>
</linearGradient>
<linearGradient id="paint20_linear" x1="13635.5" y1="24310.9" x2="13635.5" y2="21382.9" gradientUnits="userSpaceOnUse">
<stop stop-color="#EB5896"/>
<stop offset="1" stop-color="#F988B7"/>
</linearGradient>
<linearGradient id="paint21_linear" x1="26755.2" y1="2782.15" x2="26755.2" y2="2748.63" gradientUnits="userSpaceOnUse">
<stop stop-color="#EB5896"/>
<stop offset="1" stop-color="#F988B7"/>
</linearGradient>
</defs>
</svg>
