<svg width="51" height="47" viewBox="0 0 51 47" fill="none" xmlns="http://www.w3.org/2000/svg">
<path d="M22.4498 45.7001C18.0111 45.7001 13.6722 44.3837 9.98174 41.9176C6.29128 39.4514 3.4151 35.9461 1.71696 31.8452C0.018826 27.7442 -0.424977 23.2318 0.441686 18.8786C1.30835 14.5253 3.44655 10.5269 6.58584 7.38905C9.72513 4.25116 13.7245 2.11477 18.0781 1.25004C22.4317 0.38532 26.9439 0.831115 31.0441 2.53108C35.1443 4.23104 38.6483 7.10881 41.1128 10.8004C43.5773 14.4919 44.8917 18.8314 44.8898 23.2701C44.8845 29.219 42.5182 34.9226 38.3108 39.1282C34.1033 43.3337 28.3987 45.6974 22.4498 45.7001V45.7001ZM22.4498 4.83006C18.8027 4.83006 15.2375 5.91157 12.2051 7.93779C9.17261 9.964 6.80911 12.8439 5.41343 16.2134C4.01775 19.5829 3.65258 23.2905 4.36409 26.8675C5.0756 30.4445 6.83184 33.7302 9.41072 36.3091C11.9896 38.888 15.2753 40.6442 18.8523 41.3558C22.4293 42.0673 26.137 41.7021 29.5065 40.3064C32.8759 38.9107 35.7559 36.5472 37.7821 33.5148C39.8083 30.4823 40.8898 26.9172 40.8898 23.2701C40.8845 18.3811 38.94 13.6939 35.483 10.2369C32.0259 6.77984 27.3387 4.83535 22.4498 4.83006V4.83006Z" fill="#D0E0F4"/>
<path d="M39.3599 46.68C45.562 46.68 50.5899 41.6521 50.5899 35.45C50.5899 29.2478 45.562 24.22 39.3599 24.22C33.1577 24.22 28.1299 29.2478 28.1299 35.45C28.1299 41.6521 33.1577 46.68 39.3599 46.68Z" fill="#FFCC69"/>
</svg>
