<svg width="159" height="269" viewBox="0 0 159 269" fill="none" xmlns="http://www.w3.org/2000/svg">
<path d="M10.9997 88.39L15.3497 91.64L14.2797 100.72L14.1997 101.45C15.8774 100.761 17.3282 99.6154 18.3869 98.1429C19.4457 96.6704 20.0699 94.9304 20.1887 93.1206C20.3075 91.3109 19.916 89.5042 19.0588 87.906C18.2015 86.3077 16.913 84.9822 15.3397 84.08L17.2797 67.65L17.4297 66.46L19.3497 50C21.0868 49.486 22.6451 48.4953 23.8476 47.1404C25.05 45.7854 25.8486 44.1206 26.1527 42.3347C26.4568 40.5488 26.2541 38.7135 25.5678 37.037C24.8814 35.3605 23.7388 33.9099 22.2697 32.85L22.1897 33.58L21.1197 42.66L16.1197 44.81L11.7597 41.55L12.9197 31.74C11.2444 32.4307 9.79598 33.5768 8.73873 35.0486C7.68148 36.5204 7.05763 38.2588 6.93791 40.067C6.8182 41.8752 7.20739 43.6808 8.06139 45.2791C8.91538 46.8774 10.2 48.2045 11.7697 49.11L9.8297 65.54L9.68972 66.74L7.74971 83.17C6.01214 83.6847 4.45349 84.6758 3.25045 86.0311C2.0474 87.3864 1.24808 89.0516 0.943072 90.8379C0.63806 92.6243 0.839558 94.4603 1.52474 96.138C2.20992 97.8157 3.35138 99.2679 4.81972 100.33L5.97972 90.52L10.9997 88.39Z" fill="url(#paint0_linear)"/>
<g style="mix-blend-mode:multiply" opacity="0.3">
<path d="M11.3793 83.3199H11.5693C11.898 83.359 12.2309 83.3001 12.5262 83.1507C12.8215 83.0012 13.0662 82.7679 13.2293 82.4799C13.3451 82.2844 13.4168 82.066 13.4393 81.8399L15.1493 67.3599L15.2893 66.1699L16.9993 51.7299C17.0282 51.5055 17.0112 51.2775 16.9493 51.0599C16.8564 50.7417 16.6724 50.4577 16.4201 50.2427C16.1678 50.0277 15.8582 49.8912 15.5293 49.8499H15.3293C14.9163 49.847 14.5167 49.9963 14.2068 50.2693C13.897 50.5423 13.6985 50.9198 13.6493 51.3299L11.9393 65.8099L11.7993 67.0099L10.0893 81.4899C10.044 81.8998 10.1502 82.3121 10.3878 82.6492C10.6254 82.9862 10.9781 83.2248 11.3793 83.3199V83.3199Z" fill="#ABB1EB"/>
</g>
<path d="M8.91927 72.67C8.91927 72.67 11.5293 73.4401 12.6593 71.6001C13.2377 70.6903 13.5983 69.6593 13.7128 68.5873C13.8272 67.5153 13.6926 66.4314 13.3193 65.42C12.4893 63.6 11.0793 61.98 10.7293 60.42C10.5947 59.5519 10.5947 58.6682 10.7293 57.8C10.7293 57.8 8.78925 58.3101 7.77925 62.3501C6.76925 66.3901 7.25927 71.19 8.91927 72.67Z" fill="url(#paint1_linear)"/>
<path d="M16.5698 73.2899C17.77 73.2348 18.9423 72.9101 19.9998 72.3399L25.4098 73.2899L27.5598 61.8799L22.6798 61.3899C21.5749 59.4436 20.2312 57.643 18.6798 56.0299C16.7498 54.2899 12.6798 53.6999 12.2798 54.7999C11.4998 57.1499 15.2798 58.7999 15.2798 58.7999C15.2798 58.7999 15.5699 62.1699 17.4799 63.7999L16.5698 73.2899Z" fill="url(#paint2_linear)"/>
<path d="M158.279 215.91C156.731 220.327 155.655 224.896 155.069 229.54C154.179 236.54 149.279 237.88 145.959 238.33C142.639 238.78 142.359 236.33 143.139 230.61C143.969 224.42 140.279 214.21 140.279 214.21L133.279 207.98L143.169 197.73L149.639 205.73C155.929 209.07 159.079 213.32 158.279 215.91Z" fill="url(#paint3_linear)"/>
<path d="M149.599 205.78C148.599 212.66 140.279 214.21 140.279 214.21L133.279 207.98L143.169 197.73L149.599 205.78Z" fill="url(#paint4_linear)"/>
<path d="M116.219 252.35C115.869 254.67 111.769 255.03 108.289 260.91C104.809 266.79 99.8293 269.1 93.8593 268.04C87.8893 266.98 89.3993 262.96 93.8593 256.63C98.3193 250.3 97.3293 241.75 97.3293 241.75L95.7293 232.93L108.879 226.15L110.339 238.9C110.339 238.9 116.579 250 116.219 252.35Z" fill="url(#paint5_linear)"/>
<path d="M110.34 238.9C104.64 242.9 97.3403 241.75 97.3403 241.75L95.7402 232.93L108.89 226.15L110.34 238.9Z" fill="url(#paint6_linear)"/>
<path d="M146 199.24C145.451 201.283 144.533 203.208 143.29 204.92C141.043 207.947 138.086 210.374 134.68 211.99C134.68 211.99 90.3599 179.5 81.3299 171.54L80.8498 171.12C80.5198 170.82 80.2699 170.57 80.0799 170.37C75.4399 165.37 71.3499 159.32 71.8899 146.13C72.4299 132.94 85.7998 104.43 85.7998 104.43L94.3099 107.43L116.16 115.25L96.6598 149.65C96.6598 149.65 114.12 159.99 126.42 176.02C132.548 184.088 139.083 191.838 146 199.24Z" fill="url(#paint7_linear)"/>
<g style="mix-blend-mode:multiply" opacity="0.35">
<path d="M146 199.24C145.451 201.283 144.533 203.208 143.29 204.92C135.22 203.42 127.59 195.2 119.11 184.69C107.99 170.9 84.3197 171.42 81.3297 171.54H81.0197C81.0197 171.54 80.9597 171.4 80.8497 171.1C80.3297 169.59 83.9697 164.35 84.0297 154.01C84.0997 141.65 104.42 109.94 104.42 109.94L99.8997 107.23L116.16 115.28L96.6597 149.68C96.6597 149.68 114.12 160.02 126.42 176.05C132.548 184.108 139.083 191.848 146 199.24V199.24Z" fill="#5C98E3"/>
</g>
<path d="M130.24 121.6C128.94 130.27 108.24 163.06 108.24 163.06C109.223 172.362 109.74 181.707 109.79 191.06C110.02 208.65 111.92 231.82 111.92 231.82C110.07 233.52 107.837 234.748 105.41 235.4C101.645 236.388 97.7155 236.585 93.87 235.98C93.87 235.98 78.1801 168.73 80.2001 158.86C82.2201 148.99 96.86 110 96.86 110C96.86 110 102.94 110.52 109.92 111.76C119.6 113.45 131 116.56 130.24 121.6Z" fill="url(#paint8_linear)"/>
<g style="mix-blend-mode:multiply" opacity="0.35">
<path d="M130.24 121.6C128.94 130.27 108.24 163.06 108.24 163.06C109.222 172.362 109.74 181.707 109.79 191.06C110.02 208.65 111.92 231.82 111.92 231.82C110.07 233.52 107.836 234.748 105.41 235.4C102.13 223.08 107.74 214.68 104.98 197.6C101.55 176.45 96.2596 162.6 108.7 149.12C120.98 135.82 117.87 128.81 117.87 111.68C127.57 113.45 131 116.56 130.24 121.6Z" fill="#5C98E3"/>
</g>
<path d="M146.88 66.83C146.51 70.23 142.31 75.49 139.09 79.07C137.02 81.37 135.35 82.99 135.35 82.99C135.35 82.99 139.51 105.92 138.44 107.94C137.37 109.96 134.99 116.37 114.32 117.32C93.6497 118.27 84.2597 110.07 83.3197 106.87C82.3797 103.67 86.3197 100.33 87.7297 96.17C88.1197 95.03 88.1098 92.5 87.8998 89.42C87.3098 81.25 85.2197 69.23 85.2197 69.23C85.2197 69.23 77.9798 47.45 81.7598 40.38C86.2497 37.62 95.4697 36.89 95.4697 36.89L106.19 35.22C106.19 35.22 122.65 35.58 128.95 38.79C129.077 38.8523 129.201 38.9225 129.32 39C135.7 42.74 147.46 61.35 146.88 66.83Z" fill="url(#paint9_linear)"/>
<g style="mix-blend-mode:multiply" opacity="0.35">
<path d="M128.52 64.44C128.52 64.44 137.26 61.59 137.17 59.22C137.08 56.85 128.52 61.22 128.52 61.22C126.272 56.618 124.619 51.749 123.6 46.73C123.6 46.73 117.18 57.73 121.01 65L128.52 64.44Z" fill="#D53468"/>
</g>
<path d="M146.88 66.83C146.51 70.23 142.31 75.49 139.09 79.07L134.5 67.57L130.2 63.84L126.68 60.78C124.16 54.52 123.44 50.05 123.68 46.87C124.14 39.67 129.35 39 129.35 39C135.7 42.74 147.46 61.35 146.88 66.83Z" fill="url(#paint10_linear)"/>
<g style="mix-blend-mode:multiply" opacity="0.45">
<path d="M137.16 59.2201C137.22 60.9201 132.73 62.8801 130.16 63.8401L126.64 60.7801C124.12 54.5201 123.4 50.0501 123.64 46.8701C124.655 51.8337 126.295 56.6486 128.52 61.2001C128.52 61.2001 137.07 56.8501 137.16 59.2201Z" fill="#ABB1EB"/>
</g>
<path d="M85.2095 69.2299C85.2095 69.2299 83.2795 70.8299 80.6895 72.7699C80.0795 73.2399 79.4195 73.7199 78.7495 74.1999C75.3795 76.6399 71.4895 79.1399 69.2595 79.5699C64.7195 80.4599 23.9095 76.0899 23.9095 76.0899C22.7495 66.2899 25.1495 61.2099 25.1495 61.2099L62.3995 62.3699C62.3995 62.3699 76.9294 43.9299 81.1094 40.8099C81.3094 40.6599 81.5195 40.5199 81.7495 40.3799C77.9995 47.4499 85.2095 69.2299 85.2095 69.2299Z" fill="url(#paint11_linear)"/>
<path d="M81.3599 22.89C79.974 22.7068 78.6976 22.039 77.7569 21.0048C76.8161 19.9707 76.2716 18.6371 76.2199 17.24C76.2199 17.24 71.72 15.77 70.83 12.92C69.94 10.07 72.74 11.09 72.74 11.09C72.74 11.09 71.23 7.09 72.12 4.63C73.01 2.17 76.2199 5.21001 76.2199 5.21001C76.2199 5.21001 76.31 0.570003 78.49 0.130003C80.67 -0.309997 82.0099 4.23001 87.6699 3.07001C93.3299 1.91001 95.8199 1.07 98.2299 2.49C100.64 3.91 100.54 7.66001 100.54 7.79001C101.591 7.91938 102.571 8.39079 103.328 9.13164C104.085 9.8725 104.578 10.8417 104.73 11.89C105.36 15.81 101.73 27.74 101.73 27.74L81.3599 22.89Z" fill="url(#paint12_linear)"/>
<path d="M106.18 35.2201L97.8699 46.8701L95.9999 49.0001C95.9999 49.0001 93.78 44.4901 93.53 42.7401C93.3577 41.2246 93.4048 39.6922 93.6699 38.1901L91.1699 32.2501L100.73 22.3401L100.95 23.0901V23.2001C102.218 27.3972 103.973 31.4314 106.18 35.2201V35.2201Z" fill="url(#paint13_linear)"/>
<g style="mix-blend-mode:multiply" opacity="0.45">
<path d="M93.5094 42.7401C93.3372 41.2246 93.3843 39.6922 93.6494 38.1901L91.1494 32.2501L100.709 22.3401C100.769 22.5201 100.849 22.7701 100.939 23.0801V23.1901C101.929 26.6601 103.819 37.1301 93.5094 42.7401Z" fill="#F2787A"/>
</g>
<path d="M79.1602 16.75C79.1602 16.75 83.8502 33 91.0002 36.17C93.3802 37.24 99.4402 32.78 100.51 29.99C101.58 27.2 100.74 22.33 100.74 22.33C100.74 22.33 102.64 21.74 101.93 18.33C101.22 14.92 97.1802 16.02 98.2502 20.65C98.2502 20.65 96.8202 20.35 95.6602 17.54C95.6602 17.54 92.9002 18.39 92.4102 12.96C92.4102 12.96 89.2002 15.81 86.4802 15.96C83.7602 16.11 85.2802 14.13 85.2802 14.13C85.2802 14.13 83.5702 16.93 79.1602 16.75Z" fill="url(#paint14_linear)"/>
<path d="M137.8 62C125.08 63.9 120.25 54.29 120.25 54.29L103.34 62.21L86.4202 70.14C86.4202 70.14 90.6202 80.04 80.9902 88.61C80.9902 88.61 90.9903 108.99 102.84 117.76C116.42 127.84 133.52 127.44 133.52 127.44C133.52 127.44 144.82 114.53 145.9 97.59C146.83 82.83 137.8 62 137.8 62Z" fill="url(#paint15_linear)"/>
<path d="M84 89.1399C86.61 94.0499 95 108.84 104.25 115.75C115.09 123.8 128.55 124.81 132.37 124.94L104.37 64.4399L89.37 71.4899C90.0479 74.6458 89.9106 77.9224 88.971 81.0105C88.0315 84.0985 86.3206 86.8964 84 89.1399V89.1399Z" fill="url(#paint16_linear)"/>
<path d="M132.37 124.94C134.74 121.94 142.62 110.94 143.48 97.3699C144.22 85.7799 138.34 69.8199 136.28 64.6399C133.083 64.9865 129.851 64.5012 126.897 63.2309C123.943 61.9607 121.367 59.9486 119.42 57.3899L104.42 64.3899L132.42 124.89L132.37 124.94Z" fill="url(#paint17_linear)"/>
<path d="M135.33 66.1799C132.258 66.3455 129.189 65.8001 126.362 64.586C123.534 63.3719 121.026 61.5219 119.03 59.1799L105.03 65.7499L91.0301 72.3199C91.5128 75.3624 91.2953 78.4749 90.3942 81.4207C89.4932 84.3666 87.9322 87.0681 85.8301 89.3199C88.7101 94.6199 96.5901 108.13 105.14 114.48C115.03 121.83 127.23 123.13 131.73 123.35C134.45 119.75 141.31 109.55 142.09 97.1599C142.71 86.5799 137.51 71.8099 135.33 66.1799Z" fill="url(#paint18_linear)"/>
<path d="M126.55 81.7899L117.44 86.0599L113.1 76.6799L108.07 79.0399L112.41 88.4099L103.3 92.6799L105.69 97.8599L114.8 93.5899L119.14 102.97L124.17 100.61L119.83 91.2299L128.94 86.9699L126.55 81.7899Z" fill="url(#paint19_linear)"/>
<g style="mix-blend-mode:multiply" opacity="0.45">
<path d="M85.2099 69.2299C85.2099 69.2299 83.2799 70.8299 80.6899 72.7699C80.0799 73.2399 79.4199 73.7199 78.7499 74.1999C78.1599 64.4399 80.9899 51.1299 80.9899 51.1299C81.8604 57.2758 83.2726 63.3327 85.2099 69.2299V69.2299Z" fill="#ABB1EB"/>
</g>
<path d="M104.67 32.54C104.67 32.54 104 41.16 98.29 44.19L96 49L99 46.62C100.253 47.2868 101.223 48.3843 101.73 49.71C101.73 49.71 108.47 45.08 107.39 35.26C107.12 34.23 105.92 33.38 104.67 32.54Z" fill="url(#paint20_linear)"/>
<path d="M96 49.0001L94.94 43.6201C94.94 43.6201 92.75 42.1901 93.67 38.1901L93 36.5901C93 36.5901 91.13 38.4001 90.8 42.4701C90.5125 44.634 90.941 46.8325 92.02 48.7301C92.4619 47.7722 93.1526 46.9504 94.02 46.3501L96 49.0001Z" fill="url(#paint21_linear)"/>
<defs>
<linearGradient id="paint0_linear" x1="23.6997" y1="67.76" x2="4.79971" y2="65.62" gradientUnits="userSpaceOnUse">
<stop stop-color="#B0CAF7"/>
<stop offset="1" stop-color="#D5E3FF"/>
</linearGradient>
<linearGradient id="paint1_linear" x1="3023.51" y1="2174.3" x2="3053.1" y2="1912.19" gradientUnits="userSpaceOnUse">
<stop stop-color="#FFA290"/>
<stop offset="1" stop-color="#FECBA6"/>
</linearGradient>
<linearGradient id="paint2_linear" x1="7292.83" y1="2744.09" x2="7312.38" y2="2423.18" gradientUnits="userSpaceOnUse">
<stop stop-color="#FFA290"/>
<stop offset="1" stop-color="#FECBA6"/>
</linearGradient>
<linearGradient id="paint3_linear" x1="133.239" y1="218.06" x2="158.409" y2="218.06" gradientUnits="userSpaceOnUse">
<stop stop-color="#9A485D"/>
<stop offset="1" stop-color="#77354E"/>
</linearGradient>
<linearGradient id="paint4_linear" x1="9930.14" y1="4680.78" x2="9780.53" y2="4827.64" gradientUnits="userSpaceOnUse">
<stop stop-color="#FFA290"/>
<stop offset="1" stop-color="#FECBA6"/>
</linearGradient>
<linearGradient id="paint5_linear" x1="14398.8" y1="13551.4" x2="15091" y2="13551.4" gradientUnits="userSpaceOnUse">
<stop stop-color="#9A485D"/>
<stop offset="1" stop-color="#77354E"/>
</linearGradient>
<linearGradient id="paint6_linear" x1="8348.41" y1="4983.17" x2="8128.89" y2="5019.59" gradientUnits="userSpaceOnUse">
<stop stop-color="#FFA290"/>
<stop offset="1" stop-color="#FECBA6"/>
</linearGradient>
<linearGradient id="paint7_linear" x1="112.77" y1="158.64" x2="27.5899" y2="144.38" gradientUnits="userSpaceOnUse">
<stop stop-color="#567FE3"/>
<stop offset="1" stop-color="#81D8FF"/>
</linearGradient>
<linearGradient id="paint8_linear" x1="28374.4" y1="30795.1" x2="26853.2" y2="30757" gradientUnits="userSpaceOnUse">
<stop stop-color="#567FE3"/>
<stop offset="1" stop-color="#81D8FF"/>
</linearGradient>
<linearGradient id="paint9_linear" x1="39393.5" y1="12191.5" x2="35464.8" y2="11924.5" gradientUnits="userSpaceOnUse">
<stop stop-color="#EB5896"/>
<stop offset="1" stop-color="#F988B7"/>
</linearGradient>
<linearGradient id="paint10_linear" x1="13739.2" y1="5234.08" x2="14120.1" y2="5094.55" gradientUnits="userSpaceOnUse">
<stop stop-color="#BBD6FE"/>
<stop offset="1" stop-color="#FEFEFE"/>
</linearGradient>
<linearGradient id="paint11_linear" x1="31453" y1="5953.33" x2="31322.7" y2="4492.85" gradientUnits="userSpaceOnUse">
<stop stop-color="#BBD6FE"/>
<stop offset="1" stop-color="#FEFEFE"/>
</linearGradient>
<linearGradient id="paint12_linear" x1="18635.6" y1="2530" x2="18557.5" y2="2015.12" gradientUnits="userSpaceOnUse">
<stop offset="0.01" stop-color="#5265F7"/>
<stop offset="0.41" stop-color="#7674F5"/>
<stop offset="1" stop-color="#B18DF3"/>
</linearGradient>
<linearGradient id="paint13_linear" x1="8375.49" y1="2728.06" x2="8543.78" y2="3051.26" gradientUnits="userSpaceOnUse">
<stop stop-color="#FFA290"/>
<stop offset="1" stop-color="#FECBA6"/>
</linearGradient>
<linearGradient id="paint14_linear" x1="12817.8" y1="2274.25" x2="12526.7" y2="2181.69" gradientUnits="userSpaceOnUse">
<stop stop-color="#FFA290"/>
<stop offset="1" stop-color="#FECBA6"/>
</linearGradient>
<linearGradient id="paint15_linear" x1="129.86" y1="119.31" x2="100.03" y2="55.15" gradientUnits="userSpaceOnUse">
<stop stop-color="#DBE0FE"/>
<stop offset="1" stop-color="#EBEEFC"/>
</linearGradient>
<linearGradient id="paint16_linear" x1="131.64" y1="152.23" x2="81.02" y2="50.2899" gradientUnits="userSpaceOnUse">
<stop stop-color="#FE9C3D"/>
<stop offset="1" stop-color="#FFDB77"/>
</linearGradient>
<linearGradient id="paint17_linear" x1="23996.3" y1="14161.8" x2="19755.1" y2="9213.99" gradientUnits="userSpaceOnUse">
<stop stop-color="#FE9C3D"/>
<stop offset="1" stop-color="#FFDB77"/>
</linearGradient>
<linearGradient id="paint18_linear" x1="133.76" y1="123.31" x2="109.05" y2="74.8399" gradientUnits="userSpaceOnUse">
<stop stop-color="#E9ECFD"/>
<stop offset="1" stop-color="#F1F6FD"/>
</linearGradient>
<linearGradient id="paint19_linear" x1="14712.7" y1="4603.82" x2="14741.6" y2="3451.3" gradientUnits="userSpaceOnUse">
<stop stop-color="#F03968"/>
<stop offset="1" stop-color="#F9887C"/>
</linearGradient>
<linearGradient id="paint20_linear" x1="6508.51" y1="2131.92" x2="6445.94" y2="1832.85" gradientUnits="userSpaceOnUse">
<stop stop-color="#BBD6FE"/>
<stop offset="1" stop-color="#FEFEFE"/>
</linearGradient>
<linearGradient id="paint21_linear" x1="2990.38" y1="1569.23" x2="2923.62" y2="1365.66" gradientUnits="userSpaceOnUse">
<stop stop-color="#BBD6FE"/>
<stop offset="1" stop-color="#FEFEFE"/>
</linearGradient>
</defs>
</svg>
