<svg width="75" height="75" viewBox="0 0 75 75" fill="none" xmlns="http://www.w3.org/2000/svg">
<path d="M37.7999 74.7097C30.5029 74.7117 23.3692 72.5495 17.3012 68.4968C11.2331 64.444 6.50327 58.6827 3.70992 51.9415C0.91656 45.2003 0.185172 37.7822 1.60826 30.6253C3.03135 23.4684 6.545 16.8943 11.7048 11.7345C16.8645 6.57477 23.4386 3.06114 30.5955 1.63805C37.7524 0.214958 45.1706 0.946345 51.9117 3.7397C58.6529 6.53306 64.4142 11.2629 68.467 17.3309C72.5198 23.399 74.6819 30.5327 74.6799 37.8297C74.6693 47.6076 70.7804 56.982 63.8663 63.8961C56.9523 70.8101 47.5778 74.6991 37.7999 74.7097V74.7097ZM37.7999 10.9397C32.4811 10.9377 27.2813 12.5131 22.8579 15.4666C18.4346 18.4201 14.9864 22.6191 12.9497 27.5324C10.9129 32.4457 10.379 37.8527 11.4154 43.0695C12.4518 48.2863 15.0121 53.0786 18.7723 56.8403C22.5325 60.6019 27.3238 63.1639 32.5403 64.2023C37.7567 65.2406 43.1639 64.7087 48.078 62.6738C52.992 60.6388 57.1923 57.1923 60.1474 52.77C63.1026 48.3478 64.6799 43.1485 64.6799 37.8297C64.672 30.7022 61.8378 23.8687 56.7988 18.8279C51.7598 13.7871 44.9274 10.9503 37.7999 10.9397V10.9397Z" fill="#D0E0F4"/>
</svg>
