<svg width="60" height="44" viewBox="0 0 60 44" fill="none" xmlns="http://www.w3.org/2000/svg">
<path d="M41.4101 27.0014L26.9101 41.2214C25.5599 42.5443 23.7396 43.2769 21.8494 43.2582C19.9592 43.2394 18.1538 42.4708 16.8301 41.1213L2.61006 26.6213C1.28897 25.2682 0.557782 23.4467 0.576523 21.5557C0.595265 19.6647 1.36241 17.8581 2.71006 16.5314L17.2101 2.32136C18.559 0.997115 20.3785 0.262705 22.2687 0.279581C24.1589 0.296458 25.965 1.06324 27.2901 2.41136L41.5101 17.0014C42.8086 18.348 43.5259 20.1511 43.5072 22.0218C43.4885 23.8925 42.7353 25.6809 41.4101 27.0014V27.0014ZM4.24006 18.0913C3.31452 19.0168 2.78876 20.2683 2.77567 21.5771C2.76259 22.8858 3.26321 24.1476 4.17006 25.0913L18.3901 39.5914C18.8444 40.0568 19.3862 40.4279 19.9843 40.6834C20.5824 40.9389 21.2251 41.0737 21.8755 41.0802C22.5259 41.0867 23.1712 40.9648 23.7743 40.7213C24.3774 40.4778 24.9265 40.1176 25.3901 39.6614L39.8901 25.4414C40.3555 24.987 40.7266 24.4452 40.9821 23.8471C41.2376 23.249 41.3725 22.6063 41.379 21.9559C41.3855 21.3055 41.2635 20.6603 41.02 20.0571C40.7765 19.454 40.4163 18.9049 39.9601 18.4414L25.7301 4.00135C24.8033 3.07716 23.5511 2.55322 22.2423 2.542C20.9335 2.53078 19.6725 3.03319 18.7301 3.94136L4.24006 18.0913Z" fill="#D0E0F4"/>
<path d="M41.8335 9.366L29.7008 21.2596C28.6202 22.319 28.6029 24.0538 29.6623 25.1344L41.5559 37.2671C42.6152 38.3477 44.35 38.3649 45.4306 37.3056L57.5633 25.412C58.6439 24.3526 58.6612 22.6178 57.6019 21.5372L45.7082 9.40456C44.6489 8.32393 42.9141 8.30666 41.8335 9.366Z" fill="#FFCC69"/>
</svg>
