<svg width="2356" height="686" viewBox="0 0 2356 686" fill="none" xmlns="http://www.w3.org/2000/svg">
<path d="M154.381 17.2168C147.714 15.7168 131.981 21.3168 122.381 55.7168C110.381 98.7168 114.38 238.5 114.381 296.217C114.381 358.217 131.88 410.717 196.38 429.717C267.5 450.667 413.5 275.035 624.88 394.217C716.5 445.875 778.001 492.542 797.38 508.217C1010 680.195 1122.97 641 1238.88 529.217C1348.5 423.5 1466.5 344.717 1671.38 390.217C1726.5 402.458 1818.88 449.717 1886.88 449.717C1954.88 449.717 2031.38 411.434 2065.88 396.717C2100.38 382 2191.88 323.717 2216.88 275.217C2241.88 226.717 2206.38 203.717 2195.88 197.217C2185.38 190.717 2145.88 181.217 2100.38 218.217C2054.88 255.217 2039.38 310.717 2003.38 344.717C1967.38 378.717 1925.38 412.217 1878.38 414.217C1831.38 416.217 1777.5 397.553 1668.38 327.717C1519.63 232.517 1386 286.525 1330.88 331.217C1221.5 419.904 1103 496.819 997.38 487.217C947.88 482.717 850.38 474.717 740.88 422.217C631.38 369.717 498.379 332.217 435.879 291.217C373.379 250.217 300.38 208.717 248.38 145.217C196.38 81.7168 190.882 13.7169 154.381 17.2168Z" fill="url(#paint0_linear)"/>
<defs>
<linearGradient id="paint0_linear" x1="1166.59" y1="88.6545" x2="1183.15" y2="501.787" gradientUnits="userSpaceOnUse">
<stop stop-color="white" stop-opacity="0.22"/>
<stop offset="1" stop-color="#1A77D2"/>
</linearGradient>
</defs>
</svg>
