<svg width="2357" height="686" viewBox="0 0 2357 686" fill="none" xmlns="http://www.w3.org/2000/svg">
<path d="M412.381 117.655C445.381 104.655 485.034 81.9131 535.382 104.655C605.881 136.501 651.381 193.501 722.382 294.655C750.045 334.067 774.657 382.203 809.882 411.655C844.381 440.501 905.382 485.655 992.882 488.155C1080.38 490.655 1134.38 437.155 1166.38 419.655C1198.38 402.155 1313.88 278.155 1343.88 248.155C1537.88 54.1554 1582.99 38.3518 1878.38 304.155C1966 383.001 2016.85 308.001 2046.38 267.501C2082.47 218.001 2161.88 114.501 2176.88 97.0006C2191.88 79.5006 2220.5 53.1604 2246.38 48.1554C2332.5 31.5014 2368.54 69.0004 2352.38 143.655C2336.94 215.001 2111.39 380.188 2072.38 403.656C2044.38 420.501 1982.88 467.156 1893.38 467.156C1808.38 467.156 1645.38 403.656 1604.88 391.656C1491.58 346.979 1429.27 373.5 1374.38 425.156C1034.5 745 935 600 731.382 480.156C694 458.153 643.505 415.34 623.502 391.501C369.902 499.101 331.502 480.155 184.381 269.155C134.765 198.001 171.381 162.655 187.881 143.655C204.381 124.655 244.381 126.155 271.381 134.655C292.881 141.424 340.149 146.111 412.381 117.655Z" fill="#1366BB"/>
</svg>
