<svg width="2356" height="686" viewBox="0 0 2356 686" fill="none" xmlns="http://www.w3.org/2000/svg">
<path d="M820 421.004C808.767 434.142 838 456.993 846.987 464.504C858.153 473.837 892.486 496.404 940.486 512.004C1000.49 531.504 1063.49 516.004 1107.49 506.504C1151.49 497.004 1217.49 409.004 1243.49 405.004C1269.49 401.004 1316.99 405.004 1334.99 421.004L1335.62 421.571C1354.78 438.603 1432.6 507.779 1462.49 528.004C1585.99 611.589 1622.99 608.5 1730.99 552.504C1765.45 534.635 1843.99 463.504 1861.99 444.004C1879.99 424.504 1892.99 400.004 1946.49 386.504C1989.29 375.704 2089.65 382.004 2134.49 386.504C2105.82 326.671 2035.79 207.204 1984.99 208.004C1921.49 209.004 1918.49 292.504 1861.99 335.504C1805.49 378.504 1676.49 291.504 1582.49 285.004C1507.29 279.804 1419.15 322.837 1384.49 345.004C1359.15 359.837 1290.49 386.504 1232.99 345.004C1038.69 204.772 988.014 224.5 820 421.004Z" fill="#031730"/>
</svg>
