<svg width="2356" height="686" viewBox="0 0 2356 686" fill="none" xmlns="http://www.w3.org/2000/svg">
<path d="M1.98971 223.778C-13.2103 133.778 62.1113 10.0325 111.11 0.776404C156.11 -7.72409 175.789 55.5782 214.989 92.7782C263.989 139.278 378.989 113.778 451.489 151.278C509.489 181.278 569.111 260.776 615.611 315.276C648.033 353.276 758.289 436.378 889.489 518.778C1053.49 621.778 1347.99 378.278 1244.99 518.778C1141.99 659.278 925.549 703.218 819.5 679.5C625 636 639.617 315.5 499 257.5C372.233 205.213 255.111 294.776 191.611 320.776C132.111 345.138 20.9897 336.278 1.98971 223.778Z" fill="url(#paint0_linear)"/>
<defs>
<linearGradient id="paint0_linear" x1="1170.11" y1="679.776" x2="48.6112" y2="27.2761" gradientUnits="userSpaceOnUse">
<stop stop-color="white" stop-opacity="0"/>
<stop offset="0.449656" stop-color="#031F43"/>
<stop offset="0.703037" stop-color="#07407C"/>
<stop offset="1" stop-color="#1774D2"/>
</linearGradient>
</defs>
</svg>
