<svg width="137" height="253" viewBox="0 0 137 253" fill="none" xmlns="http://www.w3.org/2000/svg">
<path d="M114 53.8705C106 58.5905 72.7901 50.2405 72.7901 50.2405C72.7901 50.0105 67.1701 44.1205 70.7401 36.7805C70.923 36.4241 71.1443 36.0888 71.4001 35.7805C74.8701 31.0705 77.4001 31.3805 78.2101 25.2005C78.6301 22.0305 79.5201 18.6305 79.6201 15.2005C79.7301 11.5205 79.2101 8.0805 81.2501 5.4905C82.0981 4.27027 83.3575 3.39644 84.7973 3.02912C86.2372 2.66181 87.7612 2.82562 89.0901 3.4905C90.191 2.27704 91.5655 1.34372 93.0995 0.768047C94.6335 0.192371 96.2826 -0.00906294 97.9101 0.180492C100.719 0.639644 103.325 1.93483 105.387 3.89706C107.449 5.85929 108.872 8.39748 109.47 11.1805C109.852 13.7823 110.016 16.4114 109.96 19.0405C110.08 24.3005 110.52 30.2005 114.48 34.0905C116.467 35.9903 117.981 38.3296 118.9 40.9205C120.52 45.7305 119.3 50.7305 114 53.8705Z" fill="url(#paint0_linear)"/>
<path d="M95.8401 231.52C97.1958 238.267 97.3514 245.199 96.3001 252H94.1401C94.1401 252 94.6401 248.62 93.2701 241.18C93.2701 241.18 88.1701 248 86.4101 250.18C84.6501 252.36 80.0001 252.76 73.8201 252C67.6401 251.24 68.9201 248.35 77.1901 242.79C77.1901 242.8 89.7801 230 95.8401 231.52Z" fill="url(#paint1_linear)"/>
<path d="M84.0601 226.861L84.33 229.551C84.33 229.551 81.9801 238.251 78.5101 241.551C77.0486 243.033 75.4811 244.407 73.8201 245.661C73.8201 245.661 82.4601 248.221 85.3401 242.831C88.2201 237.441 91.6301 232.321 95.8401 231.521L94.8401 224.111L84.0601 226.861Z" fill="url(#paint2_linear)"/>
<path d="M94.4601 150.381C88.8601 160.621 87.0701 167.591 87.0701 167.591C93.2501 185.931 95.7401 224.641 95.7401 224.641C94.4493 225.291 93.0867 225.788 91.6801 226.121C88.4029 226.869 85.0316 227.118 81.6801 226.861C78.6801 213.861 65.1901 174.231 65.0301 164.461C64.8701 154.691 73.3201 105.221 73.3201 105.221L100.21 107.941L104.21 129.251C104.21 129.251 102.8 132.931 100.52 138.031C98.9001 141.691 96.8101 146.091 94.4601 150.381Z" fill="url(#paint3_linear)"/>
<g style="mix-blend-mode:color-dodge" opacity="0.22">
<path d="M83.5799 227.001C82.9699 224.781 68.6799 172.481 68.6799 163.131C68.6799 153.781 78.6799 111.601 79.1499 109.811L80.1499 110.041C80.0499 110.481 69.7099 153.901 69.7099 163.131C69.7099 172.361 84.4199 226.191 84.5699 226.731L83.5799 227.001Z" fill="#B18DF3"/>
</g>
<g style="mix-blend-mode:multiply" opacity="0.32">
<path d="M87.0701 167.591C93.2501 185.931 95.7401 224.641 95.7401 224.641C94.4494 225.292 93.0867 225.789 91.6801 226.121C89.6521 221.033 88.6332 215.599 88.6801 210.121C88.8105 201.207 87.0412 192.368 83.4901 184.191C80.1901 176.511 74.6401 168.661 81.3601 157.461C88.0801 146.261 94.0001 126.531 94.0001 126.531L100.58 138.031C98.9401 141.691 96.8501 146.091 94.5001 150.381C88.8601 160.621 87.0701 167.591 87.0701 167.591Z" fill="#5E3FD1"/>
</g>
<path d="M123.91 228.561C123.91 228.561 126.23 237.691 125.59 251.771H123.54C123.743 248.577 123.625 245.371 123.19 242.201C123.19 242.201 122.47 249.721 118.87 251.801C115.27 253.881 109.03 252.801 108.87 251.001C108.71 249.201 111.13 237.001 113.56 229.471L123.91 228.561Z" fill="url(#paint4_linear)"/>
<path d="M113.56 226.371V229.441C113.56 229.441 110.23 245.611 113.11 246.091C115.99 246.571 118.55 244.491 119.99 236.731C121.43 228.971 123.91 228.561 123.91 228.561V224.801H113.91L113.56 226.371Z" fill="url(#paint5_linear)"/>
<path d="M125.62 225.441C125.1 225.631 124.62 225.811 124.09 225.951C116.26 228.271 110.79 225.441 110.79 225.441C110.79 225.441 109.94 186.181 104.07 170.701C98.6799 156.501 90.7999 120.521 89.0699 112.321L88.7 110.631L105.61 106.691L117.98 103.801C122.386 111.098 124.151 119.687 122.98 128.131L123.62 161.741C128.39 194.391 125.62 225.441 125.62 225.441Z" fill="url(#paint6_linear)"/>
<g style="mix-blend-mode:color-dodge" opacity="0.22">
<path d="M118.42 226.871H117.42C117.75 207.141 113.1 179.651 111.42 171.571C109.42 161.651 100.42 112.241 100.37 111.741L101.37 111.561C101.45 112.061 110.37 161.461 112.37 171.371C114.08 179.451 118.75 207.001 118.42 226.871Z" fill="#B18DF3"/>
</g>
<g style="mix-blend-mode:multiply" opacity="0.32">
<path d="M125.62 225.44C125.1 225.63 124.62 225.81 124.09 225.95C117.63 210.36 128.09 198.48 122.31 182.12C116.12 164.62 116.71 146.12 115.99 133.12C115.37 121.82 108.92 116.82 106.43 110.12C110.606 108.71 114.502 106.578 117.94 103.82C122.346 111.118 124.111 119.707 122.94 128.15L123.58 161.76C128.39 194.39 125.62 225.44 125.62 225.44Z" fill="#5E3FD1"/>
</g>
<g style="mix-blend-mode:screen" opacity="0.32">
<path d="M115.8 98.6914C102 107.791 83.9099 109.691 73.9099 102.021L74.1899 100.601L106 99.1414L115.8 98.6914Z" fill="white"/>
<path d="M115.8 98.6914C102 107.791 83.9099 109.691 73.9099 102.021L74.1899 100.601L106 99.1414L115.8 98.6914Z" stroke="#383838" stroke-miterlimit="10"/>
</g>
<path d="M117.94 103.801C114.502 106.559 110.606 108.691 106.43 110.101C102.543 111.468 98.4763 112.26 94.36 112.451C92.5789 112.528 90.7946 112.481 89.02 112.311C78.21 111.311 73.21 105.691 73.21 105.691L73.3 105.221L73.91 102.021L74.19 100.601L106 99.1414L115.85 98.6914H116.17L117.94 103.801Z" fill="url(#paint7_linear)"/>
<path d="M117.94 47.6103C114.63 45.7803 109.87 44.6103 104.57 43.0703C104.57 43.0703 97.6899 45.0703 86.0399 44.1203C84.4799 44.0003 79.9899 45.8603 79.9899 45.8603L75.0999 66.5103C75.1899 70.5103 74.6199 72.7503 76.8599 80.1103C79.0999 87.4703 74.1899 100.6 74.1899 100.6C82.4399 108.14 96.0199 105.87 105.48 102.89C109.127 101.757 112.684 100.349 116.12 98.6803C116.12 98.6803 113.88 90.0403 112.6 84.6003C111.32 79.1603 111.99 67.3903 111.99 67.3903L117.94 47.6103Z" fill="url(#paint8_linear)"/>
<path d="M104.57 43.0704C104.57 43.0704 97.6499 56.5704 90.8699 56.3104C83.6799 56.0404 86.0499 44.9904 86.0399 44.1204L87.8499 43.4104C87.8499 43.4104 87.8499 43.2904 87.9199 43.0804C88.4098 40.6713 88.3757 38.1851 87.8199 35.7904L101.76 27.4304L102.25 27.1504C102.25 27.2704 102.16 27.5904 102.08 28.1504C101.342 32.9153 101.342 37.7654 102.08 42.5304L104.57 43.0704Z" fill="url(#paint9_linear)"/>
<path opacity="0.24" d="M106 99.1501C107.09 92.6901 109.31 85.8802 106.35 79.2302C102.19 69.8702 105.57 62.4102 105.57 62.4102L112.03 67.4102C112.03 67.4102 111.36 79.1701 112.64 84.6201C113.92 90.0701 116.16 98.7002 116.16 98.7002C112.724 100.369 109.167 101.776 105.52 102.91C105.612 101.649 105.772 100.394 106 99.1501V99.1501Z" fill="#383838"/>
<path opacity="0.24" d="M116.12 98.6797C112.684 100.349 109.127 101.756 105.48 102.89C105.384 104.156 105.414 105.429 105.57 106.69V106.84C105.728 107.954 106.01 109.048 106.41 110.1C110.586 108.69 114.482 106.557 117.92 103.8L116.12 98.6797Z" fill="#383838"/>
<g style="mix-blend-mode:multiply" opacity="0.45">
<path d="M102.25 27.1504C102.25 27.2704 102.18 27.6204 102.08 28.1504C101.37 31.4704 98.3701 41.5404 87.9501 43.0204C88.4399 40.6113 88.4058 38.1251 87.8501 35.7304L101.79 27.3704L102.25 27.1504Z" fill="#F2787A"/>
</g>
<path d="M81.6699 21.2501C81.6699 21.2501 82.6699 36.0501 88.1299 37.2501C92.7999 38.3101 98.5799 33.7401 99.7999 32.0701C100.707 30.7499 101.5 29.3549 102.17 27.9001C102.17 27.9001 103.85 29.0901 105.17 25.2001C106.17 22.2001 104.24 20.6901 102.87 21.4601C101.5 22.2301 100.36 25.6201 100.36 25.6201C100.36 25.6201 97.3099 25.6901 97.8699 22.2701C97.8699 22.2701 94.5899 22.6101 93.7999 18.1701C93.0099 13.7301 93.3599 12.0901 89.8999 9.83008C88.0295 11.1402 86.6444 13.0315 85.9599 15.2101C85.1235 17.5853 83.6371 19.678 81.6699 21.2501V21.2501Z" fill="url(#paint10_linear)"/>
<path d="M86.0001 44.1211V44.1811L85.6701 45.3311C85.6735 45.351 85.6735 45.3712 85.6701 45.3911L82.6701 55.8611L77.3901 74.1311C76.3754 75.0169 75.4074 75.9548 74.4901 76.9411C72.3601 79.0911 69.6701 82.1411 67.1001 84.9411C65.2501 87.046 63.2872 89.049 61.2201 90.9411C58.5601 93.2211 54.2201 94.1911 48.7301 94.0411C47.7901 94.0411 46.8101 93.9511 45.8201 93.8511C39.0201 93.2311 22.5401 86.2311 22.5401 86.2311C22.5401 86.2311 15.4301 90.4511 8.63009 88.5811C1.83009 86.7111 -0.189899 79.7711 0.890101 78.6611C1.9701 77.5511 6.61009 79.5711 9.32009 80.1511C12.0301 80.7311 16.5001 79.1511 16.5001 79.1511L13.7601 76.7211C13.7601 76.7211 13.5101 76.6511 12.4701 76.3011C11.4301 75.9511 9.53009 73.6411 10.1901 73.1511C10.8501 72.6611 16.0101 74.1511 17.3301 74.6811C18.6972 75.4766 19.9488 76.4557 21.0501 77.5911C25.8709 78.2784 30.7455 78.5128 35.6101 78.2911L47.4801 77.9311L51.4801 77.8011C51.4801 77.8011 60.9501 63.6211 67.3601 55.3211C70.5942 50.9516 74.9667 47.5547 80.0001 45.5011C81.9091 44.7097 83.9371 44.2433 86.0001 44.1211V44.1211Z" fill="url(#paint11_linear)"/>
<g style="mix-blend-mode:multiply" opacity="0.45">
<path d="M82.6601 55.8602L77.3801 74.1302C76.3654 75.0159 75.3974 75.9539 74.4801 76.9402C72.3501 79.0902 69.6601 82.1402 67.0901 84.9402C66.5909 79.7544 67.394 74.526 69.4266 69.7291C71.4592 64.9322 74.657 60.7185 78.7301 57.4702L82.6601 48.9102C82.6601 48.9102 81.1101 51.3902 82.6601 55.8602Z" fill="#D53468"/>
</g>
<path d="M86 44.1211V44.1811C86 44.3111 85.8401 44.6711 85.6701 45.3311C85.6734 45.351 85.6734 45.3712 85.6701 45.3911C84.9701 48.3111 83.57 56.8111 84.61 75.5311C85.96 99.8811 79.11 135.371 76.61 147.131C76.61 147.131 68.07 135.481 67.61 129.761C67.15 124.041 70.4601 105.301 73.1901 97.9111C75.9201 90.5211 77.4201 84.4811 74.7301 77.7111C74.6301 77.4611 74.54 77.2011 74.43 76.9411C72.09 70.6411 72.62 66.6311 78.02 58.9911C79.46 56.9211 79.8501 49.6211 79.9501 45.5011C81.8748 44.7043 83.9201 44.2377 86 44.1211V44.1211Z" fill="url(#paint12_linear)"/>
<path d="M48.7201 94.0011C47.7801 94.0011 46.8001 93.9111 45.8101 93.8111C39.0101 93.1911 22.5301 86.1911 22.5301 86.1911C22.5301 86.1911 15.4201 90.4111 8.62008 88.5411C1.82008 86.6711 -0.199909 79.7311 0.880091 78.6211C1.96009 77.5111 6.60008 79.5311 9.31008 80.1111C12.0201 80.6911 16.4901 79.1111 16.4901 79.1111L13.7501 76.6811C13.7501 76.6811 13.5001 76.6111 12.4601 76.2611C11.4201 75.9111 9.52008 73.6011 10.1801 73.1111C10.8401 72.6211 16.0001 74.1111 17.3201 74.6411C18.6872 75.4366 19.9389 76.4157 21.0401 77.5511C25.8609 78.2384 30.7356 78.4728 35.6001 78.2511L47.4701 77.8912C47.4701 77.8912 52.0001 84.4511 48.7201 94.0011Z" fill="url(#paint13_linear)"/>
<path d="M126.42 129.44C126.03 132.31 121.01 137.31 116.51 141.28C112.78 144.56 109.41 147.13 109.41 147.13C91.2301 95.1303 104.57 43.0703 104.57 43.0703C109.191 44.0524 113.679 45.5797 117.94 47.6203C117.94 47.6203 116.51 60.3603 115.58 71.3503C115.047 76.2354 114.787 81.1463 114.8 86.0603C115.28 92.0003 127.61 120.69 126.42 129.44Z" fill="url(#paint14_linear)"/>
<g style="mix-blend-mode:multiply" opacity="0.45">
<path d="M126.42 129.44C126.03 132.31 121.01 137.31 116.51 141.28C117.05 124.07 112.03 123.61 104.57 115.07C96.7899 106.2 103.74 97.5902 109.41 87.8702C111.069 85.0554 112.058 81.8967 112.301 78.6384C112.543 75.3802 112.033 72.1098 110.81 69.0802L110.69 67.7402L115.58 71.3502C115.047 76.2353 114.787 81.1462 114.8 86.0602C115.28 92.0002 127.61 120.69 126.42 129.44Z" fill="#D53468"/>
</g>
<path d="M136 83.5502C136.09 84.9502 134.25 87.7202 131.62 90.8902C126.469 96.8022 121.015 102.443 115.28 107.79C114.546 108.856 113.59 109.75 112.479 110.413C111.368 111.075 110.126 111.491 108.84 111.63C105.61 111.91 100.84 115.63 99.84 112.48C98.84 109.33 101.45 105.43 104.22 103.8C106.61 102.538 109.106 101.487 111.68 100.66C111.68 100.66 114.68 94.8602 116.91 89.8202C117.72 87.9802 118.49 86.3902 119.14 85.1202C120.35 82.7802 121.14 81.4702 121.14 81.4702L110.77 69.0802C110.77 69.0802 108.77 50.5502 112.37 48.2602C115.97 45.9702 118.72 46.4902 122.25 52.9402C125.78 59.3902 135.73 78.8802 136 83.5502Z" fill="url(#paint15_linear)"/>
<path d="M136 83.5502C136.09 84.9502 134.25 87.7202 131.62 90.8902C130.414 88.7306 128.554 87.0087 126.309 85.972C124.063 84.9354 121.546 84.6371 119.12 85.1202C120.33 82.7802 121.12 81.4702 121.12 81.4702L110.75 69.0802C110.75 69.0802 108.75 50.5502 112.35 48.2602C115.95 45.9702 118.7 46.4902 122.23 52.9402C125.76 59.3902 135.73 78.8802 136 83.5502Z" fill="url(#paint16_linear)"/>
<defs>
<linearGradient id="paint0_linear" x1="97.6001" y1="57.1005" x2="86.0201" y2="4.35049" gradientUnits="userSpaceOnUse">
<stop stop-color="#1C9AF1"/>
<stop offset="1" stop-color="#5ED1EB"/>
</linearGradient>
<linearGradient id="paint1_linear" x1="69.9601" y1="241.88" x2="96.9801" y2="241.88" gradientUnits="userSpaceOnUse">
<stop stop-color="#3D92F5"/>
<stop offset="1" stop-color="#414ECA"/>
</linearGradient>
<linearGradient id="paint2_linear" x1="73.8201" y1="235.191" x2="95.8401" y2="235.191" gradientUnits="userSpaceOnUse">
<stop stop-color="#FECBA6"/>
<stop offset="1" stop-color="#FF8F8E"/>
</linearGradient>
<linearGradient id="paint3_linear" x1="92.0701" y1="166.271" x2="74.0101" y2="166.031" gradientUnits="userSpaceOnUse">
<stop offset="0.02" stop-color="#6B7CF7"/>
<stop offset="0.54" stop-color="#8F85F5"/>
<stop offset="1" stop-color="#B18DF3"/>
</linearGradient>
<linearGradient id="paint4_linear" x1="8963.93" y1="10509.1" x2="9247.67" y2="10509.1" gradientUnits="userSpaceOnUse">
<stop stop-color="#3D92F5"/>
<stop offset="1" stop-color="#414ECA"/>
</linearGradient>
<linearGradient id="paint5_linear" x1="6444.88" y1="9118.79" x2="6588.2" y2="9118.79" gradientUnits="userSpaceOnUse">
<stop stop-color="#FECBA6"/>
<stop offset="1" stop-color="#FF8F8E"/>
</linearGradient>
<linearGradient id="paint6_linear" x1="20974.9" y1="42391" x2="19245.7" y2="42470.8" gradientUnits="userSpaceOnUse">
<stop offset="0.02" stop-color="#6B7CF7"/>
<stop offset="0.54" stop-color="#8F85F5"/>
<stop offset="1" stop-color="#B18DF3"/>
</linearGradient>
<linearGradient id="paint7_linear" x1="23371.7" y1="4052.31" x2="22277.7" y2="4017.53" gradientUnits="userSpaceOnUse">
<stop stop-color="#F7B345"/>
<stop offset="1" stop-color="#FEDB58"/>
</linearGradient>
<linearGradient id="paint8_linear" x1="111.97" y1="74.2703" x2="80.3699" y2="74.5103" gradientUnits="userSpaceOnUse">
<stop stop-color="#BBD6FE"/>
<stop offset="1" stop-color="#FEFEFE"/>
</linearGradient>
<linearGradient id="paint9_linear" x1="96.4399" y1="32.5104" x2="93.9499" y2="56.6304" gradientUnits="userSpaceOnUse">
<stop stop-color="#FFA290"/>
<stop offset="1" stop-color="#FECBA6"/>
</linearGradient>
<linearGradient id="paint10_linear" x1="12475.7" y1="6045.76" x2="11894.6" y2="5539.33" gradientUnits="userSpaceOnUse">
<stop stop-color="#FFA290"/>
<stop offset="1" stop-color="#FECBA6"/>
</linearGradient>
<linearGradient id="paint11_linear" x1="41745.6" y1="13571" x2="40493.5" y2="11596.6" gradientUnits="userSpaceOnUse">
<stop stop-color="#EB5896"/>
<stop offset="1" stop-color="#F988B7"/>
</linearGradient>
<linearGradient id="paint12_linear" x1="9320.83" y1="32346" x2="4799.23" y2="27820.6" gradientUnits="userSpaceOnUse">
<stop stop-color="#EB5896"/>
<stop offset="1" stop-color="#F988B7"/>
</linearGradient>
<linearGradient id="paint13_linear" x1="21777.5" y1="5905.64" x2="21786" y2="5458.72" gradientUnits="userSpaceOnUse">
<stop stop-color="#FFA290"/>
<stop offset="1" stop-color="#FECBA6"/>
</linearGradient>
<linearGradient id="paint14_linear" x1="14354.1" y1="32062.3" x2="10067.4" y2="25918.2" gradientUnits="userSpaceOnUse">
<stop stop-color="#EB5896"/>
<stop offset="1" stop-color="#F988B7"/>
</linearGradient>
<linearGradient id="paint15_linear" x1="20056.1" y1="18620.5" x2="19411.6" y2="18354.4" gradientUnits="userSpaceOnUse">
<stop stop-color="#FFA290"/>
<stop offset="1" stop-color="#FECBA6"/>
</linearGradient>
<linearGradient id="paint16_linear" x1="13749.3" y1="11689.3" x2="14651.4" y2="10943.5" gradientUnits="userSpaceOnUse">
<stop stop-color="#EB5896"/>
<stop offset="1" stop-color="#F988B7"/>
</linearGradient>
</defs>
</svg>
