<svg xmlns="http://www.w3.org/2000/svg" viewBox="0 0 871.75 354.06"><path d="M53.63,0a1,1,0,1,1-1.06,1A1,1,0,0,1,53.63,0Z" fill="#fff" fill-rule="evenodd"/><path d="M32.67,125a1,1,0,1,1-1.06,1A1,1,0,0,1,32.67,125Z" fill="#fff" fill-rule="evenodd"/><path d="M69.31,16a1,1,0,0,1,1,1.07,1,1,0,0,1-2-.11A1,1,0,0,1,69.31,16Z" fill="#fff" fill-rule="evenodd"/><path d="M132.26,253a1,1,0,0,1,1,1.07,1,1,0,1,1-1-1.07Z" fill="#fff" fill-rule="evenodd"/><path d="M1.07,156.15a1,1,0,1,1-1.07,1A1,1,0,0,1,1.07,156.15Z" fill="#fff" fill-rule="evenodd"/><path d="M33.4,164.39a1,1,0,1,1-1.07,1A1,1,0,0,1,33.4,164.39Z" fill="#fff" fill-rule="evenodd"/><path d="M26,233.78a1,1,0,0,1,1,1.06,1,1,0,1,1-2-.11A1,1,0,0,1,26,233.78Z" fill="#fff" fill-rule="evenodd"/><path d="M147.94,269.09a1,1,0,0,1-.11,2,1,1,0,1,1,.11-2Z" fill="#fff" fill-rule="evenodd"/><path d="M32.72,218.75a1,1,0,1,1-1.07,1A1,1,0,0,1,32.72,218.75Z" fill="#fff" fill-rule="evenodd"/><path d="M863,282.66a1,1,0,1,1-1.06.95A1,1,0,0,1,863,282.66Z" fill="#fff" fill-rule="evenodd"/><path d="M869.84,348.86a2,2,0,1,1-2.13,1.92A2,2,0,0,1,869.84,348.86Z" fill="#fff" fill-rule="evenodd"/><path d="M862.31,337a1,1,0,1,1-1.07,1A1,1,0,0,1,862.31,337Z" fill="#fff" fill-rule="evenodd"/><path d="M838.42,307.85a2,2,0,1,1-2.13,1.91A2,2,0,0,1,838.42,307.85Z" fill="#fff" fill-rule="evenodd"/><path d="M855.57,352a1,1,0,1,1-1.06.95A1,1,0,0,1,855.57,352Z" fill="#fff" fill-rule="evenodd"/></svg>