<svg xmlns="http://www.w3.org/2000/svg" viewBox="0 0 245.98 286.23"><path d="M117.92,28.64a2,2,0,1,1-2.13,1.91A2,2,0,0,1,117.92,28.64Z" fill="#fff" fill-rule="evenodd"/><path d="M165.43,29.14a2,2,0,1,1-2.13,1.92A2,2,0,0,1,165.43,29.14Z" fill="#fff" fill-rule="evenodd"/><path d="M154.69,2.59a2,2,0,1,1-2.13,1.92A2,2,0,0,1,154.69,2.59Z" fill="#fff" fill-rule="evenodd"/><path d="M106.17,0A2,2,0,1,1,104,1.92,2,2,0,0,1,106.17,0Z" fill="#fff" fill-rule="evenodd"/><path d="M99.2,92.64a2,2,0,1,1-2.13,1.92A2,2,0,0,1,99.2,92.64Z" fill="#fff" fill-rule="evenodd"/><path d="M2.13,114.09A2,2,0,1,1,0,116,2,2,0,0,1,2.13,114.09Z" fill="#fff" fill-rule="evenodd"/><path d="M97.35,214.2a3.15,3.15,0,1,1-3.32,3A3.15,3.15,0,0,1,97.35,214.2Z" fill="#fff" fill-rule="evenodd"/><path d="M220.23,166.57a2,2,0,1,1-2.13,1.91A2,2,0,0,1,220.23,166.57Z" fill="#fff" fill-rule="evenodd"/><path d="M196.54,281.68a2,2,0,1,1-2.12,1.91A2,2,0,0,1,196.54,281.68Z" fill="#fff" fill-rule="evenodd"/><path d="M109.45,224a2,2,0,1,1-2.13,1.91A2,2,0,0,1,109.45,224Z" fill="#fff" fill-rule="evenodd"/><path d="M244.06,282.19a2,2,0,1,1-2.13,1.91A2,2,0,0,1,244.06,282.19Z" fill="#fff" fill-rule="evenodd"/><path d="M233.32,255.63a2,2,0,1,1-2.13,1.92A2,2,0,0,1,233.32,255.63Z" fill="#fff" fill-rule="evenodd"/><path d="M90.76,141.68a2,2,0,1,1-2.12,1.91A2,2,0,0,1,90.76,141.68Z" fill="#fff" fill-rule="evenodd"/><path d="M184.79,253.05a2,2,0,1,1-2.12,1.91A2,2,0,0,1,184.79,253.05Z" fill="#fff" fill-rule="evenodd"/><path d="M78,183a2,2,0,0,1-.22,4,2,2,0,0,1,.22-4Z" fill="#fff" fill-rule="evenodd"/><path d="M94.46,204.27a2,2,0,1,1-2.13,1.91A2,2,0,0,1,94.46,204.27Z" fill="#fff" fill-rule="evenodd"/><path d="M74.58,263.9a2,2,0,1,1-2.13,1.91A2,2,0,0,1,74.58,263.9Z" fill="#fff" fill-rule="evenodd"/></svg>