<svg xmlns="http://www.w3.org/2000/svg" viewBox="0 0 1078.48 548.94"><path d="M235.1,202.54a4.29,4.29,0,1,1-4.52,4.06A4.29,4.29,0,0,1,235.1,202.54Z" fill="#fff" fill-rule="evenodd"/><path d="M183.08,232.21a3.15,3.15,0,1,1-3.32,3A3.15,3.15,0,0,1,183.08,232.21Z" fill="#fff" fill-rule="evenodd"/><path d="M358.13,362.42a6.07,6.07,0,1,1-6.38,5.74A6.07,6.07,0,0,1,358.13,362.42Z" fill="#fff" fill-rule="evenodd"/><path d="M505.72,395.12a6.07,6.07,0,1,1-6.38,5.74A6.07,6.07,0,0,1,505.72,395.12Z" fill="#fff" fill-rule="evenodd"/><path d="M243.15,362.36a6.07,6.07,0,1,1-6.39,5.74A6.08,6.08,0,0,1,243.15,362.36Z" fill="#fff" fill-rule="evenodd"/><path d="M208.77,418.55a6.07,6.07,0,1,1-6.38,5.74A6.07,6.07,0,0,1,208.77,418.55Z" fill="#fff" fill-rule="evenodd"/><path d="M387.25,284.77a4.29,4.29,0,1,1-4.52,4.06A4.28,4.28,0,0,1,387.25,284.77Z" fill="#fff" fill-rule="evenodd"/><path d="M629.89,388.18a4.29,4.29,0,1,1-4.52,4.06A4.3,4.3,0,0,1,629.89,388.18Z" fill="#fff" fill-rule="evenodd"/><circle cx="581.87" cy="389.21" r="4.29" transform="translate(-35.8 59.76) rotate(-5.7)" fill="#fff"/><path d="M313.73,455.58a4.3,4.3,0,1,1-4.52,4.06A4.29,4.29,0,0,1,313.73,455.58Z" fill="#fff" fill-rule="evenodd"/><path d="M263.44,237.26a4.29,4.29,0,1,1-4.52,4.06A4.29,4.29,0,0,1,263.44,237.26Z" fill="#fff" fill-rule="evenodd"/><path d="M3.32,342.73a3.15,3.15,0,1,1-3.32,3A3.15,3.15,0,0,1,3.32,342.73Z" fill="#fff" fill-rule="evenodd"/><path d="M1038.36,536.81a6.07,6.07,0,1,1-6.39,5.74A6.07,6.07,0,0,1,1038.36,536.81Z" fill="#fff" fill-rule="evenodd"/><path d="M1041.38,519.74a3.15,3.15,0,1,1-3.32,3A3.15,3.15,0,0,1,1041.38,519.74Z" fill="#fff" fill-rule="evenodd"/><path d="M1038.49,509.81a2,2,0,1,1-2.13,1.91A2,2,0,0,1,1038.49,509.81Z" fill="#fff" fill-rule="evenodd"/><path d="M1072.73,480.62a6.07,6.07,0,1,1-6.38,5.74A6.07,6.07,0,0,1,1072.73,480.62Z" fill="#fff" fill-rule="evenodd"/><path d="M1014.19,434.26a6.07,6.07,0,1,1-6.39,5.74A6.07,6.07,0,0,1,1014.19,434.26Z" fill="#fff" fill-rule="evenodd"/><path d="M925,470a6.07,6.07,0,1,1-6.38,5.74A6.07,6.07,0,0,1,925,470Z" fill="#fff" fill-rule="evenodd"/><path d="M256,100.8a2,2,0,1,1-2.13,1.92A2,2,0,0,1,256,100.8Z" fill="#fff" fill-rule="evenodd"/><path d="M280.54,0a6.07,6.07,0,1,1-6.39,5.74A6.07,6.07,0,0,1,280.54,0Z" fill="#fff" fill-rule="evenodd"/></svg>