<svg xmlns="http://www.w3.org/2000/svg" viewBox="0 0 259.61 143.42"><g style="isolation:isolate"><path d="M39.12,62.08A4.85,4.85,0,1,1,34,66.67,4.85,4.85,0,0,1,39.12,62.08Z" fill="#fff" fill-rule="evenodd" style="mix-blend-mode:soft-light"/><path d="M157.1,88.23a4.85,4.85,0,1,1-5.1,4.58A4.85,4.85,0,0,1,157.1,88.23Z" fill="#fff" fill-rule="evenodd" style="mix-blend-mode:soft-light"/><path d="M62.39,0a3.43,3.43,0,1,1-3.61,3.25A3.44,3.44,0,0,1,62.39,0Z" fill="#fff" fill-rule="evenodd" style="mix-blend-mode:soft-light"/><path d="M256.37,82.68a3.43,3.43,0,1,1-3.61,3.24A3.43,3.43,0,0,1,256.37,82.68Z" fill="#fff" fill-rule="evenodd" style="mix-blend-mode:soft-light"/><path d="M218.16,80.08a3.43,3.43,0,1,1-3.61,3.24A3.43,3.43,0,0,1,218.16,80.08Z" fill="#fff" fill-rule="evenodd" style="mix-blend-mode:soft-light"/><path d="M3.61,136.56A3.43,3.43,0,1,1,0,139.81,3.43,3.43,0,0,1,3.61,136.56Z" fill="#fff" fill-rule="evenodd" style="mix-blend-mode:soft-light"/></g></svg>