<svg xmlns="http://www.w3.org/2000/svg" viewBox="0 0 634.5 236.51"><g style="isolation:isolate"><path d="M20.64,0a1.62,1.62,0,1,1-.18,3.23A1.62,1.62,0,0,1,20.64,0Z" fill="#fff" fill-rule="evenodd" style="mix-blend-mode:soft-light"/><path d="M1.7,92A1.62,1.62,0,1,1,0,93.56,1.61,1.61,0,0,1,1.7,92Z" fill="#fff" fill-rule="evenodd" style="mix-blend-mode:soft-light"/><path d="M39.69,92.43A1.62,1.62,0,1,1,38,94,1.62,1.62,0,0,1,39.69,92.43Z" fill="#fff" fill-rule="evenodd" style="mix-blend-mode:soft-light"/><path d="M31.1,71.21a1.62,1.62,0,1,1-1.7,1.53A1.61,1.61,0,0,1,31.1,71.21Z" fill="#fff" fill-rule="evenodd" style="mix-blend-mode:soft-light"/><path d="M5.64,63.84a.81.81,0,1,1-.85.76A.8.8,0,0,1,5.64,63.84Z" fill="#fff" fill-rule="evenodd" style="mix-blend-mode:soft-light"/><path d="M18.17,76.66a.82.82,0,0,1,.76.86.81.81,0,1,1-.76-.86Z" fill="#fff" fill-rule="evenodd" style="mix-blend-mode:soft-light"/><path d="M532.33,230.21a3.15,3.15,0,1,1-3.32,3A3.15,3.15,0,0,1,532.33,230.21Z" fill="#fff" fill-rule="evenodd" style="mix-blend-mode:soft-light"/><path d="M584.35,200.54a4.29,4.29,0,1,1-4.52,4.06A4.31,4.31,0,0,1,584.35,200.54Z" fill="#fff" fill-rule="evenodd" style="mix-blend-mode:soft-light"/><path d="M628.76,107.37a6.07,6.07,0,1,1-6.39,5.74A6.09,6.09,0,0,1,628.76,107.37Z" fill="#fff" fill-rule="evenodd" style="mix-blend-mode:soft-light"/><path d="M629.12,214.42a2,2,0,1,1-2.12,1.92A2,2,0,0,1,629.12,214.42Z" fill="#fff" fill-rule="evenodd" style="mix-blend-mode:soft-light"/><path d="M605.29,98.8a2,2,0,1,1-2.13,1.91A2,2,0,0,1,605.29,98.8Z" fill="#fff" fill-rule="evenodd" style="mix-blend-mode:soft-light"/><path d="M581.61,213.91a2,2,0,1,1-2.13,1.92A2,2,0,0,1,581.61,213.91Z" fill="#fff" fill-rule="evenodd" style="mix-blend-mode:soft-light"/></g></svg>