<svg width="68" height="68" viewBox="0 0 68 68" fill="none" xmlns="http://www.w3.org/2000/svg">
<path d="M62.4399 51.3798C63.8465 49.0832 64.9713 46.6255 65.7899 44.0598L61.0799 40.2898C61.2799 39.4398 61.4499 38.5698 61.5699 37.6798C61.6199 37.3798 61.6399 37.0698 61.6799 36.7598L67.3699 34.7598C67.4528 32.0729 67.2043 29.3859 66.6299 26.7598L60.6299 25.8498C60.2928 24.7031 59.8785 23.5806 59.3899 22.4898L63.3099 17.9098C62.0293 15.5466 60.4716 13.3444 58.6699 11.3498L53.0399 13.5398C52.1657 12.7229 51.2441 11.9583 50.2799 11.2498L51.3899 5.3198C49.1026 3.92331 46.6549 2.80855 44.0999 1.9998L40.3299 6.7198C39.4692 6.51034 38.598 6.34678 37.7199 6.22981C37.4099 6.17981 37.0999 6.14979 36.7999 6.11979L34.7999 0.419794C32.1133 0.346379 29.4275 0.594819 26.7999 1.1598L25.8899 7.1598C24.744 7.5031 23.6216 7.92065 22.5299 8.4098L17.9399 4.47981C15.5793 5.76762 13.3805 7.33197 11.3899 9.13981L13.5899 14.7598C12.7694 15.6301 12.0014 16.5484 11.2899 17.5098L5.3599 16.3998C3.9515 18.6954 2.82663 21.1534 2.0099 23.7198L6.7199 27.4898C6.5199 28.3398 6.34991 29.2098 6.22991 30.0998C6.22991 30.4098 6.1599 30.7098 6.1299 31.0198L0.429903 33.0198C0.356968 35.7064 0.605394 38.3921 1.1699 41.0198L7.1699 41.9298C7.51147 43.075 7.92565 44.1973 8.40991 45.2898L4.4899 49.8698C5.77164 52.2348 7.33282 54.4372 9.1399 56.4298L14.7699 54.2298C15.6334 55.0579 16.5521 55.8264 17.5199 56.5298L16.4099 62.4598C18.7003 63.8689 21.1554 64.9907 23.7199 65.7998L27.4999 61.0898C28.3499 61.2898 29.2199 61.4598 30.1099 61.5898C30.4099 61.5898 30.7199 61.6598 31.0199 61.6798L33.0199 67.3898C35.7066 67.4637 38.3924 67.2152 41.0199 66.6498L41.9399 60.6498C43.0853 60.3048 44.2076 59.8873 45.2999 59.3998L49.8799 63.3298C52.238 62.042 54.4365 60.4813 56.4299 58.6798L54.2199 52.9998C55.0372 52.1294 55.8019 51.2111 56.5099 50.2498L62.4399 51.3798ZM29.9999 50.8698C26.6347 50.1028 23.5724 48.355 21.2006 45.8476C18.8287 43.3401 17.2537 40.1856 16.6748 36.7829C16.0959 33.3803 16.539 29.8824 17.9482 26.7316C19.3574 23.5808 21.6693 20.9187 24.5916 19.082C27.5139 17.2453 30.9152 16.3164 34.3654 16.4129C37.8156 16.5094 41.1597 17.6269 43.9747 19.6241C46.7898 21.6213 48.9493 24.4084 50.1802 27.633C51.4111 30.8576 51.6581 34.3748 50.8899 37.7398C49.8529 42.2466 47.0723 46.1588 43.1569 48.6197C39.2416 51.0806 34.5106 51.8897 29.9999 50.8698Z" fill="#BACEE2"/>
</svg>
