<svg width="130" height="280" viewBox="0 0 130 280" fill="none" xmlns="http://www.w3.org/2000/svg">
<path d="M11.5398 248.4C10.5279 251.875 9.18854 255.247 7.53979 258.47C4.67979 264.47 -1.46021 273.27 0.419795 276.47C2.29979 279.67 9.22978 280.16 12.8398 276.55C16.4498 272.94 22.9198 264.08 24.4698 262.36C26.0198 260.64 26.3498 250.36 26.3498 250.36L11.5398 248.4Z" fill="url(#paint0_linear)"/>
<path d="M83.6599 220.85C83.1606 222.039 82.9154 223.32 82.94 224.61C83.11 226.24 84.74 235.02 84.31 239.01C83.88 243 83.71 247.51 82.76 249.27C81.81 251.03 80.5399 254.12 84.3599 254.55C88.1799 254.98 92.8099 252.7 94.6099 250.17C96.4099 247.64 96.8799 238.58 99.7199 234.55C102.56 230.52 105.3 226.86 105.17 225.28C105.04 223.7 101.43 215.83 95.3 212.96L83.6599 220.85Z" fill="url(#paint1_linear)"/>
<path d="M81.6499 218.07L84.6499 222.27C84.6499 222.27 93.3199 220.94 95.2599 212.96L90.4499 203.82L81.6499 218.07Z" fill="url(#paint2_linear)"/>
<path d="M12.74 243.35L11.54 248.35C11.54 248.35 19.05 254.05 26.36 250.35L30.14 240.74L12.74 243.35Z" fill="url(#paint3_linear)"/>
<path d="M90.6201 213.13C89.6879 214.535 88.5327 215.778 87.2001 216.81C85.3584 218.285 83.1862 219.29 80.8701 219.74C80.8701 219.74 29.6301 162.74 27.4401 160.03C25.2501 157.32 24.4401 150.51 27.3101 143.17C30.1801 135.83 61.9401 104.29 61.9401 104.29L87.2901 117L65.5301 147.3L61.5301 152.82C67.1573 158.932 72.0166 165.709 76.0001 173C81.9501 184.59 93.2601 205.19 93.5601 206.35C93.8601 207.51 93.6701 208.56 90.6201 213.13Z" fill="url(#paint4_linear)"/>
<g style="mix-blend-mode:multiply" opacity="0.35">
<path d="M90.6198 213.13C89.6877 214.535 88.5325 215.778 87.1999 216.81C83.5773 211.274 80.6582 205.308 78.5099 199.05C69.9699 175.11 49.8398 177.68 49.8398 177.68L62.0699 144.2L65.5298 147.3L61.5298 152.82C67.157 158.932 72.0164 165.709 75.9998 173C81.9498 184.59 93.2598 205.19 93.5598 206.35C93.8598 207.51 93.6698 208.56 90.6198 213.13Z" fill="#5C98E3"/>
</g>
<path d="M110.75 116.9C107.875 125.742 101.887 133.24 93.9 138C84.52 147.53 49.84 177.66 49.84 177.66C49.84 177.66 47.52 189.66 40.7 210.49C33.88 231.32 32.08 243.65 30.98 244.61C30.12 245.37 28.77 245.77 25.17 246.01L21.71 246.16C17.7494 246.178 13.8897 244.911 10.71 242.55C10.71 242.55 19.59 172.25 26.93 158.86C34.27 145.47 66.68 110.31 66.68 110.31L93.77 114.31L110.75 116.9Z" fill="url(#paint5_linear)"/>
<g style="mix-blend-mode:multiply" opacity="0.35">
<path d="M110.75 116.9C107.875 125.742 101.887 133.24 93.8999 138C84.5199 147.53 49.8399 177.66 49.8399 177.66C49.8399 177.66 47.5199 189.66 40.6999 210.49C33.8799 231.32 32.0799 243.65 30.9799 244.61C30.1199 245.37 28.7699 245.77 25.1699 246.01C26.5899 242.26 28.8999 234.76 31.3199 220.92C35.3199 198.26 37.2099 177.92 52.0299 161.99C66.8499 146.06 92.9199 136.69 91.4099 122.41C91.1535 119.524 91.9924 116.646 93.7599 114.35L110.75 116.9Z" fill="#5C98E3"/>
</g>
<path d="M126.28 57L119.56 69L118.99 70C118.99 70 114.35 119.08 111.2 119.34C108.51 119.55 102.57 122.95 91.41 122.48C89.303 122.385 87.203 122.171 85.12 121.84C69.83 119.47 60.98 109.29 60.53 105.49C60.28 103.35 63.14 99.63 65.22 96.74C65.79 95.96 66.29 95.23 66.67 94.61C67.2222 93.5548 67.6549 92.4412 67.96 91.29C69.33 86.74 70.57 79.87 70.57 79.87C70.57 79.87 71.83 74.72 71.36 59.7C70.98 47.78 72.9 45.14 73.7 44.56L74.01 44.41C76.804 43.266 79.6543 42.2647 82.55 41.41L84.77 40.73L105.84 41.95C105.84 41.95 108.69 44.05 112.05 46.32C114.05 47.7 116.31 49.13 118.22 50.21C124.53 53.66 126.28 57 126.28 57Z" fill="url(#paint6_linear)"/>
<path d="M73.6998 44.5099C73.1698 44.8899 72.1498 46.1799 71.6298 50.4499C71.3129 53.5057 71.2226 56.5807 71.3598 59.6499C71.4598 62.8299 71.4798 65.5799 71.4598 67.9199C71.3598 76.6199 70.5698 79.8199 70.5698 79.8199C70.1898 80.5399 64.0198 92.1599 62.1598 94.5199C60.6198 96.5199 55.5298 99.0999 51.1598 97.2899C46.7898 95.4799 42.1098 90.7599 40.1598 81.7599C38.7298 75.2599 35.5498 62.1599 34.0798 54.6499C33.5098 51.7299 33.1998 49.6499 33.3598 49.1299C33.9098 47.2899 34.3598 46.9899 39.9898 45.3099C45.6198 43.6299 47.9898 44.1099 47.9898 44.1099C47.9898 44.1099 48.7898 45.1799 50.7198 50.1999L50.8398 50.4999C52.8398 55.5899 58.2798 64.6199 58.2798 64.6199L60.3398 61.7099C60.3398 61.7099 71.1598 45.9099 73.5098 44.5799L73.6998 44.5099Z" fill="url(#paint7_linear)"/>
<g style="mix-blend-mode:multiply" opacity="0.45">
<path d="M71.36 59.6499C71.46 62.8299 71.48 65.5799 71.46 67.9199C69.46 67.7399 65.77 64.3999 65.77 64.3999C68.77 59.2299 70.07 54.3199 71.63 50.3999C71.3106 53.4723 71.2204 56.5641 71.36 59.6499Z" fill="#F38A3C"/>
</g>
<path d="M112.09 46.2299C110.427 49.4911 108.339 52.5174 105.88 55.2299C99.1201 62.0599 87.5701 66.1799 83.1901 59.8699C78.8101 53.5599 82.5901 41.3299 82.5901 41.3299L84.8101 40.6499L105.88 41.8699C105.88 41.8699 108.73 43.9999 112.09 46.2299Z" fill="url(#paint8_linear)"/>
<g style="mix-blend-mode:multiply" opacity="0.37">
<path d="M119.56 68.9301L118.98 69.9301C118.98 69.9301 114.35 119.01 111.2 119.27C108.51 119.48 102.57 122.88 91.4102 122.41C88.8802 119.27 86.1202 115.16 81.9702 110.06C74.4502 100.81 67.0702 97.4101 65.2202 96.6701C65.7902 95.8901 66.2902 95.1601 66.6702 94.5401C67.2225 93.4849 67.6551 92.3713 67.9602 91.2201C71.7402 88.6101 83.2902 81.6301 95.4002 84.0901C110.18 87.0901 112.11 71.3101 112.11 71.3101L119.51 68.0801C119.51 68.0801 119.53 68.3901 119.56 68.9301Z" fill="#D53468"/>
</g>
<path d="M126.46 110.66C125.75 115.88 123.05 119.35 119.64 120.51C116.23 121.67 111.46 120.51 108.64 118.25C106.8 116.79 102.47 113.69 99.2902 111.32C97.5802 110.06 96.2002 109 95.7002 108.53C94.2902 107.18 92.5302 105.96 95.7002 101.11C97.5827 98.2198 100.04 95.7485 102.92 93.85L108.2 96.32L110.35 97.32L110.76 97.51C111.13 95.63 111.42 93.51 111.62 91.41C112.133 85.1873 112.273 78.9395 112.04 72.7C111.65 65.7 124.42 53.59 126.29 56.99C126.75 57.83 129.21 60.17 129.38 73.47C129.55 86.77 127.16 105.44 126.46 110.66Z" fill="url(#paint9_linear)"/>
<g style="mix-blend-mode:multiply" opacity="0.45">
<path d="M120.79 101.64L110.79 97.4999C111.16 95.6199 111.45 93.4999 111.65 91.3999C116.43 94.6599 120.79 101.64 120.79 101.64Z" fill="#F38A3C"/>
</g>
<path d="M108.18 96.3201C107.146 102.242 103.976 107.579 99.2702 111.32C97.5602 110.06 96.1802 109 95.6802 108.53C94.2702 107.18 92.5102 105.96 95.6802 101.11C97.5627 98.2199 100.02 95.7485 102.9 93.8501L108.18 96.3201Z" fill="url(#paint10_linear)"/>
<path d="M108 15.5001C107.13 6.43013 103.75 7.20013 103.75 7.20013C103.75 7.20013 103.75 1.75012 97.0203 2.48012C89.2103 3.32012 89.1602 0.290134 83.6602 0.240134C82.6087 0.229606 81.566 0.433463 80.5959 0.839286C79.6257 1.24511 78.7484 1.84437 78.0175 2.6005C77.2867 3.35663 76.7176 4.25376 76.3449 5.23714C75.9723 6.22052 75.804 7.26954 75.8502 8.32014C75.8685 9.29723 76.0863 10.2603 76.4902 11.1501C75.6102 11.7801 74.4902 13.1501 74.5902 15.9501C75.0245 15.0984 75.6306 14.3459 76.3702 13.7401C76.0602 15.6001 76.6203 18.8801 81.6403 23.3101C87.238 28.0826 93.6834 31.7599 100.64 34.1501C100.64 34.1501 108.92 24.5701 108 15.5001Z" fill="url(#paint11_linear)"/>
<path d="M85.0001 44L89.1801 50.73C91.5303 49.9186 93.7578 48.788 95.8001 47.37C98.8842 45.5113 101.7 43.2403 104.17 40.62C103.191 36.9987 102.66 33.2707 102.59 29.52V29.37C102.496 28.4296 102.613 27.4801 102.93 26.59C102.93 26.59 83.6401 26.14 84.9301 33.38C86.4101 41.94 85.0001 44 85.0001 44Z" fill="url(#paint12_linear)"/>
<path d="M80.0998 14.8901C79.929 19.1767 80.4558 23.4626 81.6598 27.5801C83.6598 34.5801 84.8198 37.9801 89.3398 38.5801C92.7598 39.0301 99.1097 34.0601 100.67 32.2001C102.19 30.3443 103.182 28.1125 103.54 25.7401C103.54 25.7401 106.9 24.2801 106.13 20.7901C105.36 17.3001 101.51 18.2401 101.56 24.0601C99.8498 24.0001 99.1797 21.0601 99.1797 21.0601C99.1797 21.0601 98.0297 21.1501 97.6197 20.5001C96.7425 18.8958 96.3402 17.0748 96.4598 15.2501C92.8098 13.1601 84.3498 21.4901 80.0998 14.8901Z" fill="url(#paint13_linear)"/>
<path d="M89.1401 50.9402L91.4101 45.7702C91.4101 45.7702 100.68 42.3202 103.3 36.9302C104.657 38.2571 105.56 39.9792 105.88 41.8502C104.268 46.9332 100.719 51.1763 96.0001 53.6602C95.6355 51.8164 94.685 50.1398 93.2901 48.8802C91.9562 49.6622 90.5695 50.3505 89.1401 50.9402Z" fill="url(#paint14_linear)"/>
<path d="M89.2402 50.91C88.128 49.2678 87.5071 47.3426 87.4503 45.36C87.4503 45.36 84.8102 43.55 85.5502 39.02C83.8856 40.3004 82.7273 42.1281 82.2802 44.18C81.2802 47.9 83.0002 52.5 83.0002 52.5C83.0002 52.5 84.2103 49.58 85.9403 48.5L89.2402 50.91Z" fill="url(#paint15_linear)"/>
<path d="M103.54 96.0899L99.5898 92.6899C99.4698 89.3499 100.45 86.1199 99.4698 84.1099L92.6798 92.3399L74.0498 93.0299C75.1624 94.9857 76.7214 96.651 78.5998 97.8899C81.3898 99.5199 91.2198 101.02 91.8598 101.49C92.4998 101.96 96.5398 106.43 96.5398 106.43C96.5398 106.43 102.08 102.14 103.54 96.0899Z" fill="url(#paint16_linear)"/>
<path d="M104 77.19L94.2599 92.19L93.2599 90.02L86.6899 76.02L102.69 75.52H103.06C103.251 75.5288 103.437 75.5862 103.601 75.6867C103.764 75.7872 103.899 75.9275 103.993 76.0945C104.087 76.2615 104.137 76.4497 104.138 76.6413C104.139 76.833 104.092 77.0218 104 77.19Z" fill="url(#paint17_linear)"/>
<path d="M102.63 75.46C102.605 75.5336 102.572 75.6041 102.53 75.67L93.2101 90L86.6401 76L102.63 75.46Z" fill="url(#paint18_linear)"/>
<path d="M93.4099 92.8898H92.82L53.57 94.5398C52.6616 94.5686 51.7705 94.2871 51.0434 93.7419C50.3164 93.1966 49.7967 92.4199 49.57 91.5398L42.39 62.0699C42.3505 61.8617 42.3505 61.648 42.39 61.4399C42.437 61.0093 42.6361 60.6097 42.9513 60.3128C43.2666 60.0159 43.6774 59.8411 44.1099 59.8199L84.1099 58.1498C84.6502 58.1254 85.1821 58.2897 85.6145 58.6144C86.0469 58.9392 86.3528 59.4042 86.4799 59.9298L94.26 91.8199C94.2902 91.9479 94.291 92.0811 94.2623 92.2094C94.2337 92.3378 94.1763 92.458 94.0945 92.561C94.0127 92.664 93.9086 92.7471 93.79 92.8041C93.6714 92.861 93.5415 92.8903 93.4099 92.8898Z" fill="url(#paint19_linear)"/>
<path d="M92.82 92.9098L53.57 94.5598C52.6616 94.5885 51.7705 94.3071 51.0434 93.7618C50.3164 93.2165 49.7967 92.4398 49.57 91.5598L42.39 62.0898C42.3505 61.8816 42.3505 61.6679 42.39 61.4598C42.5334 61.4195 42.6811 61.396 42.8299 61.3898L83.7299 59.6698C84.0248 59.663 84.3128 59.7592 84.5446 59.9416C84.7763 60.1241 84.9373 60.3815 85 60.6698L92.82 92.9098Z" fill="url(#paint20_linear)"/>
<g style="mix-blend-mode:screen" opacity="0.63">
<path d="M67.3452 79.5564C68.7662 79.283 69.6169 77.4962 69.2455 75.5655C68.874 73.6348 67.421 72.2912 66.0001 72.5646C64.5792 72.838 63.7284 74.6247 64.0998 76.5555C64.4713 78.4862 65.9243 79.8297 67.3452 79.5564Z" fill="white"/>
</g>
<path d="M50.6001 49.9999C45.8801 53.2199 38.0001 54.4399 33.9001 54.0799C33.3301 51.1599 33.1401 49.7099 33.3001 49.1899C33.8501 47.3499 34.3001 47.0499 39.9301 45.3699C45.5601 43.6899 47.9301 44.1699 47.9301 44.1699C47.9301 44.1699 48.4601 44.5299 50.3901 49.5499C50.4601 49.6299 50.5601 49.8799 50.6001 49.9999Z" fill="url(#paint21_linear)"/>
<path d="M35.29 48.5698L34.74 44.4998C33.2709 42.055 32.2547 39.3653 31.74 36.5598C31.27 32.7398 30.74 29.1698 33.2 26.5598C35.66 23.9498 36.59 21.1098 37.88 19.3498C39.17 17.5898 40.15 18.4998 40.8 20.2098C41.45 21.9198 42.13 27.4698 42.3 30.2098C42.3547 31.5553 42.5254 32.8936 42.81 34.2098C43.5699 33.3457 44.2214 32.3919 44.75 31.3698C45 30.5198 44.87 26.0998 45.75 26.0098C46.63 25.9198 48.16 30.3798 47.98 33.4498C47.6139 36.2789 46.9605 39.0632 46.03 41.7598L46.61 45.6198C46.61 45.6198 43.53 49.8698 35.29 48.5698Z" fill="url(#paint22_linear)"/>
<defs>
<linearGradient id="paint0_linear" x1="23.7698" y1="269.58" x2="7.37979" y2="260.31" gradientUnits="userSpaceOnUse">
<stop stop-color="#36BBAF"/>
<stop offset="1" stop-color="#7EE9B8"/>
</linearGradient>
<linearGradient id="paint1_linear" x1="12685.3" y1="16351.1" x2="12050.6" y2="16337" gradientUnits="userSpaceOnUse">
<stop stop-color="#36BBAF"/>
<stop offset="1" stop-color="#7EE9B8"/>
</linearGradient>
<linearGradient id="paint2_linear" x1="93.2699" y1="209.34" x2="81.2399" y2="220.57" gradientUnits="userSpaceOnUse">
<stop stop-color="#FFA290"/>
<stop offset="1" stop-color="#FECBA6"/>
</linearGradient>
<linearGradient id="paint3_linear" x1="8505.98" y1="4579.73" x2="8221.58" y2="4506.12" gradientUnits="userSpaceOnUse">
<stop stop-color="#FFA290"/>
<stop offset="1" stop-color="#FECBA6"/>
</linearGradient>
<linearGradient id="paint4_linear" x1="34623.8" y1="36330.2" x2="30207.2" y2="36799" gradientUnits="userSpaceOnUse">
<stop stop-color="#567FE3"/>
<stop offset="1" stop-color="#81D8FF"/>
</linearGradient>
<linearGradient id="paint5_linear" x1="50082.7" y1="46355.1" x2="44860.2" y2="43625.6" gradientUnits="userSpaceOnUse">
<stop stop-color="#567FE3"/>
<stop offset="1" stop-color="#81D8FF"/>
</linearGradient>
<linearGradient id="paint6_linear" x1="132.13" y1="124.25" x2="62.98" y2="48.86" gradientUnits="userSpaceOnUse">
<stop stop-color="#EB5896"/>
<stop offset="1" stop-color="#F988B7"/>
</linearGradient>
<linearGradient id="paint7_linear" x1="43.6598" y1="95.3999" x2="58.3798" y2="40.4099" gradientUnits="userSpaceOnUse">
<stop stop-color="#F7B345"/>
<stop offset="1" stop-color="#FEDB58"/>
</linearGradient>
<linearGradient id="paint8_linear" x1="16651.4" y1="3906.78" x2="16187.2" y2="5839.54" gradientUnits="userSpaceOnUse">
<stop stop-color="#F7B345"/>
<stop offset="1" stop-color="#FEDB58"/>
</linearGradient>
<linearGradient id="paint9_linear" x1="18638.8" y1="15660.7" x2="19897.1" y2="15660.7" gradientUnits="userSpaceOnUse">
<stop stop-color="#F7B345"/>
<stop offset="1" stop-color="#FEDB58"/>
</linearGradient>
<linearGradient id="paint10_linear" x1="7559.28" y1="4559.01" x2="7763.15" y2="4559.01" gradientUnits="userSpaceOnUse">
<stop stop-color="#BBD6FE"/>
<stop offset="0.08" stop-color="#C2DAFE"/>
<stop offset="0.45" stop-color="#DFECFE"/>
<stop offset="0.77" stop-color="#F1F6FE"/>
<stop offset="1" stop-color="#F7FAFE"/>
</linearGradient>
<linearGradient id="paint11_linear" x1="95.5202" y1="24.9101" x2="86.9202" y2="3.40013" gradientUnits="userSpaceOnUse">
<stop stop-color="#74335E"/>
<stop offset="1" stop-color="#A63663"/>
</linearGradient>
<linearGradient id="paint12_linear" x1="21592.3" y1="4598.56" x2="21629.1" y2="4739.3" gradientUnits="userSpaceOnUse">
<stop stop-color="#FFA290"/>
<stop offset="1" stop-color="#FECBA6"/>
</linearGradient>
<linearGradient id="paint13_linear" x1="13974.3" y1="4416.13" x2="13652.6" y2="4163.64" gradientUnits="userSpaceOnUse">
<stop stop-color="#FFA290"/>
<stop offset="1" stop-color="#FECBA6"/>
</linearGradient>
<linearGradient id="paint14_linear" x1="18518.8" y1="3325.5" x2="18524.4" y2="3069.23" gradientUnits="userSpaceOnUse">
<stop stop-color="#BBD6FE"/>
<stop offset="0.08" stop-color="#C2DAFE"/>
<stop offset="0.45" stop-color="#DFECFE"/>
<stop offset="0.77" stop-color="#F1F6FE"/>
<stop offset="1" stop-color="#F7FAFE"/>
</linearGradient>
<linearGradient id="paint15_linear" x1="7112.77" y1="2985.24" x2="7128.12" y2="2780.24" gradientUnits="userSpaceOnUse">
<stop stop-color="#BBD6FE"/>
<stop offset="0.08" stop-color="#C2DAFE"/>
<stop offset="0.45" stop-color="#DFECFE"/>
<stop offset="0.77" stop-color="#F1F6FE"/>
<stop offset="1" stop-color="#F7FAFE"/>
</linearGradient>
<linearGradient id="paint16_linear" x1="15686.1" y1="5462.11" x2="15388.2" y2="5769.07" gradientUnits="userSpaceOnUse">
<stop stop-color="#FFA290"/>
<stop offset="1" stop-color="#FECBA6"/>
</linearGradient>
<linearGradient id="paint17_linear" x1="88.9799" y1="93.93" x2="103.47" y2="54.25" gradientUnits="userSpaceOnUse">
<stop stop-color="#90B5D3"/>
<stop offset="1" stop-color="#BACEE2"/>
</linearGradient>
<linearGradient id="paint18_linear" x1="85.6601" y1="86.88" x2="101.11" y2="72.74" gradientUnits="userSpaceOnUse">
<stop stop-color="#9AC2FE"/>
<stop offset="1" stop-color="#FEFEFE"/>
</linearGradient>
<linearGradient id="paint19_linear" x1="25957.1" y1="9245.55" x2="25804.3" y2="6535.13" gradientUnits="userSpaceOnUse">
<stop stop-color="#90B5D3"/>
<stop offset="1" stop-color="#BACEE2"/>
</linearGradient>
<linearGradient id="paint20_linear" x1="80.49" y1="101.1" x2="54" y2="51.1998" gradientUnits="userSpaceOnUse">
<stop stop-color="#BBD6FE"/>
<stop offset="1" stop-color="#FEFEFE"/>
</linearGradient>
<linearGradient id="paint21_linear" x1="8055.2" y1="2072.16" x2="8356.47" y2="2072.16" gradientUnits="userSpaceOnUse">
<stop stop-color="#BBD6FE"/>
<stop offset="0.08" stop-color="#C2DAFE"/>
<stop offset="0.45" stop-color="#DFECFE"/>
<stop offset="0.77" stop-color="#F1F6FE"/>
<stop offset="1" stop-color="#F7FAFE"/>
</linearGradient>
<linearGradient id="paint22_linear" x1="7634.49" y1="5844.97" x2="7960.17" y2="5774.36" gradientUnits="userSpaceOnUse">
<stop stop-color="#FFA290"/>
<stop offset="1" stop-color="#FECBA6"/>
</linearGradient>
</defs>
</svg>
