<svg viewBox="0 0 1 1" preserveAspectRatio="none" xmlns="http://www.w3.org/2000/svg">
<defs>
  <linearGradient id="grad1" x1="0" x2="0" y1="0" y2="1">
    <stop offset="0%" stop-color="hsl(250.43, 32.39%, 13.92%)"/>
    <stop offset="8.1%" stop-color="hsl(250.72, 32.18%, 13.93%)"/>
    <stop offset="15.5%" stop-color="hsl(251.5, 31.58%, 13.96%)"/>
    <stop offset="22.5%" stop-color="hsl(252.69, 30.66%, 14%)"/>
    <stop offset="29%" stop-color="hsl(254.19, 29.46%, 14.05%)"/>
    <stop offset="35.3%" stop-color="hsl(255.91, 28.05%, 14.12%)"/>
    <stop offset="41.2%" stop-color="hsl(257.77, 26.49%, 14.2%)"/>
    <stop offset="47.1%" stop-color="hsl(259.69, 24.84%, 14.29%)"/>
    <stop offset="52.9%" stop-color="hsl(261.61, 23.16%, 14.39%)"/>
    <stop offset="58.8%" stop-color="hsl(263.47, 21.53%, 14.49%)"/>
    <stop offset="64.7%" stop-color="hsl(265.21, 20%, 14.59%)"/>
    <stop offset="71%" stop-color="hsl(266.77, 18.62%, 14.69%)"/>
    <stop offset="77.5%" stop-color="hsl(268.09, 17.46%, 14.77%)"/>
    <stop offset="84.5%" stop-color="hsl(269.11, 16.57%, 14.84%)"/>
    <stop offset="91.9%" stop-color="hsl(269.77, 15.99%, 14.89%)"/>
    <stop offset="100%" stop-color="hsl(270, 15.79%, 14.9%)"/>
  </linearGradient>
  </defs>
  <path fill="url(#grad1)" d="M0.316293 0.061239C0.210738 0.0476718 0.165738 0.0257359 0.091849 0.00346124C0.0390712 -0.0124492 0.0111812 0.0299276 0.0496265 0.0606836C0.0885156 0.0917945 0.0862932 0.190684 0.0657376 0.260128C0.0429517 0.337108 0.0318488 0.409095 0.0318488 0.458461C0.0318488 0.515906 0.0407377 0.68566 0.165738 0.845809C0.321293 1.04511 0.697959 1.05214 0.815737 0.859877C0.933515 0.667614 0.947959 0.565621 0.948515 0.410287C0.948959 0.28602 0.911108 0.149247 0.894071 0.0921933C0.795738 0.0511617 0.695182 0.014144 0.61796 0.0223503C0.488273 0.0361319 0.421849 0.0748062 0.316293 0.061239Z"/>
</svg>