<svg xmlns="http://www.w3.org/2000/svg" viewBox="0 0 30.19 11.57"><path d="M30.19,3.29a2.52,2.52,0,0,1-2.06-1.35c-.43-.6-.7-.94-1.24-.94s-.82.34-1.25.94a2.51,2.51,0,0,1-2.06,1.35,2.49,2.49,0,0,1-2-1.35c-.43-.6-.7-.94-1.25-.94s-.81.34-1.24.94A2.52,2.52,0,0,1,17,3.29a2.49,2.49,0,0,1-2.05-1.35c-.43-.6-.7-.94-1.25-.94s-.81.34-1.24.94a2.49,2.49,0,0,1-2,1.35A2.49,2.49,0,0,1,8.34,1.94C7.9,1.34,7.63,1,7.09,1s-.81.34-1.24.94A2.52,2.52,0,0,1,3.79,3.29a2.49,2.49,0,0,1-2-1.35C1.31,1.34,1,1,.5,1V0A2.49,2.49,0,0,1,2.55,1.35c.43.6.7.94,1.24.94S4.61,2,5,1.35A2.49,2.49,0,0,1,7.09,0,2.52,2.52,0,0,1,9.15,1.35c.43.6.7.94,1.24.94s.81-.34,1.24-.94a2.49,2.49,0,0,1,2-1.35,2.49,2.49,0,0,1,2.06,1.35c.43.6.7.94,1.24.94s.82-.34,1.25-.94A2.49,2.49,0,0,1,20.28,0a2.52,2.52,0,0,1,2.06,1.35c.43.6.7.94,1.24.94s.82-.34,1.25-.94A2.51,2.51,0,0,1,26.89,0,2.52,2.52,0,0,1,29,1.35c.43.6.7.94,1.24.94Z" fill="#fff"/><path d="M29.7,11.57a2.51,2.51,0,0,1-2.06-1.35c-.43-.6-.7-.93-1.25-.93s-.81.34-1.25.93a2.49,2.49,0,0,1-2.05,1.35A2.52,2.52,0,0,1,21,10.22c-.43-.6-.7-.93-1.24-.93s-.82.33-1.25.93a2.49,2.49,0,0,1-2.05,1.35,2.52,2.52,0,0,1-2.06-1.35c-.43-.6-.7-.93-1.24-.93s-.81.33-1.24.93a2.52,2.52,0,0,1-2.06,1.35,2.49,2.49,0,0,1-2.05-1.35c-.43-.6-.7-.93-1.24-.93s-.82.33-1.25.93a2.49,2.49,0,0,1-2,1.35,2.52,2.52,0,0,1-2.06-1.35C.81,9.62.54,9.29,0,9.29v-1A2.49,2.49,0,0,1,2.05,9.64c.43.59.7.93,1.25.93s.81-.34,1.24-.93A2.52,2.52,0,0,1,6.6,8.29,2.49,2.49,0,0,1,8.65,9.64c.43.59.7.93,1.24.93s.82-.34,1.25-.93a2.49,2.49,0,0,1,2-1.35,2.49,2.49,0,0,1,2.05,1.35c.44.59.71.93,1.25.93s.81-.34,1.24-.93a2.52,2.52,0,0,1,2.06-1.35,2.49,2.49,0,0,1,2.05,1.35c.43.59.7.93,1.25.93s.81-.34,1.24-.93a2.52,2.52,0,0,1,2.06-1.35,2.52,2.52,0,0,1,2.06,1.35c.43.59.7.93,1.25.93Z" fill="#fff"/></svg>