<svg width="125" height="275" viewBox="0 0 125 275" fill="none" xmlns="http://www.w3.org/2000/svg">
<path d="M10.3998 58.2299C10.3998 58.2299 13.0098 55.2299 9.72984 50.0299C6.44984 44.8299 3.63984 38.9099 7.49984 34.4599C11.3598 30.0099 9.72984 27.4599 10.4998 19.0999C11.2698 10.7399 16.4998 1.6999 25.5798 0.539904C34.6598 -0.620096 38.1698 4.40991 38.1698 4.40991C38.1698 4.40991 41.8098 1.11991 45.2898 4.40991C48.7698 7.69991 50.4998 16.9699 49.6798 25.5699C48.8598 34.1699 50.3199 37.5699 56.2099 36.4899C62.0998 35.4099 70.1299 33.3999 73.3199 40.0699C76.5099 46.7399 74.9599 51.4699 78.6299 52.2399C82.2999 53.0099 88.6798 61.0399 80.9498 68.2399L61.1898 66.1199L10.3998 58.2299Z" fill="url(#paint0_linear)"/>
<path d="M101.92 105.39C102.665 107.785 102.781 110.331 102.255 112.783C101.73 115.236 100.581 117.511 98.9199 119.39C93.1899 126.39 74.7099 125.33 74.7099 125.33L73.4199 95.86C73.4199 95.86 91.9199 95.34 101.92 105.39Z" fill="url(#paint1_linear)"/>
<path d="M79.8898 101.82C79.8898 101.82 82.1298 105.01 76.7698 110.08C71.4098 115.15 66.5498 107.76 66.5498 107.76C66.5498 107.76 75.4698 95.0799 79.8898 101.82Z" fill="#9ABBE2"/>
<path d="M73.1201 246.87C73.1201 246.87 73.4101 257.79 73.7001 260.59C73.9901 263.39 80.0801 264.65 84.1401 267.16C88.2001 269.67 91.3901 274.32 98.1401 274.32C104.89 274.32 109.06 272 110.14 269C111.22 266 97.3901 256.92 95.1401 254.22C92.8901 251.52 89.3401 244.07 89.3401 244.07L73.1201 246.87Z" fill="url(#paint2_linear)"/>
<path d="M16.9398 200.75C16.9398 200.75 7.54977 206.4 6.09977 209.59C4.64977 212.78 7.62977 216.77 10.8898 219.59C14.1498 222.41 16.4698 232.5 19.8898 235.03C23.3098 237.56 33.7398 239.74 36.4898 237.79C39.2398 235.84 29.9698 223 29.3898 220.79C28.8098 218.58 27.1698 213.04 27.1698 213.04L16.9398 200.75Z" fill="url(#paint3_linear)"/>
<path d="M96.14 160.09C92.33 164.75 48.59 197.19 32.79 208.85L27.15 213C24.8586 212.553 22.7223 211.52 20.95 210C19.6425 208.846 18.606 207.418 17.9146 205.817C17.2231 204.216 16.8937 202.483 16.95 200.74L21.11 195.6C26.81 188.6 36.83 176.23 41.11 171.09C48.83 161.92 64.97 152.09 64.97 152.09L48.35 110.14L64 105.23L76.26 101.38C76.26 101.38 95.68 129.51 98.43 137.19C101.18 144.87 100.46 154.79 96.14 160.09Z" fill="url(#paint4_linear)"/>
<g style="mix-blend-mode:multiply" opacity="0.35">
<path d="M70.9998 162.51C50.3298 173.51 36.5998 180.51 28.4798 197.68C26.453 202.052 23.9441 206.185 20.9998 210C19.6923 208.846 18.6558 207.418 17.9644 205.817C17.2729 204.216 16.9435 202.483 16.9998 200.74C16.9998 200.74 34.9998 178.48 41.1998 171.09C48.9198 161.92 65.0598 152.09 65.0598 152.09L48.4398 110.14L63.9998 105.23L68.4698 105.39C68.4698 105.39 70.5998 121.72 78.1298 133.9C85.6598 146.08 91.6798 151.49 70.9998 162.51Z" fill="#E58C33"/>
</g>
<path d="M89.3599 244.07C87.2848 246.099 84.5933 247.38 81.7099 247.71C78.8199 248.082 75.8831 247.795 73.1199 246.87C73.1199 246.87 72.5099 243.79 71.5899 239.21C69.9499 231.09 67.3299 218.28 65.3899 209.67C62.3899 196.19 57.7099 177.05 58.7299 169.95L27.1499 133.2L31.0399 128.72L46.1199 111.37L60.5599 114C60.5599 114 79.9799 143.56 82.8799 150.13C85.7799 156.7 88.0999 164.44 87.6199 172.46C87.2399 178.7 88.5099 218.6 89.0799 235.99C89.2499 240.94 89.3599 244.07 89.3599 244.07Z" fill="url(#paint5_linear)"/>
<g style="mix-blend-mode:multiply" opacity="0.35">
<path d="M81.7099 247.71C78.8199 248.082 75.8831 247.795 73.1199 246.87C73.1199 246.87 68.4299 223.14 65.3899 209.67C62.3499 196.2 57.7099 177.05 58.7299 169.95L27.1499 133.2L31.0399 128.72L47.7099 117.28C47.7099 117.28 50.8199 138.35 58.2499 147.04C65.6799 155.73 72.0599 158.93 72.6399 184.44C73.1599 207.31 72.9999 232.51 81.7099 247.71Z" fill="#E58C33"/>
</g>
<path d="M43.83 116.6C43.94 117.04 57.42 119.5 67.13 113.27C76.84 107.04 77.13 101.38 79.89 101.82C77.1347 98.8232 74.2311 95.9663 71.19 93.2599C67.42 90.0799 51.19 52.1 51.19 52.1L41.41 42.46L24 46L28.3 86.07L43.83 116.6Z" fill="url(#paint6_linear)"/>
<g style="mix-blend-mode:multiply" opacity="0.55">
<path d="M66.38 95.3499C62.59 102.35 56.62 110.87 48.38 115.54C48.04 115.74 47.7067 115.92 47.38 116.08C45.17 108.21 41.92 92.7099 38.52 80.0799C39.4894 80.1053 40.4593 80.0518 41.42 79.9199C46.7772 79.2828 52.0384 78.0036 57.09 76.1099C58.74 81.5899 60.57 87.0399 62.52 90.4699C63.5187 92.3049 64.8242 93.9555 66.38 95.3499Z" fill="#D0E0F4"/>
</g>
<path d="M106.69 70.8799C105.04 72.9299 103.45 74.8799 101.96 76.5299C98.0799 80.9699 94.8199 84.0999 92.4499 85.1599C89.1233 86.4811 85.448 86.6397 82.0199 85.6099C79.1099 84.7099 71.4799 82.0899 71.4799 82.0899C74.5351 87.8886 79.7518 92.2502 85.9999 94.2299C92.306 96.2635 97.8558 100.145 101.93 105.37C101.61 105.05 96.0699 99.6999 84.2699 100.08C72.0899 100.46 66.0999 96.7899 62.5299 90.5099C58.9599 84.2299 55.7899 71.1399 53.4399 63.5099C50.977 55.7102 46.8869 48.5218 41.4399 42.4199C41.4399 42.4199 56.5399 42.1899 61.1799 45.7999C65.8199 49.4099 80.7999 61.5299 86.1799 64.5499C86.1799 64.5499 88.0199 63.5499 91.1799 61.6999L95.2999 59.2499L106.69 70.8799Z" fill="url(#paint7_linear)"/>
<path d="M113.59 33.7498C113.91 36.6567 113.772 39.5959 113.18 42.4598C112.66 44.2398 110.36 46.8198 106.36 49.3298C106.36 49.3298 105.01 57.3298 102.64 66.5798C101.98 69.1698 101.32 71.5798 100.64 73.7898C93.8601 64.6098 84.6401 64.7898 84.6401 64.7898C86.1801 62.6198 88.1601 59.7898 90.4501 56.3298C93.522 51.7731 95.9704 46.8259 97.7301 41.6198C97.7301 41.6198 96.7901 36.3198 97.2401 34.4298C97.6901 32.5398 99.7301 26.6898 100.09 26.6898C100.45 26.6898 101.93 29.4298 101.86 30.5798C101.79 31.7298 101.09 33.5798 101.31 34.1798C101.53 34.7798 102.26 36.1098 102.26 36.1098C102.26 36.1098 106.2 28.9398 107.26 27.0298C108.32 25.1198 110.61 20.2298 111.71 20.6098C113.61 21.2598 109.94 29.0198 110.41 30.8898C111 33.2398 113.39 32.3998 113.59 33.7498Z" fill="url(#paint8_linear)"/>
<path d="M42.8401 58.9999C38.5001 59.6899 31.3801 56.2999 26.8401 50.2499C25.0901 47.7899 24.0001 45.9999 24.0001 45.9999C23.9985 41.6889 23.5529 37.3896 22.6701 33.1699C22.3501 31.7199 22.1201 30.8999 22.1201 30.8999L38.6001 35.9999C38.2675 38.1478 38.509 40.3455 39.3001 42.3699C39.9953 42.4703 40.6989 42.5004 41.4001 42.4599C41.4001 42.4599 42.4001 43.8099 43.6301 45.8399C47.1001 51.4399 43.9001 58.7999 42.8401 58.9999Z" fill="url(#paint9_linear)"/>
<g style="mix-blend-mode:multiply" opacity="0.45">
<path d="M22.6501 33.2202C24.0401 37.9902 28.6501 48.3402 42.1401 45.2802C41.4278 44.1062 40.4564 43.1108 39.3001 42.3702C38.5089 40.3458 38.2674 38.1481 38.6001 36.0002L22.1001 30.9302C22.2303 31.7053 22.414 32.4705 22.6501 33.2202Z" fill="#F2787A"/>
</g>
<path d="M40.4799 10.54C40.4799 10.54 43.3299 19.61 43.7699 26.76C44.2099 33.91 42.5499 39.07 37.9699 39.42C33.3899 39.77 28.0699 38.5401 25.3599 36.3501C23.7035 34.9538 22.5569 33.0476 22.0999 30.93C22.0999 30.93 18.0199 32.19 17.0999 28.04C16.1799 23.89 19.9899 24.24 21.1899 25.7C21.9746 26.6912 22.6081 27.7932 23.0699 28.97C23.4379 28.891 23.7841 28.7324 24.0843 28.5054C24.3845 28.2784 24.6314 27.9885 24.8077 27.6559C24.984 27.3234 25.0853 26.9563 25.1047 26.5804C25.1241 26.2045 25.061 25.829 24.9199 25.48C23.6199 21.76 24.1999 21.39 24.1999 21.39C26.5499 21.7 29.2599 21.8 31.6199 15.28C33.3099 10.75 38.6199 14.31 40.4799 10.54Z" fill="url(#paint10_linear)"/>
<path d="M42.8398 58.9999C37.8398 59.8999 31.3798 56.2999 26.8398 50.2499C29.9298 51.1399 39.8998 53.3199 43.5798 45.8799C47.0998 51.4399 45.2298 58.5399 42.8398 58.9999Z" fill="url(#paint11_linear)"/>
<path d="M36.0898 89.2399L27.5098 95.8299C27.5098 95.8299 28.9898 89.9699 32.9198 86.1099C34.7198 88.3299 35.7798 89.4499 35.7798 89.4499L36.0898 89.2399Z" fill="white" stroke="#EA003D" stroke-miterlimit="10"/>
<path d="M49.6798 129.65C48.8598 130.71 43.8398 139.22 40.7498 144.73C37.6598 150.24 31.0798 153.04 22.3898 149.65C13.6998 146.26 6.62985 145.21 4.98985 144.34C3.34985 143.47 10.4099 129.07 14.8499 122.89C16.5499 120.53 20.5599 115.43 22.0999 111.89C25.5699 103.79 26.7499 99.81 25.3799 94.38C24.6799 91.65 18.7899 79.63 16.9398 75.13C14.4802 69.1816 9.90156 64.3571 4.08984 61.59C4.08984 61.59 5.95984 57.78 14.5598 52.36C23.1598 46.94 23.9998 46 23.9998 46C28.2645 52.8541 31.8419 60.1127 34.6798 67.67C35.9498 71.02 37.2499 75.35 38.5199 80.08C41.9199 92.67 45.1699 108.17 47.3799 116.08C47.4999 116.5 47.6098 116.91 47.7298 117.28C50.6998 127.33 50.5098 128.59 49.6798 129.65Z" fill="url(#paint12_linear)"/>
<g style="mix-blend-mode:multiply" opacity="0.36">
<path d="M38.4999 80.1201C41.8999 92.7101 45.1499 108.21 47.3599 116.12C46.6649 116.465 45.9503 116.769 45.2199 117.03C35.9599 120.35 25.2899 116.69 18.3499 113.3C19.3821 107.028 19.1817 100.615 17.7599 94.4201C16.619 90.5323 15.2397 86.7184 13.6299 83.0001L15.6299 64.1401C18.6391 68.9617 22.5956 73.1224 27.2599 76.3701C30.5796 78.6517 34.4752 79.9514 38.4999 80.1201Z" fill="#1F9FF1"/>
</g>
<g style="mix-blend-mode:multiply" opacity="0.36">
<path d="M75.2201 81.9999L72.0501 82.2699L71.9301 82.6099L71.4801 83.8999C70.7555 86.0041 69.9244 88.0701 68.9901 90.0899C68.2701 91.6499 67.4101 93.4399 66.3801 95.3099C64.8207 93.9292 63.5086 92.2923 62.5001 90.4699C60.5501 87.0399 58.7201 81.5899 57.0701 76.1099C58.4437 75.5694 59.763 74.8998 61.0101 74.1099C64.2401 72.1099 65.9401 69.7099 65.7701 66.9399C65.3801 60.5899 57.5001 57.8799 54.5801 49.9399C56.7178 53.3646 59.7974 56.1005 63.4501 57.8199C69.4501 60.6499 75.2201 70.5199 75.2201 81.9999Z" fill="#1F9FF1"/>
</g>
<path d="M32.79 208.85L27.15 213C24.8586 212.553 22.7223 211.52 20.95 210C19.6425 208.846 18.606 207.418 17.9146 205.817C17.2231 204.217 16.8937 202.483 16.95 200.74L21.11 195.6C23 200 26.54 206.05 32.79 208.85Z" fill="url(#paint13_linear)"/>
<path d="M89.3598 244.07C87.2847 246.099 84.5933 247.38 81.7099 247.71C78.8198 248.082 75.8831 247.795 73.1198 246.87C73.1198 246.87 72.5098 243.79 71.5898 239.21C74.6698 239.68 81.0198 239.88 89.0798 235.99C89.2498 240.94 89.3598 244.07 89.3598 244.07Z" fill="url(#paint14_linear)"/>
<path d="M64.9998 84.31L76.4398 98L77.1898 95.71L81.9998 81L66.0598 82.43H65.6998C65.4925 82.4518 65.2953 82.531 65.1305 82.6587C64.9658 82.7865 64.8399 82.9577 64.7672 83.1531C64.6944 83.3484 64.6777 83.5603 64.7188 83.7646C64.7598 83.969 64.8572 84.1579 64.9998 84.31Z" fill="url(#paint15_linear)"/>
<path d="M66.0801 82.44C66.114 82.5093 66.1578 82.5733 66.2101 82.63L77.2101 95.73L82.0001 81L66.0801 82.44Z" fill="url(#paint16_linear)"/>
<path d="M77.3302 98.63H77.9302L117.08 95.54C117.992 95.4627 118.85 95.075 119.51 94.4417C120.171 93.8084 120.595 92.9678 120.71 92.06L124.29 61.94C124.326 61.7315 124.326 61.5185 124.29 61.31C124.189 60.889 123.941 60.5178 123.591 60.263C123.241 60.0082 122.812 59.8866 122.38 59.92L82.4202 63C81.8802 63.0426 81.3717 63.2712 80.9814 63.6469C80.5912 64.0225 80.3433 64.522 80.2802 65.06L76.4002 97.64C76.3837 97.7687 76.3959 97.8996 76.4359 98.0231C76.4759 98.1466 76.5428 98.2597 76.6317 98.3543C76.7206 98.449 76.8293 98.5227 76.9501 98.5704C77.0708 98.6181 77.2007 98.6384 77.3302 98.63Z" fill="url(#paint17_linear)"/>
<path d="M77.9302 98.5798L117.08 95.4898C117.992 95.4125 118.85 95.0248 119.51 94.3915C120.171 93.7582 120.594 92.9175 120.71 92.0098L124.29 61.8898C124.326 61.6813 124.326 61.4683 124.29 61.2598C124.141 61.2396 123.99 61.2396 123.84 61.2598L83.0002 64.4598C82.7115 64.4855 82.4405 64.6099 82.2328 64.8121C82.0251 65.0143 81.8935 65.2819 81.8602 65.5698L77.9302 98.5798Z" fill="url(#paint18_linear)"/>
<g style="mix-blend-mode:screen" opacity="0.63">
<path d="M104.464 78.8934C104.6 76.9319 103.54 75.2607 102.097 75.1605C100.653 75.0603 99.3728 76.5692 99.2367 78.5306C99.1006 80.492 100.16 82.1632 101.604 82.2634C103.047 82.3636 104.328 80.8548 104.464 78.8934Z" fill="white"/>
</g>
<path d="M72.9998 99.84C70.8728 100.302 68.6929 100.474 66.5198 100.35C66.5198 100.35 48.6898 107.78 37.6698 112.47C33.1098 114.41 29.5698 115.89 28.6698 116.2C25.5798 117.27 20.8398 118.86 14.3798 113.62C7.91981 108.38 2.37979 91.4 1.17979 84.4C0.179793 78.82 1.57981 56.72 8.59981 58.4C15.6198 60.08 19.0598 76.65 19.0598 76.65C20.1729 83.0718 21.7947 89.3951 23.9098 95.56C23.9098 95.56 27.4198 94.82 33.5098 94.08C36.5098 93.72 40.1198 93.36 44.2598 93.08C56.8198 92.22 63.0698 90.59 63.0698 90.59C63.0698 90.59 67.0698 86.59 69.1798 85.59C71.2898 84.59 76.1098 84.59 76.0798 85.51C76.0498 86.43 74.7898 86.8 73.5498 87.51C72.3255 88.4183 71.2231 89.4804 70.2698 90.67L74.0198 95.15L76.9398 98.56C75.649 99.0531 74.334 99.4804 72.9998 99.84Z" fill="url(#paint19_linear)"/>
<path d="M37.7001 112.47C33.1401 114.41 29.6001 115.89 28.7001 116.2C25.6101 117.27 20.8701 118.86 14.4101 113.62C7.95006 108.38 2.41007 91.4 1.21007 84.4C0.210068 78.82 1.61007 56.72 8.63007 58.4C15.6501 60.08 19.0901 76.65 19.0901 76.65C20.0081 81.6654 21.1897 86.6289 22.6301 91.52C23.4101 94.17 23.9401 95.52 23.9401 95.52L24.3001 95.45C25.3801 95.24 28.6001 94.65 33.5001 94.05C33.5401 94.09 41.0701 101.66 37.7001 112.47Z" fill="url(#paint20_linear)"/>
<defs>
<linearGradient id="paint0_linear" x1="15412.1" y1="14355" x2="16103.4" y2="9747.39" gradientUnits="userSpaceOnUse">
<stop stop-color="#EB5896"/>
<stop offset="1" stop-color="#F988B7"/>
</linearGradient>
<linearGradient id="paint1_linear" x1="89.6799" y1="101.78" x2="73.9999" y2="129.05" gradientUnits="userSpaceOnUse">
<stop stop-color="#1A7FF2"/>
<stop offset="1" stop-color="#31DAEE"/>
</linearGradient>
<linearGradient id="paint2_linear" x1="73.1201" y1="259.19" x2="110.19" y2="259.19" gradientUnits="userSpaceOnUse">
<stop stop-color="#113272"/>
<stop offset="1" stop-color="#14429B"/>
</linearGradient>
<linearGradient id="paint3_linear" x1="4970.05" y1="13943.3" x2="5947.4" y2="13943.3" gradientUnits="userSpaceOnUse">
<stop stop-color="#113272"/>
<stop offset="1" stop-color="#14429B"/>
</linearGradient>
<linearGradient id="paint4_linear" x1="16813.2" y1="33623.1" x2="20981.1" y2="34756.2" gradientUnits="userSpaceOnUse">
<stop stop-color="#F7B345"/>
<stop offset="1" stop-color="#FEDB58"/>
</linearGradient>
<linearGradient id="paint5_linear" x1="12864.2" y1="45011" x2="15633.3" y2="44411.5" gradientUnits="userSpaceOnUse">
<stop stop-color="#F7B345"/>
<stop offset="1" stop-color="#FEDB58"/>
</linearGradient>
<linearGradient id="paint6_linear" x1="10551.4" y1="17387.8" x2="12220.5" y2="16461.6" gradientUnits="userSpaceOnUse">
<stop stop-color="#BBD6FE"/>
<stop offset="1" stop-color="#FEFEFE"/>
</linearGradient>
<linearGradient id="paint7_linear" x1="83.1199" y1="122.48" x2="72.6699" y2="46.6999" gradientUnits="userSpaceOnUse">
<stop stop-color="#1C9AF1"/>
<stop offset="1" stop-color="#5ED1EB"/>
</linearGradient>
<linearGradient id="paint8_linear" x1="11332.9" y1="6371.13" x2="10847.9" y2="5986.33" gradientUnits="userSpaceOnUse">
<stop stop-color="#FFA290"/>
<stop offset="1" stop-color="#FECBA6"/>
</linearGradient>
<linearGradient id="paint9_linear" x1="4305.17" y1="5122.01" x2="4373.03" y2="5440.42" gradientUnits="userSpaceOnUse">
<stop stop-color="#FFA290"/>
<stop offset="1" stop-color="#FECBA6"/>
</linearGradient>
<linearGradient id="paint10_linear" x1="4724.74" y1="5265.87" x2="5225.06" y2="4882.82" gradientUnits="userSpaceOnUse">
<stop stop-color="#FFA290"/>
<stop offset="1" stop-color="#FECBA6"/>
</linearGradient>
<linearGradient id="paint11_linear" x1="3595.23" y1="2927.98" x2="3576.55" y2="2589.97" gradientUnits="userSpaceOnUse">
<stop stop-color="#36BBAF"/>
<stop offset="1" stop-color="#7EE9B8"/>
</linearGradient>
<linearGradient id="paint12_linear" x1="8293.85" y1="28879.3" x2="5971.65" y2="21489.2" gradientUnits="userSpaceOnUse">
<stop stop-color="#1C9AF1"/>
<stop offset="1" stop-color="#5ED1EB"/>
</linearGradient>
<linearGradient id="paint13_linear" x1="2730.44" y1="6161.71" x2="2954" y2="6414.07" gradientUnits="userSpaceOnUse">
<stop stop-color="#FFA290"/>
<stop offset="1" stop-color="#FECBA6"/>
</linearGradient>
<linearGradient id="paint14_linear" x1="4062.56" y1="4820.05" x2="4378.33" y2="4820.05" gradientUnits="userSpaceOnUse">
<stop stop-color="#FFA290"/>
<stop offset="1" stop-color="#FECBA6"/>
</linearGradient>
<linearGradient id="paint15_linear" x1="-4134.88" y1="4713.13" x2="-4456.93" y2="4071.59" gradientUnits="userSpaceOnUse">
<stop stop-color="#90B5D3"/>
<stop offset="1" stop-color="#BACEE2"/>
</linearGradient>
<linearGradient id="paint16_linear" x1="-3781.2" y1="4015.67" x2="-4034.33" y2="3819.36" gradientUnits="userSpaceOnUse">
<stop stop-color="#9AC2FE"/>
<stop offset="1" stop-color="#FEFEFE"/>
</linearGradient>
<linearGradient id="paint17_linear" x1="-11036.1" y1="11005.5" x2="-11196.5" y2="8131.42" gradientUnits="userSpaceOnUse">
<stop stop-color="#90B5D3"/>
<stop offset="1" stop-color="#BACEE2"/>
</linearGradient>
<linearGradient id="paint18_linear" x1="-11153.7" y1="10741.1" x2="-10541.5" y2="8638.24" gradientUnits="userSpaceOnUse">
<stop stop-color="#BBD6FE"/>
<stop offset="1" stop-color="#FEFEFE"/>
</linearGradient>
<linearGradient id="paint19_linear" x1="14440.9" y1="14900.6" x2="14523.2" y2="13880" gradientUnits="userSpaceOnUse">
<stop stop-color="#FFA290"/>
<stop offset="1" stop-color="#FECBA6"/>
</linearGradient>
<linearGradient id="paint20_linear" x1="-15.2766" y1="18395.3" x2="750.322" y2="14167.2" gradientUnits="userSpaceOnUse">
<stop stop-color="#1C9AF1"/>
<stop offset="1" stop-color="#5ED1EB"/>
</linearGradient>
</defs>
</svg>
