<svg width="53" height="53" viewBox="0 0 53 53" fill="none" xmlns="http://www.w3.org/2000/svg">
<path d="M48.3406 39.7007C49.4318 37.9269 50.3016 36.026 50.9305 34.0407L47.2905 31.1207C47.4405 30.4607 47.5705 29.7807 47.6705 29.1207C47.6705 28.8807 47.7205 28.6507 47.7505 28.4107L52.1605 26.8507C52.2187 24.772 52.0274 22.6938 51.5906 20.6607L46.9606 19.9507C46.6843 19.0631 46.3502 18.1946 45.9606 17.3507L48.9606 13.8007C47.9672 11.973 46.7586 10.271 45.3605 8.73069L41.0105 10.4307C40.336 9.79217 39.6212 9.19762 38.8705 8.65067L39.7305 4.06067C37.9544 2.97381 36.0541 2.10425 34.0705 1.47068L31.1506 5.12067C30.4906 4.96067 29.8206 4.84067 29.1506 4.74067L28.4405 4.66068L26.8905 0.250677C24.8085 0.191649 22.7269 0.383028 20.6905 0.820685L19.9905 5.45069C19.1029 5.72685 18.2344 6.0609 17.3905 6.45069L13.8406 3.45069C12.0101 4.44843 10.3048 5.66026 8.76054 7.06067L10.4606 11.4107C9.82491 12.0815 9.23363 12.793 8.69053 13.5407L4.10051 12.6807C3.00928 14.4545 2.13951 16.3553 1.51054 18.3407L5.15055 21.2607C5.00055 21.9307 4.87055 22.6007 4.77055 23.2607C4.77055 23.5007 4.72054 23.7407 4.70054 23.9707L0.280559 25.5307C0.225617 27.6098 0.420298 29.688 0.860516 31.7207L5.48051 32.4307C5.75681 33.3182 6.09085 34.1867 6.48051 35.0307L3.48051 38.5807C4.47139 40.4098 5.68023 42.1122 7.08055 43.6507L11.4305 41.9507C12.1068 42.5873 12.8214 43.1817 13.5705 43.7307L12.7106 48.3207C14.483 49.4078 16.38 50.2774 18.3605 50.9107L21.2905 47.2607C21.9499 47.423 22.6175 47.5499 23.2905 47.6407C23.5305 47.6407 23.7605 47.7007 23.9905 47.7207L25.5505 52.1407C27.6324 52.1943 29.7133 52.003 31.7505 51.5707L32.4606 46.9407C33.3469 46.6611 34.2152 46.3271 35.0605 45.9407L38.6005 48.9407C40.4313 47.9475 42.1368 46.7389 43.6805 45.3407L42.0005 41.0007C42.6333 40.3273 43.2244 39.616 43.7705 38.8707L48.3406 39.7007ZM22.8605 41.0007C19.9211 40.3317 17.2461 38.8061 15.1739 36.6167C13.1017 34.4273 11.7254 31.6725 11.219 28.7008C10.7126 25.7291 11.0988 22.674 12.3289 19.9219C13.559 17.1697 15.5777 14.8442 18.1296 13.2394C20.6815 11.6347 23.6521 10.8228 26.6654 10.9065C29.6788 10.9902 32.5997 11.9657 35.0586 13.7096C37.5176 15.4535 39.4041 17.8874 40.4795 20.7036C41.555 23.5198 41.7711 26.5917 41.1005 29.5307C40.1993 33.4685 37.7726 36.8879 34.3529 39.0383C30.9332 41.1888 26.8 41.8945 22.8605 41.0007Z" fill="#BACEE2"/>
<path d="M25.6407 32.5607C29.1864 32.5607 32.0607 29.6864 32.0607 26.1407C32.0607 22.595 29.1864 19.7207 25.6407 19.7207C22.0951 19.7207 19.2207 22.595 19.2207 26.1407C19.2207 29.6864 22.0951 32.5607 25.6407 32.5607Z" fill="#BACEE2"/>
</svg>
