<svg width="51" height="47" viewBox="0 0 51 47" fill="none" xmlns="http://www.w3.org/2000/svg">
<path d="M22.8201 45.1906C18.3815 45.1925 14.042 43.8781 10.3504 41.4136C6.65885 38.9491 3.78111 35.4451 2.08115 31.3449C0.381187 27.2447 -0.0646387 22.7324 0.800084 18.3789C1.66481 14.0253 3.80123 10.0259 6.93912 6.88663C10.077 3.74734 14.0754 1.60913 18.4286 0.742469C22.7818 -0.124194 27.2943 0.319602 31.3952 2.01774C35.4962 3.71587 39.0014 6.59205 41.4676 10.2825C43.9338 13.973 45.2501 18.3119 45.2501 22.7506C45.2448 28.6987 42.8803 34.4018 38.6753 38.6087C34.4703 42.8155 28.7682 45.1826 22.8201 45.1906V45.1906ZM22.8201 4.32056C19.1722 4.31859 15.6056 5.39863 12.5717 7.42408C9.53769 9.44953 7.17262 12.3294 5.7757 15.6993C4.37878 19.0691 4.01278 22.7776 4.72397 26.3556C5.43517 29.9335 7.19161 33.2201 9.77109 35.7996C12.3506 38.3791 15.6372 40.1355 19.2151 40.8467C22.7931 41.5579 26.5016 41.1919 29.8714 39.795C33.2413 38.3981 36.1211 36.033 38.1466 32.999C40.172 29.9651 41.2521 26.3985 41.2501 22.7506C41.2422 17.8651 39.2979 13.1819 35.8433 9.72733C32.3887 6.27275 27.7056 4.3285 22.8201 4.32056V4.32056Z" fill="#D0E0F4"/>
<path d="M39.7202 46.1612C45.9224 46.1612 50.9503 41.1333 50.9503 34.9312C50.9503 28.729 45.9224 23.7012 39.7202 23.7012C33.5181 23.7012 28.4902 28.729 28.4902 34.9312C28.4902 41.1333 33.5181 46.1612 39.7202 46.1612Z" fill="#FF65A7"/>
</svg>
