<svg width="46" height="53" viewBox="0 0 46 53" fill="none" xmlns="http://www.w3.org/2000/svg">
<path d="M19.0015 13.7311L39.6715 17.6311C41.5947 17.995 43.2949 19.107 44.3992 20.7231C45.5034 22.3391 45.9214 24.3272 45.5615 26.2511L41.6615 46.9311C41.4815 47.8875 41.1145 48.7988 40.5814 49.6129C40.0483 50.427 39.3597 51.1278 38.555 51.6751C37.7504 52.2223 36.8456 52.6053 35.8926 52.802C34.9395 52.9986 33.9571 53.0052 33.0015 52.8211L12.3315 48.9211C10.4057 48.5572 8.70298 47.4441 7.59687 45.8262C6.49077 44.2083 6.07165 42.2177 6.4315 40.2911L10.3315 19.6211C10.5126 18.6644 10.8808 17.7528 11.4149 16.9387C11.949 16.1245 12.6385 15.4237 13.4439 14.8766C14.2494 14.3294 15.1549 13.9465 16.1086 13.75C17.0623 13.5534 18.0453 13.547 19.0015 13.7311V13.7311ZM33.4615 50.5911C34.1234 50.7173 34.8036 50.7118 35.4634 50.575C36.1231 50.4383 36.7495 50.1729 37.3067 49.794C37.8638 49.4151 38.3409 48.9302 38.7106 48.3669C39.0803 47.8036 39.3355 47.173 39.4615 46.5111L43.3515 25.8311C43.4777 25.1693 43.4722 24.489 43.3354 23.8293C43.1987 23.1695 42.9332 22.5432 42.5544 21.986C42.1755 21.4288 41.6905 20.9517 41.1273 20.582C40.564 20.2123 39.9334 19.9571 39.2715 19.8311L18.5415 16.0011C17.8795 15.8736 17.1989 15.8781 16.5386 16.0143C15.8784 16.1505 15.2515 16.4158 14.694 16.7948C14.1366 17.1739 13.6594 17.6594 13.29 18.2233C12.9207 18.7873 12.6663 19.4186 12.5415 20.0811L8.64152 40.7511C8.514 41.4131 8.51847 42.0938 8.65467 42.754C8.79088 43.4143 9.05614 44.0411 9.43522 44.5986C9.81431 45.1561 10.2997 45.6332 10.8637 46.0026C11.4276 46.372 12.059 46.6264 12.7215 46.7511L33.4615 50.5911Z" fill="#D0E0F4"/>
<path d="M3.57594 23.8473L21.0583 27.1411C22.5454 27.4213 23.9781 26.4429 24.2583 24.9558L27.5521 7.4734C27.8323 5.98631 26.8539 4.55364 25.3668 4.27346L7.88443 0.979609C6.39734 0.699426 4.96465 1.67782 4.68447 3.16491L1.39061 20.6473C1.11043 22.1344 2.08885 23.5671 3.57594 23.8473Z" fill="#FFCC69"/>
</svg>
