<svg width="267" height="255" viewBox="0 0 267 255" fill="none" xmlns="http://www.w3.org/2000/svg">
<path d="M14 206.701L20.62 201.031L30.54 214.371L22.92 219.341L14 206.701Z" fill="url(#paint0_linear)"/>
<path d="M120 122.94C120 122.94 95.1604 164.41 90.4104 170.11C85.6604 175.81 30.6504 217.75 30.6504 217.75C28.5048 216.677 26.5864 215.2 25.0004 213.4C21.1604 209.4 17.6104 204.07 17.8504 202.19C18.2004 199.34 25.3304 193.4 37.3304 177.71C45.2151 167.621 54.0489 158.312 63.7104 149.91L79.7104 120.14C83.5204 103.27 89.7704 93.3597 89.7704 93.3597L112.46 90.5098L115.1 101.75L120 122.94Z" fill="url(#paint1_linear)"/>
<g style="mix-blend-mode:multiply" opacity="0.35">
<path d="M120 122.941C120 122.941 95.16 164.411 90.41 170.111C85.66 175.811 30.65 217.751 30.65 217.751C28.5044 216.678 26.586 215.201 25 213.401C40 186.731 66.56 187.481 72.86 174.211C79.49 160.261 81.59 157.101 95.31 144.091C109.03 131.081 107.09 106.001 107.09 106.001L113 98.7812L115.07 101.781L120 122.941Z" fill="#E58C33"/>
</g>
<path d="M58.0006 197.201C58.0006 197.201 49.0006 197.731 43.9306 204.201C43.7828 208.666 44.8434 213.089 47.0006 217.001L49.5506 217.351C49.4088 219.113 49.5918 220.886 50.0906 222.581C50.9206 225.431 58.5206 237.021 62.6806 238.581C66.8406 240.141 65.7706 233.831 65.7706 233.831C65.7706 233.831 63.7206 230.321 64.0906 223.611C64.4606 216.901 66.3106 209.121 66.4206 207.391L58.0006 197.201Z" fill="url(#paint2_linear)"/>
<path d="M164.27 115.401C164.27 115.401 163.7 120.211 151.94 124.541C140.18 128.871 147.07 113.541 147.07 113.541C147.07 113.541 163.83 110.901 164.27 115.401Z" fill="url(#paint3_linear)"/>
<path d="M155.561 111.92C155.561 111.92 155.56 167.5 152.23 172.72C148.9 177.94 139.521 184.6 123.23 190.9C106.94 197.2 68.5805 212.35 68.5805 212.35C66.9139 211.575 65.3841 210.534 64.0505 209.27C63.3609 208.629 62.7285 207.93 62.1605 207.18C59.4005 203.53 57.0005 197.82 58.2405 194.08C59.4805 190.34 75.9005 184 91.1405 174.39C100.18 168.641 109.987 164.2 120.271 161.2L114.751 134.29C109.546 125.714 107.379 115.636 108.601 105.68L117.301 91.9297L145.84 106.84L155.561 111.92Z" fill="url(#paint4_linear)"/>
<g style="mix-blend-mode:multiply" opacity="0.35">
<path d="M155.561 111.92C155.561 111.92 155.561 167.5 152.231 172.72C148.901 177.94 139.521 184.6 123.231 190.9C106.941 197.2 68.5808 212.35 68.5808 212.35C66.9142 211.575 65.3844 210.535 64.0508 209.27C68.5908 208.06 73.6708 206.05 77.2508 202.78C85.3308 195.42 95.0808 186.86 120.031 182.58C144.981 178.3 148.541 166.43 141.411 145.52C134.281 124.61 133.811 112.78 133.811 112.78L145.811 106.84L155.561 111.92Z" fill="#E58C33"/>
</g>
<path d="M104 102.921C105.719 105.372 107.93 107.438 110.492 108.988C113.054 110.537 115.911 111.536 118.88 111.921L124.76 85.541L104 102.921Z" fill="url(#paint5_linear)"/>
<path d="M242.351 51.3699L244.891 50.4299C244.891 50.4299 248.891 45.4299 249.751 44.5099C250.951 43.2199 256.061 40.8999 256.391 41.3899C256.721 41.8799 256.231 43.5399 255.161 44.5199C254.29 45.4188 253.512 46.4039 252.841 47.4599C255.03 46.7561 257.095 45.7134 258.961 44.3699C261.251 42.4999 265.521 40.7799 266.121 41.3699C266.721 41.9599 264.481 47.2399 264.011 50.6199C263.541 53.9999 263.411 54.9599 260.061 56.9199C256.711 58.8799 251.681 61.5499 248.061 61.9199L244.821 63.2299L242.351 51.3699Z" fill="url(#paint6_linear)"/>
<path d="M239.37 51.2402L242.84 50.2402C244.44 52.023 245.627 54.1361 246.319 56.4295C247.01 58.7229 247.188 61.1403 246.84 63.5102L241.58 65.8302L239.37 51.2402Z" fill="url(#paint7_linear)"/>
<path d="M171.78 72.4414C171.78 72.4414 169.91 82.0714 172.78 90.8014C175.65 99.5314 183.38 106.391 181.07 120.741C178.2 116.271 173.844 112.957 168.77 111.381C168.77 111.381 164.33 106.041 165.35 93.8314C166.37 81.6214 166.43 76.6314 165.2 72.4414H171.78Z" fill="url(#paint8_linear)"/>
<path d="M188.09 27.0902C188.09 27.0902 186.09 34.6602 182.59 39.5302C180.43 42.5302 174.59 39.9502 174.59 39.9502L170.37 42.1502L158.37 31.6302L162.59 28.0702L185.76 14.8802L192.41 13.9902L189.92 23.9902L188.09 27.0902Z" fill="url(#paint9_linear)"/>
<path d="M183 27.8912C183 27.8912 184.38 23.5712 182.25 22.7212C180.12 21.8712 176.59 28.1612 180.73 30.4312C180.73 30.4312 177.26 36.9812 172.73 36.7612C168.2 36.5412 161.86 32.4612 161.28 29.7012C160.979 27.8381 161.212 25.9279 161.95 24.1912C161.161 20.4849 161.056 16.6654 161.64 12.9212C161.812 11.5456 162.492 10.284 163.547 9.38461C164.602 8.4852 165.955 8.01312 167.34 8.06123C167.34 8.06123 166.81 4.81123 170.86 2.23123C174.91 -0.348767 178.17 1.23124 181.46 3.16124C185.125 5.22522 189.204 6.44489 193.4 6.73123C196.92 6.73123 198.75 9.58124 197.06 12.6112C197.06 12.6112 199.06 16.4812 197.06 18.8212C195.776 20.2736 194.032 21.2409 192.12 21.5612C191.315 23.7343 189.932 25.6464 188.12 27.0912C188.85 24.7583 189.061 22.2943 188.74 19.8712C188.74 19.8712 188.3 23.8712 185.35 24.6812C185.32 24.6812 185.32 27.8412 183 27.8912Z" fill="url(#paint10_linear)"/>
<path d="M241.641 66.8311C239.951 67.5511 207.511 83.8311 198.641 83.8311C189.771 83.8311 167.451 74.4511 167.451 74.4511V74.5211C167.201 75.0111 165.741 78.0211 164.061 81.6611C163.461 82.9511 162.831 84.3311 162.221 85.6611C159.731 91.2811 159.281 101.081 162.581 106.601C165.881 112.121 164.191 115.781 164.191 115.781C163.381 114.451 157.861 116.671 153.311 118.781C147.789 121.382 141.66 122.42 135.591 121.781C133.944 121.646 132.305 121.426 130.681 121.121C119.631 119.071 110.631 111.851 110.451 109.801C110.271 107.751 115.381 97.9611 115.691 97.3611C115.191 97.9111 108.271 105.531 107.161 105.881C106.051 106.231 104.751 107.041 99.6705 105.441C94.8458 103.63 90.6403 100.476 87.5506 96.3511C85.9506 93.7611 86.0406 93.3511 87.9106 91.7111C89.7806 90.0711 111.081 71.7111 112.861 69.3511C114.641 66.9911 118.561 54.4711 119.991 51.4411C121.421 48.4111 128.201 32.7011 137.001 28.6011C145.801 24.5011 154.051 29.2611 154.051 29.2611C168.781 35.7911 171.331 44.4911 171.331 44.4911L182.331 52.7511C191.151 56.9411 202.111 61.3111 202.111 61.3111C202.111 61.3111 204.611 60.6811 215.481 58.0111C226.351 55.3411 239.811 50.2711 239.811 50.2711C239.811 50.2711 243.101 55.6911 244.001 59.1711C244.901 62.6511 243.331 66.1211 241.641 66.8311Z" fill="url(#paint11_linear)"/>
<path d="M171.66 44.8809L174.51 40.7809C174.51 40.7809 171.13 33.3009 159.19 27.7109L154.08 29.2609C154.08 29.2609 167.32 39.0609 171.66 44.8809Z" fill="url(#paint12_linear)"/>
<g style="mix-blend-mode:multiply" opacity="0.32">
<path d="M167.001 72.35C167.001 72.35 166.111 56.67 177.871 51.5C177.841 51.5 170.001 58.45 167.001 72.35Z" fill="#5E3FD1"/>
</g>
<g style="mix-blend-mode:multiply" opacity="0.32">
<path d="M162.15 85.7205C159.66 91.3405 159.21 101.14 162.51 106.66C165.81 112.18 164.12 115.84 164.12 115.84C163.31 114.51 157.791 116.73 153.241 118.84C147.719 121.442 141.59 122.479 135.521 121.84C135.751 113.68 134.751 111.56 146.831 95.7805C159.831 78.7805 154.081 70.4805 154.081 70.4805L167.331 74.4805V74.5705C167.081 75.0605 165.621 78.0704 163.941 81.7104C163.391 83.0004 162.76 84.3505 162.15 85.7205Z" fill="#5E3FD1"/>
</g>
<path d="M24.4503 220.422L23.6203 221.202C22.4193 226.4 20.7284 231.472 18.5703 236.352C14.8903 244.782 15.5703 248.882 15.3003 250.352C15.1803 251.122 13.8103 252.272 12.3003 253.152C10.7903 254.032 9.22028 254.562 8.30028 254.392C6.30028 254.032 1.89028 249.342 0.760284 240.842C-0.369716 232.342 3.14028 223.672 3.14028 223.672C2.91748 220.706 2.91748 217.727 3.14028 214.762C3.22698 213.661 3.56941 212.596 4.14028 211.652V211.652C4.83028 210.602 6.03028 209.722 8.24028 208.652L13.6503 206.002C13.9891 205.846 14.3575 205.766 14.7303 205.766C15.1031 205.766 15.4715 205.846 15.8103 206.002C18.3909 207.129 20.6126 208.942 22.2332 211.245C23.8537 213.548 24.8108 216.252 25.0003 219.062C25.016 219.315 24.9747 219.569 24.8795 219.804C24.7844 220.039 24.6377 220.25 24.4503 220.422V220.422Z" fill="url(#paint13_linear)"/>
<g style="mix-blend-mode:multiply" opacity="0.32">
<path d="M12.7405 232.19C11.5605 240.98 11.6805 246.68 12.4505 251.02C12.5966 251.741 12.5271 252.489 12.2505 253.17C10.8005 253.99 9.17048 254.58 8.25048 254.41C6.25048 254.05 1.84048 249.36 0.710479 240.86C-0.419521 232.36 3.09048 223.69 3.09048 223.69C2.86768 220.725 2.86768 217.746 3.09048 214.78C3.17718 213.68 3.5196 212.615 4.09048 211.67C4.36048 211.53 8.72048 209.36 12.1705 214.14C15.7205 219.06 13.9205 223.4 12.7405 232.19Z" fill="#3F74E2"/>
</g>
<defs>
<linearGradient id="paint0_linear" x1="1600.85" y1="7344.86" x2="1754.53" y2="7581.31" gradientUnits="userSpaceOnUse">
<stop stop-color="#FFA290"/>
<stop offset="1" stop-color="#FECBA6"/>
</linearGradient>
<linearGradient id="paint1_linear" x1="16710" y1="44978.2" x2="12432.4" y2="42158.2" gradientUnits="userSpaceOnUse">
<stop stop-color="#F7B345"/>
<stop offset="1" stop-color="#FEDB58"/>
</linearGradient>
<linearGradient id="paint2_linear" x1="43.8606" y1="218.031" x2="66.3906" y2="218.031" gradientUnits="userSpaceOnUse">
<stop stop-color="#405DD3"/>
<stop offset="1" stop-color="#3D92F5"/>
</linearGradient>
<linearGradient id="paint3_linear" x1="4665.9" y1="3875.42" x2="4366.14" y2="4388.4" gradientUnits="userSpaceOnUse">
<stop offset="0.02" stop-color="#6B7CF7"/>
<stop offset="0.54" stop-color="#8F85F5"/>
<stop offset="1" stop-color="#B18DF3"/>
</linearGradient>
<linearGradient id="paint4_linear" x1="22088.9" y1="45041.1" x2="15434.3" y2="41394" gradientUnits="userSpaceOnUse">
<stop stop-color="#F7B345"/>
<stop offset="1" stop-color="#FEDB58"/>
</linearGradient>
<linearGradient id="paint5_linear" x1="121.71" y1="98.731" x2="97.18" y2="97.001" gradientUnits="userSpaceOnUse">
<stop stop-color="#CEC7FE"/>
<stop offset="1" stop-color="#FEFEFE"/>
</linearGradient>
<linearGradient id="paint6_linear" x1="8275.3" y1="5470.03" x2="8150.15" y2="5122.13" gradientUnits="userSpaceOnUse">
<stop stop-color="#FFA290"/>
<stop offset="1" stop-color="#FECBA6"/>
</linearGradient>
<linearGradient id="paint7_linear" x1="2665.06" y1="3870.57" x2="2723.84" y2="3870.57" gradientUnits="userSpaceOnUse">
<stop stop-color="#CEC7FE"/>
<stop offset="1" stop-color="#FEFEFE"/>
</linearGradient>
<linearGradient id="paint8_linear" x1="4128.31" y1="13769.8" x2="4393.79" y2="13769.8" gradientUnits="userSpaceOnUse">
<stop stop-color="#EB5896"/>
<stop offset="1" stop-color="#F988B7"/>
</linearGradient>
<linearGradient id="paint9_linear" x1="8729.98" y1="6020.23" x2="9144.75" y2="6138.34" gradientUnits="userSpaceOnUse">
<stop stop-color="#FFA290"/>
<stop offset="1" stop-color="#FECBA6"/>
</linearGradient>
<linearGradient id="paint10_linear" x1="9760.38" y1="7728.47" x2="9379.18" y2="6749.77" gradientUnits="userSpaceOnUse">
<stop stop-color="#EB5896"/>
<stop offset="1" stop-color="#F988B7"/>
</linearGradient>
<linearGradient id="paint11_linear" x1="39866.6" y1="27962.6" x2="38564.4" y2="20524.6" gradientUnits="userSpaceOnUse">
<stop offset="0.02" stop-color="#6B7CF7"/>
<stop offset="0.54" stop-color="#8F85F5"/>
<stop offset="1" stop-color="#B18DF3"/>
</linearGradient>
<linearGradient id="paint12_linear" x1="5052.78" y1="3904.18" x2="5130.57" y2="3766.1" gradientUnits="userSpaceOnUse">
<stop stop-color="#CEC7FE"/>
<stop offset="1" stop-color="#FEFEFE"/>
</linearGradient>
<linearGradient id="paint13_linear" x1="1920.49" y1="20500.3" x2="2520.19" y2="20500.3" gradientUnits="userSpaceOnUse">
<stop stop-color="#405DD3"/>
<stop offset="1" stop-color="#3D92F5"/>
</linearGradient>
</defs>
</svg>
