<svg width="55" height="213" viewBox="0 0 55 213" fill="none" xmlns="http://www.w3.org/2000/svg">
<g style="mix-blend-mode:multiply" opacity="0.7">
<g style="mix-blend-mode:multiply" opacity="0.7">
<path d="M4.54004 57.3109C5.18004 52.4309 5.92004 47.7709 6.73004 43.3809" stroke="#ACCAEA" stroke-width="1.3" stroke-miterlimit="10" stroke-linecap="round"/>
</g>
<g style="mix-blend-mode:multiply" opacity="0.7">
<path d="M3.13028 142.621C2.13028 131.311 1.53027 119.091 1.53027 106.351C1.53027 92.4906 2.20028 79.2606 3.41028 67.1406" stroke="#ACCAEA" stroke-width="1.3" stroke-miterlimit="10" stroke-linecap="round"/>
</g>
<g style="mix-blend-mode:multiply" opacity="0.7">
<path d="M27.83 211.78C18.26 211.78 9.89004 191.3 5.29004 160.68" stroke="#ACCAEA" stroke-width="1.3" stroke-miterlimit="10" stroke-linecap="round"/>
</g>
<g style="mix-blend-mode:multiply" opacity="0.7">
<path d="M51.7504 150.209C51.0004 156.999 50.0004 163.479 48.9004 169.429" stroke="#ACCAEA" stroke-width="1.3" stroke-miterlimit="10" stroke-linecap="round"/>
</g>
<g style="mix-blend-mode:multiply" opacity="0.7">
<path d="M52 65C53.4238 78.7404 54.1248 92.5461 54.1 106.36C54.1 117.53 53.66 128.29 52.86 138.36" stroke="#ACCAEA" stroke-width="1.3" stroke-miterlimit="10" stroke-linecap="round"/>
</g>
<g style="mix-blend-mode:multiply" opacity="0.7">
<path d="M8.64062 34.2399C13.4406 13.7299 20.2606 0.919922 27.8306 0.919922C36.6506 0.919922 44.4506 18.3199 49.2206 45.0299" stroke="#ACCAEA" stroke-width="1.3" stroke-miterlimit="10" stroke-linecap="round"/>
</g>
<g style="mix-blend-mode:multiply" opacity="0.7">
<path d="M25.2605 199.259C35.4943 199.259 43.7905 157.662 43.7905 106.349C43.7905 55.0367 35.4943 13.4395 25.2605 13.4395C15.0266 13.4395 6.73047 55.0367 6.73047 106.349C6.73047 157.662 15.0266 199.259 25.2605 199.259Z" stroke="#ACCAEA" stroke-width="2" stroke-miterlimit="10" stroke-linecap="round"/>
</g>
<g style="mix-blend-mode:multiply" opacity="0.7">
<path d="M23.77 141.281C28.8897 141.281 33.04 126.009 33.04 107.171C33.04 88.3321 28.8897 73.0605 23.77 73.0605C18.6503 73.0605 14.5 88.3321 14.5 107.171C14.5 126.009 18.6503 141.281 23.77 141.281Z" stroke="#ACCAEA" stroke-width="3" stroke-miterlimit="10" stroke-linecap="round"/>
</g>
</g>
<path d="M22.7403 126.19C25.5956 126.19 27.9103 117.675 27.9103 107.17C27.9103 96.6659 25.5956 88.1504 22.7403 88.1504C19.885 88.1504 17.5703 96.6659 17.5703 107.17C17.5703 117.675 19.885 126.19 22.7403 126.19Z" fill="url(#paint0_linear)"/>
<defs>
<linearGradient id="paint0_linear" x1="3711.53" y1="9935.57" x2="2757.39" y2="9047.94" gradientUnits="userSpaceOnUse">
<stop stop-color="#1C9AF1"/>
<stop offset="1" stop-color="#5ED1EB"/>
</linearGradient>
</defs>
</svg>
