<svg width="106" height="261" viewBox="0 0 106 261" fill="none" xmlns="http://www.w3.org/2000/svg">
<path d="M90 169.68C91.3293 173.281 92.1897 177.039 92.56 180.86C93.12 187.01 92.76 192 95.12 192.13C97.48 192.26 104.12 188.74 104.92 182.2C105.72 175.66 104.84 171.77 104.92 167.76C105 163.75 105.64 159.29 105.06 157.82C104.48 156.35 96.33 155.6 92.23 157.07L90 169.68Z" fill="url(#paint0_linear)"/>
<path d="M81.0508 168.161L90.0508 169.681C92.3147 165.893 93.1083 161.405 92.2808 157.071L82.9608 154.131L81.0508 168.161Z" fill="url(#paint1_linear)"/>
<path d="M51.5609 232.08C51.5609 232.08 50.2509 234.87 48.0509 239.21C45.8509 243.55 38.4909 256.56 40.6909 258.99C42.8909 261.42 53.6909 260.99 56.6909 257.09C59.6909 253.19 64.4709 247.17 66.0709 245.27C67.6709 243.37 66.0709 232.08 66.0709 232.08H51.5609Z" fill="url(#paint2_linear)"/>
<path d="M52.3906 221.001L51.5605 232.111C51.5605 232.111 58.6905 236.801 66.1105 232.111L68.1105 218.111L52.3906 221.001Z" fill="url(#paint3_linear)"/>
<path d="M86.2204 160.591C86.2819 161.801 86.1674 163.013 85.8805 164.191C85.4404 166.197 84.393 168.02 82.8805 169.411C82.8805 169.411 26.1104 160.841 21.5804 151.771C18.7204 146.061 17.7405 136.441 21.3105 130.291C24.8805 124.141 45.3705 101.811 45.3705 101.811L66.9305 103.271V117.371L48.4005 139.831C52.3793 140.608 56.2412 141.895 59.8905 143.661C73.7005 150.161 84.8305 152.661 85.8905 153.231C86.9505 153.801 86.0004 154.621 86.2204 160.591Z" fill="url(#paint4_linear)"/>
<g style="mix-blend-mode:multiply" opacity="0.35">
<path d="M86.2208 160.59C86.2822 161.8 86.1677 163.013 85.8808 164.19C75.4308 159.19 60.3208 162.75 54.2308 156.93C46.3908 149.45 49.1308 146.12 38.7908 144.58C28.4508 143.04 34.1208 138.04 47.1908 130.79C60.2608 123.54 60.6508 101 60.6508 101L66.8808 114.41V117.41L48.3508 139.87C52.3296 140.647 56.1915 141.934 59.8408 143.7C73.6508 150.2 84.7808 152.7 85.8408 153.27C86.9008 153.84 86.0008 154.62 86.2208 160.59Z" fill="#5C98E3"/>
</g>
<path d="M90.8206 117.251C89.1606 121.771 73.9506 157.531 73.9506 157.531C73.9506 157.531 72.5306 159.791 72.8806 177.251C73.2306 194.711 70.8806 213.731 70.5106 217.251C70.4406 217.991 70.3906 218.622 70.2906 219.172C69.9706 221.292 69.1106 222.312 64.2106 224.382C58.0306 226.992 49.6006 223.551 49.6006 223.551C49.6006 223.551 49.8306 163.902 51.3806 152.382C52.9306 140.861 60.5306 107.232 60.5306 107.232L78.7206 104.102L92.2506 101.771C92.2506 101.771 92.4906 112.741 90.8206 117.251Z" fill="url(#paint5_linear)"/>
<g style="mix-blend-mode:multiply" opacity="0.35">
<path d="M90.8209 117.251C89.1609 121.771 73.9509 157.531 73.9509 157.531C73.9509 157.531 72.5309 159.791 72.8809 177.251C73.2309 194.711 70.8809 213.731 70.5109 217.251C70.4409 217.991 70.3909 218.622 70.2909 219.172C70.8609 208.672 68.4109 194.831 65.8109 178.991C62.4309 158.321 68.9309 150.122 76.9509 131.852C84.9709 113.582 78.6309 106.551 78.6309 106.551C78.6309 105.711 78.6309 104.892 78.7209 104.102L92.2509 101.771C92.2509 101.771 92.4909 112.741 90.8209 117.251Z" fill="#5C98E3"/>
</g>
<path d="M49.2406 47.3312C49.2406 47.3312 44.9006 44.3312 44.9606 36.9312C45.0206 29.5312 51.5006 28.7912 50.7306 23.4512C49.9606 18.1112 47.8806 10.8712 50.9906 8.1212C51.7475 7.39698 52.7223 6.9427 53.7637 6.8288C54.8051 6.7149 55.855 6.94774 56.7506 7.49121C56.7506 7.49121 58.3306 1.7612 66.4106 0.9312C74.4906 0.1012 79.8906 4.85121 81.8606 13.4712C83.8306 22.0912 84.7706 24.8112 89.4006 28.8512C94.0306 32.8912 96.8306 42.5212 88.0906 46.7912L49.2406 47.3312Z" fill="url(#paint6_linear)"/>
<path d="M15.8802 41.2705C16.1213 42.5149 16.275 43.7746 16.3402 45.0405L11.6302 54.5005C11.2902 53.8405 11.1002 53.4505 11.1002 53.4505C-2.97984 48.9905 1.24016 33.8605 2.66016 33.7305H2.74014C4.80014 33.7305 7.89016 40.8405 12.2602 43.6505C12.5407 42.1016 12.4516 40.5084 12.0002 39.0005C11.9502 38.8505 11.9202 38.7105 11.8902 38.5805C11.7102 37.6305 12.0702 36.0505 12.6902 36.0505C13.3102 36.0505 15.5002 39.7905 15.8802 41.2705Z" fill="url(#paint7_linear)"/>
<path d="M93.1706 103.472C93.0775 103.638 92.974 103.798 92.8606 103.952C91.6406 105.492 90.5406 102.742 78.6306 106.592C77.6306 106.922 76.4706 107.312 75.2606 107.752C59.0206 113.692 44.9606 106.322 44.1306 103.472C43.4206 101.032 48.5306 96.7716 50.6806 90.5916C51.055 89.5417 51.3198 88.456 51.4706 87.3516C51.8506 84.5416 51.0906 81.7716 50.3106 79.1616C49.9106 77.8016 49.5006 76.4916 49.2406 75.2316C49.0406 74.2316 48.9106 73.3216 48.8106 72.4816C48.6706 71.1116 48.6306 70.0116 48.6206 69.4816V69.1616C48.6206 68.1616 48.9306 64.5416 51.2406 58.0016C54.0306 50.1116 53.8706 44.0016 52.9706 42.6116C52.8808 42.5161 52.7667 42.447 52.6406 42.4116C56.4072 41.1201 60.3498 40.4152 64.3306 40.3216C80.1306 39.3216 87.9706 43.8316 89.8706 46.8016C91.0606 48.6516 90.2405 54.0016 89.4705 61.0216C88.8991 65.7007 88.5886 70.408 88.5406 75.1216C88.5406 77.9116 87.2606 81.3816 88.1806 83.8616C90.8506 91.0916 94.4006 101.312 93.1706 103.472Z" fill="url(#paint8_linear)"/>
<path d="M51.2404 58.0013C48.9304 64.5413 48.6504 68.1313 48.6204 69.1613C48.6204 69.1613 46.4804 70.5913 43.6204 72.1613C40.0304 74.1613 35.2704 76.3613 32.0604 76.3613C29.3604 76.3613 25.8304 74.4713 22.6404 71.3613C21.2475 70.0219 19.9944 68.5443 18.9004 66.9513C16.2385 62.9353 13.8175 58.7646 11.6504 54.4613L16.3604 45.0013C16.4704 46.4713 16.5304 47.7713 16.5304 47.7713C18.7614 50.5344 21.4059 52.936 24.3704 54.8913C26.5504 56.3613 28.4904 57.5613 29.9304 58.4113C31.5304 59.3513 32.5104 59.8713 32.5104 59.8713C40.5104 52.2113 47.5604 45.3913 49.9104 43.7813C50.7693 43.2037 51.6921 42.7272 52.6604 42.3613C52.7865 42.3967 52.9006 42.4659 52.9904 42.5613C53.8704 44.0013 54.0004 50.1113 51.2404 58.0013Z" fill="url(#paint9_linear)"/>
<g style="mix-blend-mode:multiply" opacity="0.55">
<path d="M50.4307 67.5914C50.0369 69.263 49.4948 70.8962 48.8107 72.4714C48.6922 71.3719 48.6288 70.2672 48.6207 69.1614C48.6207 69.1614 46.4807 70.5914 43.6207 72.1614C40.7307 65.3014 44.5207 61.3614 47.9507 57.4414C50.364 54.4417 52.2631 51.0625 53.5707 47.4414C53.1107 51.6614 52.9207 53.3214 50.5707 59.9514C48.3607 66.2514 50.4307 67.5914 50.4307 67.5914Z" fill="#D0E0F4"/>
</g>
<g style="mix-blend-mode:multiply" opacity="0.45">
<path d="M93.1705 103.471C93.0775 103.637 92.974 103.797 92.8605 103.951C91.6405 105.491 90.5406 102.741 78.6306 106.591C71.8606 100.321 51.9805 101.591 50.6805 90.5905C50.5183 90.0263 50.3947 89.4516 50.3105 88.8705V75.2206C57.9475 74.7466 65.513 73.4662 72.8806 71.4005C83.3406 68.2005 81.7606 58.5605 81.7606 58.5605L89.4705 61.0206C88.8991 65.6997 88.5886 70.4069 88.5405 75.1205C88.5405 77.9105 87.2605 81.3805 88.1805 83.8605C90.8505 91.0905 94.4005 101.311 93.1705 103.471Z" fill="#D53468"/>
</g>
<path d="M22.6201 71.4005C21.2272 70.061 19.9741 68.5834 18.8802 66.9905C16.0145 62.6392 13.4164 58.1175 11.1002 53.4505C-2.97984 48.9905 1.24016 33.8605 2.66016 33.7305H2.74014C4.80014 33.7305 7.89016 40.8405 12.2602 43.6505C12.5407 42.1016 12.4516 40.5084 12.0002 39.0005C11.9502 38.8505 11.9202 38.7105 11.8902 38.5805C11.7102 37.6305 12.0702 36.0505 12.6902 36.0505C13.3102 36.0505 15.5201 39.8305 15.9001 41.3105C16.2359 43.4765 16.4462 45.6602 16.5302 47.8505C18.7611 50.6135 21.4057 53.0152 24.3701 54.9705C26.5501 56.4405 28.4901 57.6405 29.9301 58.4905C29.9301 58.4905 31.0001 65.8205 22.6201 71.4005Z" fill="url(#paint10_linear)"/>
<path d="M76.0907 41.2099C76.0907 41.2099 74.6606 48.5799 67.1806 50.2999C61.5606 51.5899 60.0406 48.1098 60.9506 44.8098C61.2611 43.6757 61.8292 42.6285 62.6106 41.7498C62.7928 39.8987 62.4823 38.0323 61.7106 36.3398L74.1306 28.3398C74.1306 28.3398 74.1306 29.0798 74.2106 30.3398C74.4641 34.0179 75.0941 37.6603 76.0907 41.2099Z" fill="url(#paint11_linear)"/>
<g style="mix-blend-mode:multiply" opacity="0.45">
<path d="M74.2102 30.3298C74.2102 34.5898 72.7502 44.1998 60.9502 44.8098C61.2607 43.6757 61.8287 42.6285 62.6102 41.7498C62.7923 39.8987 62.4819 38.0323 61.7102 36.3398L74.1302 28.3398C74.1995 29.0008 74.2262 29.6655 74.2102 30.3298V30.3298Z" fill="#F2787A"/>
</g>
<path d="M54.2302 15.7812C54.1114 20.5185 54.4699 25.2558 55.3002 29.9212C56.6102 35.9212 59.1602 39.7812 63.0202 39.0112C66.8802 38.2412 71.0202 36.0113 72.7102 33.5513C73.7483 32.0127 74.2477 30.1736 74.1302 28.3213C74.1302 28.3213 77.7902 28.4113 77.5502 24.7812C77.3102 21.1512 74.2802 22.3212 73.6302 23.7812C73.2134 24.7826 72.9504 25.8413 72.8502 26.9212C72.5279 26.9422 72.2049 26.8923 71.904 26.775C71.6031 26.6577 71.3315 26.4759 71.1084 26.2423C70.8854 26.0088 70.7162 25.7291 70.6128 25.4232C70.5095 25.1172 70.4744 24.7922 70.5102 24.4713C70.7102 21.1013 70.1502 20.9312 70.1502 20.9312C66.5302 18.7012 59.0002 22.7913 54.2302 15.7812Z" fill="url(#paint12_linear)"/>
<path d="M83.3909 95.5602L58.2509 103.21C57.8888 103.319 57.4986 103.284 57.1615 103.113C56.8245 102.942 56.5664 102.647 56.4409 102.29L44.0509 67.2901C43.9849 67.1007 43.9587 66.8996 43.9739 66.6995C43.9891 66.4995 44.0454 66.3047 44.1392 66.1274C44.2331 65.95 44.3624 65.7939 44.5193 65.6688C44.6762 65.5437 44.8571 65.4522 45.0509 65.4001L70.1809 57.7502C70.5444 57.6409 70.9359 57.6754 71.2746 57.8467C71.6134 58.0179 71.8734 58.3127 72.0009 58.6702L84.3809 93.6702C84.447 93.859 84.4736 94.0594 84.459 94.2589C84.4445 94.4585 84.3891 94.6529 84.2962 94.8301C84.2034 95.0073 84.0752 95.1636 83.9194 95.2892C83.7637 95.4148 83.5838 95.507 83.3909 95.5602V95.5602Z" fill="url(#paint13_linear)"/>
<path d="M102.881 75.7598C101.641 80.6498 96.0706 84.1798 85.8806 86.0198C84.3806 86.2898 82.7906 86.5198 81.0906 86.7198C67.5006 88.2798 62.4706 88.5398 62.4706 88.5398C59.4502 89.5552 56.367 90.3736 53.2406 90.9898C49.5906 91.5698 48.4306 89.4798 47.9006 86.9898C47.3706 84.4998 45.3606 79.4998 46.2006 77.8998C46.5453 77.2927 46.859 76.6686 47.1406 76.0298L48.3406 79.1498C50.409 79.8297 52.6088 80.0113 54.7606 79.6798C54.408 78.8275 53.9107 78.0426 53.2906 77.3598C52.6606 76.9598 50.4806 75.8498 50.2906 75.1798C50.1006 74.5098 53.6806 74.6198 55.2906 75.1798C57.2906 75.8498 60.7706 79.3698 60.7706 79.3698C60.7706 79.3698 68.9606 78.3698 75.0906 74.9698C77.4194 73.6972 79.8238 72.5684 82.2906 71.5898C84.0897 70.8524 85.9294 70.218 87.8006 69.6898C87.8006 69.6898 81.8906 61.0098 81.7106 58.5198C81.5306 56.0298 85.4906 44.2198 88.1506 44.9998C90.8106 45.7798 93.8306 51.1198 97.5806 58.3398C101.331 65.5598 104.311 70.1398 102.881 75.7598Z" fill="url(#paint14_linear)"/>
<path d="M85.9304 86.0003C84.4304 86.2703 82.8404 86.5003 81.1404 86.7003C67.5504 88.2603 62.5204 88.5203 62.5204 88.5203C59.5 89.5357 56.4169 90.3541 53.2904 90.9703C49.6404 91.5503 48.4804 89.4603 47.9504 86.9703C47.4204 84.4803 45.4104 79.4803 46.2504 77.8803C46.5951 77.2732 46.9088 76.6491 47.1904 76.0103L48.3904 79.1303C50.4588 79.8102 52.6586 79.9918 54.8104 79.6603C54.4578 78.808 53.9605 78.0231 53.3404 77.3403C52.7104 76.9403 50.5304 75.8303 50.3404 75.1603C50.1504 74.4903 53.7304 74.6003 55.3404 75.1603C57.3404 75.8303 60.8204 79.3503 60.8204 79.3503C60.8204 79.3503 69.0104 78.3503 75.1404 74.9503C77.4692 73.6777 79.8737 72.5489 82.3405 71.5703C84.0726 73.499 85.3055 75.8229 85.9313 78.3385C86.5572 80.8541 86.5569 83.4848 85.9304 86.0003Z" fill="url(#paint15_linear)"/>
<path d="M46.9307 64.8011L47.1407 62.4811C47.1537 62.305 47.2199 62.137 47.3307 61.9995C47.4414 61.862 47.5914 61.7614 47.7607 61.7111L56.1507 59.0911C56.327 59.0314 56.5174 59.0271 56.6963 59.079C56.8751 59.1308 57.0337 59.2363 57.1507 59.3811L58.6407 61.2511L46.9307 64.8011Z" fill="url(#paint16_linear)"/>
<path d="M83.7608 71.0805C83.7608 71.0805 86.6608 72.7605 87.8608 78.2805C89.0608 83.8005 91.5108 86.3505 91.5108 86.3505C91.5108 86.3505 86.5108 87.5005 84.1608 86.8805C81.8108 86.2605 82.5408 79.0205 79.3008 72.9305C79.3008 72.9305 82.1008 71.0005 83.7608 71.0805Z" fill="url(#paint17_linear)"/>
<path d="M29.4707 58.1914C28.6815 60.8153 27.4542 63.2868 25.8407 65.5014C23.3107 68.9914 21.5207 70.5014 21.6107 71.4014C21.7007 72.3014 23.7907 74.9714 27.2207 76.4014C27.2207 76.4014 33.3007 67.2414 32.4907 59.9414C31.6676 59.087 30.6213 58.4807 29.4707 58.1914V58.1914Z" fill="url(#paint18_linear)"/>
<path d="M61.0005 44.8105C61.0005 44.8105 58.2905 51.3406 60.7605 53.2206C63.2305 55.1006 69.6105 52.2806 73.9005 45.9706C73.8505 46.0006 64.8705 51.2105 61.0005 44.8105Z" fill="url(#paint19_linear)"/>
<defs>
<linearGradient id="paint0_linear" x1="109.73" y1="172.09" x2="87.87" y2="175.41" gradientUnits="userSpaceOnUse">
<stop stop-color="#77354E"/>
<stop offset="1" stop-color="#9A485D"/>
</linearGradient>
<linearGradient id="paint1_linear" x1="81.0508" y1="161.901" x2="92.5708" y2="161.901" gradientUnits="userSpaceOnUse">
<stop stop-color="#FFA290"/>
<stop offset="1" stop-color="#FECBA6"/>
</linearGradient>
<linearGradient id="paint2_linear" x1="13360" y1="11908.8" x2="12894" y2="11685.5" gradientUnits="userSpaceOnUse">
<stop stop-color="#77354E"/>
<stop offset="1" stop-color="#9A485D"/>
</linearGradient>
<linearGradient id="paint3_linear" x1="8137.22" y1="6412.39" x2="8410.46" y2="6412.39" gradientUnits="userSpaceOnUse">
<stop stop-color="#FFA290"/>
<stop offset="1" stop-color="#FECBA6"/>
</linearGradient>
<linearGradient id="paint4_linear" x1="51.5805" y1="137.751" x2="12.0105" y2="144.521" gradientUnits="userSpaceOnUse">
<stop stop-color="#567FE3"/>
<stop offset="1" stop-color="#81D8FF"/>
</linearGradient>
<linearGradient id="paint5_linear" x1="21841.3" y1="39967.6" x2="20753.4" y2="39959.6" gradientUnits="userSpaceOnUse">
<stop stop-color="#567FE3"/>
<stop offset="1" stop-color="#81D8FF"/>
</linearGradient>
<linearGradient id="paint6_linear" x1="72.0606" y1="44.7312" x2="55.1906" y2="3.62119" gradientUnits="userSpaceOnUse">
<stop offset="0.02" stop-color="#6B7CF7"/>
<stop offset="0.54" stop-color="#8F85F5"/>
<stop offset="1" stop-color="#B18DF3"/>
</linearGradient>
<linearGradient id="paint7_linear" x1="13.5602" y1="52.5005" x2="6.55015" y2="38.5905" gradientUnits="userSpaceOnUse">
<stop stop-color="#EB5896"/>
<stop offset="1" stop-color="#F988B7"/>
</linearGradient>
<linearGradient id="paint8_linear" x1="25687.6" y1="18542.7" x2="23823.2" y2="15926.6" gradientUnits="userSpaceOnUse">
<stop stop-color="#EB5896"/>
<stop offset="1" stop-color="#F988B7"/>
</linearGradient>
<linearGradient id="paint9_linear" x1="46.6504" y1="70.9513" x2="36.0704" y2="55.0313" gradientUnits="userSpaceOnUse">
<stop stop-color="#BBD6FE"/>
<stop offset="1" stop-color="#FEFEFE"/>
</linearGradient>
<linearGradient id="paint10_linear" x1="12848.2" y1="8252.95" x2="13256.3" y2="7960.61" gradientUnits="userSpaceOnUse">
<stop stop-color="#FFA290"/>
<stop offset="1" stop-color="#FECBA6"/>
</linearGradient>
<linearGradient id="paint11_linear" x1="7844.89" y1="4371.8" x2="7810.7" y2="4696.8" gradientUnits="userSpaceOnUse">
<stop stop-color="#FFA290"/>
<stop offset="1" stop-color="#FECBA6"/>
</linearGradient>
<linearGradient id="paint12_linear" x1="12047.4" y1="4593.11" x2="11635.6" y2="4264.21" gradientUnits="userSpaceOnUse">
<stop stop-color="#FFA290"/>
<stop offset="1" stop-color="#FECBA6"/>
</linearGradient>
<linearGradient id="paint13_linear" x1="84.8509" y1="84.9302" x2="39.1109" y2="75.0702" gradientUnits="userSpaceOnUse">
<stop stop-color="#F7B345"/>
<stop offset="1" stop-color="#FEDB58"/>
</linearGradient>
<linearGradient id="paint14_linear" x1="29371.1" y1="10740.3" x2="30573.5" y2="9941.82" gradientUnits="userSpaceOnUse">
<stop stop-color="#BBD6FE"/>
<stop offset="1" stop-color="#FEFEFE"/>
</linearGradient>
<linearGradient id="paint15_linear" x1="20434.6" y1="4929.01" x2="20406" y2="4640.31" gradientUnits="userSpaceOnUse">
<stop stop-color="#FFA290"/>
<stop offset="1" stop-color="#FECBA6"/>
</linearGradient>
<linearGradient id="paint16_linear" x1="5786.71" y1="1345.36" x2="5783.23" y2="1320.83" gradientUnits="userSpaceOnUse">
<stop stop-color="#F7B345"/>
<stop offset="1" stop-color="#FEDB58"/>
</linearGradient>
<linearGradient id="paint17_linear" x1="76.6708" y1="81.9905" x2="87.1208" y2="78.7805" gradientUnits="userSpaceOnUse">
<stop stop-color="#BBD6FE"/>
<stop offset="0.03" stop-color="#BED8FE"/>
<stop offset="0.42" stop-color="#DDEAFE"/>
<stop offset="0.74" stop-color="#F0F6FE"/>
<stop offset="0.97" stop-color="#F7FAFE"/>
</linearGradient>
<linearGradient id="paint18_linear" x1="5009.92" y1="4448.44" x2="5212.88" y2="4269.45" gradientUnits="userSpaceOnUse">
<stop stop-color="#BBD6FE"/>
<stop offset="1" stop-color="#FEFEFE"/>
</linearGradient>
<linearGradient id="paint19_linear" x1="7182.45" y1="1992.92" x2="7190.17" y2="1907" gradientUnits="userSpaceOnUse">
<stop stop-color="#BBD6FE"/>
<stop offset="1" stop-color="#FEFEFE"/>
</linearGradient>
</defs>
</svg>
