<?xml version="1.0" encoding="UTF-8"?>
<svg id="Layer_1" data-name="Layer 1" xmlns="http://www.w3.org/2000/svg" viewBox="0 0 8079.19 1862">
  <defs>
    <style>
      .cls-1 {
        fill: #2b3738;
      }
    </style>
  </defs>
  <path class="cls-1" d="M5320.26,690.23c5.57-.09,11.03-1.65,16.57-2.28,16.43-1.86,37.46,1.33,49.09,13.44-15.37-6.3-26.37-2.15-36.91,3-9.91,4.85-20.52,8.1-31.44,9.63-17.45,2.37-36.84-4.21-51.92,4.88-38.04,22.94-64.54,67.44-116.27,47.27-7.46-2.91-14.71-7.1-22.71-7.25-18.05-.35-29.23,18.49-41.4,31.82-21.76,23.87-48.82,27.92-79.29,27.14-22.49-.58-52.18,1.52-66.18,21-8.99,12.5-46.13,28.78-65.13,60.78-19.79,33.34-78.5,72.17-196,17.5-151.94-70.7-227.03,166.02-316.5,155.49-34-4-65.44-104.11-136-79.49-249.85,87.15-82.44,125.38-259.94,136.38s-54,172-231.5,188.5-161,193.5-301,145-161.5,193.5-296,204.5c-107.6,8.8-191.83,132.67-220.5,193.5H33.23C-5.27,1298.21-42.17,159.14,118.23,105.54c200.5-67,40,187.5,432,29.5,392-158,236-13,425.5,84,189.5,97,381.5-13.5,455-73.5,73.5-60,179-185.5,360.5-133,181.5,52.5,170.5,272,343.5,109.5,173.01-162.5,225.51,83.5,377.01,145.5s185.5-97,272-145.5c86.5-48.5,261,141.5,430,83.5,135.2-46.4,265.67,33.33,314,79,96.5,29.61,216.36.98,243.27,0,96-3.5,203.67-38.89,299.17,29.61,95.5,68.5,190.5,9,207.5,0s87-37.5,118.5-10.5,23.5,57.5,67,87.5,112.5,20.5,182,3.5c79.67-19.49,110,91.3,175.5,116,40.61,15.31,90.38-8.95,123.42,25.39,28.82,29.89,38.36,67.55,87.47,56.1,14.72-3.43,29.67-8.53,44.59-6.16,38.88,6.18,56.14,57.71,94.23,67.71,36.71,9.6,73.44-10.91,106.36,14.35,13.19,10.18,26.89,22.45,43.52,22.18Z"/>
  <path class="cls-1" d="M8013.52,691.19c5.57-.09,11.04-1.65,16.58-2.28,16.43-1.86,37.46,1.33,49.09,13.44-15.37-6.3-26.38-2.15-36.92,3-9.91,4.85-20.52,8.1-31.44,9.63-17.45,2.37-36.83-4.21-51.91,4.88-38.04,22.94-64.54,67.44-116.27,47.27-7.46-2.91-14.71-7.1-22.71-7.25-18.05-.35-29.23,18.49-41.4,31.82-21.76,23.87-48.82,27.92-79.29,27.14-22.49-.58-52.19,1.52-66.19,21-8.99,12.5-46.12,28.78-65.12,60.78-19.79,33.34-78.5,72.17-196,17.5-151.94-70.7-227.03,166.03-316.5,155.5-34-4-65.44-104.11-136-79.5-249.85,87.16-82.44,125.39-259.94,136.39s-54,172-231.5,188.5-161,193.5-301,145-161.5,193.5-296,204.5c-107.6,8.8-191.83,132.67-220.5,193.5h-2884c-38.5-562.83-75.4-1701.9,85-1755.5,200.5-67,40,187.5,432,29.5,392-158,236-13,425.5,84,189.5,97,381.5-13.5,455-73.5,73.5-60,179-185.5,360.5-133,181.5,52.5,170.5,272,343.5,109.5,173-162.5,225.5,83.5,377,145.5s185.5-97,272-145.5c86.5-48.5,261,141.5,430,83.5,135.2-46.4,265.67,33.33,314,79,96.5,29.61,210.09-78.02,237-79,96-3.5,209.94,40.11,305.44,108.61,95.5,68.5,190.5,9,207.5,0s87-37.5,118.5-10.5,23.5,57.5,67,87.5,112.5,20.5,182,3.5c79.67-19.49,110,91.3,175.5,116,40.61,15.31,90.37-8.95,123.41,25.39,28.82,29.89,38.37,67.55,87.48,56.1,14.72-3.43,29.67-8.53,44.59-6.16,38.88,6.18,56.14,57.71,94.23,67.71,36.71,9.6,73.43-10.91,106.35,14.35,13.19,10.18,26.89,22.45,43.52,22.18Z"/>
</svg>