<svg width="8080" height="1862" viewBox="0 0 8080 1862" fill="none" xmlns="http://www.w3.org/2000/svg">
<path d="M5320.26 690.228C5325.83 690.138 5331.29 688.578 5336.83 687.948C5353.26 686.088 5374.29 689.278 5385.92 701.388C5370.55 695.088 5359.55 699.238 5349.01 704.388C5339.1 709.242 5328.49 712.492 5317.57 714.018C5300.12 716.388 5280.73 709.808 5265.65 718.898C5227.61 741.838 5201.11 786.338 5149.38 766.168C5141.92 763.258 5134.67 759.068 5126.67 758.918C5108.62 758.568 5097.44 777.408 5085.27 790.738C5063.51 814.608 5036.45 818.658 5005.98 817.878C4983.49 817.298 4953.8 819.398 4939.8 838.878C4930.81 851.378 4893.67 867.657 4874.67 899.657C4854.88 932.994 4796.17 971.827 4678.67 917.157C4526.73 846.462 4451.64 1083.18 4362.17 1072.65C4328.17 1068.65 4296.73 968.544 4226.17 993.157C3976.32 1080.31 4143.73 1118.54 3966.23 1129.54C3788.73 1140.54 3912.23 1301.54 3734.73 1318.04C3557.23 1334.54 3573.73 1511.54 3433.73 1463.04C3293.73 1414.54 3272.23 1656.54 3137.73 1667.54C3030.13 1676.34 2945.9 1800.21 2917.23 1861.04H33.2256C-5.27436 1298.21 -42.1744 159.144 118.226 105.544C318.722 38.5439 158.226 293.044 550.222 135.044C942.222 -22.9561 786.222 122.044 975.722 219.044C1165.22 316.044 1357.22 205.544 1430.72 145.544C1504.22 85.5439 1609.72 -39.956 1791.22 12.544C1972.72 65.044 1961.72 284.544 2134.72 122.044C2307.73 -40.4557 2360.23 205.544 2511.73 267.544C2663.23 329.544 2697.23 170.544 2783.73 122.044C2870.23 73.5442 3044.73 263.544 3213.73 205.544C3348.93 159.144 3479.4 238.878 3527.73 284.544C3624.23 314.157 3744.09 285.525 3771 284.544C3867 281.044 3974.67 245.657 4070.17 314.157C4165.67 382.657 4260.67 323.157 4277.67 314.157C4294.67 305.157 4364.67 276.657 4396.17 303.657C4427.67 330.657 4419.67 361.157 4463.17 391.157C4506.67 421.157 4575.67 411.657 4645.17 394.657C4724.84 375.169 4755.17 485.961 4820.67 510.657C4861.28 525.97 4911.05 501.712 4944.09 536.048C4972.91 565.938 4982.45 603.599 5031.56 592.149C5046.28 588.719 5061.23 583.619 5076.15 585.989C5115.03 592.169 5132.29 643.698 5170.38 653.698C5207.09 663.298 5243.82 642.788 5276.74 668.048C5289.93 678.228 5303.63 690.498 5320.26 690.228Z" fill="white"/>
<path d="M8013.52 691.185C8019.09 691.095 8024.56 689.535 8030.1 688.905C8046.53 687.045 8067.56 690.235 8079.19 702.345C8063.82 696.045 8052.81 700.195 8042.27 705.345C8032.36 710.199 8021.75 713.449 8010.83 714.975C7993.38 717.345 7974 710.765 7958.92 719.855C7920.88 742.795 7894.38 787.295 7842.65 767.125C7835.19 764.215 7827.94 760.025 7819.94 759.875C7801.89 759.525 7790.71 778.365 7778.54 791.695C7756.78 815.565 7729.72 819.615 7699.25 818.835C7676.76 818.255 7647.06 820.355 7633.06 839.835C7624.07 852.335 7586.94 868.614 7567.94 900.614C7548.15 933.951 7489.44 972.784 7371.94 918.114C7220 847.419 7144.91 1084.14 7055.44 1073.61C7021.44 1069.61 6990 969.501 6919.44 994.114C6669.59 1081.27 6837 1119.5 6659.5 1130.5C6482 1141.5 6605.5 1302.5 6428 1319C6250.5 1335.5 6267 1512.5 6127 1464C5987 1415.5 5965.5 1657.5 5831 1668.5C5723.4 1677.3 5639.17 1801.17 5610.5 1862H2726.5C2688 1299.17 2651.1 160.101 2811.5 106.501C3012 39.5009 2851.5 294.001 3243.5 136.001C3635.5 -21.9991 3479.5 123.001 3669 220.001C3858.5 317.001 4050.5 206.501 4124 146.501C4197.5 86.5011 4303 -38.999 4484.5 13.501C4666 66.001 4655 285.501 4828 123.001C5001 -39.4986 5053.5 206.501 5205 268.501C5356.5 330.501 5390.5 171.501 5477 123.001C5563.5 74.5012 5738 264.501 5907 206.501C6042.2 160.101 6172.67 239.835 6221 285.501C6317.5 315.114 6431.09 207.482 6458 206.501C6554 203.001 6667.94 246.614 6763.44 315.114C6858.94 383.614 6953.94 324.114 6970.94 315.114C6987.94 306.114 7057.94 277.614 7089.44 304.614C7120.94 331.614 7112.94 362.114 7156.44 392.114C7199.94 422.114 7268.94 412.614 7338.44 395.614C7418.11 376.126 7448.44 486.918 7513.94 511.614C7554.55 526.927 7604.31 502.669 7637.35 537.005C7666.17 566.895 7675.72 604.556 7724.83 593.106C7739.55 589.676 7754.5 584.576 7769.42 586.946C7808.3 593.126 7825.56 644.655 7863.65 654.655C7900.36 664.255 7937.08 643.745 7970 669.005C7983.19 679.185 7996.89 691.455 8013.52 691.185Z" fill="white"/>
</svg>
