<svg xmlns="http://www.w3.org/2000/svg" xmlns:xlink="http://www.w3.org/1999/xlink" viewBox="0 0 73.86 55.64"><defs><linearGradient id="a" x1="29.28" y1="7.17" x2="-7.62" y2="7.17" gradientTransform="translate(0.77 -0.27) rotate(0.92)" gradientUnits="userSpaceOnUse"><stop offset="0" stop-color="#0f84ff"/><stop offset="1" stop-color="#74deff"/></linearGradient><linearGradient id="b" x1="31.78" y1="46.42" x2="-3.96" y2="50.64" xlink:href="#a"/><linearGradient id="c" x1="74.52" y1="27.42" x2="-0.77" y2="28.02" gradientTransform="translate(0.77 -0.27) rotate(0.92)" gradientUnits="userSpaceOnUse"><stop offset="0" stop-color="#fff"/><stop offset="1" stop-color="#fcf0e7"/></linearGradient><linearGradient id="d" x1="48.14" y1="157.13" x2="80.26" y2="176.81" gradientTransform="translate(212.78 -33.09) rotate(90.19)" xlink:href="#a"/><linearGradient id="e" x1="74.01" y1="173.49" x2="46.56" y2="155.54" gradientTransform="translate(212.78 -33.09) rotate(90.19)" gradientUnits="userSpaceOnUse"><stop offset="0" stop-color="#3b2757"/><stop offset="1" stop-color="#7c5890"/></linearGradient><linearGradient id="f" x1="29.98" y1="27.56" x2="-5.96" y2="28.16" xlink:href="#a"/></defs><path d="M30.16,10.2S21.68-6.61.82,2.93A1.17,1.17,0,0,0,1,5.1,18.85,18.85,0,0,1,8.06,8.38a15,15,0,0,1,4.5,5.81Z" fill="url(#a)"/><path d="M30.05,45.56S21.45,62.31.65,52.64a1.17,1.17,0,0,1,.19-2.17,18.84,18.84,0,0,0,7.09-3.24,15,15,0,0,0,4.54-5.77Z" fill="url(#b)"/><path d="M25.61,45.94c22.94.08,48.24-14.3,48.25-17.81,0-3.21-25.19-18-48.13-18.12-4.15,0-14.48,2.64-19.47,6L6.18,39.81C11,43.07,21.46,45.93,25.61,45.94Z" fill="url(#c)"/><path d="M47.16,37.64A9.67,9.67,0,1,1,56.86,28,9.68,9.68,0,0,1,47.16,37.64Z" fill="url(#d)"/><path d="M47.17,34.92a6.95,6.95,0,1,1,7-6.92A6.93,6.93,0,0,1,47.17,34.92Z" fill="url(#e)"/><path d="M.08,27.79v0a2.18,2.18,0,0,1,2-2.17l16.87-1.53,9.21,1.49a2.31,2.31,0,0,1,2,2.3v0a2.33,2.33,0,0,1-2,2.3L18.65,31.5,2.07,30A2.2,2.2,0,0,1,.08,27.79Z" fill="url(#f)"/></svg>