<svg width="223" height="181" viewBox="0 0 223 181" fill="none" xmlns="http://www.w3.org/2000/svg">
<path d="M69.8202 39.6C78.9771 39.6 86.4002 32.1769 86.4002 23.02C86.4002 13.8631 78.9771 6.44 69.8202 6.44C60.6633 6.44 53.2402 13.8631 53.2402 23.02C53.2402 32.1769 60.6633 39.6 69.8202 39.6Z" fill="#D0E0F4"/>
<path d="M217.76 4.33997H5.16016V174.89H217.76V4.33997Z" fill="url(#paint0_linear)"/>
<path d="M217.85 0H4.51001C2.01921 0 0 2.01921 0 4.51001V5.79001C0 8.28081 2.01921 10.3 4.51001 10.3H217.85C220.341 10.3 222.36 8.28081 222.36 5.79001V4.51001C222.36 2.01921 220.341 0 217.85 0Z" fill="url(#paint1_linear)"/>
<path d="M217.85 170.48H4.51001C2.01921 170.48 0 172.499 0 174.99V176.27C0 178.761 2.01921 180.78 4.51001 180.78H217.85C220.341 180.78 222.36 178.761 222.36 176.27V174.99C222.36 172.499 220.341 170.48 217.85 170.48Z" fill="url(#paint2_linear)"/>
<path d="M33.27 63.09H25.41C24.6313 63.09 24 63.7212 24 64.5V75.39C24 76.1687 24.6313 76.8 25.41 76.8H33.27C34.0487 76.8 34.68 76.1687 34.68 75.39V64.5C34.68 63.7212 34.0487 63.09 33.27 63.09Z" fill="url(#paint3_linear)"/>
<path d="M48.3401 55.66H40.4801C39.7014 55.66 39.0701 56.2913 39.0701 57.07V75.4C39.0701 76.1788 39.7014 76.81 40.4801 76.81H48.3401C49.1188 76.81 49.7501 76.1788 49.7501 75.4V57.07C49.7501 56.2913 49.1188 55.66 48.3401 55.66Z" fill="url(#paint4_linear)"/>
<path d="M64.6701 49.3H56.8101C56.0314 49.3 55.4001 49.9313 55.4001 50.7101V75.4001C55.4001 76.1788 56.0314 76.8101 56.8101 76.8101H64.6701C65.4489 76.8101 66.0801 76.1788 66.0801 75.4001V50.7101C66.0801 49.9313 65.4489 49.3 64.6701 49.3Z" fill="url(#paint5_linear)"/>
<path d="M80.3901 41.86H72.5301C71.7514 41.86 71.1201 42.4913 71.1201 43.27V75.4C71.1201 76.1787 71.7514 76.81 72.5301 76.81H80.3901C81.1689 76.81 81.8001 76.1787 81.8001 75.4V43.27C81.8001 42.4913 81.1689 41.86 80.3901 41.86Z" fill="url(#paint6_linear)"/>
<path d="M76.1202 25.36L66.7602 31.98C66.6865 32.0296 66.631 32.1017 66.6018 32.1856C66.5727 32.2695 66.5715 32.3605 66.5986 32.4451C66.6257 32.5297 66.6794 32.6032 66.7519 32.6545C66.8243 32.7059 66.9114 32.7324 67.0002 32.73L76.1202 32.68V25.36Z" fill="url(#paint7_linear)"/>
<path d="M76.9201 24.28H77.1501C77.3623 24.28 77.5658 24.3643 77.7158 24.5143C77.8658 24.6644 77.9501 24.8679 77.9501 25.08V41.86H76.1201V25.08C76.1201 24.8679 76.2044 24.6644 76.3544 24.5143C76.5045 24.3643 76.708 24.28 76.9201 24.28V24.28Z" fill="url(#paint8_linear)"/>
<g style="mix-blend-mode:multiply" opacity="0.7">
<path d="M146.94 56.94C146.94 60.4807 145.89 63.9419 143.923 66.8858C141.955 69.8296 139.159 72.1239 135.888 73.4784C132.616 74.833 129.017 75.1869 125.544 74.4954C122.072 73.8039 118.882 72.0981 116.379 69.5937C113.876 67.0893 112.172 63.8989 111.483 60.426C110.793 56.9531 111.149 53.3537 112.506 50.0831C113.862 46.8124 116.158 44.0175 119.103 42.0519C122.048 40.0862 125.509 39.0381 129.05 39.04V56.94H146.94Z" fill="#ACCAEA"/>
</g>
<path d="M151.61 56.94H129.05V34.37C132.014 34.37 134.948 34.9539 137.686 36.0882C140.423 37.2226 142.911 38.8853 145.006 40.9812C147.101 43.0772 148.762 45.5653 149.896 48.3036C151.029 51.0418 151.611 53.9765 151.61 56.94V56.94Z" fill="url(#paint9_linear)"/>
<g style="mix-blend-mode:multiply" opacity="0.7">
<g style="mix-blend-mode:multiply" opacity="0.7">
<path d="M165.25 43.8C166.896 43.8 168.23 42.4658 168.23 40.82C168.23 39.1742 166.896 37.84 165.25 37.84C163.604 37.84 162.27 39.1742 162.27 40.82C162.27 42.4658 163.604 43.8 165.25 43.8Z" fill="#ACCAEA"/>
</g>
<g style="mix-blend-mode:multiply" opacity="0.7">
<path d="M200.85 38.4399H177.22C176.071 38.4399 175.14 39.3712 175.14 40.5199V41.1099C175.14 42.2587 176.071 43.1899 177.22 43.1899H200.85C201.999 43.1899 202.93 42.2587 202.93 41.1099V40.5199C202.93 39.3712 201.999 38.4399 200.85 38.4399Z" fill="#ACCAEA"/>
</g>
</g>
<g style="mix-blend-mode:multiply" opacity="0.7">
<g style="mix-blend-mode:multiply" opacity="0.7">
<path d="M165.25 56.94C166.896 56.94 168.23 55.6058 168.23 53.96C168.23 52.3142 166.896 50.98 165.25 50.98C163.604 50.98 162.27 52.3142 162.27 53.96C162.27 55.6058 163.604 56.94 165.25 56.94Z" fill="#ACCAEA"/>
</g>
<g style="mix-blend-mode:multiply" opacity="0.7">
<path d="M200.85 51.58H177.22C176.071 51.58 175.14 52.5112 175.14 53.66V54.25C175.14 55.3987 176.071 56.33 177.22 56.33H200.85C201.999 56.33 202.93 55.3987 202.93 54.25V53.66C202.93 52.5112 201.999 51.58 200.85 51.58Z" fill="#ACCAEA"/>
</g>
</g>
<g style="mix-blend-mode:multiply" opacity="0.7">
<g style="mix-blend-mode:multiply" opacity="0.7">
<path d="M165.25 70.09C166.896 70.09 168.23 68.7558 168.23 67.11C168.23 65.4642 166.896 64.13 165.25 64.13C163.604 64.13 162.27 65.4642 162.27 67.11C162.27 68.7558 163.604 70.09 165.25 70.09Z" fill="#ACCAEA"/>
</g>
<g style="mix-blend-mode:multiply" opacity="0.7">
<path d="M200.85 64.73H177.22C176.071 64.73 175.14 65.6612 175.14 66.81V67.4C175.14 68.5487 176.071 69.48 177.22 69.48H200.85C201.999 69.48 202.93 68.5487 202.93 67.4V66.81C202.93 65.6612 201.999 64.73 200.85 64.73Z" fill="#ACCAEA"/>
</g>
</g>
<g style="mix-blend-mode:multiply" opacity="0.7">
<g style="mix-blend-mode:multiply" opacity="0.75">
<path d="M48.07 96.3199H26.15C24.9626 96.3199 24 97.2825 24 98.4699V120.39C24 121.577 24.9626 122.54 26.15 122.54H48.07C49.2574 122.54 50.22 121.577 50.22 120.39V98.4699C50.22 97.2825 49.2574 96.3199 48.07 96.3199Z" fill="#ACCAEA"/>
</g>
<g style="mix-blend-mode:multiply" opacity="0.75">
<path d="M79.9899 97.4H59.3099C58.1169 97.4 57.1499 98.367 57.1499 99.56V100.16C57.1499 101.353 58.1169 102.32 59.3099 102.32H79.9899C81.1828 102.32 82.1499 101.353 82.1499 100.16V99.56C82.1499 98.367 81.1828 97.4 79.9899 97.4Z" fill="#ACCAEA"/>
</g>
<g style="mix-blend-mode:multiply" opacity="0.75">
<path d="M88.1399 106.96H59.3099C58.1169 106.96 57.1499 107.927 57.1499 109.12V109.72C57.1499 110.913 58.1169 111.88 59.3099 111.88H88.1399C89.3328 111.88 90.2999 110.913 90.2999 109.72V109.12C90.2999 107.927 89.3328 106.96 88.1399 106.96Z" fill="#ACCAEA"/>
</g>
<g style="mix-blend-mode:multiply" opacity="0.75">
<path d="M88.1399 116.53H59.3099C58.1169 116.53 57.1499 117.497 57.1499 118.69V119.29C57.1499 120.483 58.1169 121.45 59.3099 121.45H88.1399C89.3328 121.45 90.2999 120.483 90.2999 119.29V118.69C90.2999 117.497 89.3328 116.53 88.1399 116.53Z" fill="#ACCAEA"/>
</g>
<g style="mix-blend-mode:multiply" opacity="0.75">
<path d="M88.14 128.05H26.16C24.9671 128.05 24 129.017 24 130.21V130.81C24 132.003 24.9671 132.97 26.16 132.97H88.14C89.3329 132.97 90.3 132.003 90.3 130.81V130.21C90.3 129.017 89.3329 128.05 88.14 128.05Z" fill="#ACCAEA"/>
</g>
<g style="mix-blend-mode:multiply" opacity="0.75">
<path d="M88.14 138.49H26.16C24.9671 138.49 24 139.457 24 140.65V141.25C24 142.443 24.9671 143.41 26.16 143.41H88.14C89.3329 143.41 90.3 142.443 90.3 141.25V140.65C90.3 139.457 89.3329 138.49 88.14 138.49Z" fill="#ACCAEA"/>
</g>
</g>
<g style="mix-blend-mode:multiply" opacity="0.7">
<g style="mix-blend-mode:multiply" opacity="0.75">
<path d="M171.86 113.11C176.129 113.11 179.59 109.649 179.59 105.38C179.59 101.111 176.129 97.65 171.86 97.65C167.591 97.65 164.13 101.111 164.13 105.38C164.13 109.649 167.591 113.11 171.86 113.11Z" fill="#ACCAEA"/>
</g>
<g style="mix-blend-mode:multiply" opacity="0.75">
<path d="M170.4 116.53H173.33C176.08 116.53 178.718 117.623 180.663 119.567C182.607 121.512 183.7 124.15 183.7 126.9V129.74C183.7 130.247 183.499 130.732 183.141 131.091C182.782 131.449 182.297 131.65 181.79 131.65H161.93C161.423 131.65 160.938 131.449 160.579 131.091C160.221 130.732 160.02 130.247 160.02 129.74V126.94C160.02 124.19 161.113 121.552 163.057 119.607C165.002 117.663 167.64 116.57 170.39 116.57L170.4 116.53Z" fill="#ACCAEA"/>
</g>
</g>
<path d="M201.26 103.85L194.33 94.4199C194.24 94.2774 194.115 94.16 193.967 94.0787C193.82 93.9974 193.654 93.9547 193.485 93.9547C193.316 93.9547 193.151 93.9974 193.003 94.0787C192.855 94.16 192.73 94.2774 192.64 94.4199L185.72 103.85C185.587 104 185.502 104.187 185.476 104.386C185.45 104.585 185.485 104.787 185.575 104.966C185.666 105.145 185.808 105.292 185.984 105.389C186.159 105.487 186.36 105.529 186.56 105.51H188.77V119.08C188.77 119.306 188.859 119.524 189.018 119.685C189.178 119.846 189.394 119.937 189.62 119.94H197.35C197.577 119.937 197.795 119.846 197.955 119.685C198.116 119.524 198.207 119.307 198.21 119.08V105.51H200.41C200.611 105.531 200.813 105.491 200.99 105.394C201.168 105.298 201.312 105.151 201.404 104.971C201.496 104.792 201.531 104.588 201.505 104.388C201.48 104.188 201.394 104.001 201.26 103.85V103.85Z" fill="url(#paint10_linear)"/>
<g style="mix-blend-mode:multiply" opacity="0.7">
<g style="mix-blend-mode:multiply" opacity="0.75">
<path d="M124.74 94.46C123.203 94.46 121.7 94.9159 120.422 95.7701C119.144 96.6244 118.149 97.8385 117.561 99.2588C116.973 100.679 116.82 102.242 117.12 103.749C117.421 105.257 118.162 106.641 119.25 107.728C120.337 108.814 121.723 109.553 123.23 109.852C124.738 110.151 126.301 109.995 127.721 109.406C129.14 108.816 130.353 107.819 131.206 106.539C132.058 105.26 132.512 103.757 132.51 102.22C132.508 100.161 131.688 98.1872 130.231 96.7322C128.774 95.2772 126.799 94.46 124.74 94.46V94.46ZM124.74 107.11C123.773 107.11 122.828 106.823 122.023 106.286C121.219 105.749 120.593 104.985 120.222 104.091C119.852 103.198 119.755 102.215 119.944 101.266C120.133 100.317 120.599 99.4461 121.282 98.7622C121.966 98.0783 122.838 97.6126 123.786 97.4239C124.735 97.2352 125.718 97.3321 126.612 97.7022C127.505 98.0723 128.269 98.6991 128.806 99.5032C129.343 100.307 129.63 101.253 129.63 102.22C129.63 103.517 129.115 104.761 128.198 105.678C127.281 106.595 126.037 107.11 124.74 107.11V107.11Z" fill="#ACCAEA"/>
</g>
<g style="mix-blend-mode:multiply" opacity="0.75">
<path d="M124.74 114.74C123.203 114.74 121.701 115.196 120.423 116.049C119.146 116.903 118.15 118.117 117.562 119.537C116.974 120.956 116.82 122.519 117.12 124.026C117.419 125.533 118.159 126.918 119.246 128.004C120.333 129.091 121.717 129.831 123.224 130.131C124.732 130.431 126.294 130.277 127.714 129.689C129.133 129.1 130.347 128.105 131.201 126.827C132.055 125.549 132.51 124.047 132.51 122.51C132.51 120.449 131.692 118.473 130.234 117.016C128.777 115.559 126.801 114.74 124.74 114.74V114.74ZM124.74 127.39C123.773 127.39 122.827 127.103 122.022 126.565C121.218 126.027 120.591 125.263 120.222 124.369C119.852 123.475 119.755 122.491 119.945 121.542C120.134 120.593 120.601 119.722 121.286 119.039C121.971 118.355 122.843 117.89 123.792 117.703C124.742 117.515 125.725 117.613 126.619 117.985C127.512 118.357 128.275 118.985 128.811 119.791C129.347 120.596 129.632 121.542 129.63 122.51C129.634 123.154 129.511 123.793 129.266 124.389C129.022 124.985 128.663 125.527 128.208 125.984C127.753 126.44 127.213 126.802 126.618 127.049C126.023 127.295 125.384 127.421 124.74 127.42V127.39Z" fill="#ACCAEA"/>
</g>
<g style="mix-blend-mode:multiply" opacity="0.75">
<path d="M124.74 135.09C123.203 135.09 121.701 135.546 120.423 136.399C119.146 137.253 118.15 138.467 117.562 139.887C116.974 141.306 116.82 142.869 117.12 144.376C117.419 145.883 118.159 147.268 119.246 148.354C120.333 149.441 121.717 150.181 123.224 150.481C124.732 150.78 126.294 150.627 127.714 150.039C129.133 149.45 130.347 148.454 131.201 147.177C132.055 145.899 132.51 144.397 132.51 142.86C132.51 140.799 131.692 138.823 130.234 137.366C128.777 135.909 126.801 135.09 124.74 135.09V135.09ZM124.74 147.74C123.773 147.74 122.827 147.453 122.022 146.915C121.218 146.377 120.591 145.613 120.222 144.719C119.852 143.825 119.755 142.841 119.945 141.892C120.134 140.943 120.601 140.072 121.286 139.389C121.971 138.705 122.843 138.24 123.792 138.053C124.742 137.865 125.725 137.963 126.619 138.335C127.512 138.707 128.275 139.335 128.811 140.141C129.347 140.946 129.632 141.892 129.63 142.86C129.628 144.155 129.111 145.396 128.194 146.311C127.278 147.226 126.035 147.74 124.74 147.74V147.74Z" fill="#ACCAEA"/>
</g>
</g>
<path d="M196.1 140.96H161.44C159.104 140.96 157.21 142.854 157.21 145.19V146.39C157.21 148.726 159.104 150.62 161.44 150.62H196.1C198.436 150.62 200.33 148.726 200.33 146.39V145.19C200.33 142.854 198.436 140.96 196.1 140.96Z" fill="url(#paint11_linear)"/>
<defs>
<linearGradient id="paint0_linear" x1="111.45" y1="199.04" x2="111.45" y2="-5.55003" gradientUnits="userSpaceOnUse">
<stop stop-color="#BBD6FE"/>
<stop offset="0.08" stop-color="#C2DAFE"/>
<stop offset="0.45" stop-color="#DFECFE"/>
<stop offset="0.77" stop-color="#F1F6FE"/>
<stop offset="1" stop-color="#F7FAFE"/>
</linearGradient>
<linearGradient id="paint1_linear" x1="111.18" y1="11.77" x2="111.18" y2="-0.59" gradientUnits="userSpaceOnUse">
<stop stop-color="#567FE3"/>
<stop offset="1" stop-color="#81D8FF"/>
</linearGradient>
<linearGradient id="paint2_linear" x1="87814.4" y1="3492.24" x2="87814.4" y2="3364.93" gradientUnits="userSpaceOnUse">
<stop stop-color="#567FE3"/>
<stop offset="1" stop-color="#81D8FF"/>
</linearGradient>
<linearGradient id="paint3_linear" x1="29.34" y1="78.75" x2="29.34" y2="62.3" gradientUnits="userSpaceOnUse">
<stop stop-color="#F7B345"/>
<stop offset="1" stop-color="#FEDB58"/>
</linearGradient>
<linearGradient id="paint4_linear" x1="3543.71" y1="4709.93" x2="3543.71" y2="4173.36" gradientUnits="userSpaceOnUse">
<stop stop-color="#F7B345"/>
<stop offset="1" stop-color="#FEDB58"/>
</linearGradient>
<linearGradient id="paint5_linear" x1="3734.44" y1="6127.91" x2="3734.44" y2="5220.08" gradientUnits="userSpaceOnUse">
<stop stop-color="#F7B345"/>
<stop offset="1" stop-color="#FEDB58"/>
</linearGradient>
<linearGradient id="paint6_linear" x1="3918.06" y1="7801.11" x2="3918.06" y2="6336.01" gradientUnits="userSpaceOnUse">
<stop stop-color="#F7B345"/>
<stop offset="1" stop-color="#FEDB58"/>
</linearGradient>
<linearGradient id="paint7_linear" x1="71.3502" y1="33.77" x2="71.3502" y2="24.93" gradientUnits="userSpaceOnUse">
<stop stop-color="#EB5896"/>
<stop offset="1" stop-color="#F988B7"/>
</linearGradient>
<linearGradient id="paint8_linear" x1="736.335" y1="3269.72" x2="736.335" y2="2898.96" gradientUnits="userSpaceOnUse">
<stop stop-color="#567FE3"/>
<stop offset="1" stop-color="#81D8FF"/>
</linearGradient>
<linearGradient id="paint9_linear" x1="140.33" y1="56.94" x2="140.33" y2="34.37" gradientUnits="userSpaceOnUse">
<stop stop-color="#2CB5AE"/>
<stop offset="1" stop-color="#7EE9B8"/>
</linearGradient>
<linearGradient id="paint10_linear" x1="7843.59" y1="7064.76" x2="7843.59" y2="6098.63" gradientUnits="userSpaceOnUse">
<stop stop-color="#EB5896"/>
<stop offset="1" stop-color="#F988B7"/>
</linearGradient>
<linearGradient id="paint11_linear" x1="178.77" y1="161.76" x2="178.77" y2="139.66" gradientUnits="userSpaceOnUse">
<stop offset="0.02" stop-color="#6B7CF7"/>
<stop offset="0.54" stop-color="#8F85F5"/>
<stop offset="1" stop-color="#B18DF3"/>
</linearGradient>
</defs>
</svg>
