<svg width="81" height="50" viewBox="0 0 81 50" fill="none" xmlns="http://www.w3.org/2000/svg">
<path d="M77.4545 0.720215H3.79449C2.03823 0.720215 0.614502 2.14395 0.614502 3.90022V46.0202C0.614502 47.7765 2.03823 49.2002 3.79449 49.2002H77.4545C79.2108 49.2002 80.6345 47.7765 80.6345 46.0202V3.90022C80.6345 2.14395 79.2108 0.720215 77.4545 0.720215Z" fill="url(#paint0_linear-605741)"/>
<g style="mix-blend-mode:multiply" opacity="0.75">
<g style="mix-blend-mode:multiply" opacity="0.75">
<path d="M18.2545 6.07031H8.69446C8.07038 6.07031 7.56445 6.57624 7.56445 7.20032C7.56445 7.8244 8.07038 8.33031 8.69446 8.33031H18.2545C18.8785 8.33031 19.3845 7.8244 19.3845 7.20032C19.3845 6.57624 18.8785 6.07031 18.2545 6.07031Z" fill="#ACCAEA"/>
</g>
<g style="mix-blend-mode:multiply" opacity="0.75">
<path d="M27.7645 10.8804H8.69446C8.07038 10.8804 7.56445 11.3863 7.56445 12.0104C7.56445 12.6345 8.07038 13.1404 8.69446 13.1404H27.7645C28.3885 13.1404 28.8945 12.6345 28.8945 12.0104C28.8945 11.3863 28.3885 10.8804 27.7645 10.8804Z" fill="#ACCAEA"/>
</g>
</g>
<path d="M25.4443 38.9101C22.9643 38.9101 21.6643 36.3801 20.4443 33.9101C19.4443 31.9701 18.4443 29.9701 17.1043 29.9701C14.5743 29.9701 12.1043 35.0801 11.3843 36.8701C11.2902 37.1181 11.1014 37.3186 10.8595 37.4273C10.6175 37.5361 10.3423 37.5443 10.0943 37.4501C9.84636 37.356 9.64594 37.1672 9.53717 36.9253C9.4284 36.6833 9.42019 36.4081 9.51435 36.1601C9.83435 35.3201 12.7343 27.9701 17.1043 27.9701C19.6243 27.9701 21.0043 30.6402 22.2143 32.9702C23.2143 34.8802 24.2143 36.8602 25.4843 36.8602C26.4843 36.8602 27.9343 32.2401 28.7843 29.4701C30.4043 24.2301 31.9243 19.2701 35.1043 19.2701C38.2843 19.2701 39.2343 23.2702 40.2043 27.1702C40.9943 30.3802 41.8943 34.0101 43.7743 34.0101C46.1043 34.0101 47.6543 28.7501 48.9043 24.5301C50.3943 19.5301 51.6744 15.1501 54.6444 15.1501C57.8744 15.1501 58.8744 18.8601 59.6444 21.8501C60.1844 23.8501 60.7443 26.0701 61.7343 26.0101C61.9996 25.9903 62.2618 26.0765 62.4634 26.25C62.665 26.4235 62.7894 26.6699 62.8093 26.9352C62.8292 27.2004 62.743 27.4626 62.5695 27.6642C62.396 27.8658 62.1496 27.9903 61.8843 28.0101C59.2743 28.2201 58.4843 25.2401 57.7143 22.3801C56.8943 19.3201 56.1944 17.1601 54.6144 17.1601C53.0344 17.1601 51.8343 21.5701 50.7943 25.1601C49.2043 30.5201 47.5643 36.0701 43.7443 36.0701C40.2943 36.0701 39.2443 31.8201 38.2243 27.7101C37.4843 24.7101 36.6443 21.3301 35.0743 21.3301C33.5043 21.3301 31.8143 26.4101 30.6643 30.1201C29.1443 35.0101 27.9543 38.9101 25.4443 38.9101Z" fill="url(#paint1_linear-258605)"/>
<path d="M63.9543 30.6102C65.9204 30.6102 67.5143 29.0164 67.5143 27.0502C67.5143 25.0841 65.9204 23.4902 63.9543 23.4902C61.9882 23.4902 60.3943 25.0841 60.3943 27.0502C60.3943 29.0164 61.9882 30.6102 63.9543 30.6102Z" fill="url(#paint2_linear-761885)"/>
<path d="M63.9545 28.9302C64.9928 28.9302 65.8344 28.0885 65.8344 27.0502C65.8344 26.0119 64.9928 25.1702 63.9545 25.1702C62.9162 25.1702 62.0745 26.0119 62.0745 27.0502C62.0745 28.0885 62.9162 28.9302 63.9545 28.9302Z" fill="white"/>
<path d="M70.9145 43.7603H10.3245C9.78325 43.7603 9.34448 44.199 9.34448 44.7402C9.34448 45.2815 9.78325 45.7203 10.3245 45.7203H70.9145C71.4557 45.7203 71.8945 45.2815 71.8945 44.7402C71.8945 44.199 71.4557 43.7603 70.9145 43.7603Z" fill="#ACCAEA"/>
<defs>
<linearGradient id="paint0_linear-605741" x1="35219.8" y1="7310.54" x2="35261.5" y2="4717.64" gradientUnits="userSpaceOnUse">
<stop stop-color="#BBD6FE"/>
<stop offset="0.08" stop-color="#C2DAFE"/>
<stop offset="0.45" stop-color="#DFECFE"/>
<stop offset="0.77" stop-color="#F1F6FE"/>
<stop offset="1" stop-color="#F7FAFE"/>
</linearGradient>
<linearGradient id="paint1_linear-258605" x1="23463.5" y1="3374.1" x2="23394.3" y2="2749.89" gradientUnits="userSpaceOnUse">
<stop stop-color="#F7B345"/>
<stop offset="1" stop-color="#FEDB58"/>
</linearGradient>
<linearGradient id="paint2_linear-761885" x1="3340.36" y1="906.654" x2="3391.06" y2="906.654" gradientUnits="userSpaceOnUse">
<stop stop-color="#EB5896"/>
<stop offset="1" stop-color="#F988B7"/>
</linearGradient>
</defs>
</svg>