<svg width="43" height="94" viewBox="0 0 43 94" fill="none" xmlns="http://www.w3.org/2000/svg">
<path d="M9.6311 65.323H32.6311V90.103C32.6311 91.0976 32.236 92.0514 31.5327 92.7547C30.8295 93.4579 29.8757 93.853 28.8811 93.853H13.3911C12.3966 93.853 11.4427 93.4579 10.7395 92.7547C10.0362 92.0514 9.64111 91.0976 9.64111 90.103V65.323H9.6311Z" fill="url(#paint0_linear-554884)"/>
<path d="M32.6213 69.603V73.343H37.6813C37.9466 73.343 38.2009 73.4484 38.3884 73.6359C38.576 73.8235 38.6813 74.0778 38.6813 74.343V81.793C38.6813 82.0582 38.576 82.3126 38.3884 82.5002C38.2009 82.6877 37.9466 82.793 37.6813 82.793H32.6213V86.533H37.9313C38.887 86.5304 39.8027 86.1489 40.4775 85.4722C41.1524 84.7954 41.5313 83.8787 41.5313 82.923V73.213C41.5313 72.2573 41.1524 71.3406 40.4775 70.6639C39.8027 69.9872 38.887 69.6057 37.9313 69.603H32.6213Z" fill="url(#paint1_linear-122153)"/>
<path d="M16.7612 65.3231C16.7612 65.3231 5.63116 61.2231 7.76116 49.6431C9.89116 38.0631 15.1212 38.1331 5.07116 25.9831C-4.97884 13.8331 3.23116 0.673086 17.8312 0.0930856C32.4312 -0.486914 45.6312 8.90307 42.2512 22.1431C38.8712 35.3831 29.9512 39.1431 25.3212 44.1431C20.6912 49.1431 18.5412 52.5231 25.1412 55.0231C31.7412 57.5231 25.1412 65.0231 25.1412 65.0231L16.7612 65.3231Z" fill="#DAE9FE"/>
<path d="M35.6513 43.5832C30.7113 43.8432 27.6513 52.4032 33.3413 53.1632C39.0313 53.9232 45.9913 43.0432 35.6513 43.5832Z" fill="white"/>
<defs>
<linearGradient id="paint0_linear-554884" x1="31.2211" y1="102.603" x2="17.5011" y2="69.283" gradientUnits="userSpaceOnUse">
<stop offset="0.02" stop-color="#6B7CF7"/>
<stop offset="0.54" stop-color="#8F85F5"/>
<stop offset="1" stop-color="#B18DF3"/>
</linearGradient>
<linearGradient id="paint1_linear-122153" x1="4738.69" y1="6971.11" x2="4436.47" y2="6584.85" gradientUnits="userSpaceOnUse">
<stop offset="0.02" stop-color="#6B7CF7"/>
<stop offset="0.54" stop-color="#8F85F5"/>
<stop offset="1" stop-color="#B18DF3"/>
</linearGradient>
</defs>
</svg>