<svg width="63" height="63" viewBox="0 0 63 63" fill="none" xmlns="http://www.w3.org/2000/svg">
<path d="M58.1011 47.7023C59.4191 45.5724 60.4703 43.2886 61.2311 40.9023L56.8511 37.3323C57.0457 36.5273 57.1993 35.7129 57.3111 34.8923C57.3111 34.6023 57.3811 34.3223 57.4111 34.0323L62.7412 32.1523C62.8109 29.637 62.5793 27.1225 62.0512 24.6623L56.4511 23.8123C56.1335 22.7414 55.746 21.6925 55.2911 20.6723L58.9611 16.3823C57.7596 14.1705 56.2993 12.1093 54.6111 10.2423L49.3411 12.3023C48.5305 11.5323 47.6722 10.8142 46.7712 10.1523L47.7712 4.60227C45.6281 3.28909 43.335 2.23823 40.9411 1.47227L37.4111 5.90227C36.6111 5.71227 35.7911 5.56227 34.9611 5.44227L34.1011 5.34227L32.2311 0.012273C29.7159 -0.0579941 27.2013 0.173659 24.7412 0.702272L23.8811 6.30227C22.8108 6.62159 21.762 7.00905 20.7412 7.46227L16.4511 3.79227C14.241 4.99151 12.1829 6.45198 10.3211 8.14227L12.3211 13.4123C11.5568 14.2252 10.8422 15.0834 10.1811 15.9823L4.63114 14.9823C3.30617 17.1226 2.25464 19.4205 1.50113 21.8223L5.90113 25.3523C5.72113 26.1523 5.56113 26.9623 5.44113 27.7923C5.44113 28.0823 5.38114 28.3623 5.35114 28.6523L0.0111413 30.5323C-0.0558119 33.0446 0.179186 35.556 0.711123 38.0123L6.30115 38.8723C6.62108 39.9437 7.01193 40.9927 7.47113 42.0123L3.85114 46.2523C5.05391 48.4627 6.5177 50.5208 8.21112 52.3823L13.4711 50.3823C14.2826 51.1552 15.1446 51.8734 16.0511 52.5323L15.0511 58.0823C17.1989 59.3933 19.495 60.444 21.8911 61.2123L25.4211 56.8023C26.2211 56.9923 27.0411 57.1423 27.8611 57.2623L28.7211 57.3523L30.6011 62.6923C33.1164 62.7621 35.631 62.5304 38.0911 62.0023L38.9411 56.4023C40.0147 56.083 41.0669 55.6955 42.0911 55.2423L46.3711 58.9123C48.5829 57.7107 50.6441 56.2505 52.5111 54.5623L50.4611 49.2923C51.2279 48.4781 51.9427 47.6164 52.6011 46.7123L58.1011 47.7023ZM27.6511 47.7023C24.4066 46.9534 21.4569 45.2595 19.1749 42.8346C16.8928 40.4098 15.3809 37.3628 14.8302 34.0788C14.2795 30.7948 14.7147 27.4213 16.0808 24.3846C17.447 21.3479 19.6827 18.7844 22.5054 17.0181C25.3282 15.2518 28.6112 14.362 31.9396 14.4611C35.2679 14.5602 38.4922 15.6439 41.2048 17.575C43.9174 19.5062 45.9967 22.1982 47.1797 25.3108C48.3627 28.4234 48.5963 31.8169 47.8511 35.0623C47.358 37.2213 46.4441 39.2618 45.1617 41.0673C43.8793 42.8729 42.2536 44.4079 40.3775 45.5846C38.5015 46.7613 36.4118 47.5567 34.2281 47.9252C32.0444 48.2937 29.8095 48.2282 27.6511 47.7323V47.7023Z" fill="#BACEE2"/>
</svg>
