<svg width="57" height="55" viewBox="0 0 57 55" fill="none" xmlns="http://www.w3.org/2000/svg">
<path d="M6.04521 43.0141C2.74375 39.0537 0.690813 34.2032 0.145978 29.076C-0.398858 23.9489 0.588876 18.7753 2.9843 14.2095C5.37971 9.64369 9.07525 5.89071 13.6036 3.42513C18.1319 0.959559 23.2896 -0.10789 28.4245 0.357781C33.5595 0.823451 38.4411 2.80132 42.4519 6.04128C46.4628 9.28125 49.4229 13.6378 50.9579 18.56C52.4929 23.4823 52.5338 28.7492 51.0755 33.6947C49.6173 38.6402 46.7252 43.0422 42.7652 46.3441C37.4512 50.7646 30.6006 52.8966 23.7166 52.2723C16.8326 51.648 10.4773 48.3185 6.04521 43.0141V43.0141ZM39.6952 14.9541C37.4467 12.2617 34.4505 10.2963 31.0852 9.30642C27.72 8.3165 24.1369 8.34647 20.7887 9.39254C17.4405 10.4386 14.4775 12.4538 12.2744 15.1835C10.0713 17.9131 8.72681 21.2346 8.41099 24.7282C8.09517 28.2217 8.82214 31.7305 10.5 34.811C12.1779 37.8915 14.7315 40.4054 17.8378 42.0349C20.9441 43.6645 24.4638 44.3366 27.952 43.9662C31.4402 43.5958 34.7403 42.1996 37.4352 39.9541C41.0477 36.9371 43.3149 32.6094 43.7386 27.9218C44.1624 23.2342 42.7081 18.5701 39.6952 14.9541V14.9541Z" fill="#D0E0F4"/>
<path d="M36.9653 54.5341L30.9653 38.9941C32.978 38.2167 34.7768 36.9713 36.2126 35.3609C37.6485 33.7504 38.6803 31.8212 39.2227 29.7329C39.765 27.6446 39.8024 25.4571 39.3316 23.3515C38.8608 21.2459 37.8954 19.2826 36.5153 17.6241L49.3054 6.9541C52.3783 10.6451 54.5285 15.0145 55.5782 19.7012C56.628 24.3878 56.5471 29.257 55.3423 33.9062C54.1375 38.5553 51.8435 42.851 48.6497 46.4379C45.4559 50.0248 41.4541 52.8001 36.9753 54.5341H36.9653Z" fill="#64D9B5"/>
</svg>