<svg width="54" height="41" viewBox="0 0 54 41" fill="none" xmlns="http://www.w3.org/2000/svg">
<path d="M37.535 24.5568L24.775 38.0668C24.1875 38.6902 23.4829 39.1917 22.7015 39.5427C21.9201 39.8936 21.0772 40.0872 20.221 40.1123C19.3647 40.1374 18.5119 39.9935 17.7113 39.6888C16.9107 39.3842 16.178 38.9247 15.555 38.3368L2.04501 25.5768C0.787787 24.3872 0.0534093 22.7477 0.00279957 21.0176C-0.0478101 19.2875 0.589476 17.6079 1.77501 16.3468L14.545 2.8068C15.7343 1.55157 17.3728 0.819284 19.1013 0.770542C20.8297 0.721801 22.5069 1.36057 23.765 2.54679L37.275 15.3068C37.9022 15.8954 38.4067 16.6024 38.7595 17.3868C39.1122 18.1713 39.3063 19.0179 39.3305 19.8777C39.3546 20.7375 39.2084 21.5936 38.9003 22.3966C38.5921 23.1997 38.1281 23.9339 37.535 24.5568ZM3.23502 17.7268C2.41395 18.5992 1.97191 19.7614 2.00564 20.959C2.03938 22.1565 2.54614 23.292 3.41502 24.1168L16.925 36.8768C17.3566 37.2861 17.8647 37.6062 18.4203 37.8187C18.9758 38.0312 19.5678 38.132 20.1624 38.1153C20.7569 38.0986 21.3424 37.9647 21.8851 37.7213C22.4278 37.4778 22.9171 37.1297 23.325 36.6968L36.085 23.1868C36.9056 22.3174 37.3492 21.1589 37.3193 19.9638C37.2893 18.7687 36.7881 17.6339 35.925 16.8068L22.395 4.0268C21.5208 3.20393 20.3557 2.76174 19.1557 2.79737C17.9557 2.83299 16.8189 3.34352 15.995 4.2168L3.23502 17.7268Z" fill="#D0E0F4"/>
<path d="M37.1412 8.56129L26.7856 19.5235C25.7465 20.6235 25.7958 22.3577 26.8959 23.3969L37.858 33.7524C38.9581 34.7915 40.6922 34.7422 41.7314 33.6421L52.0869 22.68C53.1261 21.5799 53.0768 19.8458 51.9767 18.8066L41.0146 8.45108C39.9145 7.41191 38.1803 7.46125 37.1412 8.56129Z" fill="#0BC3E4"/>
</svg>