<svg width="57" height="57" viewBox="0 0 57 57" fill="none" xmlns="http://www.w3.org/2000/svg">
<path d="M33.4359 55.272C28.4901 56.7288 23.2234 56.6863 18.3018 55.1499C13.3801 53.6136 9.02452 50.6524 5.78572 46.6408C2.54692 42.6291 0.570349 37.7472 0.105972 32.6123C-0.358405 27.4774 0.710282 22.3201 3.17683 17.7925C5.64339 13.2649 9.39702 9.57028 13.9632 7.17591C18.5294 4.78154 23.7031 3.7949 28.83 4.34074C33.9569 4.88657 38.8068 6.94037 42.7665 10.2424C46.7262 13.5445 49.6179 17.9466 51.0759 22.892C53.0204 29.525 52.2555 36.6583 48.9487 42.7281C45.642 48.7979 40.0634 53.3089 33.4359 55.272V55.272ZM21.0559 13.272C17.6871 14.2587 14.6868 16.2227 12.4346 18.9154C10.1825 21.608 8.77993 24.9083 8.40431 28.3985C8.02869 31.8887 8.69694 35.4119 10.3245 38.5221C11.9521 41.6323 14.4659 44.1897 17.5476 45.8706C20.6293 47.5515 24.1404 48.2804 27.6366 47.965C31.1327 47.6495 34.4567 46.3039 37.1878 44.0985C39.9188 41.8931 41.9342 38.9271 42.9788 35.5758C44.0234 32.2245 44.0502 28.6386 43.0559 25.272C41.7269 20.7639 38.6652 16.9663 34.5415 14.7114C30.4178 12.4565 25.5685 11.9281 21.0559 13.242V13.272Z" fill="#D0E0F4"/>
<path d="M56.2859 31.4621L39.6459 30.8021C39.7284 28.6464 39.297 26.502 38.3872 24.546C37.4774 22.59 36.1153 20.8785 34.4135 19.5528C32.7117 18.2271 30.7189 17.3252 28.5997 16.9217C26.4806 16.5182 24.2958 16.6246 22.2258 17.2321L17.5259 1.23208C22.1331 -0.124926 26.9974 -0.364991 31.7159 0.531766C36.4344 1.42852 40.8714 3.4363 44.6596 6.38888C48.4478 9.34147 51.4783 13.1539 53.5001 17.5106C55.5218 21.8673 56.4768 26.6429 56.2859 31.4421V31.4621Z" fill="#FF65A7"/>
</svg>
