<svg width="51" height="49" viewBox="0 0 51 49" fill="none" xmlns="http://www.w3.org/2000/svg">
<path d="M45.2852 30.6563C44.3181 34.9859 42.0888 38.9315 38.8793 41.9941C35.6698 45.0567 31.6241 47.0988 27.254 47.8621C22.8839 48.6255 18.3856 48.0758 14.3279 46.2826C10.2702 44.4893 6.83545 41.5331 4.45788 37.7877C2.08032 34.0424 0.866799 29.6761 0.970762 25.241C1.07472 20.806 2.49148 16.5014 5.04193 12.8715C7.59237 9.24167 11.1619 6.44963 15.2992 4.8485C19.4365 3.24737 23.9556 2.90906 28.2852 3.87633C34.0866 5.18057 39.134 8.73211 42.3208 13.7522C45.5076 18.7724 46.5737 24.8514 45.2852 30.6563V30.6563ZM5.39514 21.7463C4.60633 25.3043 4.89005 29.0162 6.21045 32.4129C7.53084 35.8096 9.82862 38.7387 12.8134 40.8297C15.7981 42.9208 19.3357 44.0801 22.9792 44.1609C26.6226 44.2418 30.2082 43.2407 33.2828 41.2842C36.3574 39.3276 38.7829 36.5034 40.2527 33.1687C41.7226 29.8339 42.1708 26.1382 41.5406 22.5488C40.9105 18.9593 39.2303 15.6373 36.7125 13.0025C34.1947 10.3678 30.9523 8.53865 27.3951 7.74633C22.6215 6.68848 17.6231 7.56874 13.498 10.1938C9.37299 12.8188 6.45863 16.9739 5.39514 21.7463V21.7463Z" fill="#D0E0F4"/>
<path d="M38.9651 23.1463C45.1673 23.1463 50.1951 18.1184 50.1951 11.9163C50.1951 5.7141 45.1673 0.686279 38.9651 0.686279C32.763 0.686279 27.7351 5.7141 27.7351 11.9163C27.7351 18.1184 32.763 23.1463 38.9651 23.1463Z" fill="#FF65A7"/>
</svg>