<svg width="59" height="43" viewBox="0 0 59 43" fill="none" xmlns="http://www.w3.org/2000/svg">
<path d="M18.1149 16.2572L32.6149 2.03716C33.9651 0.714221 35.7854 -0.0184007 37.6756 0.000351309C39.5658 0.0191033 41.3712 0.7877 42.6949 2.13716L56.9149 16.6372C58.2379 17.9874 58.9705 19.8077 58.9517 21.6979C58.933 23.5881 58.1644 25.3935 56.8149 26.7171L42.3149 40.9371C40.9647 42.2601 39.1444 42.9927 37.2542 42.974C35.364 42.9552 33.5586 42.1866 32.2349 40.8371L18.0149 26.3371C16.692 24.9869 15.9594 23.1666 15.9781 21.2764C15.9969 19.3862 16.7655 17.5809 18.1149 16.2572V16.2572ZM55.2849 25.1572C55.7503 24.7028 56.1214 24.161 56.3769 23.5629C56.6325 22.9648 56.7673 22.3221 56.7738 21.6717C56.7803 21.0213 56.6583 20.3761 56.4148 19.7729C56.1714 19.1698 55.8112 18.6207 55.3549 18.1572L41.1349 3.65715C40.6806 3.19174 40.1388 2.82064 39.5407 2.56514C38.9425 2.30964 38.2998 2.17476 37.6495 2.16826C36.9991 2.16176 36.3538 2.28374 35.7507 2.52724C35.1476 2.77073 34.5985 3.13091 34.1349 3.58714L19.6349 17.8071C19.1695 18.2615 18.7984 18.8033 18.5429 19.4014C18.2874 19.9995 18.1525 20.6422 18.146 21.2926C18.1395 21.943 18.2615 22.5883 18.505 23.1914C18.7485 23.7945 19.1087 24.3436 19.5649 24.8071L33.7849 39.3071C34.2393 39.7726 34.7811 40.1437 35.3792 40.3992C35.9773 40.6547 36.62 40.7896 37.2704 40.7961C37.9208 40.8026 38.566 40.6805 39.1692 40.4371C39.7723 40.1936 40.3214 39.8334 40.7849 39.3772L55.2849 25.1572Z" fill="#D0E0F4"/>
<path d="M17.6866 33.9236L29.8192 22.0299C30.8999 20.9706 30.9171 19.2358 29.8578 18.1552L17.9642 6.02251C16.9048 4.94189 15.17 4.92461 14.0894 5.98395L1.95673 17.8776C0.876097 18.9369 0.858848 20.6717 1.91819 21.7524L13.8118 33.885C14.8712 34.9656 16.6059 34.9829 17.6866 33.9236Z" fill="#0BC3E4"/>
</svg>
