<svg width="57" height="57" viewBox="0 0 57 57" fill="none" xmlns="http://www.w3.org/2000/svg">
<path d="M26.1957 0.904068C31.2765 0.0281071 36.5029 0.678303 41.2142 2.77248C45.9255 4.86665 49.91 8.31074 52.6641 12.6693C55.4181 17.0278 56.8179 22.1051 56.6866 27.2592C56.5552 32.4133 54.8986 37.4127 51.9261 41.6253C48.9537 45.8379 44.7989 49.0746 39.987 50.926C35.1752 52.7775 29.9225 53.1607 24.8929 52.0271C19.8633 50.8934 15.2828 48.2939 11.7305 44.5573C8.1782 40.8206 5.81362 36.1145 4.93573 31.034C3.76638 24.2202 5.34823 17.2208 9.33408 11.5719C13.3199 5.92314 19.3841 2.0865 26.1957 0.904068V0.904068ZM33.6457 44.0841C37.103 43.4873 40.3056 41.8788 42.8488 39.462C45.392 37.0452 47.1614 33.9285 47.9334 30.5061C48.7054 27.0838 48.4453 23.5093 47.186 20.2347C45.9266 16.9602 43.7246 14.1325 40.8583 12.1094C37.9921 10.0862 34.5902 8.95833 31.083 8.86839C27.5758 8.77845 24.1207 9.73048 21.1545 11.6041C18.1883 13.4777 15.8442 16.1887 14.4187 19.3945C12.9931 22.6002 12.5502 26.1566 13.1457 29.6141C13.9495 34.2492 16.5596 38.3761 20.4029 41.089C24.2463 43.8019 29.009 44.879 33.6457 44.0841V44.0841Z" fill="#D0E0F4"/>
<path d="M0.755681 21.9139L17.2157 24.4839C16.8783 26.6162 17.0544 28.7982 17.7296 30.8488C18.4047 32.8993 19.5593 34.7591 21.0975 36.2738C22.6357 37.7886 24.5131 38.9145 26.5737 39.558C28.6344 40.2015 30.8188 40.3441 32.9457 39.9739L35.7757 56.394C27.8733 57.7489 19.7561 55.9134 13.2056 51.2901C6.65504 46.6669 2.20628 39.6337 0.835668 31.7339C0.269792 28.4872 0.242777 25.1694 0.755681 21.9139V21.9139Z" fill="#FFCC69"/>
</svg>