<svg width="113" height="228" viewBox="0 0 113 228" fill="none" xmlns="http://www.w3.org/2000/svg">
<path d="M70.7324 19.7C69.5914 19.3175 68.6227 18.5432 67.9985 17.5143C67.3742 16.4855 67.1347 15.2687 67.3224 14.08C67.3224 14.08 63.7624 12.08 63.4824 9.53002C63.2024 6.98002 65.4024 8.31002 65.4024 8.31002C65.4024 8.31002 64.7724 4.71002 65.9424 2.75002C67.1124 0.790019 69.3024 3.91001 69.3024 3.91001C69.3024 3.91001 70.1424 0.0100187 72.0624 1.86722e-05C73.9824 -0.00998133 74.3624 4.00002 79.3324 4.00002C84.3024 4.00002 86.5524 3.65002 88.3324 5.25002C90.1124 6.85002 89.4424 10 89.4124 10.11C90.2792 10.3939 91.0288 10.9549 91.5455 11.7066C92.0623 12.4583 92.3177 13.359 92.2724 14.27C92.1524 17.68 87.1224 27.16 87.1224 27.16L70.7324 19.7Z" fill="url(#paint0_linear-061833)"/>
<path d="M15.9623 181.75C15.1291 182.291 14.4174 182.999 13.8723 183.83C13.2723 184.95 10.5223 191.26 8.51233 193.62C6.50233 195.98 4.45232 198.78 3.09232 199.5C1.73232 200.22 -0.427669 201.63 1.82233 203.56C3.00447 204.471 4.38301 205.094 5.84824 205.379C7.31347 205.664 8.82494 205.602 10.2623 205.2C12.5123 204.36 16.7323 198.79 20.2623 197.44C23.7923 196.09 27.1523 194.95 27.7523 193.88C28.3523 192.81 29.4523 186.24 26.7523 181.75H15.9623Z" fill="url(#paint1_linear-731940)"/>
<path d="M15.8523 179.1L15.9723 183.1C15.9723 183.1 22.0823 186 26.7723 181.75L27.6623 173.83L15.8523 179.1Z" fill="url(#paint2_linear-711328)"/>
<path d="M73.9324 94.9001L72.2524 102.17L69.5824 113.73L36.3424 130.02C37.6524 140.07 30.4524 169.02 30.4924 172.38C30.5324 175.74 30.8624 177.6 26.1824 179.25C25.8563 179.373 25.5222 179.473 25.1824 179.55C20.5024 180.66 13.9424 179.06 13.9424 179.06C14.7924 164.35 13.1924 120.52 22.4424 112.06C31.6924 103.6 62.2324 86.0601 62.2324 86.0601L73.9324 94.9001Z" fill="url(#paint3_linear-211664)"/>
<g style="mix-blend-mode:multiply" opacity="0.36">
<path d="M69.5823 113.73L36.3423 130.02C37.6523 140.07 30.4523 169.02 30.4923 172.38C30.5323 175.74 30.8623 177.6 26.1823 179.25C25.8562 179.373 25.5221 179.473 25.1823 179.55C22.0923 166.94 33.1823 151.63 29.3323 134.75C25.3323 117.1 29.6923 119.62 43.8423 114.68C57.9923 109.74 68.2623 95.2 68.2623 95.2L72.2623 102.14L69.5823 113.73Z" fill="#1F9FF1"/>
</g>
<path d="M67.2324 37.95C67.2324 37.95 64.7624 38.88 61.1124 46.2C57.4624 53.52 48.7323 68.68 48.6923 71.78C48.6523 74.88 49.2923 80.55 54.8523 81.27C60.4123 81.99 61.5923 78.5 62.8523 76.27C64.1123 74.04 70.2323 45.14 70.2223 44.98C70.2123 44.82 67.2324 37.95 67.2324 37.95Z" fill="url(#paint4_linear-137434)"/>
<path d="M52.6324 203.24C52.5314 206.028 52.1698 208.8 51.5524 211.52C50.5524 216.52 47.6224 224.29 49.6324 226.3C51.6424 228.31 56.9224 227.39 58.9324 224.02C60.9424 220.65 64.1124 212.78 64.9324 211.21C65.7524 209.64 64.0624 201.89 64.0624 201.89L52.6324 203.24Z" fill="url(#paint5_linear-335097)"/>
<path d="M52.5623 199.23L52.6323 203.23C52.6323 203.23 59.3223 206.07 64.0723 201.88L65.0723 193.98L52.5623 199.23Z" fill="url(#paint6_linear-625639)"/>
<path d="M101.852 86.1499C101.387 93.3153 98.3347 100.068 93.2624 105.15C88.0524 114.05 67.8324 143.15 67.8324 143.15C68.1228 151.911 67.9191 160.682 67.2224 169.42C66.0724 186.31 67.0524 195.84 66.4124 196.77C65.9124 197.5 64.9924 198.05 62.3324 198.91C61.6224 199.14 60.7724 199.39 59.7824 199.68C56.8128 200.434 53.6788 200.202 50.8524 199.02C50.8524 199.02 44.1824 144.78 47.1324 133.38C50.0824 121.98 67.6523 89.5699 67.6523 89.5699L88.6523 87.4599L101.852 86.1499Z" fill="url(#paint7_linear-758668)"/>
<g style="mix-blend-mode:multiply" opacity="0.36">
<path d="M101.852 86.1499C101.388 93.3153 98.3349 100.068 93.2625 105.15C88.0525 114.05 67.8325 143.15 67.8325 143.15C68.1229 151.911 67.9193 160.682 67.2225 169.42C66.0725 186.31 67.0525 195.84 66.4125 196.77C65.9125 197.5 64.9925 198.05 62.3325 198.91C62.6925 195.84 62.9925 189.8 62.1925 178.99C60.8625 161.3 58.4525 145.77 66.5025 130.99C74.5525 116.21 92.2825 104.34 88.4425 93.9899C87.7054 91.8799 87.7911 89.5695 88.6825 87.5199L101.852 86.1499Z" fill="#1F9FF1"/>
</g>
<path d="M107.522 43.57L103.412 53.31L103.062 54.14C103.062 54.14 103.772 92.14 101.382 92.62C99.3824 93.02 95.0824 96.14 86.4924 96.75C84.868 96.8582 83.2388 96.8749 81.6124 96.8C69.6924 96.31 62.0324 89.28 61.3524 86.41C60.9824 84.79 62.8424 81.69 64.1924 79.3C64.5624 78.65 64.8824 78.05 65.1124 77.54C65.4456 76.6861 65.6804 75.797 65.8124 74.89C66.4724 71.28 66.8124 65.89 66.8124 65.89C66.8124 65.89 67.3324 61.83 65.6724 50.37C64.3424 41.27 65.5824 39.08 66.1424 38.56L66.3724 38.42C68.4105 37.2932 70.5067 36.2752 72.6524 35.37L74.2924 34.65L90.5424 33.76C90.5424 33.76 92.9124 35.12 95.6824 36.57C97.3524 37.45 99.1924 38.35 100.742 39.01C105.852 41.18 107.522 43.57 107.522 43.57Z" fill="url(#paint8_linear-941675)"/>
<g style="mix-blend-mode:multiply" opacity="0.45">
<path d="M65.6823 50.3901C66.0323 52.8101 66.2823 54.9201 66.4723 56.7101C64.8923 56.7101 61.8123 54.5101 61.8123 54.5101C63.6323 50.2901 64.2223 46.4101 65.0823 43.3101C65.1082 45.6816 65.3087 48.048 65.6823 50.3901Z" fill="#F38A3C"/>
</g>
<g style="mix-blend-mode:multiply" opacity="0.32">
<path d="M103.422 53.3102L103.062 54.1402C103.062 54.1402 103.772 92.1402 101.382 92.6202C99.3824 93.0202 95.0824 96.1402 86.4924 96.7502C84.2824 94.5602 81.8124 91.6502 78.1924 88.1002C71.6224 81.6702 65.6724 79.7102 64.1924 79.3002C64.5624 78.6502 64.8924 78.0502 65.1224 77.5402C65.4547 76.6819 65.6928 75.7899 65.8324 74.8802C68.4924 72.5602 76.7424 66.2102 86.2324 67.0402C97.8124 68.0402 97.9224 55.7902 97.9224 55.7902L103.312 52.6802L103.422 53.3102Z" fill="#5E3FD1"/>
</g>
<path d="M112.322 84.69C112.232 88.74 110.462 91.69 107.952 92.82C106.55 93.3573 105.044 93.5672 103.548 93.4337C102.053 93.3003 100.607 92.827 99.3224 92.05C97.7824 91.05 94.1925 89.05 91.5525 87.56C90.1325 86.73 88.9825 86.05 88.5525 85.73C87.3525 84.82 85.8924 84.03 87.9024 80.04C89.0923 77.6614 90.7605 75.5541 92.8025 73.85L97.0624 75.29L98.8025 75.87L99.1324 75.99C99.2582 74.41 99.3016 72.8245 99.2624 71.24C99.115 66.4284 98.6808 61.6299 97.9624 56.87C97.0524 51.51 105.792 41.15 107.522 43.6C107.942 44.19 110.032 45.78 111.322 55.95C112.612 66.12 112.412 80.63 112.322 84.69Z" fill="url(#paint9_linear-601680)"/>
<g style="mix-blend-mode:multiply" opacity="0.45">
<path d="M107.202 78.27L99.1423 75.97C99.2681 74.39 99.3115 72.8045 99.2723 71.22C103.252 73.3 107.202 78.27 107.202 78.27Z" fill="#F38A3C"/>
</g>
<path d="M97.0724 75.2901C96.798 79.9183 94.8337 84.2846 91.5525 87.5601C90.1325 86.7301 88.9825 86.0501 88.5525 85.7301C87.3525 84.8201 85.8924 84.0301 87.9024 80.0401C89.0923 77.6615 90.7605 75.5542 92.8025 73.8501L97.0724 75.2901Z" fill="url(#paint10_linear-724866)"/>
<path d="M89.1224 32.94C87.4591 35.165 85.4973 37.1503 83.2924 38.84C81.8551 40.1047 80.2499 41.1648 78.5224 41.99L74.7324 37.19C74.8624 37.03 76.3224 34.94 74.4924 28.76C73.8724 26.66 75.5724 25.23 77.9024 24.26C80.7992 23.193 83.8263 22.5203 86.9024 22.26C86.7465 22.9682 86.7465 23.7018 86.9024 24.41V24.53C87.2917 27.4144 88.0374 30.2393 89.1224 32.94V32.94Z" fill="url(#paint11_linear-630756)"/>
<g style="mix-blend-mode:multiply" opacity="0.45">
<path d="M86.9524 24.56C86.7024 28.56 84.8924 36.51 74.7324 37.17C74.8624 37.01 76.3224 34.92 74.4924 28.74C73.8724 26.64 75.5724 25.21 77.9024 24.24C80.8144 23.2255 83.8348 22.5543 86.9024 22.24C86.9779 23.0109 86.9946 23.7865 86.9524 24.56V24.56Z" fill="#F2787A"/>
</g>
<path d="M78.5425 42.16L79.8525 38.02C79.8525 38.02 86.6425 34.57 88.1925 30.22C89.3467 31.1165 90.187 32.3559 90.5925 33.76C89.7915 37.799 87.4309 41.3596 84.0225 43.67C83.5784 42.2882 82.7019 41.0858 81.5225 40.24C80.5774 40.9519 79.5814 41.5937 78.5425 42.16V42.16Z" fill="url(#paint12_linear-234850)"/>
<path d="M78.6224 42.13C77.628 40.9712 76.9861 39.5519 76.7724 38.04C75.6485 36.5149 75.1381 34.6234 75.3424 32.74C73.9608 34.0284 73.0344 35.7303 72.7024 37.59C72.2624 40.52 73.9824 43.9 73.9824 43.9C74.3319 42.6534 74.9846 41.5128 75.8824 40.58L78.6224 42.13Z" fill="url(#paint13_linear-746338)"/>
<path d="M93.4923 75.5099L90.1723 73.2499C89.7923 70.6999 90.2623 68.1399 89.3423 66.6899L84.8523 73.5799L70.6423 75.7299C71.6618 77.1317 72.9981 78.2727 74.5423 79.0599C76.8223 80.0599 84.4823 80.3599 85.0223 80.6699C85.5623 80.9799 89.0223 84.0399 89.0223 84.0399C89.0223 84.0399 92.9023 80.2699 93.4923 75.5099Z" fill="url(#paint14_linear-574606)"/>
<path d="M92.1923 61.0202L86.0223 73.3502L85.0223 71.7702L78.8523 61.5502L91.0623 59.7802H91.3423C91.494 59.769 91.646 59.7979 91.7831 59.8638C91.9202 59.9297 92.0376 60.0305 92.1236 60.1559C92.2096 60.2814 92.2612 60.4272 92.2733 60.5789C92.2853 60.7305 92.2574 60.8827 92.1923 61.0202V61.0202Z" fill="#A2C0ED"/>
<path d="M91.0123 59.78C90.9984 59.8387 90.9783 59.8956 90.9523 59.95L85.0523 71.74L78.8523 61.55L91.0123 59.78Z" fill="url(#paint15_linear-424799)"/>
<path d="M85.4623 73.94L85.0023 74L55.0823 78.68C54.38 78.7861 53.6626 78.6445 53.0532 78.2796C52.4438 77.9147 51.9804 77.3492 51.7423 76.68L43.6823 54.73C43.6236 54.5767 43.5931 54.4141 43.5923 54.25C43.5909 53.9141 43.7103 53.5889 43.9288 53.3337C44.1472 53.0785 44.4502 52.9104 44.7823 52.86L75.2923 48.1C75.7088 48.0277 76.1375 48.1043 76.5032 48.3164C76.8689 48.5285 77.1482 48.8626 77.2923 49.26L85.9823 73.02C86.0214 73.1141 86.0386 73.2159 86.0325 73.3176C86.0264 73.4193 85.9971 73.5183 85.947 73.607C85.8968 73.6957 85.8271 73.7718 85.7431 73.8295C85.6591 73.8872 85.5631 73.925 85.4623 73.94Z" fill="#A2C0ED"/>
<path d="M85.0023 74.02L55.0823 78.7C54.38 78.806 53.6626 78.6645 53.0532 78.2996C52.4438 77.9347 51.9804 77.3692 51.7423 76.7L43.6823 54.75C43.6236 54.5967 43.5931 54.4341 43.5923 54.27C43.6963 54.2212 43.8079 54.1908 43.9223 54.18L75.1123 49.31C75.3328 49.2807 75.5567 49.3258 75.7487 49.4381C75.9406 49.5504 76.0897 49.7235 76.1723 49.93L85.0023 74.02Z" fill="url(#paint16_linear-682884)"/>
<g style="mix-blend-mode:screen" opacity="0.63">
<path d="M64.3287 66.0302C65.3936 65.6975 65.8896 64.2526 65.4367 62.8029C64.9838 61.3533 63.7534 60.4478 62.6886 60.7804C61.6237 61.1131 61.1277 62.558 61.5806 64.0077C62.0335 65.4574 63.2639 66.3629 64.3287 66.0302Z" fill="white"/>
</g>
<path d="M68.9424 13.2301C68.9424 13.2301 70.4224 27.7401 76.1924 31.6801C78.1124 32.9901 84.1924 30.2701 85.6124 28.1001C87.0324 25.9301 87.0824 21.6701 87.0824 21.6701C87.0824 21.6701 88.8624 21.5001 88.8024 18.4701C88.7424 15.4401 84.9824 15.6901 85.1624 19.7901C85.1624 19.7901 83.9524 19.2901 83.3924 16.7201C83.3924 16.7201 80.8124 16.9601 81.2724 12.2801C81.2724 12.2801 77.9724 14.1301 75.5424 13.8101C73.1124 13.4901 74.7724 12.0601 74.7724 12.0601C74.7724 12.0601 72.8524 14.1401 68.9424 13.2301Z" fill="url(#paint17_linear-668954)"/>
<defs>
<linearGradient id="paint0_linear-061833" x1="11288.9" y1="10033.7" x2="11297.1" y2="9595.01" gradientUnits="userSpaceOnUse">
<stop stop-color="#EB5896"/>
<stop offset="1" stop-color="#F988B7"/>
</linearGradient>
<linearGradient id="paint1_linear-731940" x1="26.551" y1="201.651" x2="9.71908" y2="189.251" gradientUnits="userSpaceOnUse">
<stop stop-color="#39BDAF"/>
<stop offset="1" stop-color="#7EE9B8"/>
</linearGradient>
<linearGradient id="paint2_linear-711328" x1="27.1056" y1="178.554" x2="14.565" y2="180.516" gradientUnits="userSpaceOnUse">
<stop stop-color="#FF8F8E"/>
<stop offset="1" stop-color="#FEBCA6"/>
</linearGradient>
<linearGradient id="paint3_linear-211664" x1="28348.9" y1="20255.3" x2="23928.1" y2="20353.1" gradientUnits="userSpaceOnUse">
<stop stop-color="#1C9AF1"/>
<stop offset="1" stop-color="#5ED1EB"/>
</linearGradient>
<linearGradient id="paint4_linear-137434" x1="54.4808" y1="81.1836" x2="64.0429" y2="37.2223" gradientUnits="userSpaceOnUse">
<stop stop-color="#F7B345"/>
<stop offset="1" stop-color="#FEDB58"/>
</linearGradient>
<linearGradient id="paint5_linear-335097" x1="8510.94" y1="6452.94" x2="8257.76" y2="6428.29" gradientUnits="userSpaceOnUse">
<stop stop-color="#39BDAF"/>
<stop offset="1" stop-color="#7EE9B8"/>
</linearGradient>
<linearGradient id="paint6_linear-625639" x1="5834.01" y1="1900.3" x2="5679.59" y2="1910.3" gradientUnits="userSpaceOnUse">
<stop stop-color="#FFA290"/>
<stop offset="1" stop-color="#FECBA6"/>
</linearGradient>
<linearGradient id="paint7_linear-758668" x1="31235.7" y1="22308.2" x2="28558.1" y2="22081.4" gradientUnits="userSpaceOnUse">
<stop stop-color="#1C9AF1"/>
<stop offset="1" stop-color="#5ED1EB"/>
</linearGradient>
<linearGradient id="paint8_linear-941675" x1="23150.6" y1="11894.7" x2="19582.6" y2="9651.32" gradientUnits="userSpaceOnUse">
<stop offset="0.02" stop-color="#6B7CF7"/>
<stop offset="0.54" stop-color="#8F85F5"/>
<stop offset="1" stop-color="#B18DF3"/>
</linearGradient>
<linearGradient id="paint9_linear-601680" x1="12318.6" y1="8790.46" x2="13011.4" y2="8712.01" gradientUnits="userSpaceOnUse">
<stop stop-color="#F7B345"/>
<stop offset="1" stop-color="#FEDB58"/>
</linearGradient>
<linearGradient id="paint10_linear-724866" x1="4849.06" y1="2423.72" x2="4960.27" y2="2411.12" gradientUnits="userSpaceOnUse">
<stop stop-color="#EBEEFC"/>
<stop offset="1" stop-color="white"/>
</linearGradient>
<linearGradient id="paint11_linear-630756" x1="6901.89" y1="2220.17" x2="6882" y2="2328.85" gradientUnits="userSpaceOnUse">
<stop stop-color="#FF8F8E"/>
<stop offset="1" stop-color="#FEBCA6"/>
</linearGradient>
<linearGradient id="paint12_linear-234850" x1="12410.9" y1="914.216" x2="12398" y2="755.731" gradientUnits="userSpaceOnUse">
<stop stop-color="#EBEEFC"/>
<stop offset="1" stop-color="white"/>
</linearGradient>
<linearGradient id="paint13_linear-746338" x1="5513.53" y1="1476.86" x2="5508.66" y2="1338.77" gradientUnits="userSpaceOnUse">
<stop stop-color="#EBEEFC"/>
<stop offset="1" stop-color="white"/>
</linearGradient>
<linearGradient id="paint14_linear-574606" x1="10528.2" y1="2352.07" x2="10371.5" y2="2554.4" gradientUnits="userSpaceOnUse">
<stop stop-color="#FFA290"/>
<stop offset="1" stop-color="#FECBA6"/>
</linearGradient>
<linearGradient id="paint15_linear-424799" x1="78.9955" y1="70.0424" x2="89.6024" y2="57.8617" gradientUnits="userSpaceOnUse">
<stop stop-color="#9AC2FE"/>
<stop offset="1" stop-color="#FEFEFE"/>
</linearGradient>
<linearGradient id="paint16_linear-682884" x1="18339.9" y1="4188.48" x2="17720.4" y2="2979.64" gradientUnits="userSpaceOnUse">
<stop stop-color="#BBD6FE"/>
<stop offset="1" stop-color="#FEFEFE"/>
</linearGradient>
<linearGradient id="paint17_linear-668954" x1="8555.24" y1="7440.17" x2="8348.87" y2="7322.69" gradientUnits="userSpaceOnUse">
<stop stop-color="#FFA290"/>
<stop offset="1" stop-color="#FECBA6"/>
</linearGradient>
</defs>
</svg>