<svg width="304" height="213" viewBox="0 0 304 213" fill="none" xmlns="http://www.w3.org/2000/svg">
<path d="M58.6148 129.231H6.7548L0.0548024 65.1211C-0.08823 63.7938 0.049482 62.4513 0.458992 61.1807C0.868503 59.9101 1.54066 58.7398 2.43182 57.7459C3.32298 56.7519 4.41321 55.9565 5.63174 55.4113C6.85027 54.8661 8.16985 54.5832 9.5048 54.5811H43.8048C45.7319 54.5815 47.5901 55.2981 49.0186 56.5916C50.447 57.8852 51.3438 59.6634 51.5348 61.5811L58.6148 129.231Z" fill="url(#paint0_linear)"/>
<path d="M58.6149 129.231H13.3049L6.10486 60.3711C6.02926 59.6428 6.10741 58.9068 6.33427 58.2106C6.56114 57.5145 6.93164 56.8737 7.42181 56.3298C7.91199 55.7859 8.5109 55.351 9.17979 55.0532C9.84869 54.7554 10.5727 54.6014 11.3049 54.6011H45.5648C47.0047 54.6008 48.3935 55.1343 49.463 56.0984C50.5324 57.0626 51.2064 58.3889 51.3549 59.8211L58.6149 129.231Z" fill="url(#paint1_linear)"/>
<path d="M79.3147 139.161H15.5047C13.4336 139.163 11.434 138.404 9.88542 137.029C8.33688 135.654 7.34733 133.758 7.10469 131.701L6.80469 129.231H70.3147C72.4831 129.23 74.5764 130.025 76.1982 131.464C77.82 132.904 78.8577 134.888 79.1147 137.041L79.3147 139.161Z" fill="url(#paint2_linear)"/>
<path d="M91.9648 139.161H36.1148C36.0841 137.869 36.3121 136.583 36.7852 135.381C37.2583 134.178 37.967 133.082 38.8697 132.156C39.7725 131.231 40.851 130.496 42.0419 129.994C43.2329 129.491 44.5122 129.232 45.8048 129.231H82.9248C85.0915 129.233 87.1824 130.029 88.8021 131.468C90.4218 132.907 91.458 134.89 91.7148 137.041L91.9648 139.161Z" fill="url(#paint3_linear)"/>
<path d="M13.5049 139.101H90.7349C90.7349 140.348 90.2397 141.543 89.3583 142.424C88.4769 143.306 87.2814 143.801 86.0349 143.801H18.1949C16.9484 143.801 15.7529 143.306 14.8715 142.424C13.99 141.543 13.4949 140.348 13.4949 139.101V139.101H13.5049Z" fill="url(#paint4_linear)"/>
<path d="M17.5148 143.741L4.68481 211.211H9.82483L25.4448 143.801L17.5148 143.741Z" fill="url(#paint5_linear)"/>
<path d="M46.7749 143.741L41.7849 211.211H46.9349L54.6949 143.801L46.7749 143.741Z" fill="url(#paint6_linear)"/>
<path d="M82.9549 143.741L89.4549 211.211H84.3149L75.0349 143.801L82.9549 143.741Z" fill="url(#paint7_linear)"/>
<path d="M51.0149 32.941C51.0149 32.941 43.3549 24.251 43.8349 15.691C44.3149 7.13099 48.1449 8.12098 48.1449 8.12098C48.1449 8.12098 48.4449 1.80099 54.7749 2.22099C63.6349 2.82099 65.7749 -0.399012 70.3349 1.05099C74.8949 2.50099 76.4049 8.27099 73.5749 10.961C73.5749 10.961 78.0349 14.961 70.1849 22.321C62.3349 29.681 51.0149 32.941 51.0149 32.941Z" fill="url(#paint8_linear)"/>
<path d="M109.035 52.1709L111.155 48.9409C111.155 48.9409 113.155 40.691 115.065 37.501C116.975 34.311 118.255 36.681 118.155 37.841C117.758 40.2037 117.5 42.5878 117.385 44.9809C117.385 44.9809 126.215 41.3609 129.015 37.9809C131.815 34.6009 133.065 34.9809 133.265 36.6309C133.465 38.2809 134.135 45.5109 132.685 49.0409C131.235 52.5709 121.005 55.3609 121.005 55.3609L118.505 58.8309L109.035 52.1709Z" fill="url(#paint9_linear)"/>
<path d="M118.905 59.2811C118.905 61.2811 118.175 61.8511 117.345 63.2811C113.745 69.4111 107.935 80.0511 104.675 84.7111C102.885 87.2711 100.285 89.8111 97.1847 90.5511C94.5847 91.1611 91.7047 90.5511 88.7547 89.2811C82.7547 86.6911 72.1047 67.7211 72.1047 67.7211C73.1047 48.0211 77.5147 41.4711 80.6047 44.9411C83.6947 48.4111 95.0247 70.4211 95.0247 70.4211L105.735 54.5811L105.825 54.4411L108.375 50.6611C109.366 51.0369 110.338 51.4642 111.285 51.9411C115.925 54.0011 118.905 57.5811 118.905 59.2811Z" fill="url(#paint10_linear)"/>
<g style="mix-blend-mode:screen" opacity="0.47">
<path d="M118.905 59.2812C118.905 61.2812 118.175 61.8512 117.345 63.2812C114.492 59.2263 110.428 56.1804 105.735 54.5811L105.825 54.4411L108.375 50.6611C109.366 51.037 110.338 51.4643 111.285 51.9411C115.925 54.0011 118.905 57.5812 118.905 59.2812Z" fill="#5D83E4"/>
</g>
<path d="M90.5647 204.811C87.7458 202.115 85.678 198.73 84.5647 194.991H71.0647C69.9818 200.326 69.6887 205.791 70.1947 211.211H91.2447L90.5647 204.811Z" fill="url(#paint11_linear)"/>
<path d="M122.895 196.281C122.895 196.281 121.895 205.031 122.895 211.211H153.725C153.725 211.211 153.855 206.571 148.635 204.451C143.415 202.331 139.245 198.401 137.635 194.991L122.895 196.281Z" fill="url(#paint12_linear)"/>
<path d="M73.5847 109.721C73.5847 109.721 46.1847 114.291 46.7947 112.171C46.9347 111.691 47.0147 107.891 47.0447 102.261C47.1647 82.7209 46.7947 41.2109 46.7947 41.2109L68.0947 41.8409L70.3347 69.5009L73.5847 109.721Z" fill="url(#paint13_linear)"/>
<g style="mix-blend-mode:multiply" opacity="0.7">
<path d="M61.0249 105.721C60.905 105.723 60.7886 105.681 60.6969 105.604C60.6051 105.527 60.5441 105.419 60.5249 105.301C59.1776 95.1092 59.05 84.7931 60.1449 74.571C61.4749 62.851 61.7749 49.931 61.7749 49.801C61.7801 49.6693 61.8361 49.5446 61.9312 49.4532C62.0262 49.3619 62.153 49.3109 62.2849 49.311V49.311C62.4175 49.3187 62.5422 49.3768 62.6333 49.4735C62.7245 49.5702 62.7751 49.6982 62.7749 49.831C62.7749 49.961 62.4649 62.921 61.1249 74.681C60.0401 84.8134 60.1677 95.0389 61.5049 105.141C61.5253 105.272 61.494 105.406 61.4175 105.514C61.3409 105.622 61.2252 105.697 61.0949 105.721H61.0249Z" fill="#BFD9FE"/>
</g>
<g style="mix-blend-mode:multiply" opacity="0.25">
<path d="M73.5847 109.721C73.5847 109.721 46.1847 114.291 46.7947 112.171C46.9347 111.691 47.0147 107.891 47.0447 102.261C49.6554 98.1748 53.2525 94.8115 57.5047 92.481C70.3447 85.531 70.3247 70.351 70.3147 69.531L73.5847 109.721Z" fill="#2195CE"/>
</g>
<path d="M85.8347 111.211H70.0347C70.0347 111.211 67.9347 105.291 67.8647 91.4312C67.8647 90.0712 67.8647 88.6212 67.8647 87.0912C68.2347 71.9512 67.9347 47.3712 67.8647 42.2012V41.2012C67.8647 41.2012 77.3548 42.9912 78.9648 43.8812C80.5748 44.7712 81.0847 44.8812 82.0447 50.8312C83.0047 56.7812 81.3447 86.1012 81.3447 86.1012L85.8347 111.211Z" fill="url(#paint14_linear)"/>
<g style="mix-blend-mode:screen" opacity="0.47">
<path d="M67.8647 91.411C67.8647 90.051 67.8647 88.601 67.8647 87.071C68.2347 71.931 67.9347 47.3511 67.8647 42.1811L68.0447 41.8411C68.0447 41.8411 73.8147 46.6011 74.9747 48.0211C76.1347 49.4411 69.9747 53.7411 69.9747 53.7411C69.9747 53.7411 75.0547 56.8311 76.1547 58.5011C77.2547 60.1711 70.2347 80.261 67.8647 91.411Z" fill="#5D83E4"/>
</g>
<path d="M140.505 196.141C140.505 196.141 137.505 198.231 129.135 198.241C125.984 198.225 122.837 198.001 119.715 197.571C119.715 197.571 103.045 156.351 97.6448 138.871L79.8148 137.931L78.4848 135.231L65.2048 108.401C65.2048 108.401 99.2048 108.331 107.815 114.931C122.995 126.581 140.505 196.141 140.505 196.141Z" fill="url(#paint15_linear)"/>
<g style="mix-blend-mode:multiply" opacity="0.39">
<path d="M129.165 198.251C126.014 198.235 122.867 198.011 119.745 197.581C119.745 197.581 103.075 156.361 97.6749 138.881L79.8449 137.941L78.5149 135.241C80.5149 127.181 82.6149 119.191 82.6149 119.191C82.6149 119.191 86.2149 124.851 97.2849 126.911C108.355 128.971 107.845 129.641 111.445 151.571C115.045 173.501 117.875 179.681 124.055 187.401C126.58 190.57 128.33 194.285 129.165 198.251V198.251Z" fill="#1F9FF1"/>
</g>
<path d="M87.5049 196.791C80.8855 197.913 74.1244 197.913 67.5049 196.791C67.5049 196.791 65.3249 159.421 65.2549 140.321C65.2549 138.561 65.2549 136.951 65.2549 135.541C65.2549 135.541 58.9749 134.871 49.8149 134.671C40.6549 134.471 35.1149 132.311 32.3349 127.921C27.9949 121.071 29.8249 105.521 29.8249 105.521L50.0949 105.621C50.0949 105.621 82.5949 109.711 87.7449 119.491C92.8949 129.271 87.5049 196.791 87.5049 196.791Z" fill="url(#paint16_linear)"/>
<path d="M64.7948 41.1311L64.2248 42.4811C63.4848 44.2611 62.2848 47.1712 62.2848 47.3112C62.2848 47.4512 48.9648 39.4511 48.9648 39.4511C50.5648 34.4511 50.2548 26.6812 50.2548 26.6812L64.0848 34.7611L64.7948 41.1311Z" fill="url(#paint17_linear)"/>
<g style="mix-blend-mode:multiply" opacity="0.45">
<path d="M64.7948 41.1311L64.2249 42.4811C52.8549 42.2911 50.2249 26.6812 50.2249 26.6812L64.0549 34.7611L64.7948 41.1311Z" fill="#F2787A"/>
</g>
<path d="M62.2849 47.3109L59.1949 42.1909L57.5149 44.5809L62.2849 47.3109Z" fill="#BDD2EF"/>
<path d="M59.1949 42.191L55.5049 47.311C55.5049 47.311 49.6149 44.311 47.7349 39.681C47.9486 37.6921 48.7375 35.8086 50.0049 34.261C50.0049 34.261 49.9049 35.481 49.8149 36.111C52.1619 39.1424 55.4694 41.2862 59.1949 42.191V42.191Z" fill="#EEF5FF"/>
<path d="M62.2849 47.311L64.2249 42.481L65.9049 44.021L62.2849 47.311Z" fill="#BDD2EF"/>
<path d="M64.2249 42.481L67.8649 47.311C67.8649 47.311 70.0048 39.681 64.3148 36.791C64.464 38.6863 64.4339 40.5914 64.2249 42.481V42.481Z" fill="#EEF5FF"/>
<path d="M52.5049 91.431C52.4049 95.241 52.2649 99.031 52.0749 102.621C51.8249 107.551 51.4749 112.101 51.0249 115.851C50.5349 120.091 49.8949 123.301 49.1449 124.851C45.6749 131.921 32.5449 129.351 24.0449 129.101C24.0449 129.101 25.4149 119.751 26.5949 111.471C27.1049 107.981 27.5949 104.681 27.8949 102.351C28.0949 100.941 28.2349 99.881 28.2949 99.351C28.5749 96.871 27.9449 85.971 27.5949 80.501C27.4749 78.601 27.3849 77.351 27.3849 77.351L27.7449 74.581L31.6949 43.581C31.6949 43.581 32.5449 42.301 35.6349 41.461C38.7249 40.621 47.7449 39.261 47.7449 39.261C47.8404 39.3988 47.9272 39.5424 48.0049 39.691C48.8249 41.171 51.3749 46.691 52.2349 59.941C52.6949 67.061 52.8349 79.361 52.5049 91.431Z" fill="url(#paint18_linear)"/>
<g style="mix-blend-mode:multiply" opacity="0.32">
<path d="M52.0847 102.581C51.8347 107.511 51.4847 112.061 51.0347 115.811C47.3347 114.651 34.7747 110.961 26.6047 111.431C27.1147 107.941 27.6047 104.641 27.9047 102.311C28.1047 100.901 28.2447 99.841 28.3047 99.311C28.5847 96.831 27.9547 85.931 27.6047 80.461L28.0147 80.271C28.0147 80.271 45.0847 97.841 45.9047 98.961C46.2547 99.491 49.0247 101.021 52.0847 102.581Z" fill="#5E3FD1"/>
</g>
<g style="mix-blend-mode:screen" opacity="0.47">
<path d="M52.5048 91.4312C49.9248 79.9612 42.9448 61.1411 43.1048 60.1111C43.2948 58.8611 48.9448 53.4811 48.9448 53.4811C48.9448 53.4811 43.1948 49.1411 43.1048 48.3211C43.0148 47.5011 47.6847 39.6812 47.6847 39.6812L47.9948 39.7411C48.8148 41.2211 51.3648 46.7411 52.2248 59.9911C52.6948 67.0612 52.8248 79.3612 52.5048 91.4312Z" fill="#5D83E4"/>
</g>
<g style="mix-blend-mode:multiply" opacity="0.39">
<path d="M78.5049 135.231C78.5049 135.231 70.2249 136.881 65.2349 139.301C65.2349 137.531 65.2349 135.921 65.2349 134.511L78.5049 135.231Z" fill="#1F9FF1"/>
</g>
<g style="mix-blend-mode:multiply" opacity="0.25">
<path d="M47.2848 109.381C41.4448 110.101 36.1248 110.071 31.6548 108.791L31.7548 106.281C36.9231 107.06 42.1624 107.258 47.3748 106.871L47.2848 109.381Z" fill="#0877BC"/>
</g>
<path d="M98.3849 211.211H81.7849C81.7849 211.211 85.3549 205.321 89.3049 204.841C93.2549 204.361 98.3849 211.211 98.3849 211.211Z" fill="url(#paint19_linear)"/>
<path d="M65.2448 112.321C63.7431 112.087 62.2619 111.736 60.8148 111.271C49.8148 107.851 34.2848 98.1211 30.5548 94.7511C26.2848 90.8811 26.0348 79.0911 25.5548 70.2511C25.0848 61.1811 25.1548 44.7511 32.0248 43.2511C34.4648 42.7211 39.7648 48.6311 40.2148 59.3611C40.8248 73.9911 43.0948 82.4311 43.0948 82.4311C43.0948 82.4311 52.7548 90.4311 58.8348 94.3711C62.6748 96.8711 66.0448 98.7311 68.1048 99.8011C69.4648 100.501 70.2648 100.871 70.2648 100.871C74.5048 109.431 65.2448 112.321 65.2448 112.321Z" fill="url(#paint20_linear)"/>
<path d="M71.3349 14.3611C71.6591 18.3888 71.3213 22.4425 70.3349 26.3611C68.7149 33.0311 67.7649 36.2511 63.5449 36.9811C60.3549 37.5311 54.1949 33.1111 52.6649 31.4311C51.1609 29.7321 50.1419 27.6596 49.7149 25.4311C48.8254 25.0813 48.0815 24.4392 47.6053 23.6105C47.1291 22.7818 46.9491 21.8157 47.0949 20.8711C47.6749 17.5711 51.3349 18.3011 51.5049 23.7711C53.1149 23.6611 53.6249 20.8511 53.6249 20.8511C53.6249 20.8511 54.7149 20.8511 55.0749 20.2611C55.842 18.7134 56.1475 16.9776 55.9549 15.2611C57.1189 15.7091 58.373 15.873 59.6131 15.7391C60.8532 15.6052 62.0434 15.1773 63.0849 14.4911C67.0049 12.2511 69.7249 12.8911 71.3349 14.3611Z" fill="url(#paint21_linear)"/>
<g style="mix-blend-mode:screen" opacity="0.47">
<path d="M65.2447 112.321C63.7429 112.087 62.2618 111.736 60.8147 111.271C61.1747 102.021 66.0647 100.181 68.1247 99.821C69.4847 100.521 70.2847 100.891 70.2847 100.891C74.5047 109.431 65.2447 112.321 65.2447 112.321Z" fill="#5D83E4"/>
</g>
<path d="M68.3648 101.811C68.3648 101.811 63.3648 105.141 63.7048 110.581L67.7048 112.321C67.7048 112.321 71.3148 116.031 74.0348 116.901C76.7548 117.771 80.0348 118.571 81.1348 119.281C82.2348 119.991 86.4648 121.211 85.4548 116.901C84.4448 112.591 83.9348 110.181 79.0048 107.851C74.0748 105.521 72.0948 104.451 72.0948 104.451L68.3648 101.811Z" fill="url(#paint22_linear)"/>
<path d="M296.925 94.9409H69.2347C68.0362 94.9409 67.0647 95.9125 67.0647 97.1109V97.3409C67.0647 98.5394 68.0362 99.5109 69.2347 99.5109H296.925C298.123 99.5109 299.095 98.5394 299.095 97.3409V97.1109C299.095 95.9125 298.123 94.9409 296.925 94.9409Z" fill="url(#paint23_linear)"/>
<path d="M72.9748 99.501H293.195V100.341C293.195 102.182 292.464 103.947 291.162 105.248C289.861 106.55 288.095 107.281 286.255 107.281H79.9048C78.0642 107.281 76.299 106.55 74.9975 105.248C73.696 103.947 72.9648 102.182 72.9648 100.341V99.501H72.9748Z" fill="url(#paint24_linear)"/>
<path d="M80.4147 107.281L64.3647 212.211H69.3047L89.5947 107.281H80.4147Z" fill="url(#paint25_linear)"/>
<path d="M287.425 107.281L303.475 212.211H298.535L278.255 107.281H287.425Z" fill="url(#paint26_linear)"/>
<path d="M111.195 94.941H123.195V91.5811L115.675 92.2811C114.783 92.3612 113.921 92.6399 113.151 93.0967C112.381 93.5535 111.723 94.1769 111.225 94.9211L111.195 94.941Z" fill="#B7D5F8"/>
<path d="M120.705 94.941H162.255C163.354 94.9411 164.425 94.5858 165.306 93.928C166.187 93.2703 166.832 92.3453 167.145 91.291L175.015 64.801C175.094 64.5349 175.111 64.2539 175.062 63.9804C175.014 63.7069 174.902 63.4485 174.736 63.226C174.57 63.0034 174.354 62.8229 174.105 62.6987C173.857 62.5746 173.583 62.5103 173.305 62.511H132.815C132.099 62.5091 131.401 62.7389 130.826 63.166C130.251 63.5931 129.83 64.1947 129.625 64.881L120.705 94.941Z" fill="#B7D5F8"/>
<path d="M123.165 94.941H162.255C162.59 94.9372 162.925 94.9038 163.255 94.841C164.161 94.6559 165 94.2278 165.682 93.6024C166.364 92.9771 166.862 92.1781 167.125 91.291L174.995 64.801C175.074 64.5349 175.091 64.2539 175.042 63.9804C174.994 63.7069 174.882 63.4485 174.716 63.226C174.549 63.0034 174.334 62.8229 174.085 62.6987C173.837 62.5746 173.563 62.5103 173.285 62.511H134.765C134.198 62.5112 133.647 62.6943 133.193 63.033C132.739 63.3717 132.406 63.848 132.245 64.391L130.505 70.211L123.165 94.941Z" fill="url(#paint27_linear)"/>
<path d="M151.724 79.2688C152.698 77.4102 152.453 75.3608 151.177 74.6914C149.9 74.022 148.075 74.9861 147.101 76.8448C146.126 78.7034 146.371 80.7529 147.647 81.4222C148.924 82.0916 150.749 81.1275 151.724 79.2688Z" fill="white"/>
<defs>
<linearGradient id="paint0_linear" x1="32.3848" y1="128.551" x2="17.7648" y2="-21.8589" gradientUnits="userSpaceOnUse">
<stop stop-color="#A7CAFE"/>
<stop offset="0.2" stop-color="#BED8FE"/>
<stop offset="0.51" stop-color="#DDEAFE"/>
<stop offset="0.78" stop-color="#F0F6FE"/>
<stop offset="0.97" stop-color="#F7FAFE"/>
</linearGradient>
<linearGradient id="paint1_linear" x1="33.9249" y1="123.031" x2="30.3849" y2="59.3611" gradientUnits="userSpaceOnUse">
<stop stop-color="#BBD6FE"/>
<stop offset="0.08" stop-color="#C2DAFE"/>
<stop offset="0.45" stop-color="#DFECFE"/>
<stop offset="0.77" stop-color="#F1F6FE"/>
<stop offset="1" stop-color="#F7FAFE"/>
</linearGradient>
<linearGradient id="paint2_linear" x1="13459.6" y1="3726.77" x2="13459.6" y2="3537.8" gradientUnits="userSpaceOnUse">
<stop stop-color="#BBD6FE"/>
<stop offset="0.08" stop-color="#C2DAFE"/>
<stop offset="0.45" stop-color="#DFECFE"/>
<stop offset="0.77" stop-color="#F1F6FE"/>
<stop offset="1" stop-color="#F7FAFE"/>
</linearGradient>
<linearGradient id="paint3_linear" x1="11571.9" y1="3726.77" x2="11571.9" y2="3537.8" gradientUnits="userSpaceOnUse">
<stop stop-color="#BBD6FE"/>
<stop offset="0.08" stop-color="#C2DAFE"/>
<stop offset="0.45" stop-color="#DFECFE"/>
<stop offset="0.77" stop-color="#F1F6FE"/>
<stop offset="1" stop-color="#F7FAFE"/>
</linearGradient>
<linearGradient id="paint4_linear" x1="16216.9" y1="1845.21" x2="4040.42" y2="-343.785" gradientUnits="userSpaceOnUse">
<stop stop-color="#A7CAFE"/>
<stop offset="0.2" stop-color="#BED8FE"/>
<stop offset="0.51" stop-color="#DDEAFE"/>
<stop offset="0.78" stop-color="#F0F6FE"/>
<stop offset="0.97" stop-color="#F7FAFE"/>
</linearGradient>
<linearGradient id="paint5_linear" x1="3431.54" y1="24472.7" x2="493.821" y2="28362.8" gradientUnits="userSpaceOnUse">
<stop stop-color="#A7CAFE"/>
<stop offset="0.2" stop-color="#BED8FE"/>
<stop offset="0.51" stop-color="#DDEAFE"/>
<stop offset="0.78" stop-color="#F0F6FE"/>
<stop offset="0.97" stop-color="#F7FAFE"/>
</linearGradient>
<linearGradient id="paint6_linear" x1="2579.25" y1="24966.6" x2="-418.334" y2="27435" gradientUnits="userSpaceOnUse">
<stop stop-color="#A7CAFE"/>
<stop offset="0.2" stop-color="#BED8FE"/>
<stop offset="0.51" stop-color="#DDEAFE"/>
<stop offset="0.78" stop-color="#F0F6FE"/>
<stop offset="0.97" stop-color="#F7FAFE"/>
</linearGradient>
<linearGradient id="paint7_linear" x1="79.2749" y1="146.851" x2="88.3349" y2="210.521" gradientUnits="userSpaceOnUse">
<stop stop-color="#AEC5DE"/>
<stop offset="0.17" stop-color="#BED0E6"/>
<stop offset="0.44" stop-color="#D2DFF1"/>
<stop offset="0.72" stop-color="#DEE7F7"/>
<stop offset="1" stop-color="#E2EAF9"/>
</linearGradient>
<linearGradient id="paint8_linear" x1="62.0442" y1="21.326" x2="56.9289" y2="4.7244" gradientUnits="userSpaceOnUse">
<stop stop-color="#D53468"/>
<stop offset="1" stop-color="#F99AB7"/>
</linearGradient>
<linearGradient id="paint9_linear" x1="120.485" y1="59.6509" x2="121.775" y2="41.2609" gradientUnits="userSpaceOnUse">
<stop stop-color="#FFA290"/>
<stop offset="1" stop-color="#FECBA6"/>
</linearGradient>
<linearGradient id="paint10_linear" x1="9751.75" y1="14412.9" x2="11949" y2="12702.7" gradientUnits="userSpaceOnUse">
<stop offset="0.02" stop-color="#6B7CF7"/>
<stop offset="0.54" stop-color="#8F85F5"/>
<stop offset="1" stop-color="#B18DF3"/>
</linearGradient>
<linearGradient id="paint11_linear" x1="69.9147" y1="203.101" x2="91.2447" y2="203.101" gradientUnits="userSpaceOnUse">
<stop stop-color="#113272"/>
<stop offset="1" stop-color="#14429B"/>
</linearGradient>
<linearGradient id="paint12_linear" x1="8409" y1="7080.71" x2="9386.65" y2="7080.71" gradientUnits="userSpaceOnUse">
<stop stop-color="#113272"/>
<stop offset="1" stop-color="#14429B"/>
</linearGradient>
<linearGradient id="paint13_linear" x1="4871.06" y1="19079.4" x2="7335.46" y2="20576.4" gradientUnits="userSpaceOnUse">
<stop stop-color="#BBD6FE"/>
<stop offset="0.08" stop-color="#C2DAFE"/>
<stop offset="0.45" stop-color="#DFECFE"/>
<stop offset="0.77" stop-color="#F1F6FE"/>
<stop offset="1" stop-color="#F7FAFE"/>
</linearGradient>
<linearGradient id="paint14_linear" x1="3819.1" y1="24714.8" x2="6804.45" y2="20759.9" gradientUnits="userSpaceOnUse">
<stop offset="0.02" stop-color="#6B7CF7"/>
<stop offset="0.54" stop-color="#8F85F5"/>
<stop offset="1" stop-color="#B18DF3"/>
</linearGradient>
<linearGradient id="paint15_linear" x1="15707.3" y1="33775.1" x2="21377.4" y2="33775.1" gradientUnits="userSpaceOnUse">
<stop stop-color="#1C9AF1"/>
<stop offset="1" stop-color="#5ED1EB"/>
</linearGradient>
<linearGradient id="paint16_linear" x1="10438.4" y1="34461.3" x2="14101.8" y2="34461.3" gradientUnits="userSpaceOnUse">
<stop stop-color="#1C9AF1"/>
<stop offset="1" stop-color="#5ED1EB"/>
</linearGradient>
<linearGradient id="paint17_linear" x1="3215.44" y1="5292.95" x2="3186.94" y2="5476.43" gradientUnits="userSpaceOnUse">
<stop stop-color="#FFA290"/>
<stop offset="1" stop-color="#FECBA6"/>
</linearGradient>
<linearGradient id="paint18_linear" x1="5044.79" y1="31347.3" x2="8618.33" y2="25510.9" gradientUnits="userSpaceOnUse">
<stop offset="0.02" stop-color="#6B7CF7"/>
<stop offset="0.54" stop-color="#8F85F5"/>
<stop offset="1" stop-color="#B18DF3"/>
</linearGradient>
<linearGradient id="paint19_linear" x1="3804.83" y1="2950.63" x2="4080.39" y2="2950.63" gradientUnits="userSpaceOnUse">
<stop stop-color="#113272"/>
<stop offset="1" stop-color="#14429B"/>
</linearGradient>
<linearGradient id="paint20_linear" x1="7432.73" y1="22409.7" x2="9472.77" y2="21310.1" gradientUnits="userSpaceOnUse">
<stop offset="0.02" stop-color="#6B7CF7"/>
<stop offset="0.54" stop-color="#8F85F5"/>
<stop offset="1" stop-color="#B18DF3"/>
</linearGradient>
<linearGradient id="paint21_linear" x1="4376.12" y1="7704.35" x2="4759.52" y2="7589.61" gradientUnits="userSpaceOnUse">
<stop stop-color="#FFA290"/>
<stop offset="1" stop-color="#FECBA6"/>
</linearGradient>
<linearGradient id="paint22_linear" x1="4794.7" y1="6254.58" x2="4880.74" y2="5992.88" gradientUnits="userSpaceOnUse">
<stop stop-color="#FFA290"/>
<stop offset="1" stop-color="#FECBA6"/>
</linearGradient>
<linearGradient id="paint23_linear" x1="48691.3" y1="1551.13" x2="102529" y2="1551.13" gradientUnits="userSpaceOnUse">
<stop stop-color="#BBD6FE"/>
<stop offset="0.08" stop-color="#C2DAFE"/>
<stop offset="0.45" stop-color="#DFECFE"/>
<stop offset="0.77" stop-color="#F1F6FE"/>
<stop offset="1" stop-color="#F7FAFE"/>
</linearGradient>
<linearGradient id="paint24_linear" x1="71775.4" y1="2570.51" x2="71775.4" y2="3097.52" gradientUnits="userSpaceOnUse">
<stop stop-color="#A7CAFE"/>
<stop offset="0.2" stop-color="#BED8FE"/>
<stop offset="0.51" stop-color="#DDEAFE"/>
<stop offset="0.78" stop-color="#F0F6FE"/>
<stop offset="0.97" stop-color="#F7FAFE"/>
</linearGradient>
<linearGradient id="paint25_linear" x1="76.9747" y1="119.241" x2="76.9747" y2="231.481" gradientUnits="userSpaceOnUse">
<stop stop-color="#B7D5F8"/>
<stop offset="0.38" stop-color="#D0E4FB"/>
<stop offset="0.73" stop-color="#E1EEFC"/>
<stop offset="1" stop-color="#E7F1FD"/>
</linearGradient>
<linearGradient id="paint26_linear" x1="11207.6" y1="35852.7" x2="11207.6" y2="47630.1" gradientUnits="userSpaceOnUse">
<stop stop-color="#B7D5F8"/>
<stop offset="0.38" stop-color="#D0E4FB"/>
<stop offset="0.73" stop-color="#E1EEFC"/>
<stop offset="1" stop-color="#E7F1FD"/>
</linearGradient>
<linearGradient id="paint27_linear" x1="-27570.2" y1="10408.3" x2="-27238.3" y2="9098.25" gradientUnits="userSpaceOnUse">
<stop stop-color="#BBD6FE"/>
<stop offset="0.08" stop-color="#C2DAFE"/>
<stop offset="0.45" stop-color="#DFECFE"/>
<stop offset="0.77" stop-color="#F1F6FE"/>
<stop offset="1" stop-color="#F7FAFE"/>
</linearGradient>
</defs>
</svg>
