<svg width="221" height="164" viewBox="0 0 221 164" fill="none" xmlns="http://www.w3.org/2000/svg">
<path d="M158.202 97.6589C150.905 97.6609 143.771 95.4988 137.703 91.446C131.635 87.3932 126.905 81.6319 124.112 74.8907C121.319 68.1496 120.587 60.7314 122.01 53.5745C123.433 46.4176 126.947 39.8435 132.107 34.6838C137.267 29.524 143.841 26.0104 150.998 24.5873C158.154 23.1642 165.573 23.8956 172.314 26.6889C179.055 29.4823 184.816 34.2121 188.869 40.2802C192.922 46.3482 195.084 53.4819 195.082 60.7789C195.069 70.556 191.179 79.9289 184.266 86.8424C177.352 93.7559 167.979 97.6457 158.202 97.6589V97.6589ZM158.202 33.8889C152.883 33.887 147.683 35.4623 143.26 38.4158C138.837 41.3694 135.389 45.5683 133.352 50.4816C131.315 55.395 130.781 60.8019 131.817 66.0188C132.854 71.2356 135.414 76.0278 139.174 79.7895C142.935 83.5511 147.726 86.1131 152.942 87.1515C158.159 88.1899 163.566 87.6579 168.48 85.623C173.394 83.5881 177.594 80.1415 180.55 75.7193C183.505 71.297 185.082 66.0977 185.082 60.7789C185.066 53.6566 182.228 46.8309 177.19 41.7965C172.152 36.7621 165.324 33.9295 158.202 33.9189V33.8889Z" fill="#D0E0F4"/>
<path d="M166.512 72.9092H214.112C215.134 72.9087 216.143 73.137 217.066 73.5772C217.988 74.0175 218.8 74.6585 219.443 75.4534C220.085 76.2483 220.541 77.1769 220.778 78.1711C221.015 79.1653 221.027 80.2 220.812 81.1992L203.112 163.199H166.512V72.9092Z" fill="url(#paint0_linear-331969)"/>
<path d="M159.802 72.9091H208.672C209.35 72.9087 210.02 73.0601 210.631 73.3522C211.243 73.6444 211.782 74.0698 212.207 74.5973C212.633 75.1248 212.936 75.741 213.092 76.4006C213.249 77.0602 213.256 77.7465 213.112 78.4091L195.112 161.949C195.036 162.304 194.841 162.621 194.559 162.849C194.277 163.077 193.925 163.2 193.562 163.199H159.802C159.387 163.204 158.985 163.046 158.686 162.758C158.386 162.469 158.213 162.075 158.202 161.659V74.489C158.202 74.2799 158.244 74.0728 158.324 73.8798C158.405 73.6868 158.523 73.5117 158.672 73.3647C158.821 73.2177 158.997 73.1017 159.191 73.0235C159.385 72.9453 159.593 72.9064 159.802 72.9091Z" fill="url(#paint1_linear-455150)"/>
<path d="M40.5721 67.4989L35.1121 57.4989C35.1121 57.4989 33.7421 51.0289 32.5021 48.8289C31.2621 46.6289 25.3121 41.4589 21.5621 41.3389C18.5621 41.2489 22.4121 45.3389 24.0421 47.0089C24.4901 47.4458 24.8321 47.9794 25.0421 48.5689C25.0421 48.5689 26.8221 51.9189 26.4821 52.4489C26.1421 52.9789 15.0321 51.8589 11.9421 48.7689C8.85209 45.6789 1.25208 39.2589 0.18208 44.9689C-0.887921 50.6789 2.91206 58.9689 7.54206 63.0289C12.1721 67.0889 21.2721 69.0289 21.2721 69.0289L24.7721 78.0289L40.5721 67.4989Z" fill="url(#paint2_linear-423893)"/>
<path d="M187.532 106.089C187.142 116.429 185.812 128.419 184.702 138.549C183.332 151.059 182.912 160.849 182.912 160.849H61.2521L40.8021 122.929C36.6121 116.469 29.2721 99.839 25.3921 90.269C24.0021 86.829 23.0521 84.269 22.8621 83.479C22.1521 80.389 22.3921 76.359 28.3321 71.129C31.2221 68.589 35.5021 67.579 38.4321 66.729C39.4321 66.439 40.3021 66.169 41.0021 65.939C41.6336 65.7362 42.3154 65.7544 42.9352 65.9907C43.555 66.227 44.0758 66.6672 44.4121 67.239C45.4121 68.899 46.7821 71.319 48.4121 74.189C56.7721 88.689 71.6821 114.849 71.6821 114.849C71.6821 114.849 84.5121 89.189 92.5921 79.439C97.6921 73.289 110.262 69.679 118.852 67.849C123.852 66.789 127.502 66.329 127.502 66.329L149.182 64.249C153.076 65.1373 156.913 66.2593 160.672 67.609C169.672 70.829 181.452 76.439 185.482 84.799C187.502 88.879 187.892 96.819 187.532 106.089Z" fill="url(#paint3_linear-059494)"/>
<g style="mix-blend-mode:multiply" opacity="0.35">
<path d="M187.532 106.089C187.142 116.429 185.812 128.419 184.702 138.549C183.332 151.059 182.912 160.849 182.912 160.849H79.802C76.712 157.429 74.722 154.779 74.992 153.849C75.992 150.459 94.822 110.849 94.822 110.849C94.822 110.849 94.712 105.479 99.252 98.269C101.776 94.4728 103.287 90.0941 103.642 85.5491L102.762 130.189L110.602 137.849C110.602 137.849 133.762 143.549 143.922 124.309C154.082 105.069 162.222 96.4791 162.222 96.4791L187.532 106.089Z" fill="#E58C33"/>
</g>
<path d="M160.722 67.599C160.722 67.679 160.672 67.759 160.642 67.849C150.482 99.079 127.902 106.649 125.692 106.059C123.482 105.469 118.522 97.499 117.092 86.219C115.662 74.939 118.882 67.849 118.882 67.849C123.882 66.789 127.532 66.329 127.532 66.329L149.212 64.249C153.113 65.1332 156.956 66.2519 160.722 67.599V67.599Z" fill="url(#paint4_linear-044844)"/>
<path d="M109.092 39.659C106.791 39.07 104.774 37.6809 103.403 35.7404C102.033 33.8 101.398 31.4349 101.612 29.069C101.612 29.069 94.332 25.649 93.432 20.659C92.532 15.669 97.042 17.979 97.042 17.979C97.042 17.979 95.322 10.979 97.342 6.97896C99.362 2.97896 104.132 8.80895 104.132 8.80895C104.132 8.80895 105.252 1.01896 109.022 0.72896C112.792 0.43896 114.092 8.36896 123.872 7.59896C133.652 6.82896 138.022 5.92895 141.782 8.83895C145.542 11.7489 144.602 18.029 144.572 18.259C144.542 18.489 150.572 19.259 150.772 26.039C150.972 32.819 142.392 52.1189 142.392 52.1189L109.092 39.659Z" fill="url(#paint5_linear-901406)"/>
<path d="M148.332 65.6591L131.892 83.5491L128.252 86.739C128.252 86.739 125.452 78.6791 125.412 75.6691C125.442 73.0819 125.843 70.5124 126.602 68.0391L123.602 57.5091L141.802 42.7891C141.802 42.7891 141.882 43.2591 142.012 44.0991V44.2891C142.802 48.0791 144.802 58.2191 148.332 65.6591Z" fill="url(#paint6_linear-943251)"/>
<g style="mix-blend-mode:multiply" opacity="0.45">
<path d="M125.412 75.6591C125.442 73.0719 125.843 70.5024 126.602 68.0291L123.602 57.4991L141.802 42.7891C141.872 43.1091 141.952 43.5491 142.032 44.0891V44.2791C142.962 50.3291 143.962 68.3591 125.412 75.6591Z" fill="#F2787A"/>
</g>
<path d="M106.662 28.8589C106.662 28.8589 111.182 57.1689 122.512 64.0589C126.292 66.3589 137.442 60.1189 139.822 55.6389C142.202 51.1589 141.822 42.7789 141.822 42.7789C141.822 42.7789 145.142 42.1789 144.662 36.2189C144.182 30.2589 137.142 31.3189 137.972 39.3589C137.972 39.3589 135.632 38.5589 134.272 33.5789C134.272 33.5789 129.442 34.4289 129.752 25.1689C129.752 25.1689 123.752 29.2989 119.132 29.0389C114.512 28.7789 117.492 25.7089 117.492 25.7089C117.492 25.7089 114.062 30.0789 106.662 28.8589Z" fill="url(#paint7_linear-341438)"/>
<path d="M146.352 60.8091C146.352 60.8091 143.402 75.1891 133.162 79.0991L128.252 86.7191L133.892 83.3491C135.881 84.7282 137.302 86.7819 137.892 89.1291C137.892 89.1291 150.212 82.7391 150.452 65.9691C150.122 64.1691 148.272 62.4791 146.352 60.8091Z" fill="url(#paint8_linear-680447)"/>
<path d="M128.252 86.7192L127.592 77.4292C127.592 77.4292 124.202 74.5592 126.592 68.0192L125.792 65.1792C125.792 65.1792 122.252 67.8292 120.852 74.6192C119.452 81.4092 121.592 85.4392 121.592 85.4392C122.533 83.9152 123.866 82.6719 125.452 81.8392L128.252 86.7192Z" fill="url(#paint9_linear-858548)"/>
<path d="M154.342 138.929C154.342 138.929 157.602 98.659 167.412 85.659C177.222 72.659 188.642 80.139 187.992 100.789C187.342 121.439 176.672 157.299 170.262 159.979C163.852 162.659 114.482 159.979 114.482 159.979V142.659C129.092 141.759 145.502 137.919 154.342 138.929Z" fill="url(#paint10_linear-019943)"/>
<path d="M150.982 157.269L119.642 155.029L120.092 160.849H156.182V160.779C155.701 159.788 154.967 158.942 154.054 158.326C153.141 157.709 152.081 157.345 150.982 157.269V157.269Z" fill="url(#paint11_linear-144886)"/>
<path d="M122.042 160.849H49.042C47.174 160.847 45.3585 160.23 43.8763 159.093C42.3941 157.956 41.3277 156.363 40.842 154.559L27.922 106.289C27.8632 106.057 27.833 105.819 27.832 105.579C27.8502 104.914 28.1266 104.282 28.6026 103.817C29.0786 103.353 29.7168 103.091 30.382 103.089H102.452C103.633 103.091 104.781 103.485 105.715 104.209C106.648 104.932 107.316 105.946 107.612 107.089L122.042 160.849Z" fill="url(#paint12_linear-446067)"/>
<path d="M118.882 160.849H49.0721C47.204 160.847 45.3885 160.23 43.9063 159.093C42.4241 157.956 41.3578 156.363 40.8721 154.559L27.9521 106.289C27.8933 106.057 27.863 105.819 27.8621 105.579H101.942C102.557 105.58 103.155 105.783 103.643 106.157C104.131 106.531 104.482 107.055 104.642 107.649L118.882 160.849Z" fill="url(#paint13_linear-912664)"/>
<path d="M72.2853 140.201C74.7836 139.631 76.1891 136.453 75.4245 133.104C74.66 129.755 72.0148 127.503 69.5165 128.073C67.0182 128.643 65.6127 131.821 66.3773 135.17C67.1419 138.519 69.787 140.771 72.2853 140.201Z" fill="white"/>
<path d="M48.4422 74.1892C43.6058 74.8467 38.996 76.6486 34.9958 79.4453C30.9956 82.2419 27.7204 85.9526 25.4422 90.2692C24.0522 86.8292 23.1021 84.2692 22.9121 83.4792C22.2021 80.3892 22.4421 76.3592 28.3821 71.1292C31.2721 68.5892 35.5521 67.5792 38.4821 66.7292C39.4821 66.4392 40.3521 66.1692 41.0521 65.9392C41.6837 65.7364 42.3655 65.7546 42.9853 65.9909C43.605 66.2271 44.1259 66.6674 44.4621 67.2392C45.3921 68.8992 46.8022 71.3192 48.4422 74.1892Z" fill="url(#paint14_linear-930034)"/>
<defs>
<linearGradient id="paint0_linear-331969" x1="169.532" y1="194.899" x2="204.462" y2="24.2892" gradientUnits="userSpaceOnUse">
<stop stop-color="#3872D1"/>
<stop offset="1" stop-color="#81D8FF"/>
</linearGradient>
<linearGradient id="paint1_linear-455150" x1="194.792" y1="184.369" x2="180.642" y2="83.3291" gradientUnits="userSpaceOnUse">
<stop stop-color="#5AA2E7"/>
<stop offset="1" stop-color="#81D8FF"/>
</linearGradient>
<linearGradient id="paint2_linear-423893" x1="24.3421" y1="86.7389" x2="18.6121" y2="45.7789" gradientUnits="userSpaceOnUse">
<stop stop-color="#FFA290"/>
<stop offset="1" stop-color="#FECBA6"/>
</linearGradient>
<linearGradient id="paint3_linear-059494" x1="140.652" y1="191.189" x2="101.682" y2="76.659" gradientUnits="userSpaceOnUse">
<stop stop-color="#F7B345"/>
<stop offset="1" stop-color="#FEDB58"/>
</linearGradient>
<linearGradient id="paint4_linear-044844" x1="142.792" y1="43.609" x2="130.912" y2="128.199" gradientUnits="userSpaceOnUse">
<stop stop-color="#BBD6FE"/>
<stop offset="0.08" stop-color="#C2DAFE"/>
<stop offset="0.45" stop-color="#DFECFE"/>
<stop offset="0.77" stop-color="#F1F6FE"/>
<stop offset="1" stop-color="#F7FAFE"/>
</linearGradient>
<linearGradient id="paint5_linear-901406" x1="126.102" y1="43.6789" x2="117.782" y2="0.668959" gradientUnits="userSpaceOnUse">
<stop stop-color="#EB5896"/>
<stop offset="1" stop-color="#F988B7"/>
</linearGradient>
<linearGradient id="paint6_linear-943251" x1="8627.42" y1="13812.5" x2="8983.9" y2="14768.2" gradientUnits="userSpaceOnUse">
<stop stop-color="#FFA290"/>
<stop offset="1" stop-color="#FECBA6"/>
</linearGradient>
<linearGradient id="paint7_linear-341438" x1="14474.4" y1="12882.4" x2="13689.9" y2="12525.5" gradientUnits="userSpaceOnUse">
<stop stop-color="#FFA290"/>
<stop offset="1" stop-color="#FECBA6"/>
</linearGradient>
<linearGradient id="paint8_linear-680447" x1="139.653" y1="95.4027" x2="139.175" y2="64.8508" gradientUnits="userSpaceOnUse">
<stop stop-color="#EBEEFC"/>
<stop offset="1" stop-color="white"/>
</linearGradient>
<linearGradient id="paint9_linear-858548" x1="3307.59" y1="7046.51" x2="3085.91" y2="6466.73" gradientUnits="userSpaceOnUse">
<stop stop-color="#EBEEFC"/>
<stop offset="1" stop-color="white"/>
</linearGradient>
<linearGradient id="paint10_linear-019943" x1="31379.3" y1="34874.6" x2="27907" y2="25717.3" gradientUnits="userSpaceOnUse">
<stop stop-color="#F7B345"/>
<stop offset="1" stop-color="#FEDB58"/>
</linearGradient>
<linearGradient id="paint11_linear-144886" x1="103.712" y1="156.979" x2="169.832" y2="160.899" gradientUnits="userSpaceOnUse">
<stop stop-color="#9AC2FE"/>
<stop offset="1" stop-color="#FEFEFE"/>
</linearGradient>
<linearGradient id="paint12_linear-446067" x1="81.812" y1="182.319" x2="71.302" y2="107.259" gradientUnits="userSpaceOnUse">
<stop stop-color="#79A4EA"/>
<stop offset="1" stop-color="#C6DDFE"/>
</linearGradient>
<linearGradient id="paint13_linear-912664" x1="30038.1" y1="22392.7" x2="29910.4" y2="17475.1" gradientUnits="userSpaceOnUse">
<stop stop-color="#BBD6FE"/>
<stop offset="0.08" stop-color="#C2DAFE"/>
<stop offset="0.45" stop-color="#DFECFE"/>
<stop offset="0.77" stop-color="#F1F6FE"/>
<stop offset="1" stop-color="#F7FAFE"/>
</linearGradient>
<linearGradient id="paint14_linear-930034" x1="7582.57" y1="8308.72" x2="7505.64" y2="7730.59" gradientUnits="userSpaceOnUse">
<stop stop-color="#BBD6FE"/>
<stop offset="0.08" stop-color="#C2DAFE"/>
<stop offset="0.45" stop-color="#DFECFE"/>
<stop offset="0.77" stop-color="#F1F6FE"/>
<stop offset="1" stop-color="#F7FAFE"/>
</linearGradient>
</defs>
</svg>