<svg width="200" height="311" viewBox="0 0 200 311" fill="none" xmlns="http://www.w3.org/2000/svg">
<path d="M182.799 1.60777L139.23 33.3561C138.011 34.2441 137.743 35.9517 138.631 37.1702L149.973 52.7361C150.861 53.9546 152.569 54.2227 153.788 53.3347L197.357 21.5864C198.576 20.6984 198.844 18.9908 197.956 17.7722L186.613 2.2064C185.726 0.987853 184.018 0.719845 182.799 1.60777Z" fill="url(#paint0_linear-520641)"/>
<path d="M149.925 39.7532C150.625 40.7032 150.335 41.8132 149.195 42.6432L148.335 43.2732L149.185 44.4532L148.185 45.1732L145.085 40.8932L146.935 39.5432C148.085 38.7132 149.235 38.7932 149.925 39.7532ZM148.925 40.4732C148.585 40.0032 148.075 39.9532 147.475 40.3932L146.665 40.9732L147.745 42.4632L148.555 41.8832C149.155 41.4432 149.265 40.9432 148.925 40.4732Z" fill="#0BC3E4"/>
<path d="M154.745 38.3132L152.256 40.1432C152.453 40.3129 152.705 40.4062 152.965 40.4062C153.226 40.4062 153.478 40.3129 153.675 40.1432C153.832 40.039 153.965 39.9034 154.067 39.7451C154.169 39.5867 154.236 39.409 154.266 39.2232L155.175 39.4032C155.099 39.8386 154.901 40.2438 154.606 40.5729C154.311 40.9021 153.93 41.1422 153.505 41.266C153.081 41.3897 152.63 41.3923 152.204 41.2735C151.779 41.1546 151.394 40.9189 151.095 40.5932C150.923 40.3651 150.8 40.1039 150.733 39.826C150.666 39.548 150.657 39.2593 150.707 38.9777C150.757 38.6962 150.864 38.428 151.022 38.1898C151.18 37.9516 151.385 37.7485 151.625 37.5932C151.844 37.4146 152.098 37.2843 152.37 37.2108C152.642 37.1373 152.927 37.1222 153.206 37.1666C153.485 37.211 153.751 37.3139 153.987 37.4684C154.223 37.6229 154.423 37.8256 154.576 38.0632C154.626 38.1432 154.685 38.2332 154.745 38.3132ZM151.875 39.5732L153.495 38.4032C153.336 38.2003 153.104 38.067 152.848 38.0311C152.593 37.9952 152.333 38.0596 152.124 38.2107C151.915 38.3618 151.772 38.588 151.726 38.842C151.679 39.0959 151.733 39.3579 151.875 39.5732V39.5732Z" fill="#0BC3E4"/>
<path d="M156.015 34.4032L156.645 35.2832L156.425 35.4232C156.296 35.5002 156.186 35.6054 156.103 35.7308C156.021 35.8562 155.967 35.9987 155.947 36.1476C155.927 36.2966 155.94 36.4481 155.987 36.591C156.033 36.734 156.111 36.8646 156.215 36.9732L157.345 38.5232L156.345 39.2232L153.955 35.9332L154.865 35.2732L155.185 35.7032C155.204 35.4344 155.29 35.1745 155.435 34.9473C155.58 34.7202 155.779 34.5331 156.015 34.4032Z" fill="#0BC3E4"/>
<path d="M157.735 33.3332L158.585 32.7232L159.115 33.4532L158.295 34.0532L160.095 36.5332L159.095 37.2232L157.295 34.7432L156.875 35.1432L156.345 34.4032L156.845 34.0332L156.745 33.8932C156.611 33.7341 156.513 33.5473 156.459 33.3461C156.404 33.1449 156.395 32.9343 156.431 32.7291C156.468 32.5239 156.549 32.3292 156.669 32.1588C156.789 31.9884 156.945 31.8465 157.125 31.7432C157.375 31.5512 157.672 31.4303 157.985 31.3932L158.235 32.2632C158.065 32.2708 157.901 32.3301 157.765 32.4332C157.699 32.4726 157.643 32.5268 157.602 32.5914C157.56 32.6561 157.534 32.7295 157.525 32.8059C157.516 32.8824 157.525 32.9598 157.551 33.0322C157.577 33.1045 157.62 33.1699 157.675 33.2232L157.735 33.3332Z" fill="#0BC3E4"/>
<path d="M159.875 34.1432C159.577 33.6618 159.472 33.0852 159.581 32.5293C159.691 31.9735 160.007 31.4798 160.465 31.1477C160.924 30.8155 161.492 30.6696 162.054 30.7393C162.616 30.809 163.131 31.0891 163.495 31.5232C163.794 32.0046 163.899 32.5812 163.79 33.137C163.68 33.6929 163.364 34.1865 162.905 34.5187C162.446 34.8508 161.879 34.9968 161.316 34.9271C160.754 34.8574 160.239 34.5773 159.875 34.1432V34.1432ZM162.525 32.2232C162.455 32.0955 162.358 31.9847 162.24 31.8985C162.123 31.8123 161.988 31.7529 161.845 31.7243C161.702 31.6957 161.555 31.6987 161.413 31.7331C161.272 31.7674 161.139 31.8323 161.025 31.9232C160.831 32.0414 160.677 32.2155 160.583 32.4227C160.489 32.63 160.46 32.8608 160.499 33.0849C160.539 33.3089 160.645 33.5159 160.804 33.6786C160.963 33.8413 161.168 33.9523 161.391 33.9969C161.614 34.0415 161.845 34.0177 162.055 33.9287C162.264 33.8396 162.442 33.6895 162.564 33.4978C162.687 33.3061 162.749 33.0819 162.742 32.8545C162.735 32.6271 162.659 32.4071 162.525 32.2232Z" fill="#0BC3E4"/>
<path d="M164.965 27.8932L165.605 28.7732L165.385 28.9132C165.255 28.99 165.143 29.0955 165.059 29.2218C164.975 29.3481 164.921 29.4918 164.901 29.6421C164.88 29.7924 164.895 29.9453 164.942 30.0893C164.99 30.2333 165.07 30.3646 165.175 30.4732L166.305 32.0232L165.355 32.7132L162.965 29.4232L163.875 28.7632L164.185 29.1932C164.205 28.9307 164.286 28.6765 164.421 28.4508C164.557 28.2251 164.743 28.0342 164.965 27.8932V27.8932Z" fill="#0BC3E4"/>
<path d="M172.145 24.9032L173.515 26.7832L172.565 27.4732L171.305 25.7432C170.915 25.2132 170.495 25.1432 170.115 25.4132C170.006 25.49 169.916 25.59 169.85 25.7061C169.784 25.8222 169.745 25.9514 169.736 26.0845C169.726 26.2175 169.746 26.351 169.795 26.4753C169.843 26.5996 169.918 26.7116 170.015 26.8032L171.215 28.4532L170.215 29.1532L168.955 27.4132C168.575 26.8832 168.165 26.8032 167.775 27.0932C167.385 27.3832 167.245 27.8932 167.675 28.4732L168.875 30.1432L167.875 30.8432L165.495 27.5532L166.405 26.8932L166.675 27.2732C166.702 27.0347 166.781 26.8051 166.908 26.6011C167.034 26.397 167.204 26.2235 167.405 26.0932C167.607 25.9269 167.849 25.8164 168.107 25.7726C168.365 25.7287 168.63 25.7531 168.875 25.8432C168.893 25.5652 168.973 25.2948 169.109 25.0523C169.246 24.8098 169.436 24.6015 169.665 24.4432C169.845 24.2761 170.061 24.1535 170.296 24.085C170.532 24.0166 170.78 24.0042 171.021 24.0489C171.262 24.0936 171.489 24.1942 171.685 24.3425C171.88 24.4909 172.038 24.6829 172.145 24.9032V24.9032Z" fill="#0BC3E4"/>
<path d="M175.875 22.1432L177.235 24.0232L176.345 24.6732L176.045 24.2632C176.026 24.5574 175.924 24.8401 175.752 25.0795C175.58 25.3189 175.344 25.5053 175.071 25.6176C174.799 25.73 174.5 25.7638 174.209 25.7153C173.918 25.6668 173.647 25.5379 173.425 25.3432C173.005 24.7632 173.125 24.0632 174.125 23.3432L174.885 22.7932C174.585 22.3832 174.165 22.3232 173.655 22.6932C173.312 22.9409 173.057 23.291 172.925 23.6932L172.105 23.2732C172.328 22.6928 172.722 22.194 173.235 21.8432C173.414 21.6594 173.633 21.519 173.875 21.4328C174.116 21.3465 174.374 21.3167 174.629 21.3457C174.884 21.3747 175.129 21.4616 175.345 21.5998C175.561 21.7381 175.742 21.9239 175.875 22.1432V22.1432ZM175.535 23.6732L175.285 23.3432L174.635 23.8132C174.185 24.1332 174.165 24.4032 174.325 24.6232C174.485 24.8432 174.815 24.8732 175.155 24.6232C175.312 24.5316 175.436 24.3942 175.511 24.2296C175.586 24.0649 175.609 23.8811 175.575 23.7032L175.535 23.6732Z" fill="#0BC3E4"/>
<path d="M180.135 19.1432L181.505 21.0232L180.505 21.7232L179.245 19.9831C178.865 19.4531 178.435 19.3832 178.015 19.6932C177.899 19.7705 177.802 19.8727 177.73 19.9924C177.659 20.112 177.615 20.2461 177.601 20.3849C177.588 20.5237 177.605 20.6638 177.653 20.7949C177.7 20.9261 177.776 21.045 177.875 21.1432L179.055 22.7732L178.055 23.4632L175.755 20.1432L176.665 19.4732L176.945 19.8632C176.978 19.6164 177.064 19.3796 177.197 19.1691C177.33 18.9585 177.507 18.7791 177.715 18.6432C177.899 18.4931 178.113 18.3858 178.343 18.3292C178.573 18.2727 178.813 18.2682 179.045 18.3161C179.277 18.364 179.495 18.4631 179.684 18.6062C179.872 18.7493 180.027 18.9328 180.135 19.1432V19.1432Z" fill="#0BC3E4"/>
<path d="M180.965 18.8632C180.798 18.6302 180.68 18.3652 180.619 18.0846C180.558 17.8041 180.556 17.514 180.612 17.2326C180.669 16.9511 180.782 16.6843 180.946 16.4487C181.11 16.2131 181.321 16.0138 181.565 15.8632C181.849 15.6206 182.199 15.4689 182.57 15.4279C182.941 15.3869 183.316 15.4584 183.645 15.6332L183.195 16.5632C183.027 16.4749 182.837 16.4364 182.647 16.4524C182.458 16.4683 182.277 16.538 182.125 16.6532C181.917 16.8396 181.785 17.0968 181.755 17.3751C181.725 17.6533 181.799 17.9327 181.964 18.1592C182.128 18.3857 182.37 18.5431 182.644 18.6012C182.918 18.6592 183.203 18.6136 183.445 18.4732C183.604 18.3645 183.728 18.2124 183.803 18.0351C183.877 17.8577 183.899 17.6626 183.865 17.4732L184.865 17.3432C184.922 17.7102 184.87 18.0858 184.715 18.4235C184.56 18.7612 184.31 19.0462 183.995 19.2432C183.775 19.425 183.519 19.5599 183.245 19.6395C182.97 19.7191 182.682 19.7419 182.398 19.7063C182.115 19.6707 181.841 19.5776 181.595 19.4326C181.348 19.2876 181.134 19.0939 180.965 18.8632V18.8632Z" fill="#0BC3E4"/>
<path d="M188.176 14.0432L185.686 15.8532C185.882 16.0248 186.134 16.1194 186.396 16.1194C186.657 16.1194 186.909 16.0248 187.106 15.8532C187.262 15.749 187.395 15.6134 187.497 15.4551C187.599 15.2967 187.666 15.119 187.696 14.9332L188.606 15.1232C188.524 15.5556 188.324 15.9568 188.028 16.2824C187.732 16.6079 187.351 16.845 186.928 16.9672C186.505 17.0895 186.057 17.0922 185.633 16.9749C185.209 16.8577 184.825 16.6252 184.526 16.3032C184.352 16.0756 184.227 15.8145 184.159 15.5363C184.092 15.2581 184.083 14.9689 184.132 14.6869C184.182 14.405 184.29 14.1364 184.449 13.8983C184.608 13.6601 184.814 13.4575 185.056 13.3032C185.273 13.1242 185.527 12.9932 185.798 12.9189C186.07 12.8447 186.355 12.8287 186.634 12.8721C186.912 12.9156 187.178 13.0174 187.415 13.171C187.651 13.3246 187.853 13.5264 188.006 13.7632L188.176 14.0432ZM185.266 15.3032L186.876 14.1432C186.719 13.9284 186.484 13.7845 186.221 13.7432C185.959 13.702 185.69 13.7667 185.476 13.9232C185.261 14.0797 185.117 14.3151 185.076 14.5776C185.034 14.8402 185.099 15.1084 185.256 15.3232L185.266 15.3032Z" fill="#0BC3E4"/>
<path d="M9.27539 266.283L14.0654 259.713L25.9154 269.683L20.0854 275.823L9.27539 266.283Z" fill="url(#paint1_linear-820575)"/>
<path d="M87.4153 167.613C87.4153 167.613 73.8053 210.523 70.7253 216.713C67.6453 222.903 26.7753 272.713 26.7753 272.713C24.5932 272.204 22.5292 271.281 20.6953 269.993C16.3653 267.213 11.9953 263.113 11.8153 261.363C11.5153 258.703 16.7053 251.793 24.2153 234.993C29.1965 224.161 35.204 213.83 42.1553 204.143L50.2353 173.733C50.0753 157.623 53.6053 147.303 53.6053 147.303L73.6053 139.853L78.4053 149.473L87.4153 167.613Z" fill="url(#paint2_linear-648801)"/>
<g style="mix-blend-mode:multiply" opacity="0.35">
<path d="M87.4156 167.613C87.4156 167.613 73.8056 210.523 70.7256 216.713C67.6456 222.903 26.7755 272.713 26.7755 272.713C24.5934 272.204 22.5294 271.281 20.6956 269.993C28.5756 242.603 52.8056 237.583 55.6956 224.203C58.6956 210.133 59.9356 206.823 69.5856 192.083C79.2356 177.343 72.0656 154.993 72.0656 154.993L75.8755 147.143L78.3956 149.433L87.4156 167.613Z" fill="#5C98E3"/>
</g>
<path d="M57.4456 252.583C57.4456 252.583 49.9855 256.493 48.1855 263.933C49.782 267.766 52.3792 271.099 55.7056 273.583L58.0056 272.913C58.5571 274.463 59.3912 275.897 60.4655 277.143C62.2655 279.243 73.1555 286.143 77.3055 285.933C81.4555 285.723 78.1055 280.713 78.1055 280.713C78.1055 280.713 75.0155 278.523 72.7655 272.713C70.5155 266.903 69.0855 259.563 68.5255 258.053L57.4456 252.583Z" fill="url(#paint3_linear-288750)"/>
<path d="M106.575 142.723C106.575 142.723 128.915 189.953 128.085 195.663C127.255 201.373 121.855 210.663 110.445 222.213C99.0354 233.763 72.2854 261.363 72.2854 261.363C70.5828 261.344 68.8945 261.05 67.2854 260.493C66.4562 260.206 65.6504 259.855 64.8754 259.443C61.1354 257.443 56.8754 253.443 56.5254 249.823C56.1754 246.203 67.6554 234.503 76.9054 220.503C82.3625 212.159 88.975 204.631 96.5454 198.143L81.5454 177.423C73.8373 172.141 68.1338 164.415 65.3554 155.493L67.4654 140.493L97.4054 142.213L106.575 142.723Z" fill="url(#paint4_linear-260236)"/>
<g style="mix-blend-mode:multiply" opacity="0.35">
<path d="M106.575 142.723C106.575 142.723 128.915 189.953 128.085 195.663C127.255 201.373 121.855 210.663 110.445 222.213C99.0354 233.763 72.2854 261.363 72.2854 261.363C70.5828 261.344 68.8945 261.05 67.2854 260.493C70.6754 257.723 74.2154 254.063 76.0054 249.923C80.0054 240.573 85.0054 229.573 104.575 216.373C124.145 203.173 122.575 191.733 108.515 176.723C94.4554 161.713 87.4454 148.873 87.4454 148.873L97.4454 142.193L106.575 142.723Z" fill="#5C98E3"/>
</g>
<path d="M21.6955 276.473L21.1154 277.353C21.1354 282.314 20.6901 287.266 19.7854 292.143C18.8116 296.56 18.8116 301.136 19.7854 305.553C19.8454 306.273 18.8454 307.613 17.6254 308.743C16.717 309.724 15.5425 310.419 14.2454 310.743C12.3954 310.843 7.35545 307.543 4.50545 300.083C1.65545 292.623 2.97545 284.013 2.97545 284.013C2.13692 281.372 1.49844 278.671 1.06545 275.933C0.914382 274.929 0.993015 273.903 1.29544 272.933C1.69544 271.833 2.59545 270.783 4.36545 269.333L8.76544 265.753C9.03669 265.537 9.35105 265.382 9.6874 265.297C10.0237 265.213 10.3743 265.201 10.7154 265.263C13.3051 265.723 15.7175 266.888 17.6868 268.632C19.656 270.375 21.1055 272.628 21.8754 275.143C21.9456 275.364 21.9658 275.598 21.9347 275.828C21.9036 276.058 21.8219 276.279 21.6955 276.473V276.473Z" fill="url(#paint5_linear-578623)"/>
<g style="mix-blend-mode:multiply" opacity="0.32">
<path d="M13.6055 289.653C14.4255 297.873 15.7555 303.013 17.3855 306.783C17.6762 307.407 17.7737 308.104 17.6655 308.783C16.7571 309.764 15.5825 310.459 14.2855 310.783C12.4355 310.883 7.39548 307.583 4.54548 300.123C1.69548 292.663 3.01549 284.053 3.01549 284.053C2.17695 281.412 1.53848 278.711 1.10548 275.973C0.954417 274.969 1.03307 273.943 1.33549 272.973V272.973C1.54549 272.793 5.03548 269.883 9.18548 273.483C13.4955 277.143 12.7955 281.433 13.6055 289.653Z" fill="#37A07F"/>
</g>
<path d="M107.936 109.693C109.797 114.541 112.281 119.126 115.326 123.333C120.406 130.333 121.476 138.033 122.186 138.923C122.896 139.813 131.106 142.663 131.726 142.493C132.346 142.323 133.416 134.223 133.156 133.323C132.896 132.423 131.376 127.323 124.686 121.193C117.556 114.683 114.436 109.783 113.456 105.503L107.936 109.693Z" fill="url(#paint6_linear-082419)"/>
<path d="M76.8754 78.5731C76.8754 78.5731 71.5953 78.2731 66.6053 84.0231C61.6153 89.7731 50.2654 103.433 49.1454 106.753C48.0254 110.073 47.3554 116.493 49.4354 119.823C51.5154 123.153 60.8754 126.893 60.8754 126.893L76.8754 78.5731Z" fill="url(#paint7_linear-158679)"/>
<path d="M139.436 69.9132C139.436 69.9132 149.996 58.5932 153.376 53.4732C153.376 53.4732 153.466 50.4732 153.736 47.9932C154.006 45.5132 156.986 40.5932 158.016 40.8132C159.046 41.0332 157.786 46.2932 157.786 46.2932L158.416 49.9532C158.416 49.9532 169.816 42.0032 171.156 40.8032C172.496 39.6032 173.296 43.2232 171.426 47.8032C169.556 52.3832 166.926 57.5232 160.996 58.8032C160.996 58.8032 157.996 65.1932 155.046 73.4532C152.096 81.7132 149.876 84.7132 149.876 84.7132L139.436 69.9132Z" fill="url(#paint8_linear-470851)"/>
<path d="M151.055 83.2332C151.055 83.2332 146.425 93.4432 137.875 97.3732C129.325 101.303 111.015 109.843 111.015 109.843C111.013 109.887 111.013 109.93 111.015 109.973C110.965 110.103 110.885 110.303 110.795 110.573C110.795 110.673 110.715 110.793 110.675 110.913C108.62 117.068 108.004 123.613 108.875 130.043C110.535 140.973 108.395 146.203 108.395 146.203C108.395 146.203 102.575 142.633 86.5354 151.663C73.1054 159.223 59.2654 154.463 54.4854 151.093C53.783 150.689 53.1999 150.106 52.7954 149.403C51.7254 146.673 55.9954 134.323 59.7954 118.873C63.5954 103.423 71.6154 81.0932 74.1653 79.4532C76.7153 77.8132 85.8754 77.9432 85.8754 77.9432C92.625 77.4791 99.3219 79.4127 104.785 83.4032C112.265 84.4732 131.695 79.4532 131.695 79.4532L137.605 72.1832L151.055 83.2332Z" fill="url(#paint9_linear-751528)"/>
<path d="M112.056 64.0632C112.056 64.0632 113.186 70.7732 112.156 75.8832C111.516 79.0332 105.956 79.0732 105.956 79.0732L103.406 82.3232L90.1455 78.3232L92.2055 73.9932L105.876 55.2432L110.876 52.1632L112.486 61.0032L112.056 64.0632Z" fill="url(#paint10_linear-465874)"/>
<path d="M116.306 50.8432C115.556 49.9932 113.756 52.1632 113.756 52.1632C113.756 52.1632 115.756 48.7932 114.976 46.8732C114.196 44.9532 112.926 45.3132 110.076 46.6032C109.049 47.0455 107.965 47.3384 106.856 47.4732C103.978 47.6427 101.093 47.6427 98.2155 47.4732C94.9155 47.1332 91.7655 47.0232 89.4855 50.5232C87.2055 54.0232 88.7855 56.3932 88.7855 56.3932C87.6694 56.8493 86.7648 57.7072 86.2502 58.7976C85.7356 59.888 85.6483 61.1316 86.0055 62.2832C86.8859 65.4552 88.3362 68.4405 90.2855 71.0932C90.3222 72.7316 90.8214 74.3263 91.7255 75.6932C93.1655 77.6932 99.6355 78.6232 103.306 77.1832C106.976 75.7432 107.396 69.3032 107.396 69.3032C103.306 68.9932 103.846 62.7532 105.836 62.6632C107.826 62.5732 108.286 66.4832 108.286 66.4832C110.136 65.6032 109.006 63.1032 109.006 63.1032C110.726 62.5332 111.146 60.0232 111.376 58.2632C111.852 60.1419 112.081 62.075 112.056 64.0132C113.906 61.6032 113.276 57.8732 113.276 57.8732C116.086 56.9432 117.066 51.6832 116.306 50.8432Z" fill="url(#paint11_linear-914151)"/>
<path d="M105.415 84.0232L106.205 79.7532C106.205 79.7532 100.845 75.0432 89.4055 74.8932L85.8755 77.9432C85.8755 77.9432 99.8755 80.9632 105.415 84.0232Z" fill="url(#paint12_linear-475209)"/>
<path d="M139.436 69.9132C137.345 71.6106 135.64 73.7345 134.436 76.1432C137.621 78.2132 140.599 80.5876 143.326 83.2332C147.326 87.2332 148.456 90.3132 148.456 90.3132C148.456 90.3132 153.176 83.9932 152.996 81.6232C152.816 79.2532 146.696 71.6432 139.436 69.9132Z" fill="url(#paint13_linear-903447)"/>
<g style="mix-blend-mode:multiply" opacity="0.35">
<path d="M108.875 130.043C110.535 140.973 108.395 146.203 108.395 146.203C108.395 146.203 102.575 142.633 86.5354 151.663C73.1054 159.223 59.2654 154.463 54.4854 151.093C68.6654 153.673 73.2553 137.993 87.2453 135.503C101.235 133.013 108.815 115.503 110.605 110.943C108.578 117.094 107.986 123.628 108.875 130.043V130.043Z" fill="#D53468"/>
</g>
<defs>
<linearGradient id="paint0_linear-520641" x1="20836.8" y1="4788.52" x2="20635" y2="4130.24" gradientUnits="userSpaceOnUse">
<stop stop-color="#BBD6FE"/>
<stop offset="0.08" stop-color="#C2DAFE"/>
<stop offset="0.45" stop-color="#DFECFE"/>
<stop offset="0.77" stop-color="#F1F6FE"/>
<stop offset="1" stop-color="#F7FAFE"/>
</linearGradient>
<linearGradient id="paint1_linear-820575" x1="12.1051" y1="262.214" x2="22.307" y2="272.88" gradientUnits="userSpaceOnUse">
<stop stop-color="#FF8F8E"/>
<stop offset="1" stop-color="#FECBA6"/>
</linearGradient>
<linearGradient id="paint2_linear-648801" x1="65.2153" y1="213.867" x2="26.3724" y2="194.865" gradientUnits="userSpaceOnUse">
<stop stop-color="#567FE3"/>
<stop offset="1" stop-color="#81D8FF"/>
</linearGradient>
<linearGradient id="paint3_linear-288750" x1="53.4552" y1="275.693" x2="72.5764" y2="267.06" gradientUnits="userSpaceOnUse">
<stop stop-color="#15A6AB"/>
<stop offset="1" stop-color="#7EE9B8"/>
</linearGradient>
<linearGradient id="paint4_linear-260236" x1="35413.6" y1="34800.9" x2="29933.1" y2="35038.8" gradientUnits="userSpaceOnUse">
<stop stop-color="#567FE3"/>
<stop offset="1" stop-color="#81D8FF"/>
</linearGradient>
<linearGradient id="paint5_linear-578623" x1="6775.3" y1="18397.3" x2="7240.9" y2="18287" gradientUnits="userSpaceOnUse">
<stop stop-color="#15A6AB"/>
<stop offset="1" stop-color="#7EE9B8"/>
</linearGradient>
<linearGradient id="paint6_linear-082419" x1="7199.42" y1="10536.9" x2="7826.99" y2="10477" gradientUnits="userSpaceOnUse">
<stop stop-color="#F7B345"/>
<stop offset="1" stop-color="#FEDB58"/>
</linearGradient>
<linearGradient id="paint7_linear-158679" x1="79.3054" y1="114.283" x2="47.4653" y2="84.8231" gradientUnits="userSpaceOnUse">
<stop stop-color="#EB5896"/>
<stop offset="1" stop-color="#F988B7"/>
</linearGradient>
<linearGradient id="paint8_linear-470851" x1="10482.4" y1="9685.63" x2="11577.4" y2="9685.63" gradientUnits="userSpaceOnUse">
<stop stop-color="#FF8F8E"/>
<stop offset="1" stop-color="#FECBA6"/>
</linearGradient>
<linearGradient id="paint9_linear-751528" x1="28293.4" y1="24654.6" x2="25419.9" y2="18327" gradientUnits="userSpaceOnUse">
<stop stop-color="#EB5896"/>
<stop offset="1" stop-color="#F988B7"/>
</linearGradient>
<linearGradient id="paint10_linear-465874" x1="8841.17" y1="4085.56" x2="9086.16" y2="4022.79" gradientUnits="userSpaceOnUse">
<stop stop-color="#FF8F8E"/>
<stop offset="1" stop-color="#FECBA6"/>
</linearGradient>
<linearGradient id="paint11_linear-914151" x1="107.026" y1="71.2532" x2="96.9055" y2="45.9132" gradientUnits="userSpaceOnUse">
<stop offset="0.01" stop-color="#5265F7"/>
<stop offset="0.41" stop-color="#7674F5"/>
<stop offset="1" stop-color="#B18DF3"/>
</linearGradient>
<linearGradient id="paint12_linear-475209" x1="95.3973" y1="82.7384" x2="96.6709" y2="75.2071" gradientUnits="userSpaceOnUse">
<stop stop-color="#BBD6FE"/>
<stop offset="1" stop-color="#FEFEFE"/>
</linearGradient>
<linearGradient id="paint13_linear-903447" x1="5945.29" y1="4992.23" x2="6116.08" y2="4760.72" gradientUnits="userSpaceOnUse">
<stop stop-color="#BBD6FE"/>
<stop offset="1" stop-color="#FEFEFE"/>
</linearGradient>
</defs>
</svg>