<svg width="99" height="228" viewBox="0 0 99 228" fill="none" xmlns="http://www.w3.org/2000/svg">
<path d="M78.5554 41.6288L80.3154 38.9488C80.3154 38.9488 81.9854 32.1288 83.5454 29.4988C85.1054 26.8688 86.1754 28.8188 86.0954 29.7788C85.7671 31.7313 85.5534 33.7013 85.4554 35.6788C85.4554 35.6788 92.7554 32.6788 95.0654 29.8988C97.3754 27.1188 98.4154 27.4288 98.5754 28.7788C98.7354 30.1288 99.2954 36.1188 98.0954 39.0288C96.8954 41.9388 88.4454 44.2588 88.4454 44.2588L86.3754 47.1288L78.5554 41.6288Z" fill="url(#paint0_linear-865801)"/>
<path d="M86.7153 47.4888C86.7153 49.1688 86.1053 49.6188 85.4153 50.7988C82.4153 55.8588 77.6453 64.6488 74.9453 68.5088C73.4653 70.6188 71.3253 72.7188 68.7553 73.3288C66.3698 73.7382 63.9158 73.3701 61.7553 72.2788C56.7553 70.1388 41.7053 57.8088 41.7053 57.8088C42.5653 41.5288 43.3553 35.0288 43.3553 35.0288C51.0753 36.6588 59.9253 48.3188 66.9453 56.6988L75.8153 43.5588L75.8953 43.4388L78.0053 40.3188C78.8245 40.6271 79.6257 40.981 80.4053 41.3788C84.2553 43.1288 86.7153 46.1088 86.7153 47.4888Z" fill="url(#paint1_linear-254514)"/>
<g style="mix-blend-mode:screen" opacity="0.39">
<path d="M86.7152 47.4886C86.7152 49.1686 86.1052 49.6186 85.4152 50.7986C83.0622 47.4409 79.7044 44.9164 75.8252 43.5886L75.9052 43.4686L78.0152 40.3486C78.8343 40.6569 79.6356 41.0108 80.4152 41.4086C84.2552 43.1286 86.7152 46.1086 86.7152 47.4886Z" fill="white"/>
</g>
<path d="M24.6153 221.829C24.6153 221.829 20.6953 218.829 20.3253 216.339C20.0997 215.089 20.0392 213.815 20.1453 212.549L5.69533 211.999C5.69533 211.999 3.95532 219.539 3.95532 223.639C3.95532 226.719 5.77533 225.839 13.5853 225.839C21.3953 225.839 24.6153 221.829 24.6153 221.829Z" fill="url(#paint2_linear-014259)"/>
<path d="M26.8052 225.839C26.8052 225.839 25.6152 220.059 21.6152 219.419C20.1009 219.103 18.5251 219.282 17.1205 219.93C15.716 220.578 14.5571 221.661 13.8152 223.019C13.2783 223.93 12.7942 224.872 12.3652 225.839H26.8052Z" fill="url(#paint3_linear-419186)"/>
<path d="M58.6152 213.149C60.1084 215.69 62.3656 217.695 65.0652 218.879C69.6652 220.969 72.9752 222.879 72.0652 224.709C71.1552 226.539 63.1852 227.919 56.8752 226.799C50.5652 225.679 42.9752 226.419 42.0652 225.519C41.1552 224.619 42.8952 214.169 44.3352 211.649L58.6152 213.149Z" fill="url(#paint4_linear-258120)"/>
<path d="M59.2654 207.479L58.5654 213.149C58.5654 213.149 52.1554 215.669 44.2354 211.649L44.8254 201.119L59.2654 207.479Z" fill="url(#paint5_linear-253075)"/>
<path d="M20.7553 207.829L20.1753 212.549C17.8831 213.56 15.3906 214.036 12.8869 213.941C10.3832 213.846 7.93409 213.182 5.72534 211.999L6.31534 201.459L20.7553 207.829Z" fill="url(#paint6_linear-189114)"/>
<path d="M43.2054 203.429C42.9954 206.429 44.9554 207.669 49.3354 208.989C49.6354 209.079 49.9454 209.149 50.2654 209.229C54.6454 210.229 61.3754 209.759 61.3754 209.759C61.3754 209.759 67.7954 175.499 69.0754 167.689C70.3554 159.879 71.8954 155.209 70.1454 146.449C67.2654 132.009 52.7154 95.8487 52.7154 95.8487L33.8854 93.3987L32.1154 107.589L29.8154 125.899L46.7154 151.719C46.7154 151.719 45.4354 161.459 45.0054 173.859C44.5754 186.259 43.4154 200.439 43.2054 203.429Z" fill="url(#paint7_linear-785408)"/>
<g style="mix-blend-mode:multiply" opacity="0.35">
<path d="M43.2054 203.429C42.9954 206.429 44.9554 207.669 49.3354 208.989C49.6354 209.079 49.9454 209.149 50.2654 209.229C51.3823 204.214 51.7196 199.056 51.2654 193.939C49.8254 180.239 53.7354 172.939 55.6554 159.489C57.5754 146.039 53.6554 146.659 43.3554 130.189C35.5354 117.639 38.4354 104.059 38.4354 104.059L32.0654 107.589L29.7654 125.899L46.7154 151.719C46.7154 151.719 45.4354 161.459 45.0054 173.859C44.5754 186.259 43.4154 200.439 43.2054 203.429Z" fill="#5C98E3"/>
</g>
<path d="M3.61533 202.199C3.76533 203.639 2.99533 207.199 7.25533 208.459C7.45899 208.52 7.66598 208.57 7.87532 208.609C12.4353 209.609 21.7953 209.099 21.7953 209.099C22.6053 205.099 27.1053 178.169 30.6353 162.289C32.1453 155.489 34.1853 138.419 35.6353 127.719C37.6353 113.429 40.1853 99.6587 40.1853 99.6587L25.1253 96.7687L7.58533 93.3987C5.74533 101.859 7.96534 118.199 7.96534 118.199L9.39533 146.979C7.13502 154.558 5.81841 162.387 5.47533 170.289C4.87533 183.369 3.40533 200.719 3.61533 202.199Z" fill="url(#paint8_linear-596050)"/>
<g style="mix-blend-mode:multiply" opacity="0.35">
<path d="M3.61533 202.199C3.76533 203.639 2.99533 207.199 7.25533 208.459C7.45899 208.52 7.66598 208.571 7.87532 208.609C5.52532 195.059 7.81533 178.509 13.2453 166.229C19.3353 152.429 23.1853 148.229 21.7953 131.099C20.4053 113.969 29.0053 104.099 29.0053 104.099C29.0053 104.099 27.2353 100.809 25.1353 96.8087L7.59532 93.4387C5.75532 101.899 7.97533 118.239 7.97533 118.239L9.40532 147.019C7.14501 154.598 5.8284 162.427 5.48532 170.329C4.87532 183.369 3.40533 200.719 3.61533 202.199Z" fill="#5C98E3"/>
</g>
<path d="M6.36539 95.9889C6.84539 96.7889 8.12539 97.5189 10.0354 98.2289C13.7954 99.6789 19.9454 101.099 26.8854 102.989C27.4954 103.149 28.1054 103.279 28.7254 103.399C38.8154 105.169 50.6254 99.7689 52.5654 96.5289C54.6254 93.0889 53.1754 92.2089 51.0854 83.4289C49.6526 76.651 48.6671 69.7862 48.1354 62.8789C47.4093 58.055 47.1381 53.1735 47.3254 48.2989C47.3854 45.1989 47.3254 42.5789 47.2554 40.5889C47.208 39.2905 46.7539 38.0398 45.9572 37.0134C45.1605 35.987 44.0615 35.2369 42.8154 34.8689C38.9548 33.8132 35.0101 33.0939 31.0254 32.7189C31.0254 32.7189 29.6054 32.2289 20.4954 33.9789C11.3854 35.7289 7.25539 38.0589 7.25539 38.0589C5.40351 42.4861 4.98729 47.3827 6.06539 52.0589C6.19539 52.5389 6.31539 53.0589 6.41539 53.5989C6.93173 56.3347 7.30887 59.0949 7.54538 61.8689C8.23538 69.3289 8.42539 77.8689 8.34539 81.6089C8.31896 82.5572 8.22877 83.5027 8.0754 84.4389C7.2854 89.2789 5.17539 93.9989 6.36539 95.9889Z" fill="url(#paint9_linear-135030)"/>
<g style="mix-blend-mode:multiply" opacity="0.35">
<path d="M6.36535 95.9888C7.77535 98.3688 16.4554 100.139 26.8854 102.989C27.4954 103.149 28.1053 103.279 28.7253 103.399C30.1053 96.5088 30.9553 88.5988 24.2353 81.2788C18.6953 75.2788 19.0253 57.0088 16.6953 50.7988C14.0653 43.7988 9.14535 49.1288 9.14535 49.1288L6.41535 53.6188C8.03535 61.5588 8.41534 76.3088 8.34534 81.6188C8.23534 87.3188 4.94535 93.5988 6.36535 95.9888Z" fill="#D53468"/>
</g>
<path d="M41.6852 17.1187C42.837 16.5032 43.7333 15.4994 44.2149 14.2855C44.6964 13.0716 44.7319 11.7263 44.3152 10.4887C44.3152 10.4887 46.1052 3.10869 43.1252 0.868686C40.1452 -1.37131 36.7152 2.40869 29.6452 1.86869C24.2752 1.47869 21.8652 2.80869 20.2352 4.86869C18.6052 6.92869 19.9152 10.1487 19.9652 10.2687C19.0808 10.7285 18.374 11.469 17.9559 12.374C17.5378 13.279 17.4321 14.2971 17.6552 15.2687C18.4052 18.8987 25.5052 28.1187 25.5052 28.1187L41.6852 17.1187Z" fill="url(#paint10_linear-680908)"/>
<path d="M22.3252 34.0388L32.0352 43.2088L34.1552 44.8188C34.1552 44.8188 35.3752 40.2888 35.2752 38.6388C35.1664 37.2202 34.8497 35.8253 34.3352 34.4988L35.5552 28.6088L25.0152 21.2588C25.0152 21.2588 25.0152 21.5188 24.9452 21.9888C24.9452 21.9888 24.9452 22.0588 24.9452 22.0888C24.5391 26.1604 23.6598 30.1708 22.3252 34.0388V34.0388Z" fill="url(#paint11_linear-590945)"/>
<g style="mix-blend-mode:multiply" opacity="0.45">
<path d="M35.2754 38.6388C35.1666 37.2202 34.8499 35.8253 34.3354 34.4988L35.5554 28.6088L25.0154 21.2588C25.0154 21.4288 24.9654 21.6788 24.9354 21.9788C24.9354 21.9788 24.9354 22.0488 24.9354 22.0788C24.6754 25.4288 24.8254 35.3588 35.2754 38.6388Z" fill="#F2787A"/>
</g>
<path d="M41.6154 11.0388C41.6154 11.0388 42.8654 26.7488 37.7054 31.8888C35.9754 33.6088 29.2154 31.7088 27.3654 29.6288C25.5154 27.5488 24.6154 23.0188 24.6154 23.0188C24.6154 23.0188 22.7554 23.1288 22.2454 19.8888C21.7354 16.6488 25.6254 16.2988 26.2454 20.6888C26.2454 20.6888 27.3254 20.8188 27.4054 17.9888C27.4054 17.9888 30.3354 17.9888 28.9654 13.0988C28.9354 13.0988 36.1754 14.2888 41.6154 11.0388Z" fill="url(#paint12_linear-432390)"/>
<path d="M23.2253 31.3086C23.2253 31.3086 25.3953 39.0786 31.1653 40.8286L34.1653 44.8286L30.9453 43.1986C29.9151 44.033 29.2224 45.2125 28.9953 46.5186C28.9953 46.5186 21.9953 43.5186 21.2053 34.3086C21.2853 33.2986 22.2353 32.3086 23.2253 31.3086Z" fill="url(#paint13_linear-008969)"/>
<path d="M34.1553 44.8187V39.7187C34.1553 39.7187 35.9053 38.0087 34.3353 34.5187L34.6653 32.9287C34.6653 32.9287 36.6653 34.2487 37.7353 37.9287C38.3914 39.8749 38.3914 41.9825 37.7353 43.9287C37.1612 43.1321 36.3843 42.5036 35.4853 42.1087L34.1553 44.8187Z" fill="url(#paint14_linear-114401)"/>
<path d="M66.2654 73.8487L46.5554 75.9887C46.3483 76.0108 46.1387 75.9899 45.9401 75.9271C45.7414 75.8643 45.5578 75.7612 45.401 75.624C45.2441 75.4869 45.1174 75.3188 45.0286 75.1303C44.9399 74.9418 44.8911 74.7369 44.8854 74.5287L44.0254 43.1287C44.0155 42.7509 44.1477 42.383 44.3958 42.0979C44.6439 41.8128 44.9899 41.6311 45.3654 41.5887L65.0754 39.4487C65.2829 39.425 65.493 39.4448 65.6923 39.507C65.8917 39.5692 66.0758 39.6723 66.233 39.8097C66.3902 39.9471 66.517 40.1159 66.6052 40.3051C66.6934 40.4943 66.7412 40.6999 66.7454 40.9087L67.6154 72.3087C67.6228 72.6874 67.4884 73.0553 67.2387 73.3402C66.989 73.625 66.6419 73.8064 66.2654 73.8487V73.8487Z" fill="url(#paint15_linear-643231)"/>
<path d="M31.1953 60.0487L37.5453 58.3987C37.5453 58.3987 39.7553 54.6287 40.7453 53.3087C41.7353 51.9887 47.3553 52.4387 49.2853 52.4987C51.2153 52.5587 52.2153 53.7787 52.7553 55.8087C52.913 56.7902 52.7428 57.7963 52.271 58.6713C51.7992 59.5462 51.052 60.2413 50.1453 60.6487C48.7053 61.1087 44.9053 62.0587 44.9053 62.0587C44.9053 62.0587 43.6453 67.8787 39.2753 67.7887L32.6953 70.7887L31.1953 60.0487Z" fill="url(#paint16_linear-303416)"/>
<path d="M33.0953 72.8488C32.6153 73.0988 31.3953 73.6188 29.7653 74.2788C25.1653 76.1588 17.3153 79.1588 13.9753 80.0888C9.46531 81.3488 2.6153 80.0888 0.815302 77.8488C-0.984698 75.6088 0.625298 63.5288 1.5453 55.6088C2.4653 47.6888 4.29531 38.5088 8.05531 37.7688C11.8153 37.0288 15.8753 43.6988 16.5553 48.2988C17.2353 52.8988 15.2653 62.6488 15.2653 62.6488C17.7953 61.4588 22.4953 61.0588 27.9253 59.9388C29.2753 59.6688 30.6753 59.3488 32.0953 58.9388C32.2398 58.8985 32.391 58.8879 32.5397 58.9076C32.6885 58.9274 32.8317 58.9771 32.9606 59.0537C33.0896 59.1304 33.2017 59.2324 33.2902 59.3536C33.3787 59.4747 33.4416 59.6126 33.4753 59.7588C33.6253 60.4888 33.9253 61.6588 34.4753 63.4788C35.7153 67.5888 34.9453 71.9088 33.0953 72.8488Z" fill="url(#paint17_linear-795027)"/>
<g style="mix-blend-mode:screen" opacity="0.39">
<path d="M32.7653 73.1789C32.2553 73.3789 31.0153 73.9089 29.3453 74.5389C30.2553 69.2589 28.8853 63.2989 27.8953 59.9389C29.2953 59.6989 30.7753 59.2889 32.2653 58.9389C32.406 58.9162 32.5498 58.9219 32.6883 58.9556C32.8268 58.9893 32.9571 59.0504 33.0717 59.1351C33.1863 59.2199 33.2828 59.3267 33.3555 59.4493C33.4282 59.5718 33.4758 59.7077 33.4953 59.8489C33.6353 60.5889 34.1953 61.8489 34.7253 63.8489C35.8653 67.9989 35.0753 72.2689 32.7653 73.1789Z" fill="white"/>
</g>
<path d="M46.4353 41.4788C46.4353 41.4788 54.2653 37.2988 53.7053 69.5888L73.1053 68.0688C73.1053 68.0688 76.5053 40.5688 65.1053 39.4488C65.0753 39.4488 55.2853 37.5088 46.4353 41.4788Z" fill="url(#paint18_linear-808651)"/>
<defs>
<linearGradient id="paint0_linear-865801" x1="88.0254" y1="47.8088" x2="89.0854" y2="32.6088" gradientUnits="userSpaceOnUse">
<stop stop-color="#FFA290"/>
<stop offset="1" stop-color="#FECBA6"/>
</linearGradient>
<linearGradient id="paint1_linear-254514" x1="77.6753" y1="72.6788" x2="56.7653" y2="41.0688" gradientUnits="userSpaceOnUse">
<stop stop-color="#BBD6FE"/>
<stop offset="1" stop-color="#FEFEFE"/>
</linearGradient>
<linearGradient id="paint2_linear-014259" x1="6.95532" y1="224.989" x2="19.4353" y2="212.749" gradientUnits="userSpaceOnUse">
<stop stop-color="#414ECA"/>
<stop offset="1" stop-color="#3D92F5"/>
</linearGradient>
<linearGradient id="paint3_linear-419186" x1="3408.51" y1="3167.98" x2="3388.12" y2="3035.91" gradientUnits="userSpaceOnUse">
<stop stop-color="#414ECA"/>
<stop offset="1" stop-color="#3D92F5"/>
</linearGradient>
<linearGradient id="paint4_linear-258120" x1="5988.35" y1="7044.05" x2="5959.67" y2="6844.31" gradientUnits="userSpaceOnUse">
<stop stop-color="#414ECA"/>
<stop offset="1" stop-color="#3D92F5"/>
</linearGradient>
<linearGradient id="paint5_linear-253075" x1="-3083.17" y1="5562.55" x2="-2864.08" y2="5579.45" gradientUnits="userSpaceOnUse">
<stop stop-color="#FFA290"/>
<stop offset="1" stop-color="#FECBA6"/>
</linearGradient>
<linearGradient id="paint6_linear-189114" x1="-3631.13" y1="5435.17" x2="-3420.16" y2="5440.96" gradientUnits="userSpaceOnUse">
<stop stop-color="#FFA290"/>
<stop offset="1" stop-color="#FECBA6"/>
</linearGradient>
<linearGradient id="paint7_linear-785408" x1="45.8254" y1="151.969" x2="73.4154" y2="145.979" gradientUnits="userSpaceOnUse">
<stop stop-color="#567FE3"/>
<stop offset="1" stop-color="#81D8FF"/>
</linearGradient>
<linearGradient id="paint8_linear-596050" x1="8920.3" y1="42047" x2="7843.53" y2="42105.4" gradientUnits="userSpaceOnUse">
<stop stop-color="#567FE3"/>
<stop offset="1" stop-color="#81D8FF"/>
</linearGradient>
<linearGradient id="paint9_linear-135030" x1="10.2462" y1="81.6743" x2="50.7454" y2="56.9845" gradientUnits="userSpaceOnUse">
<stop stop-color="#EB5896"/>
<stop offset="1" stop-color="#F988B7"/>
</linearGradient>
<linearGradient id="paint10_linear-680908" x1="30.7153" y1="21.7062" x2="28.0986" y2="6.57219" gradientUnits="userSpaceOnUse">
<stop offset="0.02" stop-color="#6B7CF7"/>
<stop offset="0.54" stop-color="#8F85F5"/>
<stop offset="1" stop-color="#B18DF3"/>
</linearGradient>
<linearGradient id="paint11_linear-590945" x1="-1205.43" y1="10770" x2="-1291.29" y2="11057.1" gradientUnits="userSpaceOnUse">
<stop stop-color="#FFA290"/>
<stop offset="1" stop-color="#FECBA6"/>
</linearGradient>
<linearGradient id="paint12_linear-432390" x1="-1408.9" y1="10035.3" x2="-1212.37" y2="9888.29" gradientUnits="userSpaceOnUse">
<stop stop-color="#FFA290"/>
<stop offset="1" stop-color="#FECBA6"/>
</linearGradient>
<linearGradient id="paint13_linear-008969" x1="27.1164" y1="48.6998" x2="26.2401" y2="31.9597" gradientUnits="userSpaceOnUse">
<stop stop-color="#EBEEFC"/>
<stop offset="1" stop-color="white"/>
</linearGradient>
<linearGradient id="paint14_linear-114401" x1="1035.37" y1="5597.92" x2="964.716" y2="5425.22" gradientUnits="userSpaceOnUse">
<stop stop-color="#EBEEFC"/>
<stop offset="1" stop-color="white"/>
</linearGradient>
<linearGradient id="paint15_linear-643231" x1="44.0254" y1="57.7187" x2="67.6154" y2="57.7187" gradientUnits="userSpaceOnUse">
<stop stop-color="#1C9AF1"/>
<stop offset="1" stop-color="#5ED1EB"/>
</linearGradient>
<linearGradient id="paint16_linear-303416" x1="4864.38" y1="5076.28" x2="5332.61" y2="5076.28" gradientUnits="userSpaceOnUse">
<stop stop-color="#FFA290"/>
<stop offset="1" stop-color="#FECBA6"/>
</linearGradient>
<linearGradient id="paint17_linear-795027" x1="6748.99" y1="11632.8" x2="7979.24" y2="11632.8" gradientUnits="userSpaceOnUse">
<stop stop-color="#BBD6FE"/>
<stop offset="1" stop-color="#FEFEFE"/>
</linearGradient>
<linearGradient id="paint18_linear-808651" x1="6491.38" y1="8614.55" x2="7224.17" y2="7993.49" gradientUnits="userSpaceOnUse">
<stop stop-color="#BBD6FE"/>
<stop offset="1" stop-color="#FEFEFE"/>
</linearGradient>
</defs>
</svg>