<svg width="213" height="251" viewBox="0 0 213 251" fill="none" xmlns="http://www.w3.org/2000/svg">
<path d="M112.394 40.9066C110.499 42.3578 108.874 44.1316 107.594 46.1466C104.974 49.9466 97.7643 79.2966 97.7643 79.2966L75.6243 91.7466C75.9225 95.796 77.3806 99.6739 79.8243 102.917C79.8243 102.917 103.614 97.9166 107.894 91.6766C112.174 85.4366 112.394 40.9066 112.394 40.9066Z" fill="url(#paint0_linear)"/>
<path d="M41.0442 234.717C39.6305 239.748 39.2294 245.009 39.8642 250.197H68.4642C68.4642 250.197 69.4042 245.547 63.0242 242.707C56.6442 239.867 54.5742 236.497 53.2642 233.497L41.0442 234.717Z" fill="url(#paint1_linear)"/>
<path d="M8.46431 235.467C7.43535 240.308 7.24256 245.29 7.8943 250.197H29.6743C28.8178 246.683 27.0161 243.47 24.4643 240.907C20.1243 236.377 25.3943 228.047 25.3943 228.047L8.12431 229.557L8.46431 235.467Z" fill="url(#paint2_linear)"/>
<path d="M16.5344 250.197C16.5344 250.197 19.7744 243.067 23.3944 242.737C29.6344 242.177 30.8944 250.197 30.8944 250.197H16.5344Z" fill="url(#paint3_linear)"/>
<path d="M60.2744 118.657C60.2744 118.657 60.8744 121.407 65.0344 121.407C69.1944 121.407 70.4744 117.057 70.4744 117.057H60.2744V118.657Z" fill="url(#paint4_linear)"/>
<path d="M94.6645 127.577V164.037C94.6464 164.626 94.5122 165.207 94.2697 165.745C94.0272 166.282 93.681 166.767 93.251 167.171C92.821 167.575 92.3156 167.891 91.7637 168.099C91.2118 168.308 90.6242 168.405 90.0345 168.387H37.4645C36.2742 168.422 35.1186 167.984 34.2508 167.168C33.3829 166.353 32.8736 165.227 32.8345 164.037V127.577C32.8736 126.387 33.3829 125.26 34.2508 124.445C35.1186 123.63 36.2742 123.192 37.4645 123.227H90.0045C90.5966 123.204 91.1875 123.299 91.7429 123.505C92.2982 123.712 92.8072 124.027 93.2404 124.431C93.6736 124.836 94.0225 125.322 94.2669 125.862C94.5113 126.401 94.6464 126.984 94.6645 127.577V127.577Z" fill="url(#paint5_linear)"/>
<path d="M94.6643 127.907V138.487C94.6622 139.41 94.3721 140.31 93.8343 141.061C93.2966 141.812 92.538 142.377 91.6643 142.677L66.4643 151.367C64.6971 151.966 62.7815 151.966 61.0143 151.367L35.8743 142.907C34.9981 142.608 34.2375 142.042 33.6994 141.289C33.1613 140.535 32.8728 139.632 32.8743 138.707V127.907C32.8743 126.679 33.3621 125.501 34.2304 124.633C35.0987 123.764 36.2763 123.277 37.5043 123.277H90.0443C91.2705 123.279 92.4456 123.768 93.3117 124.636C94.1778 125.504 94.6643 126.68 94.6643 127.907V127.907Z" fill="url(#paint6_linear)"/>
<path d="M66.4944 149.397C66.4944 147.889 65.2722 146.667 63.7644 146.667C62.2567 146.667 61.0344 147.889 61.0344 149.397V154.257C61.0344 155.764 62.2567 156.987 63.7644 156.987C65.2722 156.987 66.4944 155.764 66.4944 154.257V149.397Z" fill="url(#paint7_linear)"/>
<path d="M74.3644 117.487V123.227H71.5744V119.027C71.5744 118.848 71.5393 118.671 71.4709 118.506C71.4026 118.341 71.3024 118.191 71.1761 118.065C71.0498 117.939 70.8999 117.839 70.7349 117.77C70.5699 117.702 70.393 117.667 70.2144 117.667H56.1245C55.7638 117.667 55.4178 117.81 55.1628 118.065C54.9077 118.32 54.7645 118.666 54.7645 119.027V123.227H52.0645V117.487C52.0645 116.755 52.3552 116.053 52.8728 115.535C53.3904 115.017 54.0925 114.727 54.8244 114.727H71.6044C72.3356 114.729 73.0361 115.021 73.5531 115.538C74.0702 116.055 74.3618 116.755 74.3644 117.487V117.487Z" fill="url(#paint8_linear)"/>
<path d="M56.1944 234.997C53.0231 235.67 49.7862 235.986 46.5444 235.937C43.4808 235.927 40.4257 235.612 37.4244 234.997C37.4244 234.997 39.6744 176.317 39.6744 172.427C39.6744 168.537 30.0444 139.517 30.0444 139.517L32.4644 108.787L32.5444 107.727L44.0644 102.347L56.3144 118.117C56.3144 118.117 63.9544 158.727 64.4644 166.487C64.9744 174.247 56.1944 234.997 56.1944 234.997Z" fill="url(#paint9_linear)"/>
<path d="M63.2143 117.667H65.8543C65.8543 117.667 64.8543 121.097 62.1843 121.097C59.5143 121.097 58.4643 119.197 58.2843 117.197C58.1043 115.197 58.2843 109.597 58.2843 109.597L67.8943 107.057C67.8943 107.057 69.4643 111.907 70.4643 114.727L66.1343 114.647C64.2343 114.677 62.8243 115.847 63.2143 117.667Z" fill="url(#paint10_linear)"/>
<path d="M68.4644 107.627C64.8738 109.46 60.9683 110.597 56.9545 110.977L55.8944 106.977L46.5645 71.7666L48.3644 39.9066C48.3644 39.9066 55.2244 43.2566 56.8244 53.5666C58.5344 64.5666 61.4744 78.0766 61.4744 78.0766L67.4744 103.467L68.4644 107.627Z" fill="url(#paint11_linear)"/>
<path d="M68.4643 107.627C64.8736 109.46 60.9681 110.597 56.9543 110.977L55.8943 106.977C58.4243 106.767 64.0543 106.027 67.4843 103.497L68.4643 107.627Z" fill="#B49EF2"/>
<g style="mix-blend-mode:multiply" opacity="0.35">
<path d="M46.5444 235.907C43.4808 235.897 40.4257 235.582 37.4244 234.967C37.4244 234.967 39.6744 176.287 39.6744 172.397C39.6744 168.507 30.0444 139.487 30.0444 139.487L32.4644 108.787L40.0244 110.057C40.0244 110.057 37.1644 132.057 47.8144 152.277C58.4644 172.497 46.0544 177.277 43.7444 198.577C41.7444 216.907 46.9244 227.907 46.5444 235.907Z" fill="#5C98E3"/>
</g>
<path d="M42.2142 109.007C42.2142 109.007 37.9842 122.657 34.9842 127.907C34.9842 127.907 33.2942 160.847 31.7942 174.907C30.2942 188.967 25.9742 235.537 25.9742 235.537C20.662 236.599 15.2163 236.825 9.83421 236.207C8.49421 236.047 7.10421 235.827 5.69421 235.537C5.69421 235.537 5.51421 189.537 5.69421 170.777L4.57422 115.217C4.57422 115.217 8.10422 112.057 10.8442 109.667C12.4742 108.237 13.8442 107.077 13.9642 107.047C14.0842 107.017 18.3742 107.307 23.5542 107.667L27.4642 107.907C34.6842 108.457 42.2142 109.007 42.2142 109.007Z" fill="url(#paint12_linear)"/>
<g style="mix-blend-mode:multiply" opacity="0.35">
<path d="M12.4645 149.027C0.914477 168.227 21.2845 215.477 9.84448 236.227C8.50448 236.067 7.11448 235.847 5.70448 235.557C5.70448 235.557 5.52448 189.557 5.70448 170.797L4.58447 115.237C4.58447 115.237 8.11448 112.077 10.8545 109.687L23.5645 107.687L27.4845 107.067C27.4845 107.067 27.4845 107.367 27.4045 107.957C27.0145 111.427 25.9745 126.557 12.4645 149.027Z" fill="#5C98E3"/>
</g>
<path d="M45.4642 107.727C42.215 109.563 38.6357 110.74 34.9311 111.191C31.2264 111.642 27.4692 111.359 23.8742 110.357L23.2442 100.267L19.5742 40.9066L38.2742 38.9066C38.2742 38.9066 42.1142 40.7066 43.0442 47.7466C43.3842 50.2866 43.7942 58.8466 44.1842 68.7466C44.8742 86.1766 45.4642 107.727 45.4642 107.727Z" fill="url(#paint13_linear)"/>
<g style="mix-blend-mode:multiply" opacity="0.7">
<path d="M36.4044 109.007C36.2656 108.996 36.1363 108.932 36.0446 108.827C35.953 108.722 35.9062 108.586 35.9144 108.447C36.5922 93.6961 36.4319 78.9189 35.4344 64.1866C34.3444 49.1266 34.0544 46.7366 34.0544 46.7166C34.0681 46.6016 34.1197 46.4945 34.201 46.4121C34.2824 46.3298 34.389 46.277 34.5038 46.262C34.6186 46.2471 34.7351 46.2709 34.8349 46.3297C34.9346 46.3885 35.0119 46.4789 35.0544 46.5866C35.0544 46.6766 35.3444 48.9666 36.4444 64.1066C37.4578 78.885 37.6181 93.7097 36.9245 108.507C36.9169 108.64 36.8591 108.766 36.7626 108.859C36.6662 108.951 36.5382 109.004 36.4044 109.007V109.007Z" fill="#ACCAEA"/>
</g>
<g style="mix-blend-mode:multiply" opacity="0.7">
<path d="M45.4644 107.727C42.2152 109.563 38.6359 110.74 34.9312 111.191C31.2266 111.642 27.4693 111.359 23.8744 110.357L23.2444 100.267C25.4544 96.6066 23.8244 90.1166 28.9644 85.0166C36.0844 77.9566 43.4344 73.0166 44.1544 68.7466C44.8744 86.1766 45.4644 107.727 45.4644 107.727Z" fill="#ACCAEA"/>
</g>
<path d="M59.1943 120.517C59.1943 120.517 45.4943 120.867 44.3643 116.517C43.2843 112.377 43.2443 106.847 43.0643 87.9967C43.0643 87.2067 43.0643 86.3967 43.0643 85.5567C42.8743 64.7267 37.4443 40.4667 37.4443 40.4667L36.4443 36.5867C36.4443 36.5867 36.7143 36.5867 37.1643 36.7067C39.7843 37.1567 48.7443 38.9067 50.5143 41.5467C52.5643 44.6367 54.1643 78.5467 54.1643 78.5467L59.1943 120.517Z" fill="url(#paint14_linear)"/>
<path d="M43.0643 88.0166C43.0643 87.2266 43.0643 86.4166 43.0643 85.5766C42.8743 64.7466 37.4443 40.4866 37.4443 40.4866L36.4443 36.6066C36.4443 36.6066 36.7143 36.6066 37.1643 36.7266C37.1643 36.7266 42.5143 43.2466 43.0843 44.6566C43.6543 46.0666 40.5543 48.6566 40.5543 48.6566C42.5399 50.3913 44.3919 52.2733 46.0943 54.2866C47.4643 56.2966 44.9643 81.4466 43.0643 88.0166Z" fill="#B49EF2"/>
<path d="M37.1243 39.0966L36.5443 40.4866C35.7843 42.3066 34.5443 45.3066 34.5443 45.4866C34.5443 45.6666 20.8643 37.4166 20.8643 37.4166C22.5143 32.2566 22.1943 24.2966 22.1943 24.2966L36.4043 32.5966L37.1243 39.0966Z" fill="url(#paint15_linear)"/>
<g style="mix-blend-mode:multiply" opacity="0.45">
<path d="M37.1243 39.0966L36.5443 40.4866C24.8643 40.2866 22.1943 24.2566 22.1943 24.2566L36.4043 32.5566L37.1243 39.0966Z" fill="#F2787A"/>
</g>
<path d="M20.8643 22.7966C20.8643 22.7966 18.3543 16.0866 18.2143 12.2566C18.0743 8.42661 20.5243 8.08659 20.5243 8.08659C20.2106 6.56256 20.2106 4.99063 20.5243 3.4666C21.0643 1.1466 26.2843 -0.833402 32.2343 0.356598C38.1843 1.5466 42.4843 -0.7634 45.5243 1.5466C46.1937 2.05601 46.7363 2.71319 47.1099 3.46689C47.4835 4.22058 47.6778 5.05041 47.6778 5.8916C47.6778 6.73279 47.4835 7.56262 47.1099 8.31631C46.7363 9.07001 46.1937 9.7272 45.5243 10.2366C45.5243 10.2366 48.1643 15.0966 41.8243 19.3266C35.4843 23.5566 20.8643 22.7966 20.8643 22.7966Z" fill="url(#paint16_linear)"/>
<path d="M31.3745 40.1866L27.5544 45.4466C27.5544 45.4466 21.5044 42.3666 19.5544 37.6066C19.7744 35.5663 20.584 33.6342 21.8844 32.0466C21.8844 32.0466 21.7844 33.2966 21.6844 33.9366C24.1091 37.062 27.5273 39.2667 31.3745 40.1866V40.1866Z" fill="url(#paint17_linear)"/>
<path d="M34.5444 45.4466L36.5444 40.4866L38.2644 42.0766L34.5444 45.4466Z" fill="#BDD2EF"/>
<path d="M36.5444 40.4866L39.7544 43.5566C39.5244 40.3266 39.1144 37.2066 36.7544 35.2666C36.5016 35.3297 36.2372 35.3297 35.9844 35.2666C36.5376 36.9475 36.7284 38.7266 36.5444 40.4866V40.4866Z" fill="url(#paint18_linear)"/>
<path d="M42.8144 12.4566C42.8144 12.4566 44.6644 30.4566 37.9244 34.7966C33.0944 37.9266 24.5644 30.7966 22.5144 24.3566C22.5144 24.3566 20.0244 24.0066 20.6144 19.5166C21.2044 15.0266 25.8844 16.2866 25.3544 21.1766C25.3544 21.1766 28.9944 21.2966 28.1044 15.8466C27.2144 10.3966 28.1544 10.2366 28.1544 10.2366C28.1544 10.2366 28.1044 10.2366 32.7644 12.4666C37.4244 14.6966 41.7044 14.1266 42.8144 12.4566Z" fill="url(#paint19_linear)"/>
<path d="M31.3743 40.1866L34.5443 45.4466L29.6643 42.5466L31.3743 40.1866Z" fill="#BDD2EF"/>
<path d="M23.4644 117.907C18.8544 122.227 0.464355 119.967 0.464355 119.967L6.09436 88.7166L3.78436 66.7166V66.2566L5.27435 41.5066C9.86506 39.2133 14.7516 37.5676 19.7944 36.6166C19.7944 36.6166 22.9343 41.1066 24.2543 51.8066C25.3943 61.1666 26.3944 74.5566 27.0144 85.7366C27.1044 87.3366 27.1843 88.8966 27.2543 90.3766C27.7543 102.287 28.0344 113.547 23.4644 117.907Z" fill="url(#paint20_linear)"/>
<g style="mix-blend-mode:multiply" opacity="0.25">
<path d="M6.0744 88.6766L3.7644 66.6766L10.5844 56.9166L27.1944 90.3366L27.4644 99.9066C27.4644 99.9066 12.4644 98.2866 6.0744 88.6766Z" fill="#666DF6"/>
</g>
<path d="M26.9545 85.7266L26.7845 87.3966C23.5345 76.1666 17.0845 58.5766 17.1445 56.9466C17.2045 55.3166 21.9045 49.8566 21.9045 49.8566C21.9045 49.8566 16.9645 46.7266 17.1445 45.4466C17.3245 44.1666 19.7345 36.6066 19.7345 36.6066C19.7345 36.6066 22.8745 41.0966 24.1945 51.7966C25.3345 61.1566 26.3345 74.5466 26.9545 85.7266Z" fill="#B49EF2"/>
<path d="M56.0143 90.3166L59.4543 91.4566C59.4543 91.4566 64.0943 89.8466 65.6443 89.9666C67.1943 90.0866 69.9143 92.6966 69.9143 92.6966V94.5366C69.9143 94.5366 74.5543 94.8766 74.9143 96.4266C75.2743 97.9766 74.9143 101.307 69.5743 102.617C64.2343 103.927 56.9143 100.177 56.9143 100.177L52.9143 99.6466L56.0143 90.3166Z" fill="url(#paint21_linear)"/>
<path d="M78.8844 101.617L76.5744 102.027C76.5744 102.027 75.5044 102.617 73.4244 103.727C71.0516 105.027 68.2919 105.435 65.6444 104.877C62.6444 104.217 60.7144 103.147 59.9444 101.547C59.1744 99.9467 60.8344 99.7667 63.5644 100.237C64.3444 100.361 65.0844 100.667 65.7252 101.129C66.3659 101.591 66.8896 102.196 67.2544 102.897C68.6579 102.972 70.0517 102.624 71.2544 101.897C71.2544 101.897 74.3944 96.9667 74.1644 95.7767C73.9344 94.5867 69.4044 94.5267 69.4044 94.5267C69.4044 94.5267 64.9544 96.6667 64.2944 95.3567C63.6344 94.0467 68.1044 91.4367 69.4044 91.4467C71.5386 91.7296 73.6529 92.1471 75.7344 92.6967C76.1098 95.8669 77.1858 98.9138 78.8844 101.617V101.617Z" fill="url(#paint22_linear)"/>
<path d="M59.2043 89.7066C59.4943 98.3766 54.7043 102.347 54.7043 102.347C54.7043 102.347 53.2743 101.797 51.0143 100.897C44.1843 98.1966 29.7643 92.3266 24.8343 89.1066C18.2743 84.8266 16.7843 82.9066 7.77433 71.8166C-4.30567 56.9466 -0.30566 42.5266 6.31434 40.9566C10.6143 39.9566 16.7443 50.6866 23.3943 60.0666C27.1441 65.3722 31.2538 70.414 35.6943 75.1566L56.0943 87.7866L59.2043 89.7066Z" fill="url(#paint23_linear)"/>
<path d="M59.2044 89.7066C59.4944 98.3766 54.7044 102.347 54.7044 102.347C54.7044 102.347 53.2744 101.797 51.0144 100.897C56.7744 92.5766 56.0944 87.7866 56.0944 87.7866L59.2044 89.7066Z" fill="#B49EF2"/>
<path d="M103.464 234.587C103.464 234.587 101.914 240.167 96.4643 241.447C91.0143 242.727 89.6143 246.317 89.1943 248.557C89.1544 248.78 89.1646 249.01 89.2239 249.229C89.2832 249.448 89.3903 249.652 89.5375 249.825C89.6847 249.998 89.8683 250.136 90.0752 250.23C90.2821 250.323 90.5072 250.37 90.7343 250.367L120.534 250.047C120.73 250.044 120.924 250.003 121.104 249.925C121.284 249.846 121.446 249.733 121.582 249.592C121.718 249.451 121.824 249.284 121.895 249.101C121.966 248.918 122 248.723 121.994 248.527C121.894 245.217 121.464 237.407 119.484 234.587H103.464Z" fill="url(#paint24_linear)"/>
<path d="M103.854 230.177L103.434 234.587C103.434 234.587 109.874 238.297 119.434 234.587L119.944 223.087L103.854 230.177Z" fill="url(#paint25_linear)"/>
<path d="M134.684 135.187C134.574 135.607 134.504 135.847 134.504 135.847L128.844 165.767C128.844 165.767 127.754 179.197 126.384 193.697C125.014 208.197 123.474 225.207 123.074 226.777C122.674 228.347 122.994 232.447 118.074 233.127L117.374 233.207C116.445 233.257 115.514 233.257 114.584 233.207C110.338 232.935 106.112 232.394 101.934 231.587C101.654 227.057 101.784 199.107 101.524 180.977C101.364 171.047 101.754 154.117 102.474 142.117C103.654 122.677 106.084 104.187 106.084 104.187L118.794 109.557L138.664 108.507C139.344 117.047 135.554 131.907 134.684 135.187Z" fill="url(#paint26_linear)"/>
<g style="mix-blend-mode:multiply" opacity="0.35">
<path d="M134.684 135.187C134.574 135.607 134.504 135.847 134.504 135.847L128.844 165.767C128.844 165.767 127.754 179.197 126.384 193.697C125.014 208.197 123.474 225.207 123.074 226.777C122.674 228.347 122.994 232.447 118.074 233.127L117.374 233.207C116.445 233.257 115.514 233.257 114.584 233.207C116.714 226.817 118.584 218.257 117.154 210.207C114.094 192.867 111.204 186.377 117.154 168.407C123.104 150.437 120.524 114.597 120.524 114.597L121.904 109.437L134.684 135.187Z" fill="#D53468"/>
</g>
<path d="M137.204 245.907C137.204 245.907 141.574 242.537 141.984 239.797C142.24 238.405 142.311 236.986 142.194 235.577L158.284 234.957C159.584 238.187 160.464 242.607 160.574 248.797C160.577 249.002 160.539 249.205 160.463 249.395C160.387 249.585 160.275 249.759 160.132 249.906C159.989 250.052 159.818 250.169 159.63 250.25C159.442 250.331 159.239 250.374 159.034 250.377H149.464L137.204 245.907Z" fill="url(#paint27_linear)"/>
<path d="M134.804 250.387C134.804 250.387 136.154 243.957 140.614 243.237C142.301 242.878 144.057 243.074 145.623 243.795C147.189 244.515 148.48 245.723 149.304 247.237C149.902 248.252 150.443 249.301 150.924 250.377L134.804 250.387Z" fill="url(#paint28_linear)"/>
<path d="M141.544 230.317L142.194 235.587C144.747 236.713 147.523 237.242 150.311 237.135C153.099 237.027 155.826 236.286 158.284 234.967L157.634 223.227L141.544 230.317Z" fill="url(#paint29_linear)"/>
<path d="M160.694 225.427C160.514 227.027 161.384 231.057 156.644 232.427C156.414 232.497 156.184 232.557 155.944 232.607L155.104 232.777C149.794 233.667 140.444 233.147 140.444 233.147C139.534 228.687 134.794 200.957 131.784 181.147C130.624 173.467 126.634 154.437 125.004 142.517C122.814 126.607 119.944 111.257 119.944 111.257L136.724 108.037L156.264 104.287C156.314 104.547 156.374 104.797 156.414 105.067C158.174 114.687 155.834 131.927 155.834 131.927L157.464 165.717C157.464 165.717 158.034 175.317 158.664 189.877C159.294 204.437 160.874 223.827 160.694 225.427Z" fill="url(#paint30_linear)"/>
<g style="mix-blend-mode:multiply" opacity="0.35">
<path d="M160.694 225.427C160.514 227.027 161.384 231.057 156.644 232.427C156.414 232.497 156.184 232.557 155.944 232.607L155.104 232.777C156.504 223.417 154.824 208.967 148.884 194.607C141.004 175.547 149.884 164.697 148.884 143.247C147.884 121.797 133.134 114.907 133.134 114.907L156.414 104.907C158.174 114.527 155.834 131.767 155.834 131.767L157.464 165.717C157.464 165.717 158.034 175.317 158.664 189.877C159.294 204.437 160.874 223.827 160.694 225.427Z" fill="#D53468"/>
</g>
<path d="M157.584 106.167C157.084 107.077 155.674 107.937 153.584 108.797C149.444 110.517 142.634 112.307 134.964 114.637C134.304 114.837 133.624 114.997 132.964 115.147C121.794 117.447 108.464 111.817 106.204 108.277C103.794 104.507 105.374 103.477 107.414 93.6367C109.244 84.8266 109.914 73.0167 110.044 70.6367C110.694 65.2418 110.835 59.7978 110.464 54.3766C110.294 50.9366 110.274 48.0166 110.294 45.7966C110.308 44.3476 110.776 42.9392 111.631 41.7697C112.487 40.6001 113.688 39.7282 115.064 39.2766C117.064 38.6366 119.064 38.1266 120.974 37.7266C124.974 36.8766 128.114 36.5166 128.114 36.5166C128.114 36.5166 129.674 35.9266 139.884 37.5766C141.224 37.7966 142.484 38.0266 143.664 38.2766C146.849 38.903 149.977 39.7928 153.014 40.9366C153.641 41.1363 154.229 41.4406 154.754 41.8366C156.959 46.665 157.558 52.0727 156.464 57.2666C156.344 57.8066 156.224 58.3866 156.134 58.9966C155.643 62.0575 155.309 65.1415 155.134 68.2366C154.604 76.5766 154.664 86.0566 154.874 90.2366C154.935 91.2913 155.069 92.3405 155.274 93.3766C156.344 98.7366 158.844 103.907 157.584 106.167Z" fill="url(#paint31_linear)"/>
<path d="M143.624 38.2867C142.324 41.6867 134.954 59.6967 124.984 58.4067C113.984 56.9767 120.984 37.7367 120.984 37.7367C124.984 36.8867 128.124 36.5266 128.124 36.5266C128.124 36.5266 129.684 35.9366 139.894 37.5866C141.184 37.8066 142.464 38.0367 143.624 38.2867Z" fill="url(#paint32_linear)"/>
<g style="mix-blend-mode:multiply" opacity="0.36">
<path d="M157.584 106.167C156.084 108.867 146.484 111.167 134.954 114.637C134.284 114.837 133.614 114.997 132.954 115.147C149.174 106.347 143.354 72.3367 153.004 54.0767L156.184 58.9967C154.634 67.8867 154.644 84.3267 154.944 90.2467C155.214 96.5767 159.084 103.467 157.584 106.167Z" fill="#1E9CF1"/>
</g>
<path d="M115.624 20.3866C114.255 19.9004 113.101 18.9446 112.369 17.6888C111.637 16.433 111.373 14.9584 111.624 13.5266C111.624 13.5266 108.244 8.58665 111.814 4.52665C115.744 0.106647 118.654 3.31665 126.354 1.57665C132.204 0.25665 135.074 1.31666 137.214 3.28666C139.354 5.25666 138.444 9.04665 138.414 9.18665C139.456 9.54515 140.35 10.2374 140.957 11.156C141.565 12.0746 141.852 13.1681 141.774 14.2667C141.554 18.3867 135.264 29.7267 135.264 29.7267L115.624 20.3866Z" fill="url(#paint33_linear)"/>
<path d="M137.804 37.7066L127.294 48.2267L124.984 50.0866C124.984 50.0866 123.474 45.0866 123.524 43.2466C123.609 41.6642 123.919 40.1018 124.444 38.6066L122.904 32.0866L134.394 23.5566C134.394 23.5566 134.394 23.8467 134.484 24.3667C134.484 24.3667 134.484 24.4366 134.484 24.4866C135.067 29.0086 136.181 33.446 137.804 37.7066V37.7066Z" fill="url(#paint34_linear)"/>
<g style="mix-blend-mode:multiply" opacity="0.45">
<path d="M123.524 43.2466C123.609 41.6642 123.919 40.1018 124.444 38.6066L122.904 32.0866L134.394 23.5566C134.394 23.7566 134.464 24.0266 134.504 24.3566C134.504 24.3566 134.504 24.4267 134.504 24.4767C134.914 28.1967 135.054 39.2566 123.524 43.2466Z" fill="#F2787A"/>
</g>
<path d="M114.724 13.6666C114.724 13.6666 115.964 31.1766 122.514 35.9866C124.694 37.5966 131.824 34.3866 133.514 31.7766C135.204 29.1666 135.424 24.0466 135.424 24.0466C135.424 24.0466 137.484 23.8566 137.514 20.1966C137.544 16.5366 133.184 16.8066 133.264 21.7466C133.264 21.7466 132.094 22.0666 131.524 18.9566C131.524 18.9566 128.314 19.4766 128.994 13.8366C129.004 13.8366 121.234 16.3566 114.724 13.6666Z" fill="url(#paint35_linear)"/>
<path d="M136.714 34.6967C136.714 34.6967 134.544 43.4167 128.184 45.5467L124.984 50.0867L128.514 48.1767C129.687 49.0722 130.497 50.3614 130.794 51.8067C130.794 51.8067 138.494 48.2167 139.064 37.9567C138.934 36.8467 137.854 35.7667 136.714 34.6967Z" fill="url(#paint36_linear)"/>
<path d="M124.984 50.0867L124.814 44.3867C124.814 44.3867 122.815 42.5467 124.445 38.6067L124.034 36.8467C124.034 36.8467 121.804 38.3867 120.764 42.4967C120.101 44.6708 120.165 47.0017 120.945 49.1367C121.561 48.2281 122.41 47.5026 123.404 47.0367L124.984 50.0867Z" fill="url(#paint37_linear)"/>
<path d="M189.584 48.9067C189.584 48.9067 192.304 45.2467 192.304 45.4267C192.304 45.6067 192.434 40.2367 194.134 37.1767C196.244 33.3867 197.304 35.8367 196.744 39.6367C196.628 40.7883 196.682 41.9508 196.904 43.0867C196.904 43.0867 202.904 41.9567 206.244 39.2867C209.584 36.6167 211.644 36.1367 212.154 38.2867C212.664 40.4367 210.324 49.0767 208.494 50.7667C206.664 52.4567 199.494 54.5567 199.494 54.5567L197.194 57.5567L189.584 48.9067Z" fill="url(#paint38_linear)"/>
<path d="M153.674 73.1367C157.794 80.1367 162.984 87.3067 167.184 86.8567C176.434 85.8567 198.564 56.8566 198.564 56.8566C194.684 49.4566 189.564 47.3066 189.564 47.3066L170.714 64.5067L169.764 65.4166C169.098 63.9366 168.404 62.4966 167.684 61.0966C161.304 48.2966 154.884 39.2666 152.744 41.6366C151.464 43.0466 150.484 49.4366 149.834 55.1066C149.119 61.3743 150.467 67.7043 153.674 73.1367Z" fill="url(#paint39_linear)"/>
<g style="mix-blend-mode:multiply" opacity="0.25">
<path d="M164.584 70.3866L169.784 65.4466C169.118 63.9666 168.424 62.5266 167.704 61.1266C166.09 63.9889 165.031 67.1308 164.584 70.3866Z" fill="#666DF6"/>
</g>
<defs>
<linearGradient id="paint0_linear" x1="9530.29" y1="17351.6" x2="8092.05" y2="16586.2" gradientUnits="userSpaceOnUse">
<stop stop-color="#1C9AF1"/>
<stop offset="1" stop-color="#5ED1EB"/>
</linearGradient>
<linearGradient id="paint1_linear" x1="5194.57" y1="7396.8" x2="6032.41" y2="7396.8" gradientUnits="userSpaceOnUse">
<stop stop-color="#74335E"/>
<stop offset="1" stop-color="#A63663"/>
</linearGradient>
<linearGradient id="paint2_linear" x1="3243.65" y1="9668.82" x2="3733.78" y2="9668.82" gradientUnits="userSpaceOnUse">
<stop stop-color="#74335E"/>
<stop offset="1" stop-color="#A63663"/>
</linearGradient>
<linearGradient id="paint3_linear" x1="2243.34" y1="3489.15" x2="2449.55" y2="3489.15" gradientUnits="userSpaceOnUse">
<stop stop-color="#74335E"/>
<stop offset="1" stop-color="#A63663"/>
</linearGradient>
<linearGradient id="paint4_linear" x1="2136.89" y1="1438.33" x2="2142.14" y2="1485.38" gradientUnits="userSpaceOnUse">
<stop stop-color="#FFA290"/>
<stop offset="1" stop-color="#FECBA6"/>
</linearGradient>
<linearGradient id="paint5_linear" x1="12541" y1="14331.4" x2="12541" y2="17684.5" gradientUnits="userSpaceOnUse">
<stop stop-color="#F7B345"/>
<stop offset="1" stop-color="#FEDB58"/>
</linearGradient>
<linearGradient id="paint6_linear" x1="10623.7" y1="9387.85" x2="14442.3" y2="9387.85" gradientUnits="userSpaceOnUse">
<stop stop-color="#F7B345"/>
<stop offset="1" stop-color="#FEDB58"/>
</linearGradient>
<linearGradient id="paint7_linear" x1="1150.68" y1="3644.31" x2="1180.5" y2="3644.31" gradientUnits="userSpaceOnUse">
<stop stop-color="#EB5896"/>
<stop offset="1" stop-color="#F988B7"/>
</linearGradient>
<linearGradient id="paint8_linear" x1="4302.44" y1="2716.32" x2="4799.73" y2="2716.32" gradientUnits="userSpaceOnUse">
<stop stop-color="#567FE3"/>
<stop offset="1" stop-color="#81D8FF"/>
</linearGradient>
<linearGradient id="paint9_linear" x1="5836.17" y1="47692.9" x2="7021.99" y2="47692.9" gradientUnits="userSpaceOnUse">
<stop stop-color="#567FE3"/>
<stop offset="1" stop-color="#81D8FF"/>
</linearGradient>
<linearGradient id="paint10_linear" x1="2426.47" y1="4367.92" x2="2603.21" y2="4334.15" gradientUnits="userSpaceOnUse">
<stop stop-color="#FFA290"/>
<stop offset="1" stop-color="#FECBA6"/>
</linearGradient>
<linearGradient id="paint11_linear" x1="3977.83" y1="19112.3" x2="4658.48" y2="19022.8" gradientUnits="userSpaceOnUse">
<stop offset="0.02" stop-color="#6B7CF7"/>
<stop offset="0.54" stop-color="#8F85F5"/>
<stop offset="1" stop-color="#B18DF3"/>
</linearGradient>
<linearGradient id="paint12_linear" x1="5391.23" y1="46585.5" x2="6808" y2="46585.5" gradientUnits="userSpaceOnUse">
<stop stop-color="#567FE3"/>
<stop offset="1" stop-color="#81D8FF"/>
</linearGradient>
<linearGradient id="paint13_linear" x1="3960.81" y1="19716.4" x2="5098.23" y2="19500" gradientUnits="userSpaceOnUse">
<stop stop-color="#BBD6FE"/>
<stop offset="0.08" stop-color="#C2DAFE"/>
<stop offset="0.45" stop-color="#DFECFE"/>
<stop offset="0.77" stop-color="#F1F6FE"/>
<stop offset="1" stop-color="#F7FAFE"/>
</linearGradient>
<linearGradient id="paint14_linear" x1="4251.34" y1="24907" x2="4937.58" y2="19584.2" gradientUnits="userSpaceOnUse">
<stop offset="0.02" stop-color="#6B7CF7"/>
<stop offset="0.54" stop-color="#8F85F5"/>
<stop offset="1" stop-color="#B18DF3"/>
</linearGradient>
<linearGradient id="paint15_linear" x1="2765.88" y1="4660.46" x2="2660.83" y2="4794.3" gradientUnits="userSpaceOnUse">
<stop stop-color="#FFA290"/>
<stop offset="1" stop-color="#FECBA6"/>
</linearGradient>
<linearGradient id="paint16_linear" x1="4857.96" y1="4764.85" x2="5126.17" y2="4193.28" gradientUnits="userSpaceOnUse">
<stop stop-color="#EB5896"/>
<stop offset="1" stop-color="#F988B7"/>
</linearGradient>
<linearGradient id="paint17_linear" x1="1918.2" y1="2923.77" x2="1984.09" y2="3099.04" gradientUnits="userSpaceOnUse">
<stop stop-color="#BBD6FE"/>
<stop offset="0.08" stop-color="#C2DAFE"/>
<stop offset="0.45" stop-color="#DFECFE"/>
<stop offset="0.77" stop-color="#F1F6FE"/>
<stop offset="1" stop-color="#F7FAFE"/>
</linearGradient>
<linearGradient id="paint18_linear" x1="682.538" y1="1794.4" x2="741.476" y2="1875.29" gradientUnits="userSpaceOnUse">
<stop stop-color="#BBD6FE"/>
<stop offset="0.08" stop-color="#C2DAFE"/>
<stop offset="0.45" stop-color="#DFECFE"/>
<stop offset="0.77" stop-color="#F1F6FE"/>
<stop offset="1" stop-color="#F7FAFE"/>
</linearGradient>
<linearGradient id="paint19_linear" x1="3582.06" y1="5641.82" x2="4027.67" y2="5266.12" gradientUnits="userSpaceOnUse">
<stop stop-color="#FFA290"/>
<stop offset="1" stop-color="#FECBA6"/>
</linearGradient>
<linearGradient id="paint20_linear" x1="3888.78" y1="24762.2" x2="6096.47" y2="22719.5" gradientUnits="userSpaceOnUse">
<stop offset="0.02" stop-color="#6B7CF7"/>
<stop offset="0.54" stop-color="#8F85F5"/>
<stop offset="1" stop-color="#B18DF3"/>
</linearGradient>
<linearGradient id="paint21_linear" x1="4149.64" y1="3802.69" x2="4667.43" y2="3609.28" gradientUnits="userSpaceOnUse">
<stop stop-color="#FFA290"/>
<stop offset="1" stop-color="#FECBA6"/>
</linearGradient>
<linearGradient id="paint22_linear" x1="3757.35" y1="4036.81" x2="4147" y2="3917.58" gradientUnits="userSpaceOnUse">
<stop stop-color="#FFA290"/>
<stop offset="1" stop-color="#FECBA6"/>
</linearGradient>
<linearGradient id="paint23_linear" x1="7708.87" y1="16464.1" x2="11143.4" y2="15740.5" gradientUnits="userSpaceOnUse">
<stop offset="0.02" stop-color="#6B7CF7"/>
<stop offset="0.54" stop-color="#8F85F5"/>
<stop offset="1" stop-color="#B18DF3"/>
</linearGradient>
<linearGradient id="paint24_linear" x1="-82270.6" y1="7166.66" x2="-82303.2" y2="6925.86" gradientUnits="userSpaceOnUse">
<stop stop-color="#1C9AF1"/>
<stop offset="1" stop-color="#5ED1EB"/>
</linearGradient>
<linearGradient id="paint25_linear" x1="-39702" y1="5699.34" x2="-39981.1" y2="5722.5" gradientUnits="userSpaceOnUse">
<stop stop-color="#FFA290"/>
<stop offset="1" stop-color="#FECBA6"/>
</linearGradient>
<linearGradient id="paint26_linear" x1="10274.1" y1="46076" x2="9070.77" y2="46070.3" gradientUnits="userSpaceOnUse">
<stop stop-color="#EB5896"/>
<stop offset="1" stop-color="#F988B7"/>
</linearGradient>
<linearGradient id="paint27_linear" x1="-56519.4" y1="6969.65" x2="-56721.3" y2="6669.71" gradientUnits="userSpaceOnUse">
<stop stop-color="#1C9AF1"/>
<stop offset="1" stop-color="#5ED1EB"/>
</linearGradient>
<linearGradient id="paint28_linear" x1="-38223.4" y1="3541.85" x2="-38248.7" y2="3377.86" gradientUnits="userSpaceOnUse">
<stop stop-color="#1C9AF1"/>
<stop offset="1" stop-color="#5ED1EB"/>
</linearGradient>
<linearGradient id="paint29_linear" x1="-39616.5" y1="6030.89" x2="-39878.3" y2="6038.14" gradientUnits="userSpaceOnUse">
<stop stop-color="#FFA290"/>
<stop offset="1" stop-color="#FECBA6"/>
</linearGradient>
<linearGradient id="paint30_linear" x1="12286.8" y1="45880" x2="11078.7" y2="45946.5" gradientUnits="userSpaceOnUse">
<stop stop-color="#EB5896"/>
<stop offset="1" stop-color="#F988B7"/>
</linearGradient>
<linearGradient id="paint31_linear" x1="16029.1" y1="24037.4" x2="12082.9" y2="20672.7" gradientUnits="userSpaceOnUse">
<stop stop-color="#1C9AF1"/>
<stop offset="1" stop-color="#5ED1EB"/>
</linearGradient>
<linearGradient id="paint32_linear" x1="6877.69" y1="4821.63" x2="6694.85" y2="5890.71" gradientUnits="userSpaceOnUse">
<stop stop-color="#BBD6FE"/>
<stop offset="0.08" stop-color="#C2DAFE"/>
<stop offset="0.45" stop-color="#DFECFE"/>
<stop offset="0.77" stop-color="#F1F6FE"/>
<stop offset="1" stop-color="#F7FAFE"/>
</linearGradient>
<linearGradient id="paint33_linear" x1="-79341" y1="18768" x2="-79320" y2="18276.8" gradientUnits="userSpaceOnUse">
<stop stop-color="#74335E"/>
<stop offset="1" stop-color="#A63663"/>
</linearGradient>
<linearGradient id="paint34_linear" x1="-37855" y1="17862" x2="-37737.8" y2="18220.3" gradientUnits="userSpaceOnUse">
<stop stop-color="#FFA290"/>
<stop offset="1" stop-color="#FECBA6"/>
</linearGradient>
<linearGradient id="paint35_linear" x1="-56701.6" y1="16078.5" x2="-56974.2" y2="15920.6" gradientUnits="userSpaceOnUse">
<stop stop-color="#FFA290"/>
<stop offset="1" stop-color="#FECBA6"/>
</linearGradient>
<linearGradient id="paint36_linear" x1="3946.02" y1="4554.3" x2="3927.52" y2="3938.52" gradientUnits="userSpaceOnUse">
<stop stop-color="#BBD6FE"/>
<stop offset="0.08" stop-color="#C2DAFE"/>
<stop offset="0.45" stop-color="#DFECFE"/>
<stop offset="0.77" stop-color="#F1F6FE"/>
<stop offset="1" stop-color="#F7FAFE"/>
</linearGradient>
<linearGradient id="paint37_linear" x1="1344.81" y1="3537.24" x2="1311.58" y2="3062.63" gradientUnits="userSpaceOnUse">
<stop stop-color="#BBD6FE"/>
<stop offset="0.08" stop-color="#C2DAFE"/>
<stop offset="0.45" stop-color="#DFECFE"/>
<stop offset="0.77" stop-color="#F1F6FE"/>
<stop offset="1" stop-color="#F7FAFE"/>
</linearGradient>
<linearGradient id="paint38_linear" x1="-62748.7" y1="5508.5" x2="-62666.4" y2="5119.01" gradientUnits="userSpaceOnUse">
<stop stop-color="#FFA290"/>
<stop offset="1" stop-color="#FECBA6"/>
</linearGradient>
<linearGradient id="paint39_linear" x1="16482" y1="12671.3" x2="14291" y2="9671.48" gradientUnits="userSpaceOnUse">
<stop stop-color="#1C9AF1"/>
<stop offset="1" stop-color="#5ED1EB"/>
</linearGradient>
</defs>
</svg>
