<svg width="638" height="39" viewBox="0 0 638 39" fill="none" xmlns="http://www.w3.org/2000/svg">
<path d="M634.1 31.99H3.07C1.37449 31.99 0 33.3645 0 35.06C0 36.7555 1.37449 38.13 3.07 38.13H634.1C635.795 38.13 637.17 36.7555 637.17 35.06C637.17 33.3645 635.795 31.99 634.1 31.99Z" fill="#D0E0F4"/>
<path d="M253.11 0C244.6 0.00794676 236.441 3.39277 230.424 9.41125C224.408 15.4297 221.025 23.5899 221.02 32.1H228.94C228.94 25.6924 231.485 19.5472 236.016 15.0163C240.547 10.4854 246.692 7.94 253.1 7.94C259.508 7.94 265.653 10.4854 270.184 15.0163C274.715 19.5472 277.26 25.6924 277.26 32.1H285.2C285.189 23.5915 281.805 15.4345 275.79 9.41711C269.775 3.39978 261.619 0.01323 253.11 0Z" fill="#D0E0F4"/>
</svg>