<svg width="492" height="36" viewBox="0 0 492 36" fill="none" xmlns="http://www.w3.org/2000/svg">
<path d="M428.124 0.415283C419.589 0.444067 411.327 3.42265 404.737 8.84634C398.147 14.27 393.634 21.8053 391.964 30.1753L402.214 30.2253C403.769 24.5152 407.165 19.478 411.875 15.8949C416.585 12.3118 422.346 10.3832 428.264 10.4082C434.182 10.4333 439.926 12.4106 444.605 16.0335C449.285 19.6564 452.638 24.7223 454.144 30.4453L464.404 30.4953C462.796 22.0462 458.294 14.4215 451.673 8.93192C445.052 3.44234 436.725 0.43089 428.124 0.415283V0.415283Z" fill="#D0E0F4"/>
<path d="M487.974 28.2153H4.33434C2.32402 28.2153 0.694336 29.845 0.694336 31.8553V31.8653C0.694336 33.8756 2.32402 35.5053 4.33434 35.5053H487.974C489.985 35.5053 491.614 33.8756 491.614 31.8653V31.8553C491.614 29.845 489.985 28.2153 487.974 28.2153Z" fill="#D0E0F4"/>
</svg>