<svg width="75" height="75" viewBox="0 0 75 75" fill="none" xmlns="http://www.w3.org/2000/svg">
<path d="M37.2098 74.2827C29.9132 74.2847 22.78 72.1228 16.7121 68.0705C10.6443 64.0182 5.91444 58.2574 3.12079 51.5168C0.32714 44.7762 -0.404837 37.3586 1.01744 30.202C2.43972 23.0453 5.95237 16.4712 11.1111 11.3111C16.2699 6.15092 22.843 2.63648 29.9993 1.21226C37.1555 -0.211955 44.5734 0.518007 51.3147 3.30983C58.0561 6.10165 63.8181 10.8299 67.872 16.8967C71.926 22.9634 74.0898 30.0961 74.0898 37.3927C74.0792 47.1715 70.1906 56.547 63.2768 63.4627C56.3631 70.3783 46.9887 74.2695 37.2098 74.2827ZM37.2098 10.5127C31.8906 10.5107 26.6904 12.0864 22.2668 15.0403C17.8432 17.9943 14.3951 22.1938 12.3586 27.1077C10.3221 32.0216 9.78878 37.4291 10.826 42.6462C11.8633 47.8633 14.4245 52.6556 18.1857 56.4168C21.947 60.178 26.7392 62.7393 31.9563 63.7765C37.1734 64.8137 42.5809 64.2804 47.4948 62.2439C52.4087 60.2074 56.6083 56.7593 59.5622 52.3357C62.5162 47.9122 64.0918 42.7119 64.0898 37.3927C64.0872 30.2626 61.255 23.4251 56.2151 18.3815C51.1753 13.3379 44.3399 10.5006 37.2098 10.4927V10.5127Z" fill="#D0E0F4"/>
</svg>