<svg width="109" height="253" viewBox="0 0 109 253" fill="none" xmlns="http://www.w3.org/2000/svg">
<path d="M67.1802 53.8809L57.8902 80.8809C57.8902 80.8809 51.8102 92.4409 43.0702 89.0909C40.2402 88.0009 36.4602 84.6909 32.6402 80.7109C26.8969 74.5223 21.5147 68.0082 16.5202 61.2009C16.5202 61.2009 6.45017 59.8109 2.33017 53.5809C-1.78983 47.3509 1.91017 42.5809 4.21017 44.7109C6.51017 46.8409 18.4102 49.8809 18.4102 49.8809C18.4102 49.8809 15.1902 40.3109 19.1102 44.0109C23.0302 47.7109 24.7002 55.2609 24.7002 55.2609C27.2402 57.7909 35.7902 63.7009 41.1602 67.3409C42.6802 68.3409 43.9502 69.2109 44.7502 69.7409L45.6602 70.3509C45.6602 70.3509 46.7702 68.2809 48.2902 65.5109C50.7502 61.0209 54.2302 54.2609 55.8002 51.7209C56.9131 50.0163 58.3844 48.5749 60.1115 47.4972C61.8385 46.4195 63.7799 45.7314 65.8002 45.4809L67.1802 53.8809Z" fill="url(#paint0_linear)"/>
<path d="M41.18 67.3809C37.867 71.4909 35.0134 75.9507 32.67 80.6809C26.9267 74.4923 21.5445 67.9782 16.55 61.1709C16.55 61.1709 6.47995 59.7809 2.35995 53.5509C-1.76005 47.3209 1.93996 42.5509 4.23996 44.6809C6.53996 46.8109 18.41 49.8809 18.41 49.8809C18.41 49.8809 15.19 40.3109 19.11 44.0109C23.03 47.7109 24.7 55.2609 24.7 55.2609C27.24 57.8809 35.79 63.7409 41.18 67.3809Z" fill="url(#paint1_linear)"/>
<path d="M79.9102 6.01089C79.9102 6.01089 80.2002 1.47088 85.8202 0.180885C91.4402 -1.10912 97.9402 4.66088 98.3002 12.3809C98.6602 20.1009 94.0102 28.4509 95.1802 32.0009C96.3502 35.5509 99.0402 33.7809 99.0402 33.7809C99.0402 33.7809 97.7802 38.7809 90.6202 39.5509C83.4602 40.3209 80.5202 32.8609 80.5202 32.8609L79.9102 6.01089Z" fill="url(#paint2_linear)"/>
<path d="M81.0103 5.78085C81.0103 5.78085 83.6702 5.30085 87.4202 7.92085C90.6602 10.1909 91.8102 17.6009 89.1202 21.5909C86.4302 25.5809 81.0103 5.78085 81.0103 5.78085Z" fill="url(#paint3_linear)"/>
<path d="M65.2501 28.7509C62.4411 26.122 60.7903 22.4859 60.6601 18.6409C60.4101 13.9109 63.0401 13.3609 63.0401 13.3609C63.0401 13.3609 63.5401 5.89087 69.6701 4.36087C75.8001 2.83087 85.8601 5.36088 88.6701 14.9709C91.4801 24.5809 83.9001 35.8809 83.9001 35.8809L65.2501 28.7509Z" fill="url(#paint4_linear)"/>
<path d="M78.4401 231.571C79.7913 238.288 79.947 245.19 78.9 251.961H76.7501C76.7501 251.961 77.2401 248.591 75.8801 241.191C75.8801 241.191 70.8001 247.981 69.0501 250.191C67.3001 252.401 62.6301 252.741 56.5201 252.001C50.4101 251.261 51.6601 248.371 59.8801 242.831C59.8801 242.791 72.4101 230.041 78.4401 231.571Z" fill="url(#paint5_linear)"/>
<path d="M66.72 226.941L66.98 229.611C66.98 229.611 64.64 238.261 61.19 241.551C59.7348 243.026 58.174 244.393 56.52 245.641C56.52 245.641 65.12 248.191 67.99 242.831C70.86 237.471 74.25 232.361 78.44 231.571L77.44 224.201L66.72 226.941Z" fill="url(#paint6_linear)"/>
<path d="M77.0701 150.881C71.4901 161.071 69.7101 168.001 69.7101 168.001C75.8601 186.251 78.3401 224.771 78.3401 224.771C77.0661 225.409 75.7243 225.902 74.3401 226.241C71.0628 226.988 67.6916 227.238 64.3401 226.981C61.3401 214.061 47.9301 174.601 47.7801 164.891C47.6301 155.181 56.0201 105.891 56.0201 105.891L82.7801 108.611L86.7801 129.811C86.7801 129.811 85.3801 133.471 83.1101 138.541C81.4801 142.191 79.4001 146.571 77.0701 150.881Z" fill="url(#paint7_linear)"/>
<g style="mix-blend-mode:color-dodge" opacity="0.22">
<path d="M66.2302 227.071C65.6302 224.861 51.4102 172.831 51.4102 163.521C51.4102 154.211 61.4102 112.251 61.8302 110.471L62.8302 110.701C62.7202 111.141 52.4302 154.351 52.4302 163.521C52.4302 172.691 67.0802 226.271 67.2202 226.811L66.2302 227.071Z" fill="#B18DF3"/>
</g>
<g style="mix-blend-mode:multiply" opacity="0.35">
<path d="M69.7101 167.961C75.8601 186.211 78.3401 224.731 78.3401 224.731C77.0661 225.369 75.7243 225.862 74.3401 226.201C72.3039 221.115 71.2847 215.679 71.3401 210.201C71.4745 201.332 69.7154 192.536 66.1801 184.401C62.8901 176.751 57.3701 168.951 64.0601 157.801C70.7501 146.651 76.6201 127.071 76.6201 127.071L83.1601 138.511C81.5301 142.151 79.4501 146.511 77.1601 150.801C71.4901 161.031 69.7101 167.961 69.7101 167.961Z" fill="#5C98E3"/>
</g>
<path d="M106.37 228.631C106.37 228.631 108.68 237.701 108.04 251.721H106.04C106.243 248.54 106.126 245.348 105.69 242.191C105.69 242.191 104.97 249.681 101.39 251.751C97.8102 253.821 91.6002 252.751 91.4402 250.951C91.2802 249.151 93.6802 237.021 96.1002 229.531L106.37 228.631Z" fill="url(#paint8_linear)"/>
<path d="M96.0602 226.451V229.501C96.0602 229.501 92.7502 245.591 95.6202 246.071C98.4902 246.551 101.03 244.471 102.47 236.751C103.91 229.031 106.37 228.631 106.37 228.631V224.881H96.3702L96.0602 226.451Z" fill="url(#paint9_linear)"/>
<path d="M108.07 225.521C107.55 225.711 107.07 225.891 106.55 226.031C98.75 228.341 93.31 225.521 93.31 225.521C93.31 225.521 92.46 186.461 86.62 171.061C81.26 156.931 73.42 121.131 71.62 112.971L71.25 111.291L88.08 107.371L100.38 104.501C104.771 111.756 106.536 120.3 105.38 128.701L106.02 162.141C110.83 194.631 108.07 225.521 108.07 225.521Z" fill="url(#paint10_linear)"/>
<g style="mix-blend-mode:color-dodge" opacity="0.22">
<path d="M100.91 226.941H99.9102C100.23 207.301 95.6102 179.941 93.9102 171.941C91.9102 162.071 83.0102 112.941 82.9102 112.421L83.9102 112.241C84.0002 112.741 92.9102 161.891 94.9102 171.741C96.5902 179.771 101.23 207.221 100.91 226.941Z" fill="#B18DF3"/>
</g>
<g style="mix-blend-mode:multiply" opacity="0.35">
<path d="M108.07 225.521C107.55 225.711 107.07 225.891 106.55 226.031C100.11 210.521 110.55 198.691 104.77 182.421C98.6103 165.011 99.2002 146.611 98.4802 133.641C97.8602 122.401 91.4802 117.421 88.9702 110.761C93.1235 109.36 96.9989 107.241 100.42 104.501C104.811 111.756 106.576 120.3 105.42 128.701L106.06 162.141C110.83 194.631 108.07 225.521 108.07 225.521Z" fill="#5C98E3"/>
</g>
<g style="mix-blend-mode:screen" opacity="0.32">
<path d="M98.3001 99.4109C84.5701 108.471 66.5701 110.341 56.6201 102.721L56.8901 101.311L88.5001 99.8809L98.3001 99.4109Z" fill="white"/>
<path d="M98.3001 99.4109C84.5701 108.471 66.5701 110.341 56.6201 102.721L56.8901 101.311L88.5001 99.8809L98.3001 99.4109Z" stroke="#383838" stroke-miterlimit="10"/>
</g>
<path d="M100.42 104.501C97.0017 107.245 93.1255 109.364 88.9702 110.761C85.1061 112.124 81.0631 112.912 76.9702 113.101C75.1991 113.178 73.4247 113.131 71.6602 112.961C60.9102 111.961 55.9302 106.381 55.9302 106.381L56.0202 105.901L56.6302 102.721L56.9001 101.311L88.5002 99.8809L98.3002 99.4309H98.6102L100.42 104.501Z" fill="url(#paint11_linear)"/>
<path d="M100.42 48.5908C97.1301 46.7708 92.4201 45.5908 87.1201 44.0708C87.1201 44.0708 80.2701 46.0708 68.6901 45.1208C67.1301 44.9908 63.9201 46.7508 63.9201 46.7508L64.8001 57.9008C64.8901 61.8408 57.3201 73.6008 59.5501 80.9008C61.7801 88.2008 56.8901 101.281 56.8901 101.281C65.1001 108.791 78.6101 106.521 88.0301 103.561C91.6569 102.432 95.1936 101.031 98.6101 99.3708C98.6101 99.3708 96.3901 90.7708 95.1101 85.3708C93.8301 79.9708 94.5101 68.2508 94.5101 68.2508L100.42 48.5908Z" fill="url(#paint12_linear)"/>
<path opacity="0.24" d="M88.5002 99.8808C89.5902 93.4608 91.7901 86.6808 88.8501 80.0608C84.7101 70.7508 88.0802 63.3308 88.0802 63.3308L94.5102 68.2808C94.5102 68.2808 93.8401 79.9808 95.1101 85.4008C96.3801 90.8208 98.6101 99.4008 98.6101 99.4008C95.1937 101.061 91.657 102.462 88.0301 103.591C88.12 102.347 88.2769 101.108 88.5002 99.8808V99.8808Z" fill="#383838"/>
<path opacity="0.24" d="M98.6102 99.4009C95.1938 101.061 91.6571 102.462 88.0302 103.591C87.9345 104.851 87.9646 106.117 88.1203 107.371V107.521C88.2796 108.628 88.5579 109.714 88.9503 110.761C93.1035 109.36 96.9789 107.241 100.4 104.501L98.6102 99.4009Z" fill="#383838"/>
<g style="mix-blend-mode:multiply" opacity="0.45">
<path d="M84.82 28.241C84.82 28.361 84.75 28.711 84.65 29.241C83.94 32.551 80.95 42.571 70.59 44.051C71.0752 41.6478 71.0377 39.1684 70.48 36.781L84.36 28.481L84.82 28.241Z" fill="#F2787A"/>
</g>
<path d="M64.3401 23.4809C64.3401 23.4809 65.3401 38.2109 70.7601 39.4809C75.4101 40.5309 81.1601 35.9909 82.3801 34.3309C83.2761 33.0145 84.062 31.6264 84.7301 30.1809C84.7301 30.1809 86.4001 31.3709 87.7301 27.5009C88.7301 24.5009 86.8001 23.0109 85.4401 23.7709C84.0801 24.5309 82.9401 27.9109 82.9401 27.9109C82.9401 27.9109 79.9401 27.9809 80.4701 24.5809C80.4701 24.5809 77.2101 24.9209 76.4701 20.5009C75.7301 16.0809 76.0301 14.4509 72.5801 12.2009C69.5401 16.2209 69.2901 21.9409 64.3401 23.4809Z" fill="url(#paint13_linear)"/>
<path d="M68.6902 45.1208V45.1808C68.6902 45.3108 68.5302 45.6708 68.3702 46.3208C68.3735 46.3407 68.3735 46.361 68.3702 46.3808C67.6702 49.2808 66.2802 57.7408 67.3102 76.3808C68.6602 100.601 61.8402 135.921 59.3102 147.621C59.3102 147.621 50.8202 136.021 50.4002 130.331C49.9802 124.641 53.2302 106.001 55.9502 98.6409C58.6702 91.2809 60.1602 85.2809 57.4902 78.5509C57.3802 78.2909 57.2902 78.0408 57.1802 77.7808C54.8602 71.5108 55.9702 66.0308 59.0902 59.3808C60.0902 57.3808 60.7002 53.3808 61.7902 49.3808C62.0488 48.4386 62.5569 47.5836 63.2609 46.906C63.9649 46.2284 64.8387 45.7533 65.7902 45.5308C66.7406 45.2969 67.7122 45.1596 68.6902 45.1208V45.1208Z" fill="url(#paint14_linear)"/>
<path d="M108.86 130.011C108.47 132.861 103.48 137.841 99.0001 141.791C95.2901 145.051 91.9402 147.611 91.9402 147.611C73.8502 95.8408 87.1201 44.0708 87.1201 44.0708C91.7156 45.0499 96.1797 46.567 100.42 48.5908C100.42 48.5908 99.0002 61.2708 98.0702 72.2108C97.5442 77.0729 97.2872 81.9603 97.3001 86.8508C97.7701 92.7708 110.04 121.301 108.86 130.011Z" fill="url(#paint15_linear)"/>
<g style="mix-blend-mode:multiply" opacity="0.35">
<path d="M108.86 130.011C108.47 132.861 103.48 137.841 99.0002 141.791C99.5402 124.661 94.5402 124.211 87.1202 115.711C79.3802 106.881 86.2902 98.3208 91.9402 88.6508C92.6002 87.5208 82.9402 83.4508 82.9402 83.4508C86.7102 79.6208 89.6902 68.4508 91.9402 59.3008L93.2002 68.6208L98.0602 72.2108C97.5343 77.0729 97.2772 81.9603 97.2902 86.8508C97.7702 92.7708 110.04 121.301 108.86 130.011Z" fill="#E58C33"/>
</g>
<path d="M74.5433 70.553L50.0649 72.2904C48.7097 72.3866 47.6891 73.5632 47.7853 74.9184L50.2428 109.541C50.339 110.897 51.5156 111.917 52.8708 111.821L77.3492 110.084C78.7044 109.987 79.725 108.811 79.6289 107.456L77.1713 72.8326C77.0752 71.4774 75.8985 70.4568 74.5433 70.553Z" fill="url(#paint16_linear)"/>
<path d="M103.81 86.2008C102.63 91.6208 100.48 94.9508 89.5602 96.6908C88.2702 96.9008 86.9102 97.0408 85.5002 97.1408C75.0302 97.9208 62.3302 96.1408 62.3302 96.1408C62.3302 96.1408 53.4402 99.3408 51.0802 98.1408C48.7202 96.9408 48.2502 94.4408 47.1302 91.1408C46.0102 87.8408 48.4402 84.2208 48.4402 84.2208C48.4402 84.2208 48.2602 86.9608 50.0002 87.6508C51.7402 88.3408 56.4202 87.4108 56.4202 87.4108C53.8502 83.9408 53.7902 80.6008 55.4202 81.7108C57.3164 83.267 59.0946 84.9616 60.7402 86.7808C68.3102 86.1608 79.0602 83.9308 84.8602 82.6508C87.3602 82.1008 88.9502 81.7108 88.9502 81.7108C88.9502 59.4808 96.9502 41.7108 102.25 50.3108C107.55 58.9108 104.99 80.7808 103.81 86.2008Z" fill="url(#paint17_linear)"/>
<path d="M103.81 86.2009C102.63 91.6209 100.48 94.9509 89.5601 96.6909C88.2701 96.9009 86.9101 97.0409 85.5001 97.1409C86.7125 92.368 86.5004 87.3446 84.8901 82.6909C86.2701 82.3909 87.3701 82.1309 88.0701 81.9609C88.7701 81.7909 88.9801 81.7509 88.9801 81.7509C88.9832 78.5475 89.1535 75.3465 89.4901 72.1609C91.3401 54.8009 97.7901 43.0209 102.28 50.3509C107.56 58.9709 104.99 80.7809 103.81 86.2009Z" fill="url(#paint18_linear)"/>
<defs>
<linearGradient id="paint0_linear" x1="34940.2" y1="14661.7" x2="34324" y2="10640.7" gradientUnits="userSpaceOnUse">
<stop stop-color="#F7B345"/>
<stop offset="1" stop-color="#FEDB58"/>
</linearGradient>
<linearGradient id="paint1_linear" x1="20420.5" y1="9752.72" x2="19889.2" y2="8589.21" gradientUnits="userSpaceOnUse">
<stop stop-color="#FFA290"/>
<stop offset="1" stop-color="#FECBA6"/>
</linearGradient>
<linearGradient id="paint2_linear" x1="86.2102" y1="21.1509" x2="102.02" y2="13.4309" gradientUnits="userSpaceOnUse">
<stop stop-color="#74335E"/>
<stop offset="1" stop-color="#A63663"/>
</linearGradient>
<linearGradient id="paint3_linear" x1="5402.04" y1="3291.19" x2="5544.33" y2="3137.45" gradientUnits="userSpaceOnUse">
<stop offset="0.02" stop-color="#6B7CF7"/>
<stop offset="0.54" stop-color="#8F85F5"/>
<stop offset="1" stop-color="#B18DF3"/>
</linearGradient>
<linearGradient id="paint4_linear" x1="15807.2" y1="6748.75" x2="15586.4" y2="5944.3" gradientUnits="userSpaceOnUse">
<stop stop-color="#74335E"/>
<stop offset="1" stop-color="#A63663"/>
</linearGradient>
<linearGradient id="paint5_linear" x1="52.6901" y1="241.871" x2="79.57" y2="241.871" gradientUnits="userSpaceOnUse">
<stop stop-color="#B18DF3"/>
<stop offset="0.46" stop-color="#8F85F5"/>
<stop offset="0.98" stop-color="#6B7CF7"/>
</linearGradient>
<linearGradient id="paint6_linear" x1="56.52" y1="235.221" x2="78.44" y2="235.221" gradientUnits="userSpaceOnUse">
<stop stop-color="#FECBA6"/>
<stop offset="1" stop-color="#FFA290"/>
</linearGradient>
<linearGradient id="paint7_linear" x1="78.3801" y1="165.631" x2="47.0101" y2="167.231" gradientUnits="userSpaceOnUse">
<stop stop-color="#567FE3"/>
<stop offset="1" stop-color="#81D8FF"/>
</linearGradient>
<linearGradient id="paint8_linear" x1="9508.09" y1="10459.6" x2="9788.31" y2="10459.6" gradientUnits="userSpaceOnUse">
<stop stop-color="#B18DF3"/>
<stop offset="0.46" stop-color="#8F85F5"/>
<stop offset="0.98" stop-color="#6B7CF7"/>
</linearGradient>
<linearGradient id="paint9_linear" x1="6844.78" y1="9080.42" x2="6986.87" y2="9080.42" gradientUnits="userSpaceOnUse">
<stop stop-color="#FECBA6"/>
<stop offset="1" stop-color="#FFA290"/>
</linearGradient>
<linearGradient id="paint10_linear" x1="21885.8" y1="42433" x2="20863.9" y2="42483.6" gradientUnits="userSpaceOnUse">
<stop stop-color="#567FE3"/>
<stop offset="1" stop-color="#81D8FF"/>
</linearGradient>
<linearGradient id="paint11_linear" x1="24892" y1="4038.23" x2="23809.6" y2="4005.04" gradientUnits="userSpaceOnUse">
<stop stop-color="#EB5896"/>
<stop offset="1" stop-color="#F988B7"/>
</linearGradient>
<linearGradient id="paint12_linear" x1="24708.3" y1="16001.1" x2="23339.3" y2="16008.4" gradientUnits="userSpaceOnUse">
<stop stop-color="#BBD6FE"/>
<stop offset="0.08" stop-color="#C2DAFE"/>
<stop offset="0.45" stop-color="#DFECFE"/>
<stop offset="0.77" stop-color="#F1F6FE"/>
<stop offset="1" stop-color="#F7FAFE"/>
</linearGradient>
<linearGradient id="paint13_linear" x1="13284.8" y1="6078.53" x2="12713.2" y2="5580.03" gradientUnits="userSpaceOnUse">
<stop stop-color="#FFA290"/>
<stop offset="1" stop-color="#FECBA6"/>
</linearGradient>
<linearGradient id="paint14_linear" x1="9955.33" y1="31866.2" x2="5517.58" y2="28253.9" gradientUnits="userSpaceOnUse">
<stop stop-color="#F7B345"/>
<stop offset="1" stop-color="#FEDB58"/>
</linearGradient>
<linearGradient id="paint15_linear" x1="15266.7" y1="31454" x2="10742" y2="26179.3" gradientUnits="userSpaceOnUse">
<stop stop-color="#F7B345"/>
<stop offset="1" stop-color="#FEDB58"/>
</linearGradient>
<linearGradient id="paint16_linear" x1="16208.7" y1="11382.6" x2="15409.1" y2="10784.2" gradientUnits="userSpaceOnUse">
<stop stop-color="#1C9AF1"/>
<stop offset="1" stop-color="#5ED1EB"/>
</linearGradient>
<linearGradient id="paint17_linear" x1="32361" y1="14224.7" x2="32268.3" y2="13378.4" gradientUnits="userSpaceOnUse">
<stop stop-color="#FFA290"/>
<stop offset="1" stop-color="#FECBA6"/>
</linearGradient>
<linearGradient id="paint18_linear" x1="11959" y1="14872.3" x2="10179.3" y2="11469.9" gradientUnits="userSpaceOnUse">
<stop stop-color="#F7B345"/>
<stop offset="1" stop-color="#FEDB58"/>
</linearGradient>
</defs>
</svg>
