<svg width="95" height="239" viewBox="0 0 95 239" fill="none" xmlns="http://www.w3.org/2000/svg">
<path d="M67.3493 26.2856L81.1092 29.7256L76.4492 43.0756C76.4492 43.0756 64.2092 38.3756 64.3292 38.0756C64.4492 37.7756 67.3493 26.2856 67.3493 26.2856Z" fill="url(#paint0_linear)"/>
<path d="M52.5793 9.19568C52.5793 9.19568 49.8693 9.51567 49.5793 14.0157C49.2893 18.5157 54.7793 24.0857 52.0793 27.3057C50.2093 29.5357 48.7393 33.8757 50.6993 36.5457C51.2493 37.2978 51.5383 38.2092 51.522 39.1408C51.5058 40.0725 51.1852 40.9732 50.6092 41.7057C50.6092 41.7057 64.2492 41.3457 64.3092 41.1057C64.3692 40.8657 63.0793 28.4557 63.0793 28.4557L52.5793 9.19568Z" fill="url(#paint1_linear)"/>
<path d="M56.4494 214.936C57.7679 222.191 58.1042 229.591 57.4494 236.936H54.9994C54.9511 232.515 54.6171 228.103 53.9994 223.726C53.9994 223.726 53.1594 233.296 50.9394 235.456C48.7194 237.616 43.4194 238.666 38.2194 237.906C33.0194 237.146 41.3694 226.566 41.3694 226.566L52.1693 214.276C52.1693 214.276 55.3294 211.206 56.4494 214.936Z" fill="url(#paint2_linear)"/>
<path d="M43.3792 157.146C43.3792 157.146 45.9592 201.946 45.7892 214.896C45.7892 214.896 41.3592 226.896 38.6492 231.526C38.6492 231.526 44.8592 233.796 47.6492 229.426C50.4392 225.056 52.9892 216.556 53.6492 215.596C54.3092 214.636 56.3591 214.896 56.3591 214.896C56.3591 214.896 56.3591 203.466 57.4991 188.066C58.6391 172.666 59.5992 167.766 59.1292 162.976L43.3792 157.146Z" fill="url(#paint3_linear)"/>
<path d="M85.6494 214.936C86.9704 222.191 87.3068 229.591 86.6494 236.936H84.1994C84.1482 232.516 83.8142 228.103 83.1994 223.726C83.1994 223.726 82.3494 233.296 80.1394 235.456C77.9294 237.616 72.6093 238.666 67.4193 237.906C62.2293 237.146 70.5694 226.566 70.5694 226.566L81.3593 214.276C81.3593 214.276 84.5694 211.206 85.6494 214.936Z" fill="url(#paint4_linear)"/>
<path d="M72.6092 157.146C72.6092 157.146 75.1192 201.766 74.9392 214.716C74.9392 214.716 70.5992 226.886 67.9392 231.526C67.9392 231.526 74.1492 233.796 76.9392 229.426C79.7292 225.056 82.2792 216.556 82.9392 215.596C83.5992 214.636 85.6492 214.896 85.6492 214.896C85.6492 214.896 85.6492 203.466 86.7892 188.066C87.9292 172.666 89.0092 164.066 88.5392 159.246L72.6092 157.146Z" fill="url(#paint5_linear)"/>
<path d="M68.4992 91.4756C68.4992 91.7956 68.3992 92.1556 68.3492 92.5756C66.9492 103.396 62.1392 144.306 62.1392 144.306C61.8895 155.021 60.9542 165.71 59.3392 176.306C56.7792 193.986 57.7192 206.036 57.7192 206.036H44.4492C44.8592 195.686 41.7492 166.346 40.7792 142.176C39.8092 118.006 45.9191 94.0656 45.9191 94.0656L68.4992 91.4756Z" fill="url(#paint6_linear)"/>
<g style="mix-blend-mode:multiply" opacity="0.35">
<path d="M68.3492 92.5757C66.9492 103.396 62.1392 144.306 62.1392 144.306C61.8894 155.021 60.9542 165.71 59.3392 176.306C56.7792 193.986 57.7192 206.036 57.7192 206.036H53.2792C50.4592 193.176 58.1892 171.036 54.5892 159.116C50.4992 145.606 49.4292 145.606 54.5892 129.256C59.7492 112.906 55.6791 96.4157 55.6791 96.4157L68.3492 92.5757Z" fill="#E58C33"/>
</g>
<path d="M88.3792 176.306C87.308 186.18 86.7639 196.104 86.7492 206.036H74.2492C74.6592 195.686 67.7792 164.456 66.7992 140.276C65.8192 116.096 62.6792 86.9457 62.6792 86.9457L82.6792 92.8157L86.9592 94.0657C90.1292 102.406 87.4592 138.346 87.0092 143.976C87.0092 144.456 86.9592 144.716 86.9592 144.716C89.001 155.116 89.4796 165.764 88.3792 176.306V176.306Z" fill="url(#paint7_linear)"/>
<g style="mix-blend-mode:multiply" opacity="0.35">
<path d="M87.0491 143.976H86.9991C83.5491 142.306 82.4992 125.246 81.0692 112.796C79.6392 100.346 67.8992 99.0757 67.8992 99.0757L82.7192 92.8357L86.9991 94.0857C90.1691 102.406 87.4991 138.346 87.0491 143.976Z" fill="#E58C33"/>
</g>
<path d="M55.6791 45.4156L47.9291 67.9656C47.9291 67.9656 48.0591 77.9656 38.4391 77.4956C35.9091 77.3856 30.0391 71.1456 26.8591 67.8256C22.0586 62.6635 17.5611 57.2277 13.3891 51.5456C13.3891 51.5456 4.98915 50.3756 1.54915 45.1856C-1.89085 39.9956 1.19915 35.9656 3.11915 37.7756C5.03915 39.5856 14.9691 42.1456 14.9691 42.1456C14.9691 42.1456 12.2791 34.1456 15.5491 37.2456C18.8191 40.3456 20.2192 46.6356 20.2192 46.6356C22.3292 48.7456 29.4691 53.6356 33.9491 56.7156L36.9491 58.7156L37.7091 59.2256C37.7091 59.2256 38.6292 57.4956 39.9092 55.2256C41.9092 51.4756 44.9092 46.1556 46.3392 44.0956C47.8795 41.9875 49.9211 40.2965 52.2792 39.1756L55.6791 45.4156Z" fill="url(#paint8_linear)"/>
<path d="M86.9891 94.0657C81.0408 97.0366 74.5401 98.7392 67.8992 99.0657C54.6492 99.6357 45.8992 94.0657 45.8992 94.0657C45.8992 94.0657 47.8992 79.3457 47.2592 71.2057C46.5792 61.8557 47.2092 61.1057 48.3892 56.9057C49.5692 52.7057 49.9591 40.7657 51.9291 39.3657C53.8991 37.9657 58.7391 37.1957 58.7391 37.1957C64.8544 36.621 71.0142 36.7149 77.1091 37.4757C87.2891 38.7357 89.7692 41.1857 89.7692 41.1857C89.7692 41.1857 86.7692 53.1857 84.8892 61.0357C84.3192 63.3957 83.8392 65.3757 83.5892 66.5057C82.4492 71.3857 86.9891 94.0657 86.9891 94.0657Z" fill="url(#paint9_linear)"/>
<path d="M60.3892 61.6156L60.5192 61.4156C60.5757 61.3275 60.6226 61.2337 60.6592 61.1356H61.0992C61.1622 61.1382 61.2238 61.1553 61.2792 61.1856C61.3119 61.1992 61.3407 61.2209 61.3628 61.2486C61.3849 61.2763 61.3996 61.3091 61.4056 61.3441C61.4116 61.379 61.4087 61.4149 61.397 61.4484C61.3854 61.4819 61.3655 61.5119 61.3392 61.5356C61.294 61.5642 61.2425 61.5814 61.1891 61.5856H60.6392L60.3892 61.6156Z" fill="#FFC91B"/>
<path d="M58.5093 60.9357H58.7693L59.0693 60.9857C59.1188 60.976 59.1698 60.976 59.2193 60.9857C59.1128 61.0591 58.9846 61.0942 58.8555 61.0851C58.7265 61.076 58.6044 61.0233 58.5093 60.9357V60.9357Z" fill="#FFC91B"/>
<g style="mix-blend-mode:multiply" opacity="0.35">
<path d="M86.9891 94.0657C81.0408 97.0365 74.5401 98.7392 67.8992 99.0657C67.4292 84.5757 49.5492 86.9557 47.8992 69.5257C47.8992 69.5257 58.8992 71.4457 67.8992 68.7657C76.8992 66.0857 83.4492 55.9357 83.4492 55.9357L84.9592 61.0357C84.3892 63.3957 83.9092 65.3756 83.6592 66.5056C82.4492 71.3856 86.9891 94.0657 86.9891 94.0657Z" fill="#D53468"/>
</g>
<path d="M94.1693 69.0556C94.1693 70.3456 93.8693 77.9056 88.9393 79.2156C85.9496 79.9016 82.8964 80.2736 79.8293 80.3256C74.7304 80.4571 69.6281 80.2868 64.5493 79.8156C64.5493 79.8156 57.3793 81.4256 54.1393 79.9956C52.1393 79.1056 49.2993 74.3956 49.2993 74.3956L52.7993 71.3956C52.7993 71.3956 52.6493 73.7056 54.1093 74.2856C55.5693 74.8656 59.4993 74.0756 59.4993 74.0756C57.3493 71.1656 57.2893 68.3656 58.6893 69.2956C60.2825 70.6033 61.7766 72.0272 63.1594 73.5556C70.4494 72.1156 74.6794 70.4256 78.7894 69.5556C80.0561 69.2568 81.3428 69.0496 82.6393 68.9356C82.6393 50.2656 86.3894 35.9356 91.4694 42.6956C91.8441 43.2155 92.1531 43.7798 92.3893 44.3756C92.5882 44.8766 92.7618 45.3872 92.9094 45.9056C94.4494 51.2556 94.3793 60.5656 94.1693 69.0556Z" fill="url(#paint10_linear)"/>
<path d="M94.1693 69.0556C94.1693 70.3456 93.8693 77.9056 88.9393 79.2156C85.9496 79.9016 82.8964 80.2736 79.8293 80.3256C82.5493 73.2256 78.9493 69.4556 78.8293 69.4956C80.0961 69.1967 81.3828 68.9895 82.6793 68.8756C82.0393 50.0156 86.4293 35.8756 91.5093 42.6356C91.8841 43.1555 92.1931 43.7198 92.4293 44.3156C92.5993 44.8056 92.7693 45.3156 92.9493 45.8456C94.4493 51.2556 94.3793 60.5656 94.1693 69.0556Z" fill="url(#paint11_linear)"/>
<path d="M33.9491 56.7256C31.1894 60.1569 28.812 63.8789 26.8591 67.8256C22.0586 62.6635 17.5611 57.2277 13.3891 51.5456C13.3891 51.5456 4.98915 50.3756 1.54915 45.1856C-1.89085 39.9956 1.19915 35.9656 3.11915 37.7756C5.03915 39.5856 14.9691 42.1456 14.9691 42.1456C14.9691 42.1456 12.2791 34.1456 15.5491 37.2456C18.8191 40.3456 20.2192 46.6356 20.2192 46.6356C22.3292 48.7556 29.4491 53.6856 33.9491 56.7256Z" fill="url(#paint12_linear)"/>
<g style="mix-blend-mode:multiply" opacity="0.75">
<path d="M43.0292 62.8056C40.8778 61.6505 38.8448 60.2873 36.9592 58.7356L37.7192 59.2456C37.7192 59.2456 38.6392 57.5156 39.9192 55.2456C40.464 57.9409 41.5197 60.5071 43.0292 62.8056V62.8056Z" fill="#F16EA5"/>
</g>
<path d="M54.8492 21.9556C54.8492 21.9556 51.1292 18.6456 50.3192 14.2056C49.5092 9.7656 52.5792 9.2056 52.5792 9.2056C52.5792 9.2056 53.0592 2.08559 58.8892 0.625594C64.7192 -0.834406 74.2892 1.62561 76.8892 10.7156C79.4892 19.8056 72.4492 30.5756 72.4492 30.5756L54.8492 21.9556Z" fill="url(#paint13_linear)"/>
<path d="M78.1891 37.6257C78.1891 37.6257 77.2592 38.7957 75.7892 40.3657C72.7892 43.5157 67.6392 48.2357 63.2892 48.2357C59.6092 48.2357 58.4392 43.2357 58.0792 40.0657C57.9723 39.1694 57.9123 38.2682 57.8992 37.3657C58.6284 37.1942 59.3712 37.0871 60.1191 37.0457H60.2292C60.8414 37.0934 61.448 36.8996 61.9191 36.5057C61.9483 36.4658 61.9719 36.422 61.9891 36.3757C62.1771 35.6341 62.1771 34.8573 61.9891 34.1157C61.8 33.0521 61.5496 32.0004 61.2391 30.9657L73.4891 23.9657C73.4891 23.9657 73.4891 24.0357 73.4891 24.1857C73.4891 25.2657 73.3091 29.8457 73.4291 33.1057C73.4291 34.8457 73.6391 36.2057 73.9191 36.4657C74.7991 37.2557 78.1891 37.6257 78.1891 37.6257Z" fill="url(#paint14_linear)"/>
<g style="mix-blend-mode:multiply" opacity="0.45">
<path d="M73.4492 23.9156C73.4541 23.9922 73.4541 24.0691 73.4492 24.1456C73.3292 26.0356 72.0591 38.8956 60.1191 37.0456C60.7675 37.1006 61.4122 36.9036 61.9191 36.4957C62.6191 35.5557 61.2192 30.9556 61.2192 30.9556L73.4492 23.9156Z" fill="#F2787A"/>
</g>
<path d="M53.4493 11.7057C53.4493 11.7057 53.1994 31.8057 61.2094 34.1057C66.6294 35.6657 73.3394 29.0557 73.4594 23.9257C73.4594 23.9257 75.6693 23.3657 75.7593 20.1257C75.8493 16.8857 71.2693 16.2557 71.5593 22.0557C70.5455 21.0952 69.7918 19.8934 69.3686 18.5626C68.9454 17.2317 68.8665 15.8153 69.1394 14.4457C67.7958 15.4446 66.1635 15.9791 64.4893 15.9683C62.8151 15.9574 61.1899 15.4019 59.8593 14.3857C54.9293 10.8257 53.4493 11.7057 53.4493 11.7057Z" fill="url(#paint15_linear)"/>
<path d="M65.1292 15.9557C65.1292 15.9557 69.6392 15.7657 69.1292 20.1657C68.6192 24.5657 69.1292 27.4757 73.5292 28.7857C77.9292 30.0957 77.9992 34.6957 76.2792 37.3057C76.2792 37.3057 76.7492 37.6557 79.6392 37.9157C81.2628 38.036 82.8669 38.3448 84.4192 38.8357C84.4192 38.8357 89.7992 28.5457 83.9592 24.1757C78.1192 19.8057 78.8392 15.9657 77.9592 9.73569C77.0792 3.50569 69.6292 -1.11431 61.7892 0.235685C53.9492 1.58569 65.1292 15.9557 65.1292 15.9557Z" fill="url(#paint16_linear)"/>
<path d="M75.7894 40.3657C72.7894 43.5157 67.6394 48.2357 63.2894 48.2357C59.6094 48.2357 58.4393 43.2357 58.0793 40.0657C58.0793 40.0657 63.7394 47.7357 75.7894 40.3657Z" fill="url(#paint17_linear)"/>
<path d="M71.7193 74.4257H58.2793V70.6857L68.2793 71.6057C68.8006 71.6504 69.305 71.8121 69.7552 72.0787C70.2053 72.3454 70.5895 72.71 70.8793 73.1457L71.7193 74.4257Z" fill="#96BCE2"/>
<path d="M67.8691 74.4456H30.3392C29.3674 74.4606 28.4188 74.1482 27.6461 73.5586C26.8734 72.9691 26.3215 72.1368 26.0792 71.1956L20.1592 47.6656C20.112 47.4223 20.1192 47.1716 20.1802 46.9315C20.2413 46.6913 20.3548 46.4676 20.5125 46.2765C20.6702 46.0853 20.8682 45.9314 21.0924 45.8258C21.3166 45.7202 21.5613 45.6655 21.8092 45.6656H58.3892C59.02 45.6582 59.6352 45.8618 60.1371 46.2441C60.639 46.6264 60.9987 47.1655 61.1592 47.7756L67.8691 74.4456Z" fill="url(#paint18_linear)"/>
<path d="M65.6492 74.4456H30.3392C30.0303 74.4464 29.722 74.4162 29.4191 74.3556C28.6199 74.2001 27.8815 73.8205 27.29 73.2609C26.6986 72.7013 26.2786 71.985 26.0792 71.1956L20.1592 47.6656C20.112 47.4224 20.1192 47.1716 20.1802 46.9315C20.2413 46.6913 20.3548 46.4677 20.5125 46.2765C20.6702 46.0853 20.8682 45.9314 21.0924 45.8258C21.3166 45.7202 21.5613 45.6655 21.8092 45.6656H56.6191C57.1189 45.6568 57.607 45.8169 58.0044 46.12C58.4018 46.423 58.6854 46.8514 58.8092 47.3356L60.1191 52.5156L65.6492 74.4456Z" fill="url(#paint19_linear)"/>
<path opacity="0.64" d="M43.1012 62.739C44.3528 62.2103 44.8691 60.6021 44.2545 59.1471C43.6398 57.6921 42.127 56.9411 40.8755 57.4698C39.6239 57.9984 39.1076 59.6065 39.7223 61.0616C40.3369 62.5166 41.8497 63.2676 43.1012 62.739Z" fill="#F5F9FF"/>
<defs>
<linearGradient id="paint0_linear" x1="78.0792" y1="30.1856" x2="53.1892" y2="48.2456" gradientUnits="userSpaceOnUse">
<stop stop-color="#74335E"/>
<stop offset="1" stop-color="#A63663"/>
</linearGradient>
<linearGradient id="paint1_linear" x1="8214.47" y1="7887.02" x2="7593.64" y2="7363.3" gradientUnits="userSpaceOnUse">
<stop stop-color="#74335E"/>
<stop offset="1" stop-color="#A63663"/>
</linearGradient>
<linearGradient id="paint2_linear" x1="36.4794" y1="225.596" x2="57.7094" y2="225.596" gradientUnits="userSpaceOnUse">
<stop stop-color="#3D92F5"/>
<stop offset="1" stop-color="#414ECA"/>
</linearGradient>
<linearGradient id="paint3_linear" x1="38.6492" y1="194.666" x2="59.3091" y2="194.666" gradientUnits="userSpaceOnUse">
<stop stop-color="#FECBA6"/>
<stop offset="1" stop-color="#FFA290"/>
</linearGradient>
<linearGradient id="paint4_linear" x1="11954.6" y1="10901.8" x2="12405.9" y2="10901.8" gradientUnits="userSpaceOnUse">
<stop stop-color="#3D92F5"/>
<stop offset="1" stop-color="#414ECA"/>
</linearGradient>
<linearGradient id="paint5_linear" x1="11696.9" y1="29809" x2="12127.1" y2="29809" gradientUnits="userSpaceOnUse">
<stop stop-color="#FECBA6"/>
<stop offset="1" stop-color="#FFA290"/>
</linearGradient>
<linearGradient id="paint6_linear" x1="15674.3" y1="40142.8" x2="14787" y2="40142.8" gradientUnits="userSpaceOnUse">
<stop stop-color="#F7B345"/>
<stop offset="1" stop-color="#FEDB58"/>
</linearGradient>
<linearGradient id="paint7_linear" x1="15463.5" y1="41452.9" x2="14648.1" y2="41452.9" gradientUnits="userSpaceOnUse">
<stop stop-color="#F7B345"/>
<stop offset="1" stop-color="#FEDB58"/>
</linearGradient>
<linearGradient id="paint8_linear" x1="30344" y1="11202.7" x2="29719.7" y2="10185" gradientUnits="userSpaceOnUse">
<stop stop-color="#EB5896"/>
<stop offset="1" stop-color="#F988B7"/>
</linearGradient>
<linearGradient id="paint9_linear" x1="25089.1" y1="18907.5" x2="23676.3" y2="15272.9" gradientUnits="userSpaceOnUse">
<stop stop-color="#EB5896"/>
<stop offset="1" stop-color="#F988B7"/>
</linearGradient>
<linearGradient id="paint10_linear" x1="76.2693" y1="88.0756" x2="73.6593" y2="73.8156" gradientUnits="userSpaceOnUse">
<stop stop-color="#FFA290"/>
<stop offset="1" stop-color="#FECBA6"/>
</linearGradient>
<linearGradient id="paint11_linear" x1="9184.1" y1="11783" x2="7940.18" y2="10001.6" gradientUnits="userSpaceOnUse">
<stop stop-color="#EB5896"/>
<stop offset="1" stop-color="#F988B7"/>
</linearGradient>
<linearGradient id="paint12_linear" x1="17597.9" y1="8365.71" x2="17228.1" y2="7555.62" gradientUnits="userSpaceOnUse">
<stop stop-color="#FFA290"/>
<stop offset="1" stop-color="#FECBA6"/>
</linearGradient>
<linearGradient id="paint13_linear" x1="15558.1" y1="7114.48" x2="15040.3" y2="6248.4" gradientUnits="userSpaceOnUse">
<stop stop-color="#74335E"/>
<stop offset="1" stop-color="#A63663"/>
</linearGradient>
<linearGradient id="paint14_linear" x1="11510.6" y1="5448.31" x2="11372.8" y2="6047.31" gradientUnits="userSpaceOnUse">
<stop stop-color="#FFA290"/>
<stop offset="1" stop-color="#FECBA6"/>
</linearGradient>
<linearGradient id="paint15_linear" x1="12694.6" y1="5238.35" x2="12403.3" y2="5065.61" gradientUnits="userSpaceOnUse">
<stop stop-color="#FFA290"/>
<stop offset="1" stop-color="#FECBA6"/>
</linearGradient>
<linearGradient id="paint16_linear" x1="15957.4" y1="8981.14" x2="15233.9" y2="8022.03" gradientUnits="userSpaceOnUse">
<stop stop-color="#74335E"/>
<stop offset="1" stop-color="#A63663"/>
</linearGradient>
<linearGradient id="paint17_linear" x1="9960.64" y1="2109.28" x2="9964.71" y2="2028.47" gradientUnits="userSpaceOnUse">
<stop offset="0.02" stop-color="#6B7CF7"/>
<stop offset="0.54" stop-color="#8F85F5"/>
<stop offset="1" stop-color="#B18DF3"/>
</linearGradient>
<linearGradient id="paint18_linear" x1="25874.6" y1="8087.57" x2="25602.3" y2="6107" gradientUnits="userSpaceOnUse">
<stop stop-color="#1C9AF1"/>
<stop offset="1" stop-color="#5ED1EB"/>
</linearGradient>
<linearGradient id="paint19_linear" x1="24805.3" y1="8778.77" x2="24588.8" y2="7007.04" gradientUnits="userSpaceOnUse">
<stop stop-color="#1C9AF1"/>
<stop offset="1" stop-color="#5ED1EB"/>
</linearGradient>
</defs>
</svg>
