<svg xmlns="http://www.w3.org/2000/svg" xmlns:xlink="http://www.w3.org/1999/xlink" viewBox="0 0 1175 950"><defs><linearGradient id="a" x1="143.33" y1="-10.66" x2="790.68" y2="636.69" gradientUnits="userSpaceOnUse"><stop offset="0" stop-color="#ff9800"/><stop offset="1" stop-color="#ff5722"/></linearGradient><linearGradient id="b" x1="382.48" y1="743.93" x2="1054.57" y2="71.83" gradientUnits="userSpaceOnUse"><stop offset="0" stop-color="#ffeb3b"/><stop offset="1" stop-color="#ffc107"/></linearGradient><linearGradient id="c" x1="307.53" y1="668.99" x2="969.31" y2="7.21" gradientUnits="userSpaceOnUse"><stop offset="0" stop-color="#ff9800"/><stop offset="1" stop-color="#ffc107"/></linearGradient></defs><path d="M594,831.65C466.71,981.45,214.37,1030.23,175.38,728.3,159.91,608.59,132.47,518.54,70.05,431.22-102.09,190.42,72.15-40.45,278.6,6,453.33,45.31,551.47,140.71,799.34,66.39c129.54-38.85,266.91-32.92,296.24,109.16,32.62,158-121.9,234.57-248.07,339.08C685.51,648.83,703.25,703.14,594,831.65Z" fill="url(#a)"/><path d="M908.62,769.09c-149.45,72.08-428.54,69.81-627.5-126.53S193.66,249.87,364.2,254.23s268.93-54.54,352-152.71,253.62-141.8,376.06,10.91S1236.59,610.92,908.62,769.09Z" fill="url(#b)"/><path d="M847.51,514.63c126.17-104.51,280.69-181.09,248.07-339.08-29.33-142.08-166.7-148-296.24-109.16-23.13,6.93-45,12.39-65.65,16.55a248.25,248.25,0,0,0-17.47,18.58c-83.09,98.17-181.47,157.08-352,152.71s-282,192-83.08,388.33C380.91,741,500.84,790.67,614.48,806.62,701.65,695.45,696.44,639.77,847.51,514.63Z" fill="url(#c)"/></svg>