<svg width="63" height="64" viewBox="0 0 63 64" fill="none" xmlns="http://www.w3.org/2000/svg">
<path d="M57.9998 48.6298C59.3115 46.4909 60.3592 44.2009 61.1198 41.8098L56.7298 38.2898C56.9098 37.4898 57.0698 36.6798 57.1798 35.8498C57.1798 35.5698 57.2498 35.2898 57.2798 34.9998L62.5998 33.1198C62.6691 30.6145 62.4375 28.1099 61.9098 25.6598L56.3298 24.8098C56.0088 23.74 55.6214 22.6913 55.1698 21.6698L58.8298 17.3998C57.6281 15.1967 56.1714 13.1426 54.4898 11.2798L49.2398 13.2798C48.429 12.5131 47.5707 11.7983 46.6698 11.1398L47.6698 5.60981C45.5343 4.29837 43.2476 3.25073 40.8598 2.48981L37.3398 6.87981C36.5346 6.68855 35.7202 6.53835 34.8998 6.42981L34.0498 6.32981L32.1798 1.00981C29.6711 0.939605 27.1631 1.17127 24.7098 1.69981L23.8598 7.27981C22.7889 7.59748 21.74 7.98498 20.7198 8.43981L16.4498 4.77981C14.243 5.97562 12.1882 7.43277 10.3298 9.11981L12.3798 14.3698C11.6248 15.2011 10.9234 16.0795 10.2798 16.9998L4.7498 15.9998C3.43409 18.1366 2.38623 20.4271 1.6298 22.8198L5.9998 26.2898C5.8098 27.0898 5.65981 27.8998 5.53981 28.7298C5.53981 29.0098 5.47981 29.2898 5.44981 29.5798L0.129802 31.4598C0.0600098 33.9651 0.291674 36.4698 0.819805 38.9198L6.39979 39.7698C6.72075 40.8396 7.10817 41.8883 7.55979 42.9098L3.89979 47.1798C5.09217 49.3887 6.5496 51.4439 8.23979 53.2998L13.4898 51.2998C14.2945 52.0694 15.1497 52.7843 16.0498 53.4398L15.0498 58.9698C17.1878 60.2535 19.4748 61.2711 21.8598 61.9998L25.3798 57.6098C26.1798 57.7898 26.9898 57.9498 27.8198 58.0698C28.0998 58.0698 28.3898 58.1298 28.6698 58.1598L30.5398 63.4798C33.0485 63.55 35.5565 63.3184 38.0098 62.7898L38.8598 57.2098C39.9293 56.904 40.9782 56.5299 41.9998 56.0898L46.2798 59.7498C48.4834 58.5538 50.5349 57.0967 52.3898 55.4098L50.3898 50.1598C51.1537 49.3466 51.8683 48.4883 52.5298 47.5898L57.9998 48.6298ZM27.2998 50.1998C23.7581 49.3912 20.5356 47.5507 18.0399 44.9109C15.5441 42.2711 13.887 38.9506 13.2782 35.3691C12.6694 31.7877 13.1362 28.1061 14.6195 24.7899C16.1028 21.4737 18.5361 18.6718 21.6117 16.7383C24.6873 14.8049 28.2671 13.8268 31.8986 13.9277C35.53 14.0286 39.05 15.2039 42.0135 17.3051C44.977 19.4063 47.251 22.339 48.5479 25.7324C49.8449 29.1259 50.1065 32.8277 49.2998 36.3698C48.2127 41.1191 45.2855 45.2429 41.1607 47.8358C37.036 50.4288 32.0508 51.279 27.2998 50.1998V50.1998Z" fill="#BACEE2"/>
</svg>
