<svg width="88" height="80" viewBox="0 0 88 80" fill="none" xmlns="http://www.w3.org/2000/svg">
<path d="M47.9999 79.8499C40.1124 79.8439 32.4038 77.4992 25.8489 73.1122C19.2939 68.7252 14.1871 62.4929 11.1741 55.2036C8.1612 47.9142 7.37747 39.895 8.92206 32.1602C10.4667 24.4254 14.2702 17.3224 19.8517 11.7492C25.4332 6.17612 32.542 2.38326 40.2792 0.850301C48.0163 -0.682658 56.0342 0.113142 63.319 3.13704C70.6039 6.16095 76.8284 11.2771 81.2056 17.8387C85.5827 24.4002 87.9159 32.1123 87.9099 39.9999C87.8887 50.5726 83.6752 60.7054 76.1935 68.1759C68.7118 75.6463 58.5727 79.8446 47.9999 79.8499ZM47.9999 6.65986C41.4115 6.66381 34.9722 8.62085 29.4959 12.2836C24.0195 15.9464 19.7519 21.1505 17.2324 27.2381C14.713 33.3257 14.0548 40.0236 15.3411 46.4852C16.6274 52.9467 19.8004 58.882 24.4591 63.5406C29.1178 68.1993 35.053 71.3723 41.5146 72.6586C47.9762 73.9449 54.6741 73.2868 60.7617 70.7673C66.8493 68.2479 72.0534 63.9803 75.7162 58.5039C79.3789 53.0275 81.336 46.5882 81.3399 39.9999C81.3399 31.1575 77.8273 22.6774 71.5749 16.4249C65.3224 10.1725 56.8422 6.65986 47.9999 6.65986V6.65986Z" fill="#D0E0F4"/>
<path d="M15.8903 79.3C24.3954 79.3 31.2903 72.4052 31.2903 63.9C31.2903 55.3948 24.3954 48.5 15.8903 48.5C7.38507 48.5 0.490234 55.3948 0.490234 63.9C0.490234 72.4052 7.38507 79.3 15.8903 79.3Z" fill="#0BC3E4"/>
</svg>
