<svg width="127" height="301" viewBox="0 0 127 301" fill="none" xmlns="http://www.w3.org/2000/svg">
<path d="M103.5 224.77C103.5 224.77 101.91 227.26 104.89 231.01C104.89 231.01 103.1 241.06 99.9502 245.23C96.8002 249.4 100.12 251.96 104.89 252.23C109.66 252.5 115.28 251.38 117.32 243.46C119.36 235.54 122.6 233.4 124.56 231.02C126.52 228.64 127.15 228.66 126.64 225.34C126.13 222.02 118.94 216.57 115.64 216.26C112.34 215.95 103.5 224.77 103.5 224.77Z" fill="url(#paint0_linear)"/>
<path d="M97.3101 220.11L106.01 226.67C106.01 226.67 113.92 223.46 115.62 216.25L107.44 206.31L97.3101 220.11Z" fill="url(#paint1_linear)"/>
<path d="M47.3901 260.57C47.3901 260.57 45.6901 261.33 45.2601 264.49C44.8301 267.65 44.3301 271.73 44.3301 271.73C44.3301 271.73 39.4701 282.97 37.2601 288.25C35.0501 293.53 34.4701 297.56 39.9001 299.83C45.3301 302.1 53.9001 299.38 56.5101 294.61C59.1526 289.966 62.0815 285.49 65.2801 281.21C67.6601 278.03 69.8701 275 65.4201 262.48L64.0901 259.54L47.3901 260.57Z" fill="url(#paint2_linear)"/>
<path d="M49.2701 247.7L47.3901 260.57C47.3901 260.57 53.5601 268.27 65.3901 262.48L69.1701 246.48L49.2701 247.7Z" fill="url(#paint3_linear)"/>
<path d="M110.51 207.16C110.132 210.435 108.931 213.562 107.02 216.25C107.02 216.25 107.02 216.25 107.02 216.25C104.704 219.501 101.708 222.211 98.2401 224.19L32.8301 177C29.0701 174.28 23.6301 163.54 27.2001 153.83C30.7701 144.12 58.3401 108.83 58.3401 108.83L77.8101 117L75.5701 122.75L62.6401 156.01L75.5901 170.32C81.8368 175.998 87.6966 182.088 93.1301 188.55C98.5943 195.052 104.396 201.264 110.51 207.16V207.16Z" fill="url(#paint4_linear)"/>
<g style="mix-blend-mode:multiply" opacity="0.35">
<path d="M110.51 207.16C110.132 210.436 108.931 213.563 107.02 216.25C100.39 206.17 92.0198 209.05 84.3298 197.25C74.5698 182.25 45.7698 176.8 43.8998 169.48C42.0298 162.16 46.7998 155.85 57.3598 147.68C67.9198 139.51 72.4998 123 72.4998 123L75.5698 122.77L62.6399 156.03L75.5898 170.34C81.8366 176.019 87.6963 182.109 93.1298 188.57C98.5946 195.066 104.396 201.271 110.51 207.16V207.16Z" fill="#5C98E3"/>
</g>
<path d="M116.64 117.55C116.47 129.48 111.02 135.44 108.3 139.87C105.58 144.3 81.0002 187.22 81.0002 187.22C81.0002 187.22 80.0002 193.02 76.4002 214.32C72.8002 235.62 69.3302 254.41 69.3302 254.41C66.8844 255.619 64.2557 256.417 61.5502 256.77C58.7588 257.133 55.9215 256.85 53.2568 255.943C50.592 255.036 48.171 253.53 46.1802 251.54C46.1802 251.54 47.7202 195.46 52.2602 179.79C56.8002 164.12 74.5302 117.55 74.5302 117.55C74.5302 117.55 103.73 109.31 113.48 113.39C115.5 114.2 116.67 115.54 116.64 117.55Z" fill="url(#paint5_linear)"/>
<g style="mix-blend-mode:multiply" opacity="0.35">
<path d="M116.64 117.55C116.47 129.48 111.02 135.44 108.3 139.87C105.58 144.3 80.9998 187.22 80.9998 187.22C80.9998 187.22 79.9998 193.02 76.3998 214.32C72.7998 235.62 69.3298 254.41 69.3298 254.41C66.884 255.619 64.2553 256.417 61.5498 256.77C67.6198 244.69 68.5498 225.77 67.3998 208.64C65.9598 187.28 68.6198 186.37 81.3998 165.48C94.1798 144.59 88.8398 114.38 88.8398 114.38L113.49 113.38C115.5 114.2 116.67 115.54 116.64 117.55Z" fill="#5C98E3"/>
</g>
<path d="M64.3398 117.55C69.0603 121.881 74.9499 124.728 81.276 125.738C87.6021 126.748 94.0856 125.876 99.9199 123.23L104.32 47.8198L95.6898 41.5698L83.4799 50.3198L64.3398 117.55Z" fill="url(#paint6_linear)"/>
<path d="M82.63 55.7098C82.63 55.7098 90.31 66.1198 101.93 57.1298C101.93 57.1298 105 46.7998 104.32 46.7998C103.64 46.7998 79.54 48.3898 79.54 48.3898L82.63 55.7098Z" fill="#AFE6F2"/>
<path d="M38.23 59.35C38.23 59.35 28.34 51.41 23.63 43.67C23.63 43.67 24.76 33.67 20.84 30.5C16.92 27.33 19.94 33.62 18.97 37.82C18.97 37.82 9.77003 34.42 5.12003 31.01C0.470031 27.6 0.29004 29.01 0.91004 32.43C1.53004 35.85 3.01005 37.82 3.70005 40.66C4.39005 43.5 7.10005 46.85 16.7 48.95C16.7 48.95 21.64 64.34 25.22 69.62C28.8 74.9 38.23 59.35 38.23 59.35Z" fill="url(#paint7_linear)"/>
<path d="M78.2999 27.7396C78.2999 27.5096 71.6099 25.2196 73.5999 16.4696C73.5999 16.4696 70.0199 13.9696 71.6699 7.60963C72.1029 5.51315 73.2393 3.62755 74.8907 2.26534C76.5421 0.903117 78.6094 0.146055 80.7499 0.119629C82.9699 0.119629 88.5299 4.25963 92.5699 3.86963C96.6099 3.47963 102.79 2.38963 105.12 6.24963C107.45 10.1096 105.68 14.4896 105.68 14.4896C105.68 14.4896 107.68 15.3396 107.27 19.1996C106.86 23.0596 103.18 27.3796 103.18 27.3796L93.8699 31.6396L78.2999 27.7396Z" fill="url(#paint8_linear)"/>
<path d="M103.44 42.9997C103.44 42.9997 101.05 54.7697 93.6401 55.6197C87.9301 56.2797 87.1201 52.7097 87.0901 49.0197C87.0901 47.9297 87.1401 46.8297 87.1701 45.8197L85.8101 36.9997L101.93 28.9297C101.93 28.9297 101.85 29.6297 101.81 30.7897C101.815 30.8128 101.815 30.8366 101.81 30.8597C101.6 34.9722 102.153 39.0881 103.44 42.9997V42.9997Z" fill="url(#paint9_linear)"/>
<g style="mix-blend-mode:multiply" opacity="0.45">
<path d="M101.93 28.9097C101.93 28.9097 101.93 29.6197 101.81 30.7697C101.815 30.7927 101.815 30.8166 101.81 30.8397C101.3 36.1097 98.8101 50.2497 87.1001 49.0297C87.1001 47.9397 87.1501 46.8397 87.1801 45.8297L85.8101 36.9997L101.93 28.9097Z" fill="#F2787A"/>
</g>
<path d="M77 16.4697C77 16.4697 77.45 27.4697 79.78 32.9997C82.11 38.5297 86.48 42.6497 89.78 42.9997C93.08 43.3497 98.3 38.5197 99.89 35.7297C100.94 33.5905 101.617 31.2872 101.89 28.9197C101.89 28.9197 104.59 28.8297 105.05 24.5797C105.51 20.3297 100.79 21.2797 100.56 26.5797C100.56 26.5797 98.01 27.0397 97.81 23.6897C97.4576 23.7254 97.1016 23.6898 96.7632 23.585C96.4248 23.4802 96.111 23.3084 95.8404 23.0798C95.5698 22.8512 95.3479 22.5705 95.1881 22.2543C95.0283 21.9382 94.9337 21.5932 94.91 21.2397C94.7795 19.7147 94.9148 18.1785 95.31 16.6997C95.31 16.6997 92.58 18.4097 85.94 16.4997C87.3262 18.2243 89.3257 19.3458 91.52 19.6297C89.035 20.4207 86.3858 20.5451 83.8376 19.9905C81.2894 19.4359 78.9316 18.2218 77 16.4697V16.4697Z" fill="url(#paint10_linear)"/>
<path d="M85.8099 69.34C82.3999 88.42 63.9999 127.26 63.9999 127.26C63.9999 127.26 53.9999 117.13 54.1999 110C54.4399 103.28 62.4299 93.2401 65.8699 81.8801C66.0899 81.1501 66.2899 80.41 66.4699 79.68C66.4699 79.68 57.2899 86.6801 51.2899 88.2701C50.7666 88.4176 50.2311 88.518 49.6899 88.5701C43.8999 89.0801 36.5799 84.48 29.4199 74.94L41.8499 62.39L47.3799 67.8201C47.3799 67.8201 59.8999 56.92 65.1099 51.48C73.1999 43.04 82.2099 47.03 86.7299 43.04C87.6982 51.805 87.3883 60.6642 85.8099 69.34V69.34Z" fill="url(#paint11_linear)"/>
<path d="M86.7402 43C86.7402 43 80.9802 45.72 79.9002 49.09C78.8202 52.46 80.5302 56.21 80.5302 56.21C80.5302 56.21 82.9102 52.12 85.3002 51.27L87.2302 55.48C87.5971 51.3161 87.4325 47.1223 86.7402 43Z" fill="#F9E4AA"/>
<path d="M119.2 115.75C119.1 116.47 119 117.19 118.86 117.89C116.47 130.84 90.2402 135.27 90.2402 135.27C92.2902 131.35 93.5703 125.57 94.4503 118.81C95.8403 107.98 96.1702 94.65 96.8002 82.54C96.9802 78.87 97.2003 75.32 97.4803 71.98C99.2703 50.77 103.48 42.98 103.48 42.98C107.26 46.32 113.99 47.47 119.82 51.42C119.82 51.42 119.58 64.88 118.9 76.98C118.78 79.09 118.78 81.33 118.83 83.64C119.06 93.84 120.6 105.54 119.2 115.75Z" fill="url(#paint12_linear)"/>
<path d="M42.7699 63.2596C42.7699 63.2596 32.1999 72.2596 28.6799 79.2596C28.6799 79.2596 24.8799 75.7996 23.6299 68.2596C23.6299 68.2596 29.7599 59.7896 37.4799 57.6396L42.7699 63.2596Z" fill="#F9E4AA"/>
<g style="mix-blend-mode:multiply" opacity="0.35">
<path d="M70 59.6299C69 74.6299 66.05 81.6299 66.05 81.6299C65.9787 81.6845 65.9119 81.7447 65.85 81.8099C66.07 81.0799 66.27 80.3399 66.45 79.6099C66.45 79.6099 57.27 86.6099 51.27 88.1999C62.26 78.7299 70 59.6299 70 59.6299Z" fill="#E58C33"/>
</g>
<path d="M99.9199 54.5498L102.42 51.3298C103.692 52.8325 104.516 54.6618 104.8 56.6098C104.8 56.6098 107.64 50.4298 106.88 45.2398C105.914 43.7007 104.567 42.4367 102.97 41.5698C102.97 41.5698 100.15 50.1498 99.9199 54.5498Z" fill="#F9E4AA"/>
<g style="mix-blend-mode:multiply" opacity="0.36">
<path d="M96.8 82.54C96.17 94.64 95.8001 107.98 94.4501 118.81C88.3501 117.09 82.9201 113.43 76.1501 108.86C75.0701 108.13 74.0401 107.46 73.0601 106.86C75.8001 100.3 78.7201 92.94 81.1201 86C83.3001 85.7134 85.7334 85.4334 88.4201 85.16C91.3637 84.8716 94.2163 83.9797 96.8 82.54V82.54Z" fill="#1E9BF1"/>
</g>
<g style="mix-blend-mode:multiply" opacity="0.35">
<path d="M65.2498 89.1397C65.2498 89.1397 69.8698 87.4797 81.1198 85.9697C78.7198 92.9097 75.7998 100.27 73.0598 106.83C63.3798 100.68 58.3398 99.3697 58.3398 99.3697L66.7798 96.3097L65.2498 89.1397Z" fill="#E58C33"/>
</g>
<g style="mix-blend-mode:multiply" opacity="0.35">
<path d="M119.2 115.75C116.174 117.247 112.968 118.35 109.66 119.03C104.651 120.221 99.4232 120.145 94.4502 118.81C95.8402 107.98 96.1702 94.6399 96.8002 82.5399C106.95 76.9599 110.61 64.6899 110.61 64.6899L118.79 83.6899C119.06 93.8399 120.6 105.54 119.2 115.75Z" fill="#E58C33"/>
</g>
<path d="M119.78 51.4497C119.78 51.4497 111.7 54.0097 110.51 65.5897C109.32 77.1697 107.84 90.6597 107.84 90.6597H97.3102L96.7002 107.39C96.7002 107.39 117.32 110.25 121.92 101.05C126.52 91.8497 130.07 54.8597 119.78 51.4497Z" fill="url(#paint13_linear)"/>
<path d="M101.06 91.0599C91.5101 90.6399 78.0601 90.21 65.2501 89.14C65.2501 89.14 59.8301 84.7599 57.1501 84.4199C54.4701 84.0799 59.7901 89.57 59.7901 89.57C59.7901 89.57 55.2701 93.66 52.6701 93.66C50.0701 93.66 45.9901 93.02 46.0301 94.38C46.0701 95.74 51.5701 99.6799 54.2901 100.06C57.0101 100.44 66.7801 96.3099 66.7801 96.3099C66.7801 96.3099 83.4801 104.01 95.9401 105.97L101.06 91.0599Z" fill="url(#paint14_linear)"/>
<path d="M101.05 90.6399C101.05 90.6399 101.23 107.16 102.5 111.76C102.5 111.76 93.0399 109.1 91.9799 107.76C90.9199 106.42 91.9799 90.6099 91.9799 90.6099L101.05 90.6399Z" fill="#F9E4AA"/>
<defs>
<linearGradient id="paint0_linear" x1="117.75" y1="234.58" x2="104.8" y2="233.98" gradientUnits="userSpaceOnUse">
<stop offset="0.02" stop-color="#6B7CF7"/>
<stop offset="0.54" stop-color="#8F85F5"/>
<stop offset="1" stop-color="#B18DF3"/>
</linearGradient>
<linearGradient id="paint1_linear" x1="111.09" y1="212.71" x2="100.64" y2="226.73" gradientUnits="userSpaceOnUse">
<stop stop-color="#FFA290"/>
<stop offset="1" stop-color="#FECBA6"/>
</linearGradient>
<linearGradient id="paint2_linear" x1="13094" y1="17818.8" x2="12397.8" y2="17717.9" gradientUnits="userSpaceOnUse">
<stop offset="0.02" stop-color="#6B7CF7"/>
<stop offset="0.54" stop-color="#8F85F5"/>
<stop offset="1" stop-color="#B18DF3"/>
</linearGradient>
<linearGradient id="paint3_linear" x1="8881.36" y1="7534.32" x2="8511.89" y2="7448.93" gradientUnits="userSpaceOnUse">
<stop stop-color="#FFA290"/>
<stop offset="1" stop-color="#FECBA6"/>
</linearGradient>
<linearGradient id="paint4_linear" x1="66.5301" y1="170.54" x2="22.5701" y2="185.51" gradientUnits="userSpaceOnUse">
<stop stop-color="#567FE3"/>
<stop offset="1" stop-color="#81D8FF"/>
</linearGradient>
<linearGradient id="paint5_linear" x1="29968.7" y1="47862.6" x2="27763.5" y2="47652.9" gradientUnits="userSpaceOnUse">
<stop stop-color="#567FE3"/>
<stop offset="1" stop-color="#81D8FF"/>
</linearGradient>
<linearGradient id="paint6_linear" x1="109.5" y1="93.2798" x2="80.6299" y2="80.8098" gradientUnits="userSpaceOnUse">
<stop stop-color="#2C82F1"/>
<stop offset="1" stop-color="#77DAEE"/>
</linearGradient>
<linearGradient id="paint7_linear" x1="13201.7" y1="8276.9" x2="13534.5" y2="7949.96" gradientUnits="userSpaceOnUse">
<stop stop-color="#FFA290"/>
<stop offset="1" stop-color="#FECBA6"/>
</linearGradient>
<linearGradient id="paint8_linear" x1="88.5199" y1="22.4496" x2="90.4799" y2="1.77963" gradientUnits="userSpaceOnUse">
<stop stop-color="#553069"/>
<stop offset="1" stop-color="#793F88"/>
</linearGradient>
<linearGradient id="paint9_linear" x1="7730.71" y1="4989.01" x2="7741.68" y2="5532.84" gradientUnits="userSpaceOnUse">
<stop stop-color="#FFA290"/>
<stop offset="1" stop-color="#FECBA6"/>
</linearGradient>
<linearGradient id="paint10_linear" x1="12479.5" y1="4764.85" x2="12006.7" y2="4570.36" gradientUnits="userSpaceOnUse">
<stop stop-color="#FFA290"/>
<stop offset="1" stop-color="#FECBA6"/>
</linearGradient>
<linearGradient id="paint11_linear" x1="64.1499" y1="135.48" x2="56.8499" y2="42.99" gradientUnits="userSpaceOnUse">
<stop stop-color="#F7B345"/>
<stop offset="1" stop-color="#FEDB58"/>
</linearGradient>
<linearGradient id="paint12_linear" x1="13373.1" y1="25693.1" x2="10368.2" y2="18129.1" gradientUnits="userSpaceOnUse">
<stop stop-color="#F7B345"/>
<stop offset="1" stop-color="#FEDB58"/>
</linearGradient>
<linearGradient id="paint13_linear" x1="13667.8" y1="15664.4" x2="12449.4" y2="10609.4" gradientUnits="userSpaceOnUse">
<stop stop-color="#F7B345"/>
<stop offset="1" stop-color="#FEDB58"/>
</linearGradient>
<linearGradient id="paint14_linear" x1="22720.2" y1="5467.72" x2="22725.2" y2="5167.49" gradientUnits="userSpaceOnUse">
<stop stop-color="#FFA290"/>
<stop offset="1" stop-color="#FECBA6"/>
</linearGradient>
</defs>
</svg>
