<svg xmlns="http://www.w3.org/2000/svg" xmlns:xlink="http://www.w3.org/1999/xlink" viewBox="0 0 260.67 260.66"><defs><radialGradient id="a" cx="921.07" cy="266.82" r="140.36" gradientTransform="matrix(-0.59, -0.81, -0.81, 0.59, 917.32, 743.49)" gradientUnits="userSpaceOnUse"><stop offset="0" stop-color="#4764b8"/><stop offset="0.28" stop-color="#4661b6"/><stop offset="0.47" stop-color="#4358b1"/><stop offset="0.63" stop-color="#3e49a9"/><stop offset="0.77" stop-color="#38349d"/><stop offset="0.9" stop-color="#2f198d"/><stop offset="1" stop-color="#27007f"/></radialGradient><linearGradient id="b" x1="963.32" y1="394.63" x2="963.32" y2="165.76" gradientTransform="matrix(-0.59, -0.81, -0.81, 0.59, 917.32, 743.49)" gradientUnits="userSpaceOnUse"><stop offset="0" stop-color="#e8ddff"/><stop offset="1" stop-color="#ff62b1"/></linearGradient><linearGradient id="c" x1="888.71" y1="244.16" x2="888.71" y2="210.24" xlink:href="#b"/><linearGradient id="d" x1="884.11" y1="253.98" x2="884.11" y2="249.04" gradientTransform="matrix(-0.59, -0.81, -0.81, 0.59, 917.32, 743.49)" gradientUnits="userSpaceOnUse"><stop offset="0" stop-color="#e8ddff"/><stop offset="1" stop-color="#aa8ad8"/></linearGradient><linearGradient id="e" x1="947.7" y1="298.23" x2="947.7" y2="186.92" xlink:href="#b"/><linearGradient id="f" x1="1024.13" y1="379.43" x2="1024.13" y2="272.17" xlink:href="#b"/><radialGradient id="g" cx="870.94" cy="200.01" r="83.54" gradientTransform="matrix(-0.59, -0.81, -0.81, 0.59, 917.32, 743.49)" gradientUnits="userSpaceOnUse"><stop offset="0" stop-color="#fff"/><stop offset="1" stop-color="#8b8dcc"/></radialGradient></defs><g style="isolation:isolate"><path d="M53.82,24.83c-1.07.78-2.12,1.57-3.15,2.36A129.23,129.23,0,0,0,24.12,54.73,130.38,130.38,0,0,0,160.88,257.05c2.57-.61,5.13-1.3,7.68-2.09A130.44,130.44,0,0,0,242.77,64.42c-1.66-2.84-3.43-5.63-5.36-8.36l0,0c-.49-.76-1-1.49-1.55-2.22a130.81,130.81,0,0,0-19.22-21.19A124.07,124.07,0,0,0,202.8,22a130.37,130.37,0,0,0-149,2.87Z" fill-rule="evenodd" fill="url(#a)"/><path d="M122.13.25c.33.09.66.17,1,.27a27.55,27.55,0,0,1,5.19,2.21c1.36.8,2.36,2,3.54,2.78a33,33,0,0,0,6.78,3.36c2.86,1.11,5.22,2.82,8,4,7.37,3,15.88,1.71,23.64,1.59a34.52,34.52,0,0,0,4.9-.24,10.25,10.25,0,0,1,3.53.29c2.63.49,5.54,1.25,7.45,3.28,1.16,1.23,1.22,2.92,1.61,4.57.54,2.25.72,3.06-1.57,3.2-4,.25-8.73-.32-10,4.62A69,69,0,0,0,174,39.51c-.39,3.57-2,7.65-.5,11.22,1.11,2.65,4.36,3.6,6.64,5.1,2,1.33,4.36,2.46,6,4.31,1.26,1.44,1.66,3.14,2.54,4.81,1.35,2.57,3.65,4.84,6.66,4.32,1.15-.18,1.2-.63,2.44-.23A11.28,11.28,0,0,1,201,71.37c2.63,2.32,4.54,5.47,7.19,7.74a59.69,59.69,0,0,0,5.92,4c1.28.84,2.37,2.25,3.66,2.8.75.33,1.82.45,2.64.75a9.27,9.27,0,0,1,5.35,3.94,42.74,42.74,0,0,1,6.6,16.21c.52,3.45-.89,4.47-3.85,5.37-2.53.78-6.39.85-8.19,2.93-1.54,1.74-2,4.27-3.23,6.14s-2.42,3.63-4.72,4.13c-3.87.85-8.09-.22-12,.17-4.4.44-10.33,3.28-10.23,8.25.07,2.45-.87,4.52-1.68,6.82-.56,1.54-1.73,3.53-.17,4.9,1,.9,3.11.76,4.21,1.56a4.65,4.65,0,0,1,1.66,3.8c.14,2.25.74,5.05.27,7.29-.86,4.1-6.22,7.75-10.1,8.44-4.65.85-9.27,2-13.65-.37-2.78-1.48-4.87-4.31-8.37-3.83-2.16.31-3.51,1.67-5.39,2.49s-3.77,1.13-5.59,2.21a31.69,31.69,0,0,1-5.25,2.53,66.74,66.74,0,0,1-8,2.73c-3.17.73-6.31.07-9.46.1-2.82,0-5-1-7.73-1.32-3-.36-6.06-1.44-9.1-.92-2.3.39-4.56,1-6.91,1.34-6.5.73-6.88-6.2-7.07-11.06a36.89,36.89,0,0,1,.41-9.74,40.11,40.11,0,0,0,1.25-7.86,54.72,54.72,0,0,0-.22-7.9,8.67,8.67,0,0,1-.28-3.09,7.25,7.25,0,0,1,2.92-4.13c3-2.31,6.63-5.8,10.16-7.26,3.85-1.62,6.19,2.28,8.13,4.84,1.1,1.45,2.71,3.14,4.62,2.86s3-1.56,5-1.67a4.4,4.4,0,0,1,4.54,2.9c.37.84.39,1.65.83,2.49s1.29,1.18,1.11,2.24c-.35,2.21-3.65,1.37-5.26,1.32-2.87-.1-3.38.06-4.71,2.6-.76,1.47-1.85,3.89-.08,5,1.27.77,4.3-.18,5.69-.1,5.9.31,11.87.65,14.15-6.13.72-2.12-.12-3-.16-5s1.4-4.06,1.26-6.23c-.21-2.87-3-5.44-4.64-7.72a52.32,52.32,0,0,0-6.87-7.7,15.72,15.72,0,0,0-5.29-3c-2-.89-2.63-3.1-4.21-4.5-2.95-2.56-6.18-2.26-9.79-2.67s-5.74.62-9.07,1.95A90.68,90.68,0,0,0,88,112.2c-5.07,3.73-10,7.93-15.78,10.41a52,52,0,0,1-8.39,2.74c-.93.22-.89-.22-1.72.66a15.19,15.19,0,0,0-1.79,3.33c-.65,1.88-.29,4.66-.56,6.68s.11,3.86.15,5.83c.09,2.85.36,5.55.53,8.37.28,4.54-3.92,7.51-4.49,12.08-.81,6.48,1.76,11.45,3.48,17.57,1.38,4.89,3.1,9.56,3.89,14.53.49,3.12.24,6,1,9.11,1,3.93,2.93,7.48,4.4,11.23a26.54,26.54,0,0,0,4.85,8.15c1.41,1.53,2.83,2.4,4.12,4.21,2.28,3.15,4.54,6.38,6.89,9.51,1.26,1.66,3.12,2.51,4.86,3.67s3.65,2.22,5.42,3.4c4.66,3,9.8,8.48,15.69,8.55,1.73,0,3.49-.35,5.21-.22a26.21,26.21,0,0,1,4,1.17,23.39,23.39,0,0,1,3.21.94,17.07,17.07,0,0,0,4.94,1,15.34,15.34,0,0,1,4.42,1.33c.72.32,1.77,1.21,2.53,1.28,1,.12,1.09-.44,2-.87s1.9-.59,2.88-1c2.6-1.13,6.23-1.83,9.16-.56,1.59.7,2.33,1.43,4.07,1.8a12.36,12.36,0,0,0,8.07-.26,2.09,2.09,0,0,1-.13.23,130.58,130.58,0,0,1-89.6-10.54c-.22-1-.43-1.94-.6-2.88-.52-2.93-2-4.85-3.68-7.18a60.6,60.6,0,0,1-5.76-9.73,53,53,0,0,0-5.33-8.41c-2.52-3.39-4.15-7.26-6.69-10.68-2.43-3.24-5.56-5.53-8.57-8.18-4.3-3.8-6.52-9.56-8.84-14.71-1.07-2.33-1.31-5-2.49-7.29-.73-1.38-1.68-2.54-2.33-4a41,41,0,0,0-6.87-10.31c-1.81-1.86-4-1.52-6.19-2.32s-3-3.67-4.51-5.31c-1.77-1.92-4.75-2.32-7.32-1.78a130.8,130.8,0,0,1,22-99c2.11,3,2.92,9.07,4.29,10.66.83,1,2.05,1.41,2.87,2.53a17,17,0,0,1,1.54,3.29c.79,1.73,1.83,3.88,3.87,3.65s3.71-3.67,5.7-1.69c1,1,.86,2.66,2,3.76a15.91,15.91,0,0,1,2.54,2.71,43.87,43.87,0,0,1,3,5.65,6.81,6.81,0,0,0,2.11,2.13c.65.56,1.56,2,2.26,2.32,2.53,1.24,3.32-2,3.94-3.7a25.44,25.44,0,0,1,1-2.85c.51-1,1.05-1.1,1.75-1.85,1.83-1.9,2.31-4.5,2.53-7.07.32-3.76.73-7.76,2.1-11.27.61-1.59.76-2.73,1.93-3.93.87-.9,1.7-1.8,2.54-2.74a27.12,27.12,0,0,0,2.6-3.43c1.13-1.66,2.73-2.85,3.92-4.47,1-1.38,2.64-4.79,2.49-6.56-.08-.83-.7-1.5-.68-2.41S79,38,78.79,37.1c-.51-2.09-4.11-4.1-5.72-5.19a23.71,23.71,0,0,0-8.64-3.42c-3.17-.55-5.86-.29-9-.28a11.05,11.05,0,0,1-4.78-1c1-.79,2.08-1.58,3.15-2.36A129.73,129.73,0,0,1,122.13.25Zm-9.46,89.9c-.53.76.12,2.49.71,3.07,1.17,1.21,3.5,1.12,5.07,1.53a6.56,6.56,0,0,0,4.93-.5l-1.4-.51c2.08,0,4.55.61,5.5-1.89.52-1.42-.2-2.44-1.38-3.14-1.94-1.11-4.11-2.41-6.41-2.51-1.58-.08-2.74.87-4,1.78C114.94,88.56,113.27,89.33,112.67,90.15Zm43.61-65.6a7.3,7.3,0,0,0-.27,4.79,14.09,14.09,0,0,0,1.81,3.92c1.64,2.29,5,3.09,7.46,3.77,1.45.42,5.16.9,2-1.39a6.71,6.71,0,0,0,2.92-1.08,14.62,14.62,0,0,0,1.57-1.76c1.13-1.32,1.66-2.95,2.68-4.31a19.59,19.59,0,0,1,2.75-3.14c.91-.77,2-1.09,2-2.45a1.44,1.44,0,0,0-1-1.58,11.39,11.39,0,0,0-2.89-.21c-1-.09-1.91-.16-2.89-.19-2.8-.17-5.57.78-8.36.85a15,15,0,0,0-4.37.34A5.37,5.37,0,0,0,156.28,24.55Zm-81.5-2.38c-1.08,2.44.41,5.66,1.57,7.83,1.73,3.2,5.13,6,7.93,8.37a8.86,8.86,0,0,0,3.63,2c1.52.45,2.94,1.48,1.44-.12a52.76,52.76,0,0,0,5.76-2.3c2.36-1.09,5-1.65,7.47-2.51,4.09-1.45,9-3.13,11.88-6.61,1.86-2.27,3.05-5.87,2-8.68a11.86,11.86,0,0,0-3.84-5.3c-2.11-1.57-4.74-2.24-7.24-2.87a13.78,13.78,0,0,0-7.64.14c-1.73.6-3.34,1.57-5.11,2.05-.91.25-1.74.44-2.63.76a10.36,10.36,0,0,1-3.38.31c-1.75.07-3.11-.05-4.57.92s-2.66,2-4,2.93S75.44,20.69,74.78,22.17Z" fill-rule="evenodd" opacity="0.3" fill="url(#b)" style="mix-blend-mode:multiply"/><path d="M198.23,159.86c-.63,1.11-2.24,3.54-2,5,.31,1.66,2.75,2.16,4,2.77a19.49,19.49,0,0,1,3.06,1.45,20.34,20.34,0,0,0,2.17,1.76,8.3,8.3,0,0,0,2.43,1,5.92,5.92,0,0,0,2.24-.5c1.89-.52,3.66-1.74,5.46-2.54a6.27,6.27,0,0,0,2.51-2.2c1-1.28,2.11-2.48,3.07-3.79a30.72,30.72,0,0,0,3.82-6,8.82,8.82,0,0,0,.31-5.78c-.19-.86-.64-1.62-.82-2.49a14.24,14.24,0,0,0-.82-3.14,6.08,6.08,0,0,0-1-1.58,4.67,4.67,0,0,0-1.75-.91,4.86,4.86,0,0,0-2.45-.81,7.18,7.18,0,0,0-2.48.37c-1.61.57-3.38.85-4.93,1.53a10.11,10.11,0,0,0-4.83,3.9,36.4,36.4,0,0,1-3.82,4.69,16.37,16.37,0,0,0-3.39,4.63C198.56,158.42,198.52,159.57,198.23,159.86Z" fill-rule="evenodd" opacity="0.3" fill="url(#c)" style="mix-blend-mode:multiply"/><path d="M197.08,174.59a4.24,4.24,0,0,1-.93,2.23c-1.09-.51-2.65.7-3.74-.26.25-1.07-.07-3.13,1.57-3.25.23,0,.61.31.86.34s.74-.13,1,0c.65.34,1.4,1.91,1.84,2.51Z" fill-rule="evenodd" opacity="0.3" fill="url(#d)" style="mix-blend-mode:multiply"/><path d="M172.75,158.78a7,7,0,0,1-3.05.06c-.92-.2-1.93-.54-2.86-.77a30.4,30.4,0,0,0-5.33-1.35c-1.7-.09-2.4.87-3.71,1.61-.78.44-1.69.77-2.51,1.17a8.68,8.68,0,0,0-1.38.59,8.6,8.6,0,0,1-1.51,1c-1.17.47-2.46.31-3.63.8a7.36,7.36,0,0,1-2.81.94,7.55,7.55,0,0,1-2.12-.7,10,10,0,0,0-2.83-.29c-3.28,0-6.06,1.75-9.25,2-2.89.22-4.75-3.5-6.54-5.18-.3-.27-.76-.37-1-.73a5.55,5.55,0,0,1-.31-1.41,3.81,3.81,0,0,0-1.19-2c-.36-.35-.47.09-.75-.59a2.89,2.89,0,0,1,.27-1.65,3.7,3.7,0,0,1,2.58-2.11c1.21-.44,2.41-.92,3.62-1.36a28.08,28.08,0,0,0,3.37-1.07c1.05-.54,1.85-1.4,2.91-1.93,2.56-1.26,4.61-.77,7.38-.28,2.52.44,5.42,1.89,7.7.05.92-.74.65-1.18,1-2.13s1.19-2,1.25-3.2a10.94,10.94,0,0,0-.51-2.09,22.08,22.08,0,0,1-.84-2.88c-.17-1.11.45-1.54.67-2.52.15-.61-.09-.45-.17-1a3.78,3.78,0,0,1,.12-1.72,10.1,10.1,0,0,1,1.14-3.34,7.55,7.55,0,0,0,1.14-2.73,28.19,28.19,0,0,0,.39-3.87,8.84,8.84,0,0,0-.83-3.89,12.64,12.64,0,0,0-1.15-1.57c-1.1-1.54-1.29-3.59-1.69-5.4-.59-2.67-.4-7.51-4.05-7.87-1.09-.11-2.05.57-3.15.26-2.36-.66-2.79-3.29-3.28-5.34a30.31,30.31,0,0,1-.15-10.45c.24-2.23.49-4.14,2.34-5.62,3.57-2.86,8.27-1.66,12.17-3.73s6.3-6.17,9.29-9.11c1.51-1.48,3.89-3,6.05-3a8.43,8.43,0,0,1,2.51.4c1.69.57,1.86,1.71,3,2.82a3.93,3.93,0,0,0,2.31,1c2.51.62,4,4.14,5.36,6,2.06,2.76,4.62,5.58,7.78,7a99.14,99.14,0,0,0,11.35,4.55,59.89,59.89,0,0,1,8.53,3.19,15.11,15.11,0,0,1,4.73,4.24,8.65,8.65,0,0,1,2,7.83c-.71,2.78-2.28,2.71-4.71,3.5-.79.26-2.49.65-2.88,1.54-.58,1.32,1.09,3,1.81,4s2.33,2.43,1.64,3.66c-.51.9-2.46,1.84-3.29,2.44s-1.58,1.48-2.6,1.38c-.8-.08-1.31-.7-2-1-1.19-.59-2.23-.17-3.47-.13a11.45,11.45,0,0,1-2.7-.54c-1.1-.23-2.44-.12-3.46-.63-1.74-.87-2.36-2.54-4.5-2.9a10.29,10.29,0,0,1-2.21-.35,8.27,8.27,0,0,1-1.47-1c-1.18-.8-3.06-1.92-4.5-1.07s-1,3.31-.57,4.59,1.45,2.66.56,3.77c-.75.95-2,1-2.5,2.25-1.42,4,3.61,6.15,5.46,8.85,2.78,4.07,1,8.63-.47,12.78-.14.39-.1.85-.24,1.23-.24.69-.64.74-1,1.3a3.78,3.78,0,0,0-.16,2.59,6.37,6.37,0,0,0,.94,2.9,38.84,38.84,0,0,1,2.3,3.14c1.19,2.22-.57,4.6-2.79,5.39-1.42.51-3.32-.26-4.82-.05a19.34,19.34,0,0,1-3.56.42,19.21,19.21,0,0,1-2.08-.43C172.84,158.87,171.88,159.23,172.75,158.78Z" fill-rule="evenodd" opacity="0.3" fill="url(#e)" style="mix-blend-mode:multiply"/><path d="M106.67,92.49A12,12,0,0,1,104,94.84c-.94.54-1.88.94-2.78,1.55-2.36,1.61-4.4,3.75-6.72,5.45A24.45,24.45,0,0,1,90.22,104c-2,1-3.14,2.73-4.87,4-2.38,1.68-4.88,3.4-7.93,3.3A3.43,3.43,0,0,1,74.55,110c-.71-.88-.77-2-1.51-2.89-.62-.75-1.51-.86-2.35-1.34-1.08-.6-2.11-1.27-3.14-1.93a6.46,6.46,0,0,0-2.79-1c-1-.18-1.86-.82-2.86-.41s-.89,1.78-1.16,2.78a12.86,12.86,0,0,0-.58,5.9,3.23,3.23,0,0,0,1.63,2.51c1,.71,1.9,1.33,2,2.69a11.62,11.62,0,0,1-.93,5.31,6.35,6.35,0,0,1-.72,1c-.64.56-.2.19-.91.25a3.6,3.6,0,0,0-2.12.47,10.18,10.18,0,0,0-2.63,3.47,7.3,7.3,0,0,0-.72,2.6,30.09,30.09,0,0,0-.32,3c.09,2.08-.48,3.93-.15,6.06a42.64,42.64,0,0,1,.29,7.5c-.11,5.28.7,10.24-1.59,15.22-.55,1.21-2.2,3.14-3.66,3.28a14.79,14.79,0,0,1-2-.38,8.43,8.43,0,0,0-3.08.59c-1.18.33-3,.86-4.21.51a8.11,8.11,0,0,1-3.41-2.61c-.47-.58-.81-1.17-1.33-1.71a14.47,14.47,0,0,1-1.2-1.06c-1.37-1.69-2.39-3.22-4.56-4.09a6.75,6.75,0,0,0-2.27-.41,20.86,20.86,0,0,1-2.94.16c-1.82-.36-2.5-3.37-2.87-4.76-.55-2-.82-4.6-2.45-6.14-1-.93-2.39-1.11-3.5-1.9A20.32,20.32,0,0,0,12,140.17a3.24,3.24,0,0,1-1.68-1c-1.59-2-1.86-4.82-2.15-7.24-.35-2.89-.25-5.8-.61-8.68a29.92,29.92,0,0,1,.21-8.76c.43-2.83.12-5.59.2-8.43,0-2.15.18-4.31.28-6.45a44.63,44.63,0,0,1,1.13-6.5,28,28,0,0,1,1.07-5,56.25,56.25,0,0,0,2.07-5.5,29.71,29.71,0,0,1,2-5.62c.82-1.71,2.63-4.84,5.11-3.65,1.76.85,2.88,3.28,4,4.78,1.81,2.42,4.72,3.12,7.59,3.37,2.32.19,4.62,0,6.92.39,1.14.2,2.79.15,3.73.87a7,7,0,0,1,1.74,2.44,15.48,15.48,0,0,0,3.6,5.14c1.39,1.28,3.4,3,5.3,3.37a30.33,30.33,0,0,0,3.82.08c1.83.06,3.74-1.82,4.71-3.3,2-3.11,4.89-5.59,6.79-8.79,1.2-2-1-4-1.23-6.07-.19-1.66.47-3,.76-4.52a26.65,26.65,0,0,0,.07-4.29c.06-4.59,3.2-7.7,8-7.3A6.7,6.7,0,0,1,81.4,64a32.73,32.73,0,0,1,1.14,3.47c.35,1.56.36,3.1,1.11,4.57,2.85,5.62,8.7,7.85,14.06,10.24a22.8,22.8,0,0,1,6.94,4.59c1,1.08,1.41,1.31,1.58,2.92a19.92,19.92,0,0,0,.73,2.93C107.24,93.8,106.88,94.94,106.67,92.49Z" fill-rule="evenodd" opacity="0.3" fill="url(#f)" style="mix-blend-mode:multiply"/><path d="M216.61,32.62c.08.15.16.34.26.54a33.32,33.32,0,0,0,4.28,7.18,10.09,10.09,0,0,0,1.22,1.73c.38.32.71.33,1.07.72.8.8,1.63,1.64,2.46,2.34,1.5,1.22,2.65,3.29,3.82,4.94,1.43,2,3.86,3.37,5.06,5.48,1.32,2.3,2,4.94,3.57,7.08l1.09,1.52c.93,1.31.59,2.42,1,4.25-.69,1-2.1,2.39-2.17,3.61a5.54,5.54,0,0,0,.16,1.35,25.8,25.8,0,0,0,.89,3.43,31.66,31.66,0,0,0,2.89,6.15,42.21,42.21,0,0,0,3.58,4.2c2.44,2.76,4.9,5.29,5.67,9,.42,2.07.76,4.18,1.21,6.27a20.24,20.24,0,0,1,.7,3.73c0,.93-.19,1.88-.23,2.8,0,1.11.63,2.1.91,3.17a6.49,6.49,0,0,1-.27,3.67c-.52,1.71-2,2.57-2.68,4.09a5.42,5.42,0,0,0-.08,2.77c.45,4.32-2.07,7.64-2.86,11.74-.6,3,.57,6,.19,9.1a74,74,0,0,1-1.95,9.07,9.21,9.21,0,0,0,.18,5.08,14.94,14.94,0,0,1,.16,6.1c-.46,2-1,4-1.23,6-.21,1.61.15,3.23-.12,4.84a23.72,23.72,0,0,1-1.65,4.13c-1.21,3.05-3.12,5.62-4.43,8.61-1.07,2.46-1.31,5.68-3.5,7.46a7.49,7.49,0,0,1-2.2,1.19c-1.26.5-2.23,1.61-3.37,2.36a8.31,8.31,0,0,1-2.05.8,18.53,18.53,0,0,1-2.73,1.14c-1.59.28-3.23-.26-4.82-.2a5.51,5.51,0,0,0-4.23,2.55c-1.07,1.49-2.12,3.07-3.09,4.61-1.51,2.37-2,5.6-3.9,7.74a7.47,7.47,0,0,1-2.66,1.5,35.7,35.7,0,0,0-3.35,1.77,9.89,9.89,0,0,0-2.8,2.55,8.55,8.55,0,0,0-1.11,2.36c-.16.38-.09.85-.22,1.24a11.72,11.72,0,0,1-1.17,1.82c-.37.65-1.3,2.11-1.15,2.91.28,1.66,3.06.33,2.88,1.65-.1.95-1.7,1.48-2.32,2a11,11,0,0,0-2.16,2.84c-1.1,2-1,2.93-3.18,3.77a18.48,18.48,0,0,1-5.24,1.2c-2.25.19-3.55,1.65-5.51,2.44a17.22,17.22,0,0,0-2.77,1.9,18.48,18.48,0,0,1-2.88,1.17,5.34,5.34,0,0,0-2.2,1.6c-.3.48-.13,1.2-.23,1.74a5.71,5.71,0,0,1-1.6,2.4,14.67,14.67,0,0,1-3.22,3A130.44,130.44,0,0,0,242.77,64.42c-1.66-2.84-3.43-5.63-5.36-8.36l0,0c-.49-.76-1-1.49-1.55-2.22A130.81,130.81,0,0,0,216.61,32.62Z" fill-rule="evenodd" fill="url(#g)" style="mix-blend-mode:soft-light"/></g></svg>