<!-- <svg width="1" height="1" viewBox="0 0 1 1" preserveAspectRatio="none" xmlns="http://www.w3.org/2000/svg">
<path fill-rule="evenodd" clip-rule="evenodd" d="M0.104248 0H0V1H1V0H0.903809C0.909424 0.0264893 0.934082 0.185425 0.921875 0.291382C0.916016 0.340332 0.90918 0.366821 0.902832 0.391602C0.895508 0.420532 0.888672 0.446899 0.88501 0.503296C0.872803 0.688721 0.921875 0.71521 0.921875 0.821167C0.921875 0.996826 0.868408 0.989624 0.801514 0.956177C0.757568 0.934082 0.708008 0.900635 0.664062 0.900635C0.630371 0.900635 0.593994 0.907959 0.556641 0.918091C0.47168 0.941284 0.381348 0.979248 0.30249 0.979248L0.286377 0.980347C0.217773 0.986328 0.0310059 1.00244 0.050293 0.582764C0.0559082 0.458862 0.0861816 0.390503 0.104004 0.297729C0.117676 0.225708 0.123535 0.138916 0.104248 0Z" fill="#03010E"/>
</svg> -->

<!-- <svg width="1" height="1" viewBox="0 0 1 1" preserveAspectRatio="none" xmlns="http://www.w3.org/2000/svg">
<path fill-rule="evenodd" clip-rule="evenodd" d="M0.107581 0H0V1H1V0H0.907461C0.913239 0.0148034 0.937799 0.103618 0.925519 0.162828C0.919824 0.190285 0.912983 0.205138 0.90659 0.219016C0.899197 0.235067 0.892404 0.249814 0.888679 0.281248C0.881356 0.343036 0.895866 0.373242 0.908774 0.400116C0.917514 0.41831 0.925519 0.434975 0.925519 0.458878C0.925519 0.570918 0.855748 0.549797 0.776217 0.525721C0.740166 0.514807 0.702109 0.503286 0.667637 0.503286C0.612758 0.503286 0.551216 0.514127 0.489248 0.525044C0.426418 0.536112 0.36315 0.547258 0.305947 0.547258C0.30186 0.547258 0.296433 0.547521 0.289943 0.547836C0.221421 0.551165 0.0343526 0.560254 0.0536322 0.325655C0.0574525 0.279169 0.0724167 0.246677 0.0871652 0.214654C0.111442 0.161942 0.135134 0.110499 0.107581 0Z" fill="#03010E"/>
</svg> -->

<svg width="1" height="1" viewBox="0 0 1 1" preserveAspectRatio="none" xmlns="http://www.w3.org/2000/svg">
<path fill-rule="evenodd" clip-rule="evenodd" d="M0.107581 0H0V1H1V0H0.907461C0.913239 0.00895996 0.937799 0.0627164 0.925519 0.0985541C0.919824 0.115173 0.912983 0.124162 0.90659 0.132563C0.899197 0.142277 0.892404 0.151203 0.888679 0.170229C0.881356 0.207627 0.895866 0.22591 0.908774 0.242175C0.917514 0.253187 0.925519 0.263275 0.925519 0.277742C0.925519 0.345556 0.855748 0.332772 0.776217 0.318199C0.740166 0.311594 0.702109 0.30462 0.667637 0.30462C0.612758 0.30462 0.551216 0.311182 0.489248 0.31779C0.426418 0.324489 0.36315 0.331235 0.305947 0.331235C0.30186 0.331235 0.296433 0.331394 0.289943 0.331585C0.221421 0.3336 0.0343526 0.339101 0.0536322 0.197107C0.0574525 0.168971 0.0724167 0.149305 0.0871652 0.129922C0.111442 0.0980176 0.135134 0.0668811 0.107581 0Z" fill="#03010E"/>
</svg>
