<svg width="55" height="41" viewBox="0 0 55 41" fill="none" xmlns="http://www.w3.org/2000/svg">
<path d="M38.3301 24.75L25.5701 38.26C24.3777 39.5135 22.7379 40.2443 21.0087 40.293C19.2794 40.3417 17.6011 39.7044 16.3401 38.52L2.83006 25.76C1.57661 24.5677 0.845746 22.9279 0.797034 21.1986C0.748322 19.4693 1.38571 17.791 2.57006 16.53L15.3301 3C16.5193 1.74478 18.1579 1.01248 19.8863 0.963734C21.6148 0.914992 23.292 1.5538 24.5501 2.74001L38.0701 15.5C39.3296 16.6931 40.0643 18.3371 40.113 20.0712C40.1618 21.8054 39.5206 23.4881 38.3301 24.75ZM4.00006 17.91C3.59291 18.342 3.27486 18.85 3.06405 19.405C2.85325 19.9599 2.75383 20.551 2.77148 21.1444C2.78912 21.7377 2.92348 22.3218 3.16688 22.8633C3.41029 23.4047 3.75797 23.8929 4.19006 24.3L17.7001 37.07C18.1321 37.4772 18.6401 37.7952 19.195 38.006C19.75 38.2168 20.341 38.3162 20.9344 38.2986C21.5278 38.2809 22.1119 38.1466 22.6533 37.9032C23.1948 37.6598 23.683 37.3121 24.0901 36.88L36.8501 23.37C37.2591 22.9393 37.5789 22.432 37.7913 21.8773C38.0037 21.3226 38.1044 20.7314 38.0877 20.1376C38.071 19.5439 37.9371 18.9593 37.6939 18.4174C37.4506 17.8755 37.1026 17.387 36.6701 16.98L23.1601 4.21001C22.728 3.80286 22.22 3.48479 21.6651 3.27399C21.1101 3.06319 20.5191 2.96377 19.9257 2.98142C19.3323 2.99906 18.7482 3.13343 18.2068 3.37683C17.6653 3.62024 17.1771 3.9679 16.7701 4.4L4.00006 17.91Z" fill="#D0E0F4"/>
<path d="M37.9432 8.72982L27.5876 19.692C26.5485 20.792 26.5978 22.5262 27.6979 23.5654L38.66 33.9209C39.7601 34.9601 41.4942 34.9107 42.5334 33.8107L52.8889 22.8485C53.9281 21.7485 53.8788 20.0143 52.7787 18.9751L41.8166 8.61961C40.7165 7.58044 38.9823 7.62978 37.9432 8.72982Z" fill="#FF65A7"/>
</svg>
