<svg width="29" height="28" viewBox="0 0 29 28" fill="none" xmlns="http://www.w3.org/2000/svg">
<path d="M27.9998 13.8C28.1791 16.2695 27.6222 18.7366 26.3995 20.8896C25.1767 23.0426 23.343 24.7847 21.1303 25.8956C18.9176 27.0066 16.4252 27.4365 13.9681 27.131C11.5111 26.8256 9.19976 25.7985 7.3264 24.1796C5.45304 22.5606 4.10177 20.4226 3.4434 18.0358C2.78504 15.649 2.84915 13.1205 3.62764 10.7701C4.40613 8.41975 5.86403 6.35296 7.81703 4.83107C9.77003 3.30918 12.1304 2.40053 14.5998 2.22C17.9119 1.98051 21.1837 3.06562 23.6962 5.23693C26.2088 7.40823 27.7567 10.4881 27.9998 13.8ZM6.9998 15.33C7.12288 17.0104 7.74143 18.6165 8.77724 19.9454C9.81304 21.2743 11.2196 22.2662 12.8191 22.7958C14.4186 23.3254 16.1391 23.3688 17.7633 22.9207C19.3875 22.4725 20.8423 21.5528 21.9439 20.2779C23.0455 19.003 23.7443 17.4301 23.952 15.7581C24.1598 14.0861 23.8671 12.39 23.111 10.8843C22.355 9.3786 21.1694 8.13087 19.7043 7.29887C18.2391 6.46686 16.5603 6.08794 14.8798 6.21C12.6262 6.37635 10.5307 7.43013 9.0533 9.14C7.5759 10.8499 6.83737 13.0761 6.9998 15.33Z" fill="#D0E0F4"/>
<path d="M19.1501 0.650007L17.1501 8.40001C16.1473 8.13819 15.0965 8.1192 14.0849 8.34463C13.0733 8.57005 12.13 9.03338 11.3333 9.69621C10.5365 10.359 9.90926 11.2022 9.5035 12.1559C9.09774 13.1096 8.92517 14.1463 9.00011 15.18L1.00011 15.77C0.8352 13.4696 1.21986 11.163 2.12234 9.04065C3.02481 6.91827 4.41919 5.04102 6.19036 3.56391C7.96153 2.08679 10.0587 1.05218 12.3086 0.545519C14.5586 0.0388555 16.8968 0.074671 19.1301 0.650007H19.1501Z" fill="#10B2E8"/>
</svg>
