<svg width="50" height="50" viewBox="0 0 50 50" fill="none" xmlns="http://www.w3.org/2000/svg">
<path d="M23.4301 49.32C18.9602 49.32 14.5908 47.9945 10.8742 45.5112C7.15765 43.0279 4.26095 39.4983 2.55041 35.3687C0.839872 31.239 0.392314 26.6949 1.26434 22.3109C2.13637 17.927 4.28882 13.9 7.44949 10.7394C10.6102 7.57871 14.6371 5.42628 19.0211 4.55426C23.405 3.68223 27.9491 4.12979 32.0787 5.84033C36.2083 7.55087 39.738 10.4476 42.2213 14.1641C44.7046 17.8807 46.0301 22.2501 46.0301 26.72C46.0221 32.7115 43.6385 38.4552 39.4019 42.6918C35.1653 46.9284 29.4215 49.3121 23.4301 49.32ZM23.4301 11.32C20.3882 11.32 17.4146 12.222 14.8854 13.912C12.3562 15.602 10.3849 18.004 9.22082 20.8143C8.05675 23.6247 7.75217 26.7171 8.34561 29.7005C8.93905 32.6839 10.4038 35.4244 12.5548 37.5753C14.7057 39.7262 17.4462 41.191 20.4296 41.7845C23.413 42.3779 26.5054 42.0733 29.3158 40.9093C32.1261 39.7452 34.5281 37.7739 36.2181 35.2447C37.9081 32.7154 38.8101 29.7419 38.8101 26.7C38.7995 22.6261 37.1751 18.7223 34.2925 15.8435C31.4099 12.9646 27.504 11.3453 23.4301 11.34V11.32Z" fill="#D0E0F4"/>
<path d="M48.2602 35.12L34.5802 30.5C35.1687 28.7316 35.3293 26.8487 35.0487 25.0062C34.768 23.1636 34.0542 21.4139 32.9658 19.9009C31.8774 18.3879 30.4455 17.1547 28.7878 16.3028C27.1302 15.4508 25.294 15.0043 23.4302 15V0.51001C27.5926 0.511823 31.6948 1.50457 35.3975 3.40619C39.1001 5.30781 42.2968 8.06363 44.7232 11.4457C47.1496 14.8278 48.7359 18.7389 49.351 22.8557C49.966 26.9724 49.5921 31.1764 48.2602 35.12Z" fill="#10B2E8"/>
</svg>
