<svg width="128" height="295" viewBox="0 0 128 295" fill="none" xmlns="http://www.w3.org/2000/svg">
<path d="M25.1998 59.3L20.9998 56.06C20.9998 56.06 14.6098 49.72 12.9998 49.14C11.3898 48.56 1.36981 47.14 0.87981 47.85C0.38981 48.56 2.03981 50.08 3.87981 50.34C5.71981 50.6 9.87981 51.68 10.5998 52.48C10.5998 52.48 6.5998 53.06 5.5298 54.18C4.4598 55.3 4.85982 59.18 5.69982 61.13C6.53982 63.08 9.36981 65.45 11.4098 65.3C13.8498 65.11 16.2598 64.78 16.2598 64.78L20.8498 69.37L25.1998 59.3Z" fill="url(#paint0_linear)"/>
<path d="M78.0001 263.58C77.8964 269.339 77.4388 275.087 76.6301 280.79C75.3001 290.04 74.7301 293.93 80.9601 294.42C86.0701 294.83 88.6301 292.76 90.2501 285.63C91.8701 278.5 93.7801 275.17 93.6801 271.63C93.5801 268.09 90.2501 262.13 90.2501 262.13L78.0001 263.58Z" fill="url(#paint1_linear)"/>
<path d="M32.68 241.13C32.68 241.13 28 250 23.46 253.91C18.92 257.82 15.67 257.83 15.61 260.39C15.55 262.95 19.66 265.39 28.61 262.75C37.56 260.11 39.11 255.86 46.61 252.97C50.32 251.55 45.13 239.7 45.13 239.7L32.68 241.13Z" fill="url(#paint2_linear)"/>
<path d="M31.9102 233.58L32.6802 241.13C32.6802 241.13 40.5302 242.49 45.1602 239.7V231.26L31.9102 233.58Z" fill="url(#paint3_linear)"/>
<path d="M77.27 256L78.04 263.54C78.04 263.54 85.88 264.91 90.52 262.12V253.68L77.27 256Z" fill="url(#paint4_linear)"/>
<path d="M83.7802 105.44L77.0001 137.89L76.1101 142.16L48.4901 171.16C49.1764 180.326 49.3901 189.522 49.1302 198.71C48.7702 215.71 48.4901 233.18 48.4901 233.18C46.5635 234.273 44.4982 235.1 42.3501 235.64C38.1702 236.731 33.7718 236.658 29.6302 235.43C29.6302 235.43 23.9302 197.53 22.3802 183.16C20.8302 168.79 20.4801 168.07 23.2101 158.21C25.9401 148.35 53.0001 111.86 53.0001 111.86L83.7802 105.44Z" fill="url(#paint5_linear)"/>
<g style="mix-blend-mode:multiply" opacity="0.35">
<path d="M76.0802 142.16L48.4602 171.16C49.1465 180.326 49.3601 189.522 49.1002 198.71C48.7402 215.71 48.4602 233.18 48.4602 233.18C46.5336 234.273 44.4683 235.1 42.3202 235.64C43.9437 226.834 44.2404 217.834 43.2002 208.94C41.2002 192.72 36.6902 175.08 42.8002 163.32C48.9102 151.56 69.7002 139.25 73.8002 117.87L76.9602 137.87L76.0802 142.16Z" fill="#5C98E3"/>
</g>
<path d="M104.86 136.11L93.5202 181.25C93.5202 181.25 95.5202 194.2 94.9502 217.37C94.3802 240.54 93.1602 254.67 93.1602 254.67C91.0536 256.535 88.4586 257.759 85.6802 258.2C81.8532 258.81 77.9441 258.671 74.1702 257.79C74.1702 257.79 65.8402 194.79 66.3102 181.25C66.7802 167.71 71.6602 110.91 71.6602 110.91H109.66C109.8 122.2 104.86 136.11 104.86 136.11Z" fill="url(#paint6_linear)"/>
<g style="mix-blend-mode:multiply" opacity="0.35">
<path d="M104.86 136.11L93.5201 181.25C93.5201 181.25 95.52 194.2 94.95 217.37C94.38 240.54 93.16 254.67 93.16 254.67C91.0534 256.535 88.4585 257.759 85.68 258.2C87.68 248.74 91.03 228.2 87.99 210.95C83.88 187.66 77.8401 185.52 85.5201 163.19C93.2001 140.86 88 113.87 88 113.87L100.08 110.87H109.69C109.8 122.2 104.86 136.11 104.86 136.11Z" fill="#5C98E3"/>
</g>
<path d="M88.8299 67.6L83.2099 116.08C83.2099 116.08 68.0599 120.27 60.1299 109.75L70.7399 49.87L72.1899 41.7L87.7599 38.82L88.0099 45.57L88.8299 67.6Z" fill="url(#paint7_linear)"/>
<path d="M88 45.57L87.75 47.18C87.75 47.18 80.23 54.54 75.3 53.71C74.2656 53.5341 73.2968 53.0855 72.4935 52.4106C71.6902 51.7356 71.0815 50.8586 70.73 49.87L72.18 41.7L87.75 38.82L88 45.57Z" fill="#7CE6F7"/>
<path d="M63.3799 23.31C63.3799 23.31 58.2599 23.01 59.3799 16.07C57.9687 14.6584 57.0032 12.8634 56.6032 10.9078C56.2032 8.9523 56.3863 6.92237 57.1299 5.07C59.6099 -1.73 61.1299 4.69 61.1299 4.69C61.1299 4.69 61.6499 0.519991 63.8999 0.419991C66.1499 0.319991 66.8998 6.85 74.2198 5.82C81.5398 4.79 85.9799 5.3 87.5299 7.88C89.0799 10.46 87.5299 13.83 87.5299 13.83C87.5299 13.83 89.8298 14.16 90.2998 17.83C90.7698 21.5 84.1999 32.22 84.1999 32.22L63.3799 23.31Z" fill="url(#paint8_linear)"/>
<path d="M87.7598 38.82C85.6198 47.49 75.9997 52 73.4097 49C72.8296 48.1148 72.598 47.046 72.7598 46C72.8989 44.4633 73.2349 42.9509 73.7598 41.5L73.3597 37.85L71.7598 34.29L82.5598 28.2L83.2997 27.78C84.1152 31.6968 85.6258 35.4359 87.7598 38.82Z" fill="url(#paint9_linear)"/>
<g style="mix-blend-mode:multiply" opacity="0.45">
<path d="M72.7598 46C72.8989 44.4633 73.2349 42.9509 73.7598 41.5L73.3597 37.85L71.7598 34.29L82.5598 28.2H82.8998C82.8998 28.2 86.2598 42.22 72.7598 46Z" fill="#F2787A"/>
</g>
<path d="M62.5 16.67C62.5 16.67 63.62 30.48 67.56 35.99C71.5 41.5 74.88 40.17 78.63 37.3C82.38 34.43 82.97 33.61 83.54 28.73C83.54 28.73 87.19 28.55 86.54 23.25C85.89 17.95 80.82 21.25 81.86 25.69C81.86 25.69 77.68 25.92 78.76 19.36C78.76 19.36 74.54 22.73 69.1 19.31C63.66 15.89 62.5 16.67 62.5 16.67Z" fill="url(#paint10_linear)"/>
<path d="M73.81 41.49C73.81 41.49 69.87 54.18 68.15 76.49C65.93 105.54 63.79 119.27 62.36 124.61C62.36 124.61 51.93 117.84 50.86 113.3C49.79 108.76 56.86 101.02 57 81.78C57 81.54 57 81.29 57 81.04C55.6587 83.8812 53.9799 86.5505 52 88.99C51.0704 90.1818 49.8844 91.149 48.53 91.82C44.16 93.69 39.8 92.53 34.99 88.08C30.18 83.63 17.75 69.59 17.75 69.59C19.582 65.3599 21.9624 61.3892 24.83 57.78L40 69.45L43.3 71.99L43.39 72.06L44.05 70.42C46.35 64.77 53.98 46.28 56.31 44.17C59.07 41.67 65.49 42.86 73.71 40.5L73.81 41.49Z" fill="url(#paint11_linear)"/>
<g style="mix-blend-mode:multiply" opacity="0.37">
<path d="M57.3402 81.09C55.4147 84.6516 53.0051 87.9295 50.1802 90.83C53.4432 78.8652 55.6582 66.639 56.8002 54.29C58.4902 70.6 57.3402 81.34 57.3402 81.09Z" fill="#E58C33"/>
</g>
<g style="mix-blend-mode:multiply" opacity="0.37">
<path d="M43.2803 71.99L49.5002 76.39L44.7003 68.79L43.2803 71.99Z" fill="#E58C33"/>
</g>
<path d="M87.76 38.82C87.76 38.82 85.92 44.37 83.3 67.66C80.68 90.95 79.5 126.66 79.5 126.66C79.5 126.66 98.03 125.95 104.92 122.14C111.81 118.33 112.29 116.44 110.27 108.72C108.25 101 110.39 45.94 110.39 45.94C110.39 45.94 108.84 42.94 99.1 41.23C89.36 39.52 87.76 38.82 87.76 38.82Z" fill="url(#paint12_linear)"/>
<path d="M108.53 63.51C108.84 63.5303 109.13 63.6678 109.341 63.8944C109.553 64.121 109.671 64.4198 109.67 64.73L109.61 82L109.51 107C109.507 107.613 109.284 108.204 108.882 108.666C108.48 109.128 107.926 109.431 107.32 109.52C91.17 111.85 81.03 110.63 77.5 110.01C77.1073 109.941 76.7523 109.733 76.4992 109.425C76.246 109.117 76.1116 108.729 76.12 108.33L76.29 97.28L76.59 77.53L76.8 63.65C76.8079 63.2954 76.9549 62.9582 77.2094 62.7112C77.4639 62.4642 77.8053 62.3273 78.16 62.33C93.27 62.53 105 63.26 108.53 63.51Z" fill="url(#paint13_linear)"/>
<g style="mix-blend-mode:multiply" opacity="0.35">
<path d="M109.61 82L109.51 107C109.507 107.613 109.284 108.204 108.882 108.666C108.48 109.128 107.926 109.431 107.32 109.52C99.6198 108.14 82.9198 104.44 76.3198 97.28L76.6198 77.53L76.7298 77.44C76.7298 77.44 77.7298 80.44 85.5698 80.93C91.8998 81.32 104.94 81.85 109.61 82Z" fill="#EB5A98"/>
</g>
<path d="M97.23 85.54L89.65 84.18C89.65 84.18 88.05 78.47 85.26 76.87C83.56 75.87 84.11 78.38 84.52 80.34C84.77 81.57 84.97 83.34 84.97 83.34C84.97 83.34 80.13 83.63 78.6 82.34C77.07 81.05 76.45 80.2 76.68 77.44C76.68 77.44 73.75 78.89 73.81 81.72C73.87 84.55 74.53 88.81 74.81 90.95C75.09 93.09 78.81 93.95 82.03 94.15C84.4541 94.2194 86.8799 94.1192 89.29 93.85L96.54 95.18L97.23 85.54Z" fill="url(#paint14_linear)"/>
<path d="M125.18 98.52C122.41 101.08 115.81 101.27 109.53 100.73C104.782 100.29 100.066 99.5518 95.4098 98.52C93.6998 92.02 94.4098 83.64 94.4098 83.64L109.57 84.31H109.82C109.82 84.26 109.72 84.02 109.57 83.63L109.65 63.63C107.599 63.2241 105.519 62.9767 103.43 62.89C103.43 57.13 106.43 48.13 108.04 46.03C109.83 43.66 114.37 47.41 118.38 57.75C122.39 68.09 131.15 93 125.18 98.52Z" fill="url(#paint15_linear)"/>
<g style="mix-blend-mode:multiply" opacity="0.37">
<path d="M120.19 84.89L109.6 84.31C109.55 84.15 109.6 81.8 109.67 78.65C116.87 80.58 120.19 84.89 120.19 84.89Z" fill="#E58C33"/>
</g>
<defs>
<linearGradient id="paint0_linear" x1="11971.4" y1="4665.44" x2="12039.4" y2="4428.66" gradientUnits="userSpaceOnUse">
<stop stop-color="#FFA290"/>
<stop offset="1" stop-color="#FECBA6"/>
</linearGradient>
<linearGradient id="paint1_linear" x1="10443.7" y1="14034.2" x2="9954.91" y2="14044.8" gradientUnits="userSpaceOnUse">
<stop stop-color="#36BBAF"/>
<stop offset="1" stop-color="#7EE9B8"/>
</linearGradient>
<linearGradient id="paint2_linear" x1="16890.2" y1="10092.9" x2="16528.4" y2="9690.67" gradientUnits="userSpaceOnUse">
<stop stop-color="#36BBAF"/>
<stop offset="1" stop-color="#7EE9B8"/>
</linearGradient>
<linearGradient id="paint3_linear" x1="31.9102" y1="236.36" x2="45.1602" y2="236.36" gradientUnits="userSpaceOnUse">
<stop stop-color="#FEBCA6"/>
<stop offset="1" stop-color="#FF8F8E"/>
</linearGradient>
<linearGradient id="paint4_linear" x1="7474.35" y1="4401.76" x2="7649.91" y2="4401.76" gradientUnits="userSpaceOnUse">
<stop stop-color="#FEBCA6"/>
<stop offset="1" stop-color="#FF8F8E"/>
</linearGradient>
<linearGradient id="paint5_linear" x1="33843.2" y1="41878.9" x2="31432.9" y2="41691.5" gradientUnits="userSpaceOnUse">
<stop stop-color="#567FE3"/>
<stop offset="1" stop-color="#81D8FF"/>
</linearGradient>
<linearGradient id="paint6_linear" x1="25240.7" y1="49036.1" x2="23927" y2="49060.4" gradientUnits="userSpaceOnUse">
<stop stop-color="#567FE3"/>
<stop offset="1" stop-color="#81D8FF"/>
</linearGradient>
<linearGradient id="paint7_linear" x1="104.54" y1="114.43" x2="57.6699" y2="52.94" gradientUnits="userSpaceOnUse">
<stop stop-color="#4099F0"/>
<stop offset="1" stop-color="#77DAEE"/>
</linearGradient>
<linearGradient id="paint8_linear" x1="73.9098" y1="23.32" x2="72.8398" y2="4.24999" gradientUnits="userSpaceOnUse">
<stop stop-color="#74335E"/>
<stop offset="1" stop-color="#A63663"/>
</linearGradient>
<linearGradient id="paint9_linear" x1="9031.92" y1="4067.92" x2="9114.36" y2="4478.53" gradientUnits="userSpaceOnUse">
<stop stop-color="#FFA290"/>
<stop offset="1" stop-color="#FECBA6"/>
</linearGradient>
<linearGradient id="paint10_linear" x1="13702.9" y1="4233.74" x2="13360.5" y2="4020.63" gradientUnits="userSpaceOnUse">
<stop stop-color="#FFA290"/>
<stop offset="1" stop-color="#FECBA6"/>
</linearGradient>
<linearGradient id="paint11_linear" x1="30356.3" y1="23905" x2="28061.6" y2="15362.5" gradientUnits="userSpaceOnUse">
<stop stop-color="#F7B345"/>
<stop offset="1" stop-color="#FEDB58"/>
</linearGradient>
<linearGradient id="paint12_linear" x1="18640.3" y1="24296.7" x2="14840.6" y2="16611" gradientUnits="userSpaceOnUse">
<stop stop-color="#F7B345"/>
<stop offset="1" stop-color="#FEDB58"/>
</linearGradient>
<linearGradient id="paint13_linear" x1="19896.7" y1="11533.5" x2="18720.7" y2="11467.2" gradientUnits="userSpaceOnUse">
<stop stop-color="#EB5896"/>
<stop offset="1" stop-color="#F988B7"/>
</linearGradient>
<linearGradient id="paint14_linear" x1="13318.8" y1="4594.52" x2="13331" y2="4415.7" gradientUnits="userSpaceOnUse">
<stop stop-color="#FFA290"/>
<stop offset="1" stop-color="#FECBA6"/>
</linearGradient>
<linearGradient id="paint15_linear" x1="19791.5" y1="15263.2" x2="18113.2" y2="9713.47" gradientUnits="userSpaceOnUse">
<stop stop-color="#F7B345"/>
<stop offset="1" stop-color="#FEDB58"/>
</linearGradient>
</defs>
</svg>
