<svg width="157" height="252" viewBox="0 0 157 252" fill="none" xmlns="http://www.w3.org/2000/svg">
<path d="M98.2999 229.65C98.2999 229.65 96.2999 239.53 99.2499 242.4C100.84 243.92 106.01 244.57 110.97 247.49C115.93 250.41 120.97 252.81 124.91 251.07C128.85 249.33 128.42 245.42 124.71 242.15C121 238.88 119.48 239.78 115.51 235.09C111.54 230.4 109.99 229.36 109.99 229.36C109.99 229.36 101.48 227.21 98.2999 229.65Z" fill="url(#paint0_linear)"/>
<path d="M12.7999 176.62C12.7999 176.62 5.45988 177.2 2.85988 179.73C0.259883 182.26 0.0898852 183.99 3.18989 191.14C6.28989 198.29 6.06989 202.97 7.79989 206.63C9.70989 210.63 17.2499 212.03 19.6899 210.87C22.1299 209.71 16.6899 200.15 16.6899 195.78C16.6899 191.41 16.7599 187.89 16.7599 187.89L12.7999 176.62Z" fill="url(#paint1_linear)"/>
<path d="M21.4601 172.26L12.8001 176.62C12.6474 178.673 12.9242 180.736 13.6129 182.676C14.3016 184.617 15.3871 186.392 16.8001 187.89L28.5601 184.82L21.4601 172.26Z" fill="url(#paint2_linear)"/>
<path d="M97.05 220.15L98.3 229.65C100.159 230.43 102.161 230.807 104.176 230.757C106.191 230.707 108.173 230.231 109.99 229.36L110.93 217.36L97.05 220.15Z" fill="url(#paint3_linear)"/>
<path d="M67.68 2.58C67.68 2.58 59.88 -1.42 54.47 5.25C49.21 11.72 48.37 23.74 57.1 29.69C65.83 35.64 72 36 77.19 40.62C82.38 45.24 96.1 53.33 102.57 47.17C109.04 41.01 107.04 30.53 97.79 28.17C88.54 25.81 87.36 23.24 86.67 17.55C85.98 11.86 67.68 2.58 67.68 2.58Z" fill="url(#paint4_linear)"/>
<path d="M63.7699 4.57001C63.7699 4.57001 60.8599 3.99 58.2099 7.95C55.3199 12.26 55.0799 19.76 60.2999 22.19C65.5199 24.62 63.7699 4.57001 63.7699 4.57001Z" fill="url(#paint5_linear)"/>
<path d="M111.13 223.3C108.545 224.599 105.719 225.348 102.83 225.5C100.531 225.657 98.2207 225.509 95.9601 225.06C95.9601 225.06 93.7201 211.38 91.7101 197.01C89.7001 182.64 92.5801 166.73 92.5801 166.73L83.3501 129.14L78.1501 112.32L77.0701 108.85L106 98.12C106 98.12 116.56 149.25 116.8 158.66C117.04 168.07 111.13 223.3 111.13 223.3Z" fill="url(#paint6_linear)"/>
<g style="mix-blend-mode:multiply" opacity="0.35">
<path d="M102.83 225.5C100.531 225.657 98.2205 225.509 95.9599 225.06C95.9599 225.06 93.7199 211.38 91.7099 197.01C89.6999 182.64 92.5799 166.73 92.5799 166.73L83.3499 129.14L78.1499 112.32L91.9399 107.51C91.9399 107.51 91.6399 132.7 99.6199 146.51C107.6 160.32 103.97 169.9 100.52 187.77C97.4899 203.5 96.6699 216.48 102.83 225.5Z" fill="#E58C33"/>
</g>
<path d="M95.07 159.42C91.01 170.21 25.07 186.8 25.07 186.8C22.4615 184.332 20.6182 181.167 19.7599 177.68C19.2809 175.78 19.1154 173.814 19.27 171.86C19.27 171.86 30.27 164.64 46.96 155.86C63.65 147.08 69.77 147.33 69.77 147.33C69.77 147.33 64.57 135.82 60.57 126.57C56.57 117.32 56.46 112.57 56.46 112.57L65.17 109.91L92.39 101.6C92.39 101.6 99.12 148.62 95.07 159.42Z" fill="url(#paint7_linear)"/>
<g style="mix-blend-mode:multiply" opacity="0.35">
<path d="M72.2999 155.82C60.2399 159.98 51.1099 156.82 38.1199 167.9C30.7799 174.17 24.1199 176.68 19.7299 177.68C19.2508 175.78 19.0853 173.814 19.2399 171.86C19.2399 171.86 30.2399 164.64 46.9299 155.86C63.6199 147.08 69.7399 147.33 69.7399 147.33C69.7399 147.33 64.5399 135.82 60.5399 126.57C56.5399 117.32 56.4299 112.57 56.4299 112.57L65.1399 109.91L76.6299 113.5C76.6299 113.5 71.3799 124.83 76.4199 136.66C81.4599 148.49 84.3499 151.65 72.2999 155.82Z" fill="#E58C33"/>
</g>
<path d="M153.81 37.23C151.16 42.14 141.68 44.61 141.68 44.61C141.68 44.61 136.01 56.26 130.49 64.82C129.34 66.6431 128.091 68.4024 126.75 70.09C120.42 77.86 111.86 78.99 108.13 78.09C105.093 77.1563 102.126 76.0102 99.2499 74.66C97.7699 74 96.7199 73.51 96.5899 73.45C96.5899 73.45 96.6999 85.45 101.59 91.06C101.72 91.21 101.86 91.35 102 91.5C109.35 98.93 110 102 110 102C110 102 103.38 99.85 94.9399 105.57C86.4999 111.29 74.1499 119.19 67.5099 119C62.7519 118.736 58.0303 118.016 53.4099 116.85C55.6222 110.695 57.5147 104.43 59.0799 98.08C61.0099 89.61 57.5499 76.08 54.4499 71.39L53.8799 69.65L46.4099 47.17C50.8264 43.038 56.201 40.069 62.0499 38.53L83.0499 40.53C86.478 41.1058 89.8552 41.9517 93.1499 43.06C96.7199 44.49 103.95 55.23 110.51 60.06C110.51 60.06 113.29 58.06 117.51 54.86C119.51 53.36 121.72 51.61 124.16 49.65C131.84 43.49 134.97 39.05 134.97 39.05C134.97 39.05 138.05 30.24 139.97 28.14C141.335 26.6777 142.781 25.2922 144.3 23.99C144.697 24.8028 144.813 25.7242 144.63 26.61C144.28 27.95 142.14 31.61 142.07 33.61C142.07 33.61 148.93 31.15 151.48 28.66C154.03 26.17 155.67 24.29 156.12 25.44C156.57 26.59 156.46 32.31 153.81 37.23Z" fill="url(#paint8_linear)"/>
<path d="M153.81 37.23C151.16 42.14 141.68 44.61 141.68 44.61C141.68 44.61 136.01 56.26 130.49 64.82C129.34 66.6431 128.091 68.4024 126.75 70.09C120.42 77.86 111.86 78.99 108.13 78.09C105.093 77.1563 102.126 76.0102 99.25 74.66C97.77 74 96.72 73.51 96.59 73.45C89.32 58.45 93.17 43.11 93.17 43.11C96.74 44.54 103.97 55.28 110.53 60.11C110.53 60.11 113.31 58.11 117.53 54.91C119.53 53.41 121.74 51.66 124.18 49.7C131.86 43.54 134.99 39.1 134.99 39.1C134.99 39.1 138.07 30.29 139.99 28.19C141.355 26.7277 142.801 25.3422 144.32 24.04C144.717 24.8528 144.833 25.7742 144.65 26.66C144.3 28 142.16 31.66 142.09 33.66C142.09 33.66 148.95 31.2 151.5 28.71C154.05 26.22 155.69 24.34 156.14 25.49C156.59 26.64 156.46 32.31 153.81 37.23Z" fill="url(#paint9_linear)"/>
<g style="mix-blend-mode:multiply" opacity="0.45">
<path d="M97.93 60.28C95.2971 57.8608 93.3045 54.8271 92.13 51.45C92.13 51.45 91.75 58.34 93.53 63.21C95.31 68.08 97.93 60.28 97.93 60.28Z" fill="#ABB1EB"/>
</g>
<g style="mix-blend-mode:multiply" opacity="0.36">
<path d="M101.39 94.52C101.39 94.52 88.6899 92.7 81.9399 102.24C75.1899 111.78 73.2699 116.01 53.4099 116.84C55.6234 110.687 57.5126 104.421 59.0699 98.07C61.0099 89.61 57.5399 76.07 54.4499 71.39L53.8699 69.65L58.5999 64.1C58.5999 64.1 61.6499 76.94 72.5999 75.52C83.5499 74.1 92.9699 70.39 98.0399 73.45C98.5219 73.7613 98.9367 74.1659 99.2599 74.64C97.6899 73.93 96.5999 73.41 96.5999 73.41C96.5999 73.41 96.6999 85.41 101.6 91.02C101.52 93.12 101.39 94.52 101.39 94.52Z" fill="#1F9FF1"/>
</g>
<path d="M83.2901 22.34C83.2901 22.34 83.2901 27.98 86.5101 30.72C85.8988 27.2954 86.1148 23.7742 87.1401 20.45C88.8301 14.45 89.8101 11.84 88.8101 9.21C87.8101 6.58 84.7201 7.36999 84.7201 7.36999C84.7201 7.36999 79.9501 -0.630006 70.7201 0.979994C61.4901 2.58999 60.4901 8.66 60.1701 11.63C60.1701 11.63 57.3201 14.89 58.7301 20.87C60.1401 26.85 66.8801 32.87 66.8801 32.87L71.3001 22.48L83.2901 22.34Z" fill="url(#paint10_linear)"/>
<path d="M85.3699 41C85.3699 41 85.5399 53.21 80.9299 54.19C73.2299 55.83 59.1799 39.38 59.1799 39.38C60.7437 38.6876 62.3808 38.1743 64.0599 37.85C66.3799 43.57 72.6899 46.48 72.6899 46.48C73.0851 45.217 73.8867 44.1201 74.9699 43.36L77.3699 45.14L79.2299 42.47C80.1056 43.0907 80.8527 43.8751 81.4299 44.78C81.6926 43.2604 81.7297 41.7104 81.5399 40.18C81.8899 40.29 82.2599 40.39 82.6299 40.47C83.9999 40.79 85.3699 41 85.3699 41Z" fill="url(#paint11_linear)"/>
<path d="M81.4301 44.76C80.8528 43.8551 80.1057 43.0707 79.2301 42.45L77.3701 45.12L74.9701 43.34C73.8868 44.1001 73.0852 45.197 72.6901 46.46C72.6901 46.46 66.3801 43.55 64.0601 37.83L65.1401 37.46C65.5761 36.5664 65.889 35.6177 66.0701 34.64C66.4516 32.6618 66.6624 30.6544 66.7001 28.64C66.7501 26.96 66.7001 25.78 66.7001 25.78L79.4401 33.62C79.4401 33.62 79.2101 34.82 79.1001 36.13C79.1001 36.5 79.1001 36.88 79.1001 37.24V37.41C79.0582 38.0292 79.1861 38.6481 79.4701 39.2C80.0615 39.7133 80.7798 40.0586 81.5501 40.2C81.7326 41.7177 81.6921 43.254 81.4301 44.76V44.76Z" fill="url(#paint12_linear)"/>
<g style="mix-blend-mode:multiply" opacity="0.45">
<path d="M81.28 40.15C68.11 42.1 67.07 33.36 66.73 28.55C66.6489 27.6017 66.6489 26.6483 66.73 25.7L79.47 33.54C79.47 33.54 78.61 37.97 79.47 39.12C79.87 39.69 79.94 39.84 81.28 40.15Z" fill="#F2787A"/>
</g>
<path d="M82.9299 11.74C84.4753 14.7251 85.1182 18.0956 84.7799 21.44C84.3199 27.37 83.5699 33.78 81.5699 35.33C79.5699 36.88 71.7499 35.9 68.9099 31.77C67.5696 30.0188 66.8077 27.8939 66.7299 25.69C66.7299 25.69 63.2299 25.03 64.3099 21.09C64.369 20.7402 64.5201 20.4123 64.7477 20.1402C64.9752 19.868 65.2711 19.6612 65.605 19.5411C65.9388 19.421 66.2986 19.3919 66.6474 19.4567C66.9962 19.5215 67.3215 19.678 67.5899 19.91C68.153 20.5366 68.5365 21.3036 68.6999 22.13L68.8899 25.32C70.2499 25.06 70.4099 23.79 71.3099 21.68C72.7399 20.83 73.4399 19.11 72.9999 16.32C72.9999 16.32 79.9999 16.51 82.9299 11.74Z" fill="url(#paint13_linear)"/>
<path d="M71.4899 21.7C71.4899 21.7 69.9999 26.32 71.3599 30.01C71.3599 30.01 68.3599 28.27 68.7199 22.38L71.4899 21.7Z" fill="url(#paint14_linear)"/>
<path d="M102.18 95.64L81.81 96.83C81.4916 96.8486 81.1732 96.7958 80.8778 96.6754C80.5825 96.5551 80.3178 96.3702 80.1031 96.1344C79.8884 95.8986 79.7291 95.6178 79.6369 95.3126C79.5446 95.0073 79.5218 94.6852 79.57 94.37L84.49 62.23C84.563 61.7428 84.8018 61.2957 85.1661 60.9641C85.5305 60.6325 85.9981 60.4368 86.49 60.41L106.86 59.23C107.178 59.2114 107.497 59.2643 107.792 59.3846C108.088 59.5049 108.352 59.6898 108.567 59.9256C108.782 60.1614 108.941 60.4422 109.033 60.7475C109.125 61.0527 109.148 61.3748 109.1 61.69L104.18 93.83C104.105 94.3154 103.865 94.7602 103.501 95.0898C103.137 95.4194 102.67 95.6136 102.18 95.64V95.64Z" fill="url(#paint15_linear)"/>
<path d="M86.2 60.45C86.2 60.45 90.05 61.05 90.2 69.19C90.35 77.33 88.12 87.14 91.28 93.93L112.56 93.52C112.56 93.52 110.67 90.15 110.91 80.73C111.15 71.31 110.34 61.93 104.49 59.41L86.2 60.45Z" fill="url(#paint16_linear)"/>
<path d="M86.27 60.44C86.27 60.44 93.27 59.3 93.36 72.56C93.45 85.82 92.86 90.15 94.08 91.56L114.08 91.2C114.08 91.2 112.39 89.32 113.2 77.54C114.01 65.76 110.32 59.54 107.2 59.05C100.92 59.12 93.82 59.64 86.27 60.44Z" fill="url(#paint17_linear)"/>
<path d="M88.87 78.59C88.07 79.73 83.29 80.39 83.29 80.39C83.3243 81.5292 83.148 82.6649 82.77 83.74C82.12 85.98 77.57 86.23 77.57 86.23C71.46 91.23 63.67 93.85 56.95 95.1C51 96.21 45.95 96.21 43.58 95.68C38.58 94.56 39.18 92.03 39.43 82.16C39.68 72.29 43.26 48.93 46.43 47.16C49.6 45.39 59.6 60.09 58.84 63.21C58.08 66.33 53.89 80.85 53.89 80.85C55.0317 80.4908 56.203 80.2331 57.39 80.08C59.8703 79.7085 62.3724 79.5014 64.88 79.46C69.3382 79.4064 73.7672 78.7332 78.04 77.46C78.04 77.46 80.96 72.14 81.59 71.65C82.22 71.16 89.09 70.01 89.82 72.6C90.1022 73.608 90.1634 74.665 89.9995 75.6988C89.8355 76.7326 89.4502 77.7188 88.87 78.59V78.59Z" fill="url(#paint18_linear)"/>
<path d="M88.8701 78.59C88.0701 79.73 83.2901 80.39 83.2901 80.39C83.3244 81.5292 83.1481 82.6649 82.7701 83.74C82.1201 85.98 77.5701 86.23 77.5701 86.23C71.4601 91.23 63.6701 93.85 56.9501 95.1C54.3501 89.49 55.7701 83.79 57.3701 80.1C59.8504 79.7285 62.3525 79.5214 64.8601 79.48C69.3182 79.4263 73.7473 78.7532 78.0201 77.48C78.0201 77.48 80.9401 72.16 81.5701 71.67C82.2001 71.18 89.0701 70.03 89.8001 72.62C90.0822 73.6236 90.1451 74.6761 89.9847 75.7062C89.8242 76.7363 89.4441 77.7198 88.8701 78.59V78.59Z" fill="url(#paint19_linear)"/>
<path d="M153.81 37.23C151.15 42.15 141.67 44.61 141.67 44.61C141.67 44.61 136 56.27 130.49 64.82C127.586 64.5952 124.811 63.5299 122.502 61.7541C120.194 59.9784 118.452 57.569 117.49 54.82C119.49 53.33 121.7 51.57 124.13 49.62C131.81 43.46 134.95 39.01 134.95 39.01C134.95 39.01 138.03 30.2 139.95 28.11C141.314 26.6429 142.759 25.254 144.28 23.95C144.67 24.7648 144.783 25.6852 144.6 26.57C144.26 27.92 142.12 31.57 142.05 33.57C142.05 33.57 148.91 31.11 151.45 28.57C153.99 26.03 155.64 24.21 156.09 25.36C156.54 26.51 156.45 32.32 153.81 37.23Z" fill="url(#paint20_linear)"/>
<path d="M77.3701 45.12L74.9701 43.34C73.8868 44.1001 73.0852 45.197 72.6901 46.46C72.6901 46.46 66.3801 43.55 64.0601 37.83C65.0096 36.9726 65.702 35.8682 66.0601 34.64C66.0601 34.64 66.0601 34.64 66.0601 34.64C66.0601 34.64 69.8001 40.44 75.3701 41.64L77.3701 45.12Z" fill="url(#paint21_linear)"/>
<path d="M81.4301 44.76C80.8528 43.8551 80.1057 43.0707 79.2301 42.45L77.3701 45.12L77.6401 41.29C77.6401 41.29 79.2501 40.35 79.0901 37.29V36C79.6905 36.3868 80.204 36.8941 80.5982 37.4897C80.9924 38.0853 81.2587 38.7562 81.3801 39.46C81.3801 39.68 81.4601 39.9 81.4901 40.12C81.7004 41.6611 81.6801 43.2249 81.4301 44.76V44.76Z" fill="url(#paint22_linear)"/>
<defs>
<linearGradient id="paint0_linear" x1="107.86" y1="245.14" x2="115.23" y2="236.58" gradientUnits="userSpaceOnUse">
<stop stop-color="#113272"/>
<stop offset="1" stop-color="#14429B"/>
</linearGradient>
<linearGradient id="paint1_linear" x1="2204.14" y1="12572.8" x2="2455.36" y2="12550.5" gradientUnits="userSpaceOnUse">
<stop stop-color="#113272"/>
<stop offset="1" stop-color="#14429B"/>
</linearGradient>
<linearGradient id="paint2_linear" x1="24.7901" y1="193.27" x2="15.1701" y2="168.5" gradientUnits="userSpaceOnUse">
<stop stop-color="#FFA290"/>
<stop offset="1" stop-color="#FECBA6"/>
</linearGradient>
<linearGradient id="paint3_linear" x1="3227.4" y1="5386.84" x2="2900.84" y2="5399.64" gradientUnits="userSpaceOnUse">
<stop stop-color="#FFA290"/>
<stop offset="1" stop-color="#FECBA6"/>
</linearGradient>
<linearGradient id="paint4_linear" x1="10278.1" y1="9458.59" x2="11056.3" y2="8011.73" gradientUnits="userSpaceOnUse">
<stop stop-color="#EB5896"/>
<stop offset="1" stop-color="#F988B7"/>
</linearGradient>
<linearGradient id="paint5_linear" x1="64.6599" y1="17.01" x2="56.6999" y2="7.50001" gradientUnits="userSpaceOnUse">
<stop stop-color="#F7B345"/>
<stop offset="1" stop-color="#FEDB58"/>
</linearGradient>
<linearGradient id="paint6_linear" x1="8092.05" y1="41530.3" x2="9142.91" y2="41496.9" gradientUnits="userSpaceOnUse">
<stop stop-color="#F7B345"/>
<stop offset="1" stop-color="#FEDB58"/>
</linearGradient>
<linearGradient id="paint7_linear" x1="12416.1" y1="26027.1" x2="15388.6" y2="26681.3" gradientUnits="userSpaceOnUse">
<stop stop-color="#F7B345"/>
<stop offset="1" stop-color="#FEDB58"/>
</linearGradient>
<linearGradient id="paint8_linear" x1="78.4099" y1="120.73" x2="95.6399" y2="59.07" gradientUnits="userSpaceOnUse">
<stop stop-color="#1C9AF1"/>
<stop offset="1" stop-color="#5ED1EB"/>
</linearGradient>
<linearGradient id="paint9_linear" x1="104.62" y1="74.06" x2="118.17" y2="49.7" gradientUnits="userSpaceOnUse">
<stop stop-color="#BBD6FE"/>
<stop offset="1" stop-color="#FEFEFE"/>
</linearGradient>
<linearGradient id="paint10_linear" x1="5655.16" y1="6415.48" x2="5754.22" y2="5516.09" gradientUnits="userSpaceOnUse">
<stop stop-color="#EB5896"/>
<stop offset="1" stop-color="#F988B7"/>
</linearGradient>
<linearGradient id="paint11_linear" x1="4852.36" y1="3596.07" x2="4834.96" y2="3069.13" gradientUnits="userSpaceOnUse">
<stop stop-color="#BBD6FE"/>
<stop offset="1" stop-color="#FEFEFE"/>
</linearGradient>
<linearGradient id="paint12_linear" x1="3292.64" y1="4080.72" x2="3259.46" y2="4393.26" gradientUnits="userSpaceOnUse">
<stop stop-color="#FFA290"/>
<stop offset="1" stop-color="#FECBA6"/>
</linearGradient>
<linearGradient id="paint13_linear" x1="3685.06" y1="4885.8" x2="4054.15" y2="4494.71" gradientUnits="userSpaceOnUse">
<stop stop-color="#FFA290"/>
<stop offset="1" stop-color="#FECBA6"/>
</linearGradient>
<linearGradient id="paint14_linear" x1="569.441" y1="1679.96" x2="636.85" y2="1465.52" gradientUnits="userSpaceOnUse">
<stop stop-color="#EB5896"/>
<stop offset="1" stop-color="#F988B7"/>
</linearGradient>
<linearGradient id="paint15_linear" x1="97.76" y1="78.53" x2="81.72" y2="76.16" gradientUnits="userSpaceOnUse">
<stop stop-color="#113272"/>
<stop offset="1" stop-color="#2751A3"/>
</linearGradient>
<linearGradient id="paint16_linear" x1="99.9" y1="76.76" x2="53.48" y2="96.19" gradientUnits="userSpaceOnUse">
<stop stop-color="#DBE0FE"/>
<stop offset="1" stop-color="#EBEEFC"/>
</linearGradient>
<linearGradient id="paint17_linear" x1="94.1" y1="82.09" x2="108.61" y2="67.22" gradientUnits="userSpaceOnUse">
<stop stop-color="#EBEEFC"/>
<stop offset="1" stop-color="white"/>
</linearGradient>
<linearGradient id="paint18_linear" x1="8359.2" y1="11526.6" x2="7393.81" y2="11426.6" gradientUnits="userSpaceOnUse">
<stop stop-color="#BBD6FE"/>
<stop offset="1" stop-color="#FEFEFE"/>
</linearGradient>
<linearGradient id="paint19_linear" x1="6463.83" y1="6154.01" x2="6396.02" y2="5857.62" gradientUnits="userSpaceOnUse">
<stop stop-color="#FFA290"/>
<stop offset="1" stop-color="#FECBA6"/>
</linearGradient>
<linearGradient id="paint20_linear" x1="10017.1" y1="8646.7" x2="9676.48" y2="8347.56" gradientUnits="userSpaceOnUse">
<stop stop-color="#FFA290"/>
<stop offset="1" stop-color="#FECBA6"/>
</linearGradient>
<linearGradient id="paint21_linear" x1="2463.45" y1="2508.69" x2="2472.91" y2="2367.98" gradientUnits="userSpaceOnUse">
<stop stop-color="#EBEEFC"/>
<stop offset="1" stop-color="white"/>
</linearGradient>
<linearGradient id="paint22_linear" x1="884.102" y1="1951.02" x2="901.124" y2="1844.7" gradientUnits="userSpaceOnUse">
<stop stop-color="#EBEEFC"/>
<stop offset="1" stop-color="white"/>
</linearGradient>
</defs>
</svg>
