<svg width="517" height="923" viewBox="0 0 517 923" fill="none" xmlns="http://www.w3.org/2000/svg">
<path d="M146.325 0.695312C121.513 175.568 -135.457 353.761 96.2265 710.382C70.5453 623.459 60.2728 510.222 118.194 424.405C115.981 475.058 78.6843 623.459 258.216 922.237C437.826 623.459 400.45 475.058 398.237 424.405C456.158 510.222 445.649 623.143 420.284 710.382C651.968 354.077 394.919 175.885 370.107 1.01134L146.325 0.695312Z" fill="url(#paint0_linear)"/>
<path d="M254.416 418.953C254.416 418.953 150.348 254.194 184.484 0.695312H331.697C331.697 0.695312 373.34 230.251 254.416 418.953Z" fill="url(#paint1_linear)"/>
<defs>
<linearGradient id="paint0_linear" x1="258.216" y1="922" x2="258.216" y2="-7.75992" gradientUnits="userSpaceOnUse">
<stop stop-color="#FEE62A"/>
<stop offset="0.14" stop-color="#FDD82B"/>
<stop offset="0.4" stop-color="#F9B42C"/>
<stop offset="0.75" stop-color="#F37B2F"/>
<stop offset="0.99" stop-color="#EF4E31"/>
</linearGradient>
<linearGradient id="paint1_linear" x1="258.288" y1="419.032" x2="258.288" y2="-3.09769" gradientUnits="userSpaceOnUse">
<stop stop-color="#F5EA91"/>
<stop offset="1" stop-color="#DA9231"/>
</linearGradient>
</defs>
</svg>
