<svg width="42" height="43" viewBox="0 0 42 43" fill="none" xmlns="http://www.w3.org/2000/svg">
<path d="M22.8602 41.8603C19.1176 42.5254 15.2619 42.0658 11.7806 40.5396C8.29919 39.0135 5.34856 36.4892 3.30173 33.2862C1.2549 30.0831 0.203787 26.345 0.281346 22.5446C0.358906 18.7442 1.56165 15.0522 3.73746 11.9353C5.91327 8.81838 8.96443 6.41666 12.5052 5.0338C16.0459 3.65093 19.9172 3.34902 23.6295 4.16624C27.3418 4.98347 30.7284 6.88314 33.3611 9.62502C35.9938 12.3669 37.7544 15.8279 38.4202 19.5703C39.3049 24.5886 38.1639 29.7529 35.2471 33.9312C32.3303 38.1096 27.8759 40.9609 22.8602 41.8603ZM17.2102 10.0503C14.6629 10.5013 12.3064 11.6975 10.4389 13.4877C8.57144 15.2779 7.27674 17.5817 6.71854 20.1077C6.16034 22.6337 6.36371 25.2685 7.30295 27.679C8.24219 30.0894 9.87511 32.1672 11.9952 33.6496C14.1153 35.132 16.6274 35.9524 19.2138 36.0071C21.8002 36.0618 24.3447 35.3484 26.5256 33.9569C28.7065 32.5655 30.4258 30.5587 31.4662 28.1901C32.5065 25.8215 32.8211 23.1977 32.3702 20.6503C31.7607 17.2368 29.8226 14.2042 26.9809 12.2173C24.1391 10.2303 20.6256 9.45105 17.2102 10.0503V10.0503Z" fill="#D0E0F4"/>
<path d="M41.5406 26.2799L29.4006 24.4399C29.5756 23.3602 29.5756 22.2595 29.4006 21.1799C29.1713 19.8861 28.6893 18.6502 27.9821 17.5428C27.2749 16.4354 26.3565 15.4782 25.2792 14.726C24.2019 13.9737 22.9869 13.4412 21.7037 13.1587C20.4205 12.8763 19.0942 12.8495 17.8006 13.0799L15.6006 0.99985C19.0861 0.384552 22.6681 0.607396 26.0505 1.64997C29.433 2.69254 32.5188 4.52491 35.0531 6.99573C37.5874 9.46655 39.4975 12.5049 40.6255 15.8598C41.7536 19.2147 42.0673 22.7898 41.5406 26.2898V26.2799Z" fill="#9983F4"/>
</svg>
