<svg width="50" height="38" viewBox="0 0 50 38" fill="none" xmlns="http://www.w3.org/2000/svg">
<path d="M34.7599 22.7603L23.0699 35.1403C21.9782 36.2873 20.4772 36.9561 18.8944 37.0011C17.3115 37.046 15.775 36.4634 14.6199 35.3803L2.24992 23.6903C1.10296 22.5985 0.434097 21.0976 0.38914 19.5147C0.344183 17.9319 0.92677 16.3954 2.00991 15.2403L13.6999 2.86027C14.7917 1.71331 16.2926 1.04445 17.8755 0.999492C19.4584 0.954535 20.9948 1.53714 22.1499 2.62028L34.5199 14.3103C35.6669 15.4021 36.3357 16.903 36.3807 18.4858C36.4257 20.0687 35.8431 21.6052 34.7599 22.7603V22.7603ZM3.33992 16.5003C2.96565 16.8959 2.67312 17.3614 2.47906 17.8702C2.285 18.3791 2.19325 18.9212 2.20904 19.4656C2.22483 20.0099 2.34786 20.5458 2.57109 21.0425C2.79431 21.5392 3.11335 21.987 3.50991 22.3603L15.8799 34.0503C16.6801 34.8037 17.7465 35.2089 18.8451 35.177C19.9437 35.1451 20.9848 34.6788 21.7399 33.8803L33.4299 21.5003C33.8042 21.1047 34.0967 20.6392 34.2908 20.1303C34.4848 19.6215 34.5766 19.0794 34.5608 18.535C34.545 17.9907 34.422 17.4548 34.1987 16.958C33.9755 16.4613 33.6565 16.0135 33.2599 15.6403L20.8899 4.00029C20.0897 3.24689 19.0234 2.84168 17.9248 2.87355C16.8262 2.90542 15.7851 3.37178 15.0299 4.1703L3.33992 16.5003Z" fill="#D0E0F4"/>
<path d="M34.2474 8.27097L25.073 17.9828C24.0338 19.0829 24.0832 20.817 25.1832 21.8562L34.8951 31.0306C35.9951 32.0698 37.7293 32.0204 38.7684 30.9204L47.9428 21.2085C48.982 20.1085 48.9327 18.3743 47.8326 17.3352L38.1208 8.16076C37.0207 7.12159 35.2865 7.17093 34.2474 8.27097Z" fill="#0BC3E4"/>
</svg>
