<svg width="2560" height="1336" viewBox="0 0 2560 1336" fill="none" xmlns="http://www.w3.org/2000/svg">
<path d="M387.129 1.2903C820.529 -22.6097 1022.83 293.19 1254.83 312.49C1472.43 330.59 1538.33 163.59 1732.13 163.59C1925.93 163.59 1929.73 259.99 2122.53 301.09C2288.63 336.49 2343.03 290.59 2459.53 396.59C2548.83 477.89 2532.53 697.79 2508.23 803.19C2482.43 914.89 2374.63 1097.19 2131.13 1097.19C1887.63 1097.19 1627.53 1016.19 1269.13 1042.79C664.929 1087.59 375.529 1347.59 222.929 1334.79C74.9285 1322.39 32.0285 1050.29 32.0285 741.09C32.0285 431.89 21.8286 21.3903 387.129 1.2903Z" fill="white"/>
</svg>
