<svg width="697" height="1284" viewBox="0 0 697 1284" fill="none" xmlns="http://www.w3.org/2000/svg">
<path d="M347.207 0.710449V6.63702V0.710449C218.148 149.306 133.614 331.289 103.311 525.761C73.0075 720.233 98.1648 919.309 175.893 1100.13L204.182 1165.79C248.649 1192.81 299.719 1207 351.748 1206.81C403.777 1206.61 454.739 1192.04 499.002 1164.69L526.738 1098.78C603.096 917.391 626.755 718.141 594.999 523.91C563.243 329.678 477.359 148.339 347.207 0.710449V0.710449Z" fill="#F9FAFD"/>
<path d="M169.49 1084.4C171.624 1089.62 173.678 1094.91 175.891 1100.21L204.101 1165.87C248.583 1192.89 299.665 1207.08 351.706 1206.88C403.747 1206.69 454.722 1192.11 499 1164.77L526.736 1098.86C528.948 1093.65 530.924 1088.35 533.057 1083.06C478.035 1115.5 415.378 1132.73 351.506 1132.98C287.634 1133.23 224.843 1116.49 169.569 1084.48L169.49 1084.4Z" fill="#1285A2"/>
<path d="M347.678 217.544C392.936 217.252 437.587 207.113 478.534 187.832C441.697 120.864 397.66 58.1186 347.204 0.710449V6.63701V0.710449C297 58.4573 253.303 121.553 216.901 188.859C257.589 207.628 301.843 217.411 346.651 217.544H347.678Z" fill="#5A9CD4"/>
<g style="mix-blend-mode:multiply">
<path d="M347.206 0.710449V6.63701V0.710449L344.914 3.39716L349.497 1206.81H351.789C403.844 1206.54 454.824 1191.97 499.159 1164.69L526.895 1098.78C603.232 917.377 626.866 718.118 595.081 523.886C563.297 329.654 477.384 148.322 347.206 0.710449V0.710449Z" fill="#DCDDE0"/>
</g>
<g style="mix-blend-mode:multiply">
<g style="mix-blend-mode:multiply">
<path d="M346.734 0V5.84754V0L344.442 2.68671C446.005 176.708 511.923 369.2 538.355 568.95C564.654 768.033 551.226 970.354 498.846 1164.21L526.265 1098.39C602.688 916.956 626.382 717.643 594.624 523.348C562.867 329.054 476.947 147.658 346.734 0V0Z" fill="#CACBCE"/>
</g>
</g>
<path d="M353.685 726.991C333.718 727.069 314.176 721.221 297.533 710.188C280.891 699.154 267.896 683.431 260.193 665.009C252.49 646.586 250.426 626.292 254.262 606.696C258.098 587.1 267.662 569.083 281.742 554.924C295.823 540.766 313.787 531.104 333.362 527.16C352.936 523.216 373.24 525.169 391.704 532.771C410.169 540.372 425.962 553.281 437.087 569.863C448.211 586.445 454.166 605.955 454.197 625.923C454.198 652.632 443.626 678.256 424.792 697.194C405.958 716.132 380.393 726.845 353.685 726.991Z" fill="#281C4B"/>
<path d="M352.975 537.342C370.553 537.28 387.756 542.431 402.408 552.144C417.059 561.856 428.503 575.695 435.291 591.911C442.079 608.126 443.908 625.99 440.545 643.245C437.183 660.499 428.78 676.369 416.4 688.849C404.02 701.329 388.218 709.858 370.991 713.359C353.765 716.859 335.887 715.173 319.618 708.515C303.349 701.856 289.42 690.524 279.59 675.95C269.761 661.376 264.473 644.215 264.395 626.636C264.332 614.952 266.576 603.371 270.996 592.555C275.417 581.74 281.928 571.903 290.157 563.608C298.385 555.313 308.17 548.724 318.949 544.216C329.728 539.709 341.291 537.373 352.975 537.342V537.342ZM352.975 513.636C330.625 513.699 308.797 520.393 290.254 532.871C271.711 545.348 257.289 563.048 248.812 583.728C240.335 604.409 238.186 627.14 242.636 649.043C247.087 670.945 257.937 691.035 273.813 706.766C289.688 722.498 309.875 733.165 331.817 737.416C353.759 741.667 376.469 739.311 397.071 730.646C417.672 721.981 435.24 707.397 447.547 688.741C459.855 670.085 466.35 648.196 466.209 625.846C465.98 595.965 453.933 567.39 432.7 546.365C411.468 525.339 382.777 513.572 352.896 513.636H352.975Z" fill="#1285A2"/>
<path d="M288.888 626.951C288.732 614.28 292.34 601.847 299.257 591.228C306.173 580.61 316.086 572.283 327.739 567.304C339.392 562.324 352.261 560.916 364.715 563.258C377.169 565.6 388.648 571.585 397.697 580.457C406.746 589.329 412.957 600.687 415.545 613.093C418.133 625.498 416.98 638.393 412.232 650.142C407.485 661.892 399.356 671.968 388.877 679.093C378.398 686.219 366.039 690.073 353.367 690.168C336.446 690.294 320.163 683.715 308.08 671.868C295.997 660.022 289.096 643.872 288.888 626.951V626.951Z" fill="url(#paint0_linear)"/>
<path d="M358.187 460.928C347.078 460.959 336.21 457.696 326.955 451.552C317.701 445.408 310.475 436.658 306.192 426.408C301.908 416.159 300.759 404.869 302.89 393.967C305.021 383.064 310.336 373.038 318.163 365.156C325.99 357.273 335.978 351.888 346.865 349.68C357.752 347.473 369.049 348.543 379.328 352.754C389.608 356.965 398.408 364.13 404.617 373.341C410.826 382.553 414.164 393.398 414.211 404.507C414.253 419.415 408.377 433.73 397.872 444.309C387.368 454.888 373.095 460.865 358.187 460.928V460.928Z" fill="#281C4B"/>
<path d="M357.798 355.594C367.604 355.61 377.184 358.535 385.326 363.999C393.469 369.464 399.806 377.221 403.537 386.29C407.268 395.358 408.224 405.33 406.284 414.942C404.344 424.554 399.596 433.375 392.64 440.286C385.684 447.198 376.834 451.89 367.209 453.769C357.585 455.647 347.62 454.628 338.576 450.839C329.531 447.05 321.815 440.663 316.403 432.486C310.991 424.308 308.127 414.709 308.174 404.903C308.237 391.79 313.495 379.237 322.797 369.994C332.099 360.751 344.685 355.573 357.798 355.594V355.594ZM357.798 342.24C345.272 342.24 333.028 345.962 322.62 352.933C312.213 359.904 304.111 369.81 299.344 381.394C294.576 392.978 293.356 405.717 295.841 417.994C298.325 430.272 304.401 441.535 313.297 450.353C322.193 459.172 333.509 465.149 345.808 467.525C358.106 469.902 370.834 468.57 382.375 463.701C393.916 458.831 403.75 450.642 410.629 440.174C417.509 429.706 421.123 417.429 421.013 404.903C420.867 388.233 414.143 372.296 402.303 360.559C390.464 348.823 374.468 342.239 357.798 342.24V342.24Z" fill="#1285A2"/>
<path d="M322.158 405.139C322.111 398.091 324.156 391.187 328.033 385.3C331.909 379.414 337.445 374.809 343.939 372.069C350.432 369.328 357.593 368.575 364.515 369.904C371.437 371.233 377.809 374.585 382.826 379.536C387.843 384.487 391.28 390.814 392.701 397.718C394.122 404.622 393.464 411.792 390.81 418.322C388.156 424.851 383.625 430.448 377.791 434.403C371.957 438.358 365.081 440.494 358.033 440.541C353.353 440.572 348.712 439.681 344.377 437.919C340.041 436.157 336.095 433.558 332.763 430.27C329.432 426.983 326.781 423.072 324.961 418.76C323.142 414.448 322.189 409.819 322.158 405.139V405.139Z" fill="url(#paint1_linear)"/>
<path d="M347.678 909.372C336.541 909.545 325.604 906.402 316.257 900.345C306.909 894.288 299.573 885.588 295.18 875.352C290.788 865.116 289.537 853.806 291.586 842.857C293.636 831.909 298.893 821.816 306.691 813.862C314.489 805.909 324.475 800.452 335.38 798.186C346.286 795.92 357.619 796.947 367.94 801.136C378.26 805.325 387.103 812.488 393.344 821.714C399.585 830.94 402.943 841.813 402.992 852.951C403.035 867.738 397.256 881.947 386.905 892.505C376.554 903.064 362.462 909.123 347.678 909.372V909.372Z" fill="#281C4B"/>
<path d="M346.894 803.642C356.692 803.595 366.285 806.456 374.459 811.861C382.632 817.266 389.019 824.973 392.812 834.009C396.606 843.044 397.634 853.001 395.769 862.621C393.903 872.241 389.227 881.092 382.331 888.054C375.435 895.016 366.63 899.777 357.028 901.735C347.427 903.693 337.46 902.759 328.389 899.053C319.319 895.346 311.55 889.033 306.067 880.911C300.584 872.79 297.633 863.225 297.586 853.425C297.544 840.299 302.712 827.692 311.957 818.372C321.202 809.053 333.767 803.784 346.894 803.721V803.642ZM346.894 790.367C334.367 790.367 322.124 794.089 311.716 801.06C301.309 808.031 293.207 817.937 288.439 829.521C283.671 841.105 282.452 853.844 284.936 866.121C287.421 878.399 293.497 889.662 302.393 898.48C311.289 907.299 322.605 913.276 334.903 915.652C347.202 918.029 359.93 916.697 371.471 911.828C383.012 906.958 392.846 898.77 399.725 888.301C406.604 877.833 410.218 865.556 410.109 853.03C409.963 836.36 403.238 820.423 391.399 808.686C379.56 796.95 363.564 790.366 346.894 790.367V790.367Z" fill="#1285A2"/>
<path d="M311.254 853.425C311.207 846.376 313.251 839.472 317.128 833.586C321.005 827.699 326.54 823.094 333.034 820.354C339.528 817.613 346.689 816.86 353.611 818.189C360.533 819.518 366.905 822.87 371.922 827.821C376.939 832.772 380.375 839.099 381.796 846.003C383.217 852.907 382.559 860.077 379.906 866.607C377.252 873.137 372.721 878.733 366.887 882.688C361.053 886.643 354.177 888.779 347.128 888.826C342.448 888.857 337.808 887.966 333.472 886.204C329.137 884.442 325.19 881.843 321.859 878.556C318.528 875.268 315.877 871.357 314.057 867.045C312.237 862.733 311.285 858.105 311.254 853.425V853.425Z" fill="url(#paint2_linear)"/>
<path d="M159.853 1061.17C143.919 1015.94 130.517 969.848 119.711 923.122C107.242 868.924 98.3459 813.965 93.0816 758.601C76.1188 790.209 59.1034 822.081 42.0353 854.216C1.19404 930.727 -10.3794 1019.5 9.4794 1103.92L48.9889 1272.71L159.853 1061.17Z" fill="#5A9CD4"/>
<g style="mix-blend-mode:multiply">
<g style="mix-blend-mode:multiply">
<path d="M154.402 1049.95C125.003 966.471 105.846 879.73 97.3501 791.632L53.7316 873.34C18.8507 938.72 8.99031 1014.57 25.9959 1086.7L59.9741 1230.91L154.402 1049.95Z" fill="#DCDDE0"/>
</g>
</g>
<path d="M535.509 1070.26C552.211 1025.32 566.352 979.462 577.863 932.919C591.265 878.997 601.085 824.248 607.258 769.03C623.799 801.218 640.288 833.353 656.724 865.435C696.324 942.622 706.41 1031.6 685.092 1115.69L642.501 1283.77L535.509 1070.26Z" fill="#5A9CD4"/>
<g style="mix-blend-mode:multiply">
<g style="mix-blend-mode:multiply">
<path d="M544.043 1053.03C558.919 1013 571.529 972.158 581.814 930.706C593.892 882.668 602.788 833.885 608.443 784.676L652.457 870.571C687.745 939.32 696.736 1018.58 677.743 1093.49L639.814 1243.63L544.043 1053.03Z" fill="#DCDDE0"/>
</g>
</g>
<defs>
<linearGradient id="paint0_linear" x1="351.331" y1="497.361" x2="352.716" y2="700.914" gradientUnits="userSpaceOnUse">
<stop stop-color="white"/>
<stop offset="0.07" stop-color="white" stop-opacity="0.85"/>
<stop offset="0.21" stop-color="white" stop-opacity="0.6"/>
<stop offset="0.35" stop-color="white" stop-opacity="0.38"/>
<stop offset="0.47" stop-color="white" stop-opacity="0.22"/>
<stop offset="0.58" stop-color="white" stop-opacity="0.1"/>
<stop offset="0.68" stop-color="white" stop-opacity="0.03"/>
<stop offset="0.74" stop-color="white" stop-opacity="0"/>
</linearGradient>
<linearGradient id="paint1_linear" x1="-74097.7" y1="-148682" x2="-74097.7" y2="-147660" gradientUnits="userSpaceOnUse">
<stop stop-color="white"/>
<stop offset="0.07" stop-color="white" stop-opacity="0.85"/>
<stop offset="0.21" stop-color="white" stop-opacity="0.6"/>
<stop offset="0.35" stop-color="white" stop-opacity="0.38"/>
<stop offset="0.47" stop-color="white" stop-opacity="0.22"/>
<stop offset="0.58" stop-color="white" stop-opacity="0.1"/>
<stop offset="0.68" stop-color="white" stop-opacity="0.03"/>
<stop offset="0.74" stop-color="white" stop-opacity="0"/>
</linearGradient>
<linearGradient id="paint2_linear" x1="-74234.8" y1="-144190" x2="-74234.8" y2="-143167" gradientUnits="userSpaceOnUse">
<stop stop-color="white"/>
<stop offset="0.07" stop-color="white" stop-opacity="0.85"/>
<stop offset="0.21" stop-color="white" stop-opacity="0.6"/>
<stop offset="0.35" stop-color="white" stop-opacity="0.38"/>
<stop offset="0.47" stop-color="white" stop-opacity="0.22"/>
<stop offset="0.58" stop-color="white" stop-opacity="0.1"/>
<stop offset="0.68" stop-color="white" stop-opacity="0.03"/>
<stop offset="0.74" stop-color="white" stop-opacity="0"/>
</linearGradient>
</defs>
</svg>
