<svg width="638" height="259" viewBox="0 0 638 259" fill="none" xmlns="http://www.w3.org/2000/svg">
<path d="M494.48 229.27C495.847 236.857 496.184 244.594 495.48 252.27H492.92C492.884 247.65 492.55 243.037 491.92 238.46C491.92 238.46 491.04 248.46 488.72 250.72C486.4 252.98 480.85 254.07 475.42 253.28C469.99 252.49 478.71 241.42 478.71 241.42L490 228.54C490 228.54 493.35 225.37 494.48 229.27Z" fill="url(#paint0_linear)"/>
<path d="M480.851 168.891C480.851 168.891 483.051 215.731 482.851 229.271C482.851 229.271 478.741 241.801 475.851 246.651C475.851 246.651 482.341 249.031 485.271 244.461C488.201 239.891 490.911 231.001 491.651 230.001C492.391 229.001 494.481 229.271 494.481 229.271C494.481 229.271 494.481 217.321 495.671 201.211C496.861 185.101 493.951 173.891 493.461 168.891H480.851Z" fill="url(#paint1_linear)"/>
<path d="M475.43 172.12C477.13 191.61 480.83 209.66 481.57 225.3C481.57 225.3 483.49 226.04 490.26 225.97C492.05 225.97 494.17 225.89 496.68 225.73C496.68 225.73 499.75 177.33 494.79 162.13L505.15 126.79C505.15 126.79 505.53 121.1 505.29 114.73C505.1 109.73 504.54 104.39 503.14 100.98L483.14 97.9805C483.14 97.9805 473.74 152.63 475.43 172.12Z" fill="url(#paint2_linear)"/>
<g style="mix-blend-mode:multiply" opacity="0.18">
<path d="M490.26 226.001C492.05 226.001 494.17 225.921 496.68 225.761C496.68 225.761 499.75 177.361 494.79 162.161L505.15 126.821C505.15 126.821 505.53 121.131 505.29 114.761L500.9 108.101C500.9 108.101 500.82 121.101 490.55 139.391C480.28 157.681 487.12 159.681 490.55 176.231C493.43 190.081 491.09 217.481 490.26 226.001Z" fill="#6297EB"/>
</g>
<path d="M524.2 229.27C525.561 236.858 525.898 244.593 525.2 252.27H522.63C522.591 247.65 522.257 243.038 521.63 238.46C521.63 238.46 520.74 248.46 518.43 250.72C516.12 252.98 510.56 254.07 505.13 253.28C499.7 252.49 508.42 241.42 508.42 241.42L519.71 228.58C519.71 228.58 523.07 225.37 524.2 229.27Z" fill="url(#paint3_linear)"/>
<path d="M510.57 168.891C510.57 168.891 512.76 215.731 512.57 229.271C512.57 229.271 508.45 241.801 505.57 246.651C505.57 246.651 512.06 249.031 514.99 244.461C517.92 239.891 520.63 231.001 521.36 230.001C522.09 229.001 524.2 229.271 524.2 229.271C524.2 229.271 524.2 217.321 525.39 201.211C526.58 185.101 523.67 173.891 523.18 168.891H510.57Z" fill="url(#paint4_linear)"/>
<path d="M500.9 102.8C500.9 102.8 503.45 152.63 505.15 172.12C506.85 191.61 510.55 209.66 511.29 225.3C511.29 225.3 514.35 226.49 526.39 225.73C526.39 225.73 529.47 177.33 524.51 162.13V161.95C524.516 161.88 524.516 161.81 524.51 161.74V161.45C524.51 161.39 524.51 161.31 524.51 161.23L527.34 130C527.34 130 528.83 116.66 527.08 108.11C526.858 106.953 526.523 105.821 526.08 104.73L500.9 102.8Z" fill="url(#paint5_linear)"/>
<g style="mix-blend-mode:multiply" opacity="0.18">
<path d="M521 129.14C525.87 139.85 524.87 157.14 524.55 161.23L527.34 130C527.34 130 528.83 116.66 527.08 108.11H515.65C515.65 108.11 515.47 116.94 521 129.14Z" fill="#6297EB"/>
</g>
<path d="M466 60.6005C465.3 63.0305 463.14 67.4805 456.39 70.4705C452.573 64.1855 449.124 57.6846 446.06 51.0005C446.06 51.0005 437.7 48.0005 435.27 42.0005C432.84 36.0005 436.86 32.4805 438.45 34.7405C440.04 37.0005 449.65 41.7405 449.65 41.7405C449.65 41.7405 448.59 32.9905 451.28 36.8405C453.97 40.6905 454.08 47.4405 454.08 47.4405C455.8 50.0005 462.08 56.5505 466 60.6005Z" fill="url(#paint6_linear)"/>
<path d="M490.001 45.3999C490.001 45.3999 485.221 44.9799 479.631 52.3999C476.718 56.4199 473.322 60.0672 469.521 63.2599L465.181 58.8299L451.891 70.9999C451.891 70.9999 463.051 81.1499 469.761 79.8199C476.471 78.4899 483.001 70.6299 483.001 70.6299L490.001 45.3999Z" fill="url(#paint7_linear)"/>
<path d="M506.41 6.83068C506.41 6.83068 506.69 2.32068 512.28 1.04068C517.87 -0.239325 524.34 5.49068 524.71 13.1707C525.08 20.8507 520.44 29.1707 521.6 32.6907C522.76 36.2107 525.44 34.4607 525.44 34.4607C525.44 34.4607 524.18 39.4607 517.06 40.2007C509.94 40.9407 507.06 33.5507 507.06 33.5507L506.41 6.83068Z" fill="url(#paint8_linear)"/>
<path d="M507.5 6.6099C507.5 6.6099 510.14 6.12991 513.88 8.73991C517.11 10.9899 518.25 18.3699 515.57 22.3399C512.89 26.3099 507.5 6.6099 507.5 6.6099Z" fill="url(#paint9_linear)"/>
<path d="M492 27.4998C492 27.4998 488.11 24.0298 487.26 19.3998C486.41 14.7698 489.63 14.1498 489.63 14.1498C489.63 14.1498 490.12 6.70979 496.22 5.14979C502.32 3.58979 512.33 6.14981 515.07 15.7098C517.81 25.2698 510.37 36.4698 510.37 36.4698L492 27.4998Z" fill="url(#paint10_linear)"/>
<path d="M525.601 102.89C519.366 105.993 512.556 107.77 505.601 108.11C491.751 108.7 482.601 102.89 482.601 102.89C482.601 102.89 484.651 87.5001 484.021 78.9901C483.311 69.2101 483.961 68.4301 485.201 63.9901C486.441 59.5501 486.851 47.1101 488.911 45.6501C490.971 44.1901 496.021 43.3801 496.021 43.3801C502.416 42.782 508.857 42.8793 515.231 43.6701C525.871 44.9801 527.751 47.4301 527.751 47.4301C527.751 47.4301 525.351 60.1401 523.371 68.3001C522.771 70.7801 522.271 72.8401 522.001 74.0301C520.881 79.1801 525.601 102.89 525.601 102.89Z" fill="url(#paint11_linear)"/>
<path d="M516.4 43.8698C516.4 43.8698 513.17 48.2698 509.4 52.9298C505.81 57.4098 501.93 61.8798 500.52 62.2098C499.11 62.5398 497.79 57.9298 496.82 53.1498C495.85 48.3698 495.16 43.6098 495.16 43.6098C495.921 43.4251 496.698 43.3113 497.48 43.2698V43.2698C497.815 43.3011 498.152 43.266 498.473 43.1664C498.794 43.0669 499.092 42.9049 499.35 42.6898C500.09 41.6898 498.62 36.8998 498.62 36.8998L511.43 29.5498C511.43 29.5498 511.43 29.6398 511.43 29.7898C511.37 31.5098 511.02 41.8498 511.87 42.6298C512.72 43.4098 516.4 43.8698 516.4 43.8698Z" fill="url(#paint12_linear)"/>
<g style="mix-blend-mode:multiply" opacity="0.5">
<path d="M511.47 29.5498C511.47 29.5498 511.47 29.6398 511.47 29.7898C511.34 31.7898 510.01 45.1998 497.53 43.2698C497.865 43.3011 498.202 43.266 498.523 43.1664C498.844 43.0669 499.142 42.9049 499.4 42.6898C500.14 41.6898 498.67 36.8998 498.67 36.8998L511.47 29.5498Z" fill="#FF856A"/>
</g>
<path d="M490.55 16.7704C490.55 16.7704 492.2 38.9704 497.99 40.0704C503.78 41.1704 511.35 34.9204 511.47 29.5504C511.47 29.5504 513.79 28.9704 513.88 25.5504C513.97 22.1304 509.18 21.4904 509.49 27.5504C508.424 26.5412 507.632 25.2773 507.19 23.8777C506.747 22.4782 506.668 20.989 506.96 19.5504C505.556 20.5948 503.85 21.1538 502.1 21.143C500.35 21.1322 498.651 20.5521 497.26 19.4904C492.08 15.8604 490.55 16.7704 490.55 16.7704Z" fill="url(#paint13_linear)"/>
<path d="M509.431 52.9307C505.841 57.4107 501.961 61.8807 500.551 62.2107C499.141 62.5407 497.821 57.9307 496.851 53.1507C500.932 54.603 505.402 54.5248 509.431 52.9307V52.9307Z" fill="url(#paint14_linear)"/>
<path d="M503.44 105.69C503.439 107.91 503.797 110.115 504.5 112.22C506.12 116.08 529.59 113.51 529.59 113.51L523.25 80.9105L526.61 63.3405L526.82 62.2305L527.82 47.4805C527.82 47.4805 523.33 43.9905 513.89 43.4805C509.479 54.6547 506.544 66.3568 505.16 78.2905C503.73 91.0005 503.2 99.9305 503.44 105.69Z" fill="url(#paint15_linear)"/>
<g style="mix-blend-mode:multiply" opacity="0.25">
<path d="M503.44 105.69C503.439 107.909 503.797 110.115 504.5 112.22C506.12 116.08 529.59 113.51 529.59 113.51L523.25 80.9097L526.61 63.3397C524.78 59.2497 522.97 56.6097 521.31 56.4697C521.31 56.4697 517.9 70.4697 518.47 81.3097C519 91.8697 518 99.9997 503.44 105.69Z" fill="#7172F6"/>
</g>
<path d="M497.22 43.29C497.22 43.29 495.02 65.7001 494.22 78.8901C493.42 92.0801 494.97 107.62 493.36 110.51C491.75 113.4 478.16 111.01 478.16 111.01C478.16 111.01 484.16 87.38 484.16 84.06C484.16 80.74 483 71.32 483.64 66.23C484.28 61.14 487.44 48.29 488.46 46.28C489.48 44.27 497.22 43.29 497.22 43.29Z" fill="url(#paint16_linear)"/>
<path d="M509.701 104.87C512.728 103.724 515.956 103.2 519.191 103.33C519.191 103.33 531.93 81.9401 532.67 77.6101L530.251 67.8201C530.251 67.8201 522.251 59.9801 524.511 53.5801C526.771 47.1801 525.831 44.3301 531.341 51.8401C536.851 59.3501 541.551 82.0001 540.811 86.0001C540.071 90.0001 531.991 100.85 524.431 107.4C524.341 107.58 523.261 110.46 521.431 111.11C517.991 112.32 515.291 111.85 511.521 113.16C510.341 113.57 509.471 112.25 508.801 110.77C507.821 108.77 507.781 105.7 509.701 104.87Z" fill="url(#paint17_linear)"/>
<path d="M529.59 77.6097C529.59 77.6097 518.26 56.9697 521.68 50.2197C525.1 43.4697 529.82 45.5097 535.28 57.0797C540.74 68.6497 544.28 78.8197 544.28 83.2097C544.28 87.5997 536.67 101 536.67 101C536.67 101 527.24 96.5997 523.87 93.3897L529.59 77.6097Z" fill="url(#paint18_linear)"/>
<path d="M634.51 252.63H3.48016C1.78464 252.63 0.410156 254.004 0.410156 255.7C0.410156 257.395 1.78464 258.77 3.48016 258.77H634.51C636.206 258.77 637.58 257.395 637.58 255.7C637.58 254.004 636.206 252.63 634.51 252.63Z" fill="#D0E0F4"/>
<defs>
<linearGradient id="paint0_linear" x1="20629.4" y1="11246.8" x2="20136.6" y2="11246.8" gradientUnits="userSpaceOnUse">
<stop stop-color="#EB5896"/>
<stop offset="1" stop-color="#F988B7"/>
</linearGradient>
<linearGradient id="paint1_linear" x1="495.961" y1="208.081" x2="475.911" y2="208.081" gradientUnits="userSpaceOnUse">
<stop stop-color="#FFA290"/>
<stop offset="1" stop-color="#FECBA6"/>
</linearGradient>
<linearGradient id="paint2_linear" x1="28659.1" y1="43867" x2="27750.6" y2="43867" gradientUnits="userSpaceOnUse">
<stop stop-color="#567FE3"/>
<stop offset="1" stop-color="#81D8FF"/>
</linearGradient>
<linearGradient id="paint3_linear" x1="21265.4" y1="11241.4" x2="20772.5" y2="11241.4" gradientUnits="userSpaceOnUse">
<stop stop-color="#EB5896"/>
<stop offset="1" stop-color="#F988B7"/>
</linearGradient>
<linearGradient id="paint4_linear" x1="-19690.6" y1="30586.4" x2="-19287.4" y2="30586.4" gradientUnits="userSpaceOnUse">
<stop stop-color="#FFA290"/>
<stop offset="1" stop-color="#FECBA6"/>
</linearGradient>
<linearGradient id="paint5_linear" x1="26181" y1="42526" x2="25450.4" y2="42526" gradientUnits="userSpaceOnUse">
<stop stop-color="#567FE3"/>
<stop offset="1" stop-color="#81D8FF"/>
</linearGradient>
<linearGradient id="paint6_linear" x1="-29323.8" y1="8492.17" x2="-28331.5" y2="8492.17" gradientUnits="userSpaceOnUse">
<stop stop-color="#FFA290"/>
<stop offset="1" stop-color="#FECBA6"/>
</linearGradient>
<linearGradient id="paint7_linear" x1="489.981" y1="62.6599" x2="451.891" y2="62.6599" gradientUnits="userSpaceOnUse">
<stop offset="0.01" stop-color="#5265F7"/>
<stop offset="0.41" stop-color="#7674F5"/>
<stop offset="1" stop-color="#B18DF3"/>
</linearGradient>
<linearGradient id="paint8_linear" x1="11209.1" y1="7900.81" x2="11571.2" y2="7900.81" gradientUnits="userSpaceOnUse">
<stop stop-color="#EB5896"/>
<stop offset="1" stop-color="#F988B7"/>
</linearGradient>
<linearGradient id="paint9_linear" x1="8484.69" y1="3179.18" x2="8393.24" y2="3179.18" gradientUnits="userSpaceOnUse">
<stop stop-color="#F7B345"/>
<stop offset="1" stop-color="#FEDB58"/>
</linearGradient>
<linearGradient id="paint10_linear" x1="16581.5" y1="6911.84" x2="16212.4" y2="5878.46" gradientUnits="userSpaceOnUse">
<stop stop-color="#EB5896"/>
<stop offset="1" stop-color="#F988B7"/>
</linearGradient>
<linearGradient id="paint11_linear" x1="43525.7" y1="18760.9" x2="43205.1" y2="15785.4" gradientUnits="userSpaceOnUse">
<stop stop-color="#BBD6FE"/>
<stop offset="0.08" stop-color="#C2DAFE"/>
<stop offset="0.45" stop-color="#DFECFE"/>
<stop offset="0.77" stop-color="#F1F6FE"/>
<stop offset="1" stop-color="#F7FAFE"/>
</linearGradient>
<linearGradient id="paint12_linear" x1="-20423.5" y1="7208.3" x2="-20380.9" y2="7953.55" gradientUnits="userSpaceOnUse">
<stop stop-color="#FFA290"/>
<stop offset="1" stop-color="#FECBA6"/>
</linearGradient>
<linearGradient id="paint13_linear" x1="-22617.4" y1="5151.56" x2="-22288" y2="4818.35" gradientUnits="userSpaceOnUse">
<stop stop-color="#FFA290"/>
<stop offset="1" stop-color="#FECBA6"/>
</linearGradient>
<linearGradient id="paint14_linear" x1="11330.2" y1="2311.76" x2="11326.3" y2="2224.04" gradientUnits="userSpaceOnUse">
<stop stop-color="#36BBAF"/>
<stop offset="1" stop-color="#7EE9B8"/>
</linearGradient>
<linearGradient id="paint15_linear" x1="15678" y1="20418.1" x2="13367.8" y2="17020.5" gradientUnits="userSpaceOnUse">
<stop offset="0.01" stop-color="#5265F7"/>
<stop offset="0.41" stop-color="#7674F5"/>
<stop offset="1" stop-color="#B18DF3"/>
</linearGradient>
<linearGradient id="paint16_linear" x1="11018.1" y1="20229.3" x2="8623.5" y2="17585.1" gradientUnits="userSpaceOnUse">
<stop offset="0.01" stop-color="#5265F7"/>
<stop offset="0.41" stop-color="#7674F5"/>
<stop offset="1" stop-color="#B18DF3"/>
</linearGradient>
<linearGradient id="paint17_linear" x1="-32889.8" y1="17195.4" x2="-31816.6" y2="17195.4" gradientUnits="userSpaceOnUse">
<stop stop-color="#FFA290"/>
<stop offset="1" stop-color="#FECBA6"/>
</linearGradient>
<linearGradient id="paint18_linear" x1="14331.3" y1="15544.5" x2="12654.5" y2="12705.3" gradientUnits="userSpaceOnUse">
<stop offset="0.01" stop-color="#5265F7"/>
<stop offset="0.41" stop-color="#7674F5"/>
<stop offset="1" stop-color="#B18DF3"/>
</linearGradient>
</defs>
</svg>
